<svg width="127" height="53" viewBox="0 0 127 53" fill="none" xmlns="http://www.w3.org/2000/svg">
<g clip-path="url(#clip0_1_2)">
<path d="M52.4148 39.2499C52.7757 38.634 53 37.9399 53 37.3167V15.6831C53 15.0599 52.776 14.366 52.4149 13.7501L30 26.5L52.4148 39.2499Z" fill="#00599C"/>
<path d="M31.9918 51.5324L51.0082 40.7157C51.556 40.4041 52.0538 39.866 52.4148 39.2499L30 26.5L7.58522 39.2501C7.94615 39.866 8.44419 40.4043 8.99183 40.7157L28.0082 51.5324C29.1036 52.1557 30.8964 52.1557 31.9918 51.5324Z" fill="#004482"/>
<path d="M52.4149 13.7499C52.0538 13.1338 51.5558 12.5957 51.0082 12.2841L31.9918 1.46742C30.8964 0.844193 29.1036 0.844193 28.0082 1.46742L8.99183 12.2841C7.89625 12.9072 7 14.4368 7 15.6831V37.3167C7 37.9399 7.22414 38.634 7.58522 39.2499L30 26.5L52.4149 13.7499Z" fill="#659AD2"/>
<path d="M30 41.6067C21.5452 41.6067 14.6667 34.8299 14.6667 26.5C14.6667 18.1701 21.5452 11.3933 30 11.3933C35.4557 11.3933 40.5438 14.2858 43.2785 18.9419L36.6426 22.7251C35.2739 20.3945 32.7284 18.9466 30 18.9466C25.7725 18.9466 22.3333 22.335 22.3333 26.5C22.3333 30.6649 25.7725 34.0534 30 34.0534C32.7287 34.0534 35.2742 32.6055 36.6431 30.2745L43.279 34.0575C40.5442 38.7141 35.456 41.6067 30 41.6067Z" fill="white"/>
<path d="M45.3333 25.6607H43.6295V23.9822H41.926V25.6607H40.2222V27.3392H41.926V29.0178H43.6295V27.3392H45.3333V25.6607Z" fill="white"/>
<path d="M51.7222 25.6607H50.0184V23.9822H48.3149V25.6607H46.6111V27.3392H48.3149V29.0178H50.0184V27.3392H51.7222V25.6607Z" fill="white"/>
</g>
<path d="M73.4639 38.332C71.5049 38.332 69.8005 38.0221 68.3506 37.4023C66.9007 36.7826 65.6999 35.9193 64.748 34.8125C63.7962 33.6947 63.0879 32.3721 62.623 30.8447C62.1582 29.3174 61.9258 27.6406 61.9258 25.8145C61.9258 23.9329 62.1582 22.234 62.623 20.7178C63.0879 19.2015 63.7852 17.9121 64.7148 16.8496C65.6556 15.7871 66.8343 14.9681 68.251 14.3926C69.6676 13.8171 71.3278 13.5293 73.2314 13.5293C74.6924 13.5293 75.9596 13.7008 77.0332 14.0439C78.1068 14.376 79.0309 14.8242 79.8057 15.3887C80.5804 15.9421 81.2334 16.584 81.7646 17.3145C82.2959 18.0339 82.7441 18.7865 83.1094 19.5723L79.6895 20.8174C79.457 20.3083 79.1637 19.7992 78.8096 19.29C78.4554 18.7809 78.0238 18.3271 77.5146 17.9287C77.0055 17.5192 76.4023 17.1927 75.7051 16.9492C75.0078 16.6947 74.2054 16.5674 73.2979 16.5674C71.9808 16.5674 70.8464 16.7887 69.8945 17.2314C68.9538 17.6742 68.179 18.2995 67.5703 19.1074C66.9727 19.9043 66.5299 20.8727 66.2422 22.0127C65.9544 23.1527 65.8105 24.4199 65.8105 25.8145C65.8105 27.1979 65.9655 28.4707 66.2754 29.6328C66.5964 30.7949 67.0723 31.7965 67.7031 32.6377C68.3451 33.4788 69.1419 34.1318 70.0938 34.5967C71.0566 35.0615 72.18 35.2939 73.4639 35.2939C74.3936 35.2939 75.2181 35.1445 75.9375 34.8457C76.6569 34.5469 77.2878 34.165 77.8301 33.7002C78.3724 33.2354 78.8317 32.7207 79.208 32.1562C79.5954 31.5807 79.9108 31.0163 80.1543 30.4629L83.5244 31.8574C83.126 32.6654 82.6501 33.4567 82.0967 34.2314C81.5544 35.0062 80.8848 35.6979 80.0879 36.3066C79.3021 36.9154 78.3669 37.4079 77.2822 37.7842C76.1976 38.1494 74.9248 38.332 73.4639 38.332Z" fill="black"/>
<path d="M96.3408 27.8066V35.1279H93.4023V27.8066H86.1807V24.9014H93.4023V17.5137H96.3408V24.9014H103.562V27.8066H96.3408Z" fill="black"/>
<path d="M116.163 27.8066V35.1279H113.225V27.8066H106.003V24.9014H113.225V17.5137H116.163V24.9014H123.385V27.8066H116.163Z" fill="black"/>
<defs>
<clipPath id="clip0_1_2">
<rect width="46" height="51" fill="white" transform="translate(7 1)"/>
</clipPath>
</defs>
</svg>
