<svg xmlns="http://www.w3.org/2000/svg" xmlns:xlink="http://www.w3.org/1999/xlink" fill="none" version="1.1" width="782" height="425" viewBox="0 0 782 425"><defs><linearGradient x1="0.11629636585712433" y1="0.1611124724149704" x2="1" y2="0.8574082851409912" id="master_svg0_2166_03804"><stop offset="0%" stop-color="#FFF4F0" stop-opacity="0"/><stop offset="100.00001192092896%" stop-color="#FFF4F0" stop-opacity="1"/></linearGradient><linearGradient x1="0.11629636585712433" y1="0.1611124724149704" x2="1" y2="0.8574082851409912" id="master_svg1_2166_03804"><stop offset="0%" stop-color="#FFF4F0" stop-opacity="0"/><stop offset="100.00001192092896%" stop-color="#FFF4F0" stop-opacity="1"/></linearGradient><mask id="master_svg2_2184_1510"><g><path d="M454.9454116821289,158.4154815673828L479.4527116821289,158.4154815673828L479.4527116821289,164.06135156738281L454.9454116821289,164.06135156738281L454.9454116821289,158.4154815673828Z" fill="#FFFFFF" fill-opacity="1"/></g></mask><mask id="master_svg3_2184_1489"><g><path d="M505.9306411743164,178.24927711486816L528.6053411743164,178.24927711486816L528.6053411743164,216.42507711486817L505.9306411743164,216.42507711486817L505.9306411743164,178.24927711486816Z" fill="#FFFFFF" fill-opacity="1"/></g></mask><linearGradient x1="0.11629636585712433" y1="0.1611124724149704" x2="1" y2="0.8574082851409912" id="master_svg4_2166_03804"><stop offset="0%" stop-color="#FFF4F0" stop-opacity="0"/><stop offset="100.00001192092896%" stop-color="#FFF4F0" stop-opacity="1"/></linearGradient><linearGradient x1="0.11629636585712433" y1="0.1611124724149704" x2="1" y2="0.8574082851409912" id="master_svg5_2166_03804"><stop offset="0%" stop-color="#FFF4F0" stop-opacity="0"/><stop offset="100.00001192092896%" stop-color="#FFF4F0" stop-opacity="1"/></linearGradient><linearGradient x1="0.11629636585712433" y1="0.1611124724149704" x2="1" y2="0.8574082851409912" id="master_svg6_2166_03804"><stop offset="0%" stop-color="#FFF4F0" stop-opacity="0"/><stop offset="100.00001192092896%" stop-color="#FFF4F0" stop-opacity="1"/></linearGradient><filter id="master_svg7_2184_04782" filterUnits="objectBoundingBox" color-interpolation-filters="sRGB" x="-1" y="0" width="16.133237838745117" height="29.945114135742188"><feFlood flood-opacity="0" result="BackgroundImageFix"/><feColorMatrix in="SourceAlpha" type="matrix" values="0 0 0 0 0 0 0 0 0 0 0 0 0 0 0 0 0 0 127 0"/><feOffset dy="1" dx="-1"/><feGaussianBlur stdDeviation="0"/><feColorMatrix type="matrix" values="0 0 0 0 1 0 0 0 0 0.8588235378265381 0 0 0 0 0.800000011920929 0 0 0 1 0"/><feBlend mode="normal" in2="BackgroundImageFix" result="effect1_dropShadow"/><feBlend mode="normal" in="SourceGraphic" in2="effect1_dropShadow" result="shape"/></filter><linearGradient x1="0.11629636585712433" y1="0.1611124724149704" x2="1" y2="0.8574082851409912" id="master_svg8_2166_03804"><stop offset="0%" stop-color="#FFF4F0" stop-opacity="0"/><stop offset="100.00001192092896%" stop-color="#FFF4F0" stop-opacity="1"/></linearGradient><filter id="master_svg9_2184_04832" filterUnits="objectBoundingBox" color-interpolation-filters="sRGB" x="-1" y="0" width="15.016839027404785" height="27.80779457092285"><feFlood flood-opacity="0" result="BackgroundImageFix"/><feColorMatrix in="SourceAlpha" type="matrix" values="0 0 0 0 0 0 0 0 0 0 0 0 0 0 0 0 0 0 127 0"/><feOffset dy="1" dx="-1"/><feGaussianBlur stdDeviation="0"/><feColorMatrix type="matrix" values="0 0 0 0 1 0 0 0 0 0.8588235378265381 0 0 0 0 0.800000011920929 0 0 0 1 0"/><feBlend mode="normal" in2="BackgroundImageFix" result="effect1_dropShadow"/><feBlend mode="normal" in="SourceGraphic" in2="effect1_dropShadow" result="shape"/></filter><linearGradient x1="0.6831408739089966" y1="0.18040576577186584" x2="0.19817142188549042" y2="0.884383499622345" id="master_svga_2200_5352"><stop offset="0%" stop-color="#FFFBFA" stop-opacity="1"/><stop offset="52.85714268684387%" stop-color="#FFF4F0" stop-opacity="1"/><stop offset="87.14285492897034%" stop-color="#FFECE4" stop-opacity="1"/></linearGradient><linearGradient x1="0.11629636585712433" y1="0.1611124724149704" x2="1" y2="0.8574082851409912" id="master_svgb_2166_03804"><stop offset="0%" stop-color="#FFF4F0" stop-opacity="0"/><stop offset="100.00001192092896%" stop-color="#FFF4F0" stop-opacity="1"/></linearGradient><filter id="master_svgc_2184_03184" filterUnits="objectBoundingBox" color-interpolation-filters="sRGB" x="-1" y="0" width="20.214811325073242" height="37.750816345214844"><feFlood flood-opacity="0" result="BackgroundImageFix"/><feColorMatrix in="SourceAlpha" type="matrix" values="0 0 0 0 0 0 0 0 0 0 0 0 0 0 0 0 0 0 127 0"/><feOffset dy="1" dx="-1"/><feGaussianBlur stdDeviation="0"/><feColorMatrix type="matrix" values="0 0 0 0 1 0 0 0 0 0.8588235378265381 0 0 0 0 0.800000011920929 0 0 0 1 0"/><feBlend mode="normal" in2="BackgroundImageFix" result="effect1_dropShadow"/><feBlend mode="normal" in="SourceGraphic" in2="effect1_dropShadow" result="shape"/></filter><linearGradient x1="0.11629636585712433" y1="0.1611124724149704" x2="1" y2="0.8574082851409912" id="master_svgd_2166_03804"><stop offset="0%" stop-color="#FFF4F0" stop-opacity="0"/><stop offset="100.00001192092896%" stop-color="#FFF4F0" stop-opacity="1"/></linearGradient><linearGradient x1="0.11629636585712433" y1="0.1611124724149704" x2="1" y2="0.8574082851409912" id="master_svge_2166_03804"><stop offset="0%" stop-color="#FFF4F0" stop-opacity="0"/><stop offset="100.00001192092896%" stop-color="#FFF4F0" stop-opacity="1"/></linearGradient></defs><g style="mix-blend-mode:passthrough"><g style="opacity:0.699999988079071;mix-blend-mode:passthrough"><g style="mix-blend-mode:passthrough"><path d="M327,282.8215693103027L396.243,300.72519931030274L409.2173,290.83109931030276L341.9486,275.28319931030273L327,282.8215693103027Z" fill="url(#master_svg0_2166_03804)" fill-opacity="1"/></g><g style="mix-blend-mode:passthrough"><path d="M395.158203125,236.98745048046112L395.158203125,300.35645048046115L403.399463125,301.4521504804611L403.757783125,238.81365048046112L395.158203125,236.98745048046112Z" fill="#FFE8DF" fill-opacity="1"/></g><g style="mix-blend-mode:passthrough" transform="matrix(-1,0,0,1,824,0)"><path d="M412,300.1738504804611L420.59958,302.00005048046114L420.24126,238.6310304804611L412,236.98745048046112L412,300.1738504804611Z" fill="#FFF4F1" fill-opacity="1"/></g><g style="mix-blend-mode:passthrough"><g style="mix-blend-mode:passthrough"><path d="M403.40135192871094,301.999973770752C408.0518219287109,301.999973770752,412.00093192871094,301.18235377075194,412.00093192871094,300.1737837707519C412.00093192871094,299.16519877075194,408.0518219287109,298.34758377075195,403.40135192871094,298.34758377075195L403.40135192871094,301.999973770752Z" fill="#FFF4F1" fill-opacity="1"/></g><g style="mix-blend-mode:passthrough" transform="matrix(-1,0,0,1,806.8027038574219,0)"><path d="M403.40135192871094,301.999973770752C407.85805192871095,301.999973770752,411.64261192871095,301.18235377075194,411.64261192871095,300.1737837707519C411.64261192871095,299.16519877075194,407.85805192871095,298.34758377075195,403.40135192871094,298.34758377075195L403.40135192871094,301.999973770752Z" fill="#FFE8DF" fill-opacity="1"/></g></g><g style="mix-blend-mode:passthrough"><g style="mix-blend-mode:passthrough"><path d="M403.40135192871094,238.65239C408.0518219287109,238.65239,412.00093192871094,237.83477,412.00093192871094,236.8262C412.00093192871094,235.817615,408.0518219287109,235,403.40135192871094,235L403.40135192871094,238.65239Z" fill="#FFF8F5" fill-opacity="1"/></g><g style="mix-blend-mode:passthrough" transform="matrix(-1,0,0,1,807.6308288574219,0)"><path d="M403.81541442871094,238.65242C408.27211442871095,238.65242,412.47191442871093,237.83477,412.47191442871093,236.8262C412.47191442871093,235.817615,408.27211442871095,235,403.81541442871094,235L403.81541442871094,238.65242Z" fill="#FFF8F5" fill-opacity="1"/></g></g></g><g style="mix-blend-mode:passthrough"><path d="M379,283.19728828125L481.291,310.50048828125L491.791,299.00048828125L400.791,272.00048828125L379,283.19728828125Z" fill="url(#master_svg1_2166_03804)" fill-opacity="1"/></g><g transform="matrix(1,-0.1227845624089241,0.15838444232940674,1,-25.09054770439434,51.48905500237902)"><g><g style="mix-blend-mode:passthrough" transform="matrix(1,-2.3677251270726174e-9,0,1,0,0.0000010381433526163164)"><path d="M438.5275790699219,255.31367797363282L445.74988416992187,254.2772979736328C445.4913441699219,255.86730797363282,445.9466541699219,257.4938579736328,446.88992416992187,258.4881679736328L439.6676141699219,259.5245479736328C438.72523216992187,258.5302479736328,438.2690401699219,256.9036979736328,438.5275790699219,255.31367797363282Z" fill-rule="evenodd" fill="#FFF4F0" fill-opacity="1"/></g><g style="mix-blend-mode:passthrough" transform="matrix(1,-2.3677251270726174e-9,0,1,0,0.0000010383190840457246)"><path d="M440.49704291992185,243.2641098486328L447.7196929199219,242.2284698486328L445.75255291992187,254.2794698486328L438.5302429199219,255.3146698486328L440.49704291992185,243.2641098486328Z" fill="#FFF4F0" fill-opacity="1"/></g><g style="mix-blend-mode:passthrough"><path d="M422.3647246360779,231.8713607788086L428.6049546360779,230.7151107788086L447.76312463607786,242.30981077880858L440.5424246360779,243.3435107788086L422.3647246360779,231.8713607788086Z" fill="#FFF4F0" fill-opacity="1"/></g><g><path d="M465.3947293261719,314.38154379882815L458.1733093261719,315.4179387988281C458.4618483261719,315.37584879882814,458.74862332617187,315.3016787988281,459.0309853261719,315.1931587988281L466.25328932617185,314.1567687988281C465.9700493261719,314.26638579882814,465.68326932617185,314.34057279882813,465.3947293261719,314.38154379882815Z" fill-rule="evenodd" fill="#FFF4F0" fill-opacity="1"/></g><g style="mix-blend-mode:passthrough" transform="matrix(1,-2.3677251270726174e-9,0,1,0,0.000001054775282227638)"><path d="M447.82494921325684,198.15548484863282L455.04724921325686,197.1190948486328L452.70187921325686,211.5409948486328L445.48045921325684,212.57739484863282L447.82494921325684,198.15548484863282Z" fill="#FFF4F0" fill-opacity="1"/></g><g style="mix-blend-mode:passthrough"><path d="M439.6668338775635,259.5262194165039L446.8894938775635,258.4900894165039L468.0852338775635,283.5664894165039L460.8638338775635,284.6017894165039L439.6668338775635,259.5262194165039Z" fill="#FFF4F0" fill-opacity="1"/></g><g style="mix-blend-mode:passthrough"><path d="M469.26780841308596,284.04188338085936L462.04550841308594,285.07826538085936C461.88402841308596,285.10152538085936,461.7199104130859,285.09044538085936,461.56196341308595,285.04836538085937C461.3069534130859,284.9808353808594,461.06430041308596,284.8291353808594,460.86399841308594,284.6021453808594L468.08541841308596,283.5657653808594C468.2865984130859,283.79386038085937,468.52837841308593,283.9444483808594,468.7833784130859,284.0130933808594C468.94220841308595,284.05517138085935,469.10545841308596,284.0651313808594,469.26780841308596,284.04188338085936Z" fill-rule="evenodd" fill="#FFF4F0" fill-opacity="1"/></g><g style="mix-blend-mode:passthrough" transform="matrix(1,-2.3677251270726174e-9,0,1,0,0.0000010603431235267635)"><path d="M451.9003817132568,186.92524437988283L459.12892171325683,185.8891143798828C456.59381171325686,186.2534003798828,455.59699171325684,193.7774143798828,455.05344171325686,197.1202143798828L447.83202171325684,198.15551437988282C448.37468871325683,194.81268437988282,449.36529171325685,187.2895343798828,451.9003817132568,186.92524437988283Z" fill-rule="evenodd" fill="#FFF4F0" fill-opacity="1"/></g><g><g mask="url(#master_svg2_2184_1510)"><g style="mix-blend-mode:passthrough"><path d="M454.9454116821289,158.6759755673828L456.7577516821289,158.41520296438281L461.0952016821289,159.5755815673828L459.2830816821289,159.83608156738282L454.9454116821289,158.6759755673828Z" fill="#FFF4F0" fill-opacity="1"/></g></g></g><g style="mix-blend-mode:passthrough"><path d="M472.229561418457,164.06149595321656L479.45186641845703,163.02510595321655L478.54918641845705,168.57353595321655L471.32776641845703,169.60992595321656L472.229561418457,164.06149595321656Z" fill="#FFF4F0" fill-opacity="1"/></g><g style="mix-blend-mode:passthrough"><path d="M471.32776641845703,169.609520607605L478.55006641845705,168.57313060760498L495.935666418457,173.21029060760497L488.71336641845704,174.246680607605L471.32776641845703,169.609520607605Z" fill="#FFF4F0" fill-opacity="1"/></g><g style="mix-blend-mode:passthrough"><path d="M500.3748543579102,299.35158080566407L507.59715435791014,298.31520080566406L466.2530743579102,314.15770080566404L459.03165435791016,315.19410080566405L500.3748543579102,299.35158080566407Z" fill="#FFF4F0" fill-opacity="1"/></g><g style="mix-blend-mode:passthrough"><path d="M509.42050073486325,286.79825896728516L516.6427907348633,285.76187896728516C515.6703907348633,291.7399189672852,512.1999907348633,296.54207896728514,507.5974907348633,298.31587896728513L500.3751907348633,299.35117896728514C504.97858073486327,297.57847896728515,508.4481107348633,292.77630896728516,509.42050073486325,286.79825896728516Z" fill-rule="evenodd" fill="#FFF4F0" fill-opacity="1"/></g><g style="mix-blend-mode:passthrough"><path d="M489.61865997314453,168.69914501251222L496.84095997314455,167.6627550125122L514.1250599731445,172.2733450125122L506.90455997314456,173.30972501251222L489.61865997314453,168.69914501251222Z" fill="#FFF4F0" fill-opacity="1"/></g><g style="mix-blend-mode:passthrough"><path d="M506.89956842919923,173.30876987518312L514.1209874291992,172.2723798751831L513.1494874291992,178.24930987518312L505.9271774291992,179.2856998751831L506.89956842919923,173.30876987518312Z" fill="#FFF4F0" fill-opacity="1"/></g><g style="mix-blend-mode:passthrough"><path d="M515.7576319506836,247.78375785888673L522.9790619506836,246.74736785888672L516.6364819506836,285.7612678588867L509.4150619506836,286.7976678588867L515.7576319506836,247.78375785888673Z" fill="#FFF4F0" fill-opacity="1"/></g><g style="mix-blend-mode:passthrough"><path d="M445.4825801849365,212.57705197631836L452.70524018493654,211.54043197631836L522.9788801849365,246.74703197631837L515.7574801849365,247.78343197631835L445.4825801849365,212.57705197631836Z" fill="#FFF4F0" fill-opacity="1"/></g><g style="mix-blend-mode:passthrough"><path d="M520.8552963598632,216.425051875L528.0776063598632,215.388671875L524.4501263598632,237.699771875L517.2287063598633,238.735071875L520.8552963598632,216.425051875Z" fill="#FFF4F0" fill-opacity="1"/></g><g><g mask="url(#master_svg3_2184_1489)"><g style="mix-blend-mode:passthrough"><path d="M505.9306411743164,179.28566711486818L513.1529511743164,178.24927711486816C524.2251411743164,184.83519711486815,530.5288411743164,200.32337711486815,528.0802411743164,215.38757711486818L520.8579411743164,216.42507711486817C523.3065411743164,201.35867711486816,517.0036411743164,185.87158711486816,505.9306411743164,179.28566711486818Z" fill-rule="evenodd" fill="#FFF4F0" fill-opacity="1"/></g></g></g><g style="mix-blend-mode:passthrough"><path d="M506.9025960449219,173.3089938457489L505.9301960449219,179.2859938457489C517.0031960449219,185.8718938457489,523.3066960449219,201.3589938457489,520.8576960449219,216.4241938457489L517.2308960449219,238.7352938457489L497.69399604492185,228.8641938457489L500.5819960449219,211.0629938457489C501.26139604492187,206.8897938457489,499.14479604492186,202.7940938457489,495.8534960449219,201.91599384574891L455.6405960449219,188.2660938457489C452.34929604492186,187.3891938457489,449.13169604492185,190.0586938457489,448.4530960449219,194.2318938457489L445.6366960449219,211.5961938457489L515.7598960449219,247.7837938457489L509.4173960449219,286.7976938457489C508.4449960449219,292.7756938457489,504.9745960449219,297.5776938457489,500.3720960449219,299.3506938457489L459.0279960449219,315.19269384574886C458.23919604492187,315.4966938457489,457.41589604492185,315.53369384574887,456.6331960449219,315.3246938457489C455.8513960449219,315.1166938457489,455.1084960449219,314.6616938457489,454.4784960449219,313.9796938457489L424.8906160449219,276.7506938457489C421.2216660449219,272.7806938457489,418.57624404492185,266.4756938457489,419.5468650449219,260.5086938457489L422.3652260449219,231.8710938457489L440.49309604492186,243.2631938457489L438.52729604492185,255.31399384574888C438.2696960449219,256.9028938457489,438.72359604492186,258.5295938457489,439.6659960449219,259.5236938457489L460.8633960449219,284.6016938457489C461.06459604492187,284.8286938457489,461.30629604492185,284.9796938457489,461.5613960449219,285.0486938457489C461.81279604492187,285.1156938457489,462.07669604492185,285.1016938457489,462.32729604492187,285.0026938457489L487.58589604492187,273.3476938457489C488.8097960449219,272.9116938457489,489.7316960449219,271.6526938457489,489.99019604492184,270.06269384574887L491.7343960449219,259.3622938457489L424.85350604492186,221.6332938457489L429.8495960449219,190.9877938457489C432.2990960449219,175.9225938457489,441.7694960449219,165.8052038457489,453.9295960449219,165.7520538457489L454.9451960449219,159.4506938457489L472.23109604492186,164.0612838457489L471.3292960449219,169.6096938457489L488.7148960449219,174.2468938457489L489.61669604492187,168.6984438457489L506.9025960449219,173.3089938457489Z" fill-rule="evenodd" fill="#FFE4D9" fill-opacity="1"/></g></g></g><g style="opacity:0.800000011920929;mix-blend-mode:passthrough"><g style="mix-blend-mode:passthrough"><path d="M252,291.8029563415527L358.716,319.0592563415527L378.711,303.9965563415527L275.0384,280.32665634155273L252,291.8029563415527Z" fill="url(#master_svg4_2166_03804)" fill-opacity="1"/></g><g style="mix-blend-mode:passthrough"><path d="M357.044921875,318.497871005249L369.746121875,320.16597100524905L370.298421875,224.80585100524902L357.044921875,222.02567100524902L357.044921875,318.497871005249Z" fill="#FFE4D9" fill-opacity="1"/></g><g style="mix-blend-mode:passthrough" transform="matrix(-1,0,0,1,766,0)"><path d="M383,318.21987100524905L396.2535,320.999971005249L395.7012,224.52783100524903L383,222.02567100524902L383,318.21987100524905Z" fill="#FFF4F0" fill-opacity="1"/></g><g style="mix-blend-mode:passthrough"><g style="mix-blend-mode:passthrough"><path d="M369.74653148651123,320.9999580834961C376.91372148651124,320.9999580834961,383.0000314865112,319.7552280834961,383.0000314865112,318.21977808349607C383.0000314865112,316.6843280834961,376.91372148651124,315.4395980834961,369.74653148651123,315.4395980834961L369.74653148651123,320.9999580834961Z" fill="#FFF4F0" fill-opacity="1"/></g><g style="mix-blend-mode:passthrough" transform="matrix(-1,0,0,1,739.4930629730225,0)"><path d="M369.74653148651123,320.9999580834961C376.61509148651123,320.9999580834961,382.4477314865112,319.7552280834961,382.4477314865112,318.21977808349607C382.4477314865112,316.6843280834961,376.61509148651123,315.4395980834961,369.74653148651123,315.4395980834961L369.74653148651123,320.9999580834961Z" fill="#FFE4D9" fill-opacity="1"/></g></g><g style="mix-blend-mode:passthrough"><g style="mix-blend-mode:passthrough"><path d="M369.74653148651123,224.56036C376.91372148651124,224.56036,383.0000314865112,223.31563,383.0000314865112,221.78018C383.0000314865112,220.24473,376.91372148651124,219,369.74653148651123,219L369.74653148651123,224.56036Z" fill="#FFF8F5" fill-opacity="1"/></g><g style="mix-blend-mode:passthrough" transform="matrix(-1,0,0,1,740.7741851806641,0)"><path d="M370.38709259033203,224.56041C377.25565259033203,224.56041,383.72829259033205,223.31563,383.72829259033205,221.78018C383.72829259033205,220.24473,377.25565259033203,219,370.38709259033203,219L370.38709259033203,224.56041Z" fill="#FFF8F5" fill-opacity="1"/></g></g></g><g style="opacity:0.800000011920929;mix-blend-mode:passthrough"><g style="mix-blend-mode:passthrough"><path d="M511,317.93294765625L642.969,351.60254765625L667.696,332.99564765625L539.4903,303.75634765625L511,317.93294765625Z" fill="url(#master_svg5_2166_03804)" fill-opacity="1"/></g><g style="mix-blend-mode:passthrough"><path d="M640.904296875,350.90959412765505L656.611196875,352.969594127655L657.294096875,235.17193412765502L640.904296875,231.73759412765503L640.904296875,350.90959412765505Z" fill="#FFE4D9" fill-opacity="1"/></g><g style="mix-blend-mode:passthrough" transform="matrix(-1,0,0,1,1346,0)"><path d="M673,350.565594127655L689.3898,353.99959412765503L688.7069,234.82849412765503L673,231.73759412765503L673,350.565594127655Z" fill="#FFF4F0" fill-opacity="1"/></g><g style="mix-blend-mode:passthrough"><g style="mix-blend-mode:passthrough"><path d="M656.6103820800781,353.99996662109373C665.4736220800781,353.99996662109373,673.0001820800782,352.46235662109376,673.0001820800782,350.56562662109377C673.0001820800782,348.6688966210937,665.4736220800781,347.13128662109375,656.6103820800781,347.13128662109375L656.6103820800781,353.99996662109373Z" fill="#FFF5F2" fill-opacity="1"/></g><g style="mix-blend-mode:passthrough" transform="matrix(-1,0,0,1,1313.2207641601562,0)"><path d="M656.6103820800781,353.99996662109373C665.1043220800781,353.99996662109373,672.3172820800781,352.46235662109376,672.3172820800781,350.56562662109377C672.3172820800781,348.6688966210937,665.1043220800781,347.13128662109375,656.6103820800781,347.13128662109375L656.6103820800781,353.99996662109373Z" fill="#FFE9E0" fill-opacity="1"/></g></g><g style="mix-blend-mode:passthrough"><g style="mix-blend-mode:passthrough"><path d="M656.6103820800781,234.86868C665.4736220800781,234.86868,673.0001820800782,233.33107,673.0001820800782,231.43434C673.0001820800782,229.53761,665.4736220800781,228,656.6103820800781,228L656.6103820800781,234.86868Z" fill="#FFF8F5" fill-opacity="1"/></g><g style="mix-blend-mode:passthrough" transform="matrix(-1,0,0,1,1314.8027954101562,0)"><path d="M657.4013977050781,234.86874C665.8953377050781,234.86874,673.8996977050781,233.33107,673.8996977050781,231.43434C673.8996977050781,229.53761,665.8953377050781,228,657.4013977050781,228L657.4013977050781,234.86874Z" fill="#FFF8F5" fill-opacity="1"/></g></g></g><g style="mix-blend-mode:passthrough"><g style="mix-blend-mode:passthrough"><path d="M0,288.21432454833985L221.765,356.86972454833983L263.317,318.9286245483398L47.8759,259.30672454833984L0,288.21432454833985Z" fill="url(#master_svg6_2166_03804)" fill-opacity="1"/></g><g style="mix-blend-mode:passthrough"><g style="mix-blend-mode:passthrough"><g style="mix-blend-mode:passthrough"><path d="M219.95814514160156,343.31933232910154L267.83404514160156,350.99786232910157L312.99994514160153,343.31933232910154L267.83404514160156,335.64076232910156L219.95814514160156,343.31933232910154Z" fill="#FFFBFA" fill-opacity="1"/></g><g style="mix-blend-mode:passthrough"><path d="M219.95814514160156,356.41792912597657L267.83404514160156,364.99992912597656L267.83404514160156,350.99779912597654L219.95814514160156,343.31922912597656L219.95814514160156,356.41792912597657Z" fill="#FFE4D9" fill-opacity="1"/></g><g style="mix-blend-mode:passthrough" transform="matrix(-1,0,0,1,625.9983215332031,0)"><path d="M312.99916076660156,356.41792912597657L358.1650607666016,364.99992912597656L358.1650607666016,350.99779912597654L312.99916076660156,343.31922912597656L312.99916076660156,356.41792912597657Z" fill="#FFF4F0" fill-opacity="1"/></g></g><g style="mix-blend-mode:passthrough"><g style="mix-blend-mode:passthrough"><path d="M238.02452278137207,340.86895452178953L266.9307227813721,345.29850452178954L266.9307227813721,337.32531452178955L238.02452278137207,337.32531452178955L238.02452278137207,340.86895452178953Z" fill="#FFE4D9" fill-opacity="1"/></g><g style="mix-blend-mode:passthrough"><path d="M266.9307270050049,345.29850452178954L296.7402270050049,340.86895452178953L296.7402270050049,337.32531452178955L266.9307270050049,337.32531452178955L266.9307270050049,345.29850452178954Z" fill="#FFF4F0" fill-opacity="1"/></g><g style="mix-blend-mode:passthrough"><g style="mix-blend-mode:passthrough"><path d="M266.75694465637207,342.9360471435547C282.9708446563721,342.9360471435547,296.7394446563721,340.29184714355466,296.7394446563721,337.0300071435547C296.7394446563721,333.7681871435547,282.9708446563721,331.1239471435547,266.75694465637207,331.1239471435547L266.75694465637207,342.9360471435547Z" fill="#FFFBFA" fill-opacity="1"/></g><g style="mix-blend-mode:passthrough" transform="matrix(-1,0,0,1,533.5138893127441,0)"><path d="M266.75694465637207,342.9360471435547C282.29524465637206,342.9360471435547,295.4901446563721,340.29184714355466,295.4901446563721,337.0300071435547C295.4901446563721,333.7681871435547,282.29524465637206,331.1239471435547,266.75694465637207,331.1239471435547L266.75694465637207,342.9360471435547Z" fill="#FFF8F5" fill-opacity="1"/></g></g><g style="mix-blend-mode:passthrough"><g style="mix-blend-mode:passthrough"><path d="M266.75694465637207,344.3965032672119L266.75694465637207,345.5777332672119C282.9708446563721,345.5777332672119,296.7394446563721,342.8099732672119,296.7394446563721,340.8528772672119C296.7394446563721,340.01053526721194,294.18884465637205,340.54973426721193,289.99044465637206,341.43727326721194C284.43434465637205,342.6118432672119,275.9923246563721,344.3965032672119,266.75694465637207,344.3965032672119Z" fill="#FFF4F0" fill-opacity="1"/></g><g style="mix-blend-mode:passthrough" transform="matrix(-1,0,0,1,533.5138893127441,0)"><path d="M266.75694465637207,344.3965032672119L266.75694465637207,345.5777332672119C282.29524465637206,345.5777332672119,295.4901446563721,342.8099732672119,295.4901446563721,340.8528772672119C295.4901446563721,340.01053526721194,293.0458446563721,340.54973426721193,289.02244465637204,341.43727326721194C283.6977446563721,342.6118432672119,275.6075146563721,344.3965032672119,266.75694465637207,344.3965032672119Z" fill="#FFE4D9" fill-opacity="1"/></g></g></g><g style="mix-blend-mode:passthrough"><g style="mix-blend-mode:passthrough"><path d="M241.63779830932617,336.0373755757141L266.9862983093262,339.9132355757141L266.9862983093262,332.9366955757141L241.63779830932617,332.9366955757141L241.63779830932617,336.0373755757141Z" fill="#FFE4D9" fill-opacity="1"/></g><g style="mix-blend-mode:passthrough"><path d="M266.9854545593262,339.9132355757141L293.12615455932615,336.0373755757141L293.12615455932615,332.9366955757141L266.9854545593262,332.9366955757141L266.9854545593262,339.9132355757141Z" fill="#FFF4F0" fill-opacity="1"/></g><g style="mix-blend-mode:passthrough"><g style="mix-blend-mode:passthrough"><path d="M266.8350639343262,337.846098046875C281.05336393432617,337.846098046875,293.1273639343262,335.532408046875,293.1273639343262,332.678308046875C293.1273639343262,329.824208046875,281.05336393432617,327.510498046875,266.8350639343262,327.510498046875L266.8350639343262,337.846098046875Z" fill="#FFFBFA" fill-opacity="1"/></g><g style="mix-blend-mode:passthrough" transform="matrix(-1,0,0,1,533.6701278686523,0)"><path d="M266.8350639343262,337.846098046875C280.4609639343262,337.846098046875,292.03186393432617,335.532408046875,292.03186393432617,332.678308046875C292.03186393432617,329.824208046875,280.4609639343262,327.510498046875,266.8350639343262,327.510498046875L266.8350639343262,337.846098046875Z" fill="#FFF8F5" fill-opacity="1"/></g></g><g style="mix-blend-mode:passthrough"><g style="mix-blend-mode:passthrough"><path d="M266.8350639343262,339.1239786434937L266.8350639343262,340.15755864349364C281.05336393432617,340.15755864349364,293.1273639343262,337.73576864349366,293.1273639343262,336.0233116434936C293.1273639343262,335.28626264349367,290.8907639343262,335.75806164349365,287.2090639343262,336.5346596434936C282.3367639343262,337.56240864349365,274.9337839343262,339.1239786434937,266.8350639343262,339.1239786434937Z" fill="#FFF4F0" fill-opacity="1"/></g><g style="mix-blend-mode:passthrough" transform="matrix(-1,0,0,1,533.6701278686523,0)"><path d="M266.8350639343262,339.1239786434937L266.8350639343262,340.15755864349364C280.4609639343262,340.15755864349364,292.03186393432617,337.73576864349366,292.03186393432617,336.0233116434936C292.03186393432617,335.28626264349367,289.88836393432615,335.75806164349365,286.3601639343262,336.5346596434936C281.69086393432616,337.56240864349365,274.5963339343262,339.1239786434937,266.8350639343262,339.1239786434937Z" fill="#FFE4D9" fill-opacity="1"/></g></g></g><g style="mix-blend-mode:passthrough"><path d="M246.15345764160156,331.575435836792L266.92975764160155,334.285435836792L267.8331576416016,179.35924583679198L246.15345764160156,174.842435836792L246.15345764160156,331.575435836792Z" fill="#FFE4D9" fill-opacity="1"/></g><g style="mix-blend-mode:passthrough" transform="matrix(-1,0,0,1,577.2209777832031,0)"><path d="M288.61048889160156,331.12443583679203L310.2901888916016,335.640435836792L309.38678889160155,178.907565836792L288.61048889160156,174.842435836792L288.61048889160156,331.12443583679203Z" fill="#FFF4F0" fill-opacity="1"/></g><g style="opacity:0.800000011920929;mix-blend-mode:passthrough" transform="matrix(0.970295786857605,-0.24192188680171967,0.01745242439210415,0.9998478889465332,3.914309931065418,65.83885314033773)" filter="url(#master_svg7_2184_04782)"><path d="M287.06506076660156,250.116688671875L283.79696076660156,249.396388671875L283.84726076660155,246.149188671875C283.85976076660154,245.343348671875,283.4379607666016,244.709748671875,282.9044607666016,244.733018671875L276.47679076660154,245.013388671875C275.9433607666016,245.036658671875,275.50137076660155,245.707928671875,275.48890076660155,246.513768671875L275.4457707666016,249.299488671875L287.03796076660154,251.862988671875L286.92136076660154,259.395388671875C286.9035607666016,260.549988671875,286.4705607666016,261.628888671875,285.79176076660156,262.212188671875L279.69738076660155,267.448088671875C279.46525076660157,267.647188671875,279.1875507666016,267.659288671875,278.9612807666016,267.479588671875L273.04158076660156,262.769588671875C272.38120476660157,262.243988671875,271.98230856660155,261.202088671875,272.0001535716016,260.049388671875L272.08601496660157,254.503088671875L275.3540707666016,255.223388671875L275.3121707666016,257.929488671875C275.3074407666016,258.235088671875,275.41421076660157,258.508888671875,275.58407076660154,258.639788671875L279.2990007666016,261.717688671875C279.37178076660155,261.778288671875,279.46255076660157,261.774988671875,279.53731076660154,261.707888671875L283.36876076660155,258.304588671875C283.54996076660154,258.154588671875,283.6657607666016,257.870488671875,283.67056076660157,257.564288671875L283.70546076660156,255.309588671875L272.11306876660154,252.755488671875L272.21052276660157,246.460298671875C272.25555676660156,243.551258671875,273.66412076660157,240.936898671875,275.55945076660157,240.244148671875L275.5595807666016,240.182198671875L275.57744076660157,239.028226671875L278.37641076660157,238.906138671875L278.35982076660156,239.977458671875L281.17495076660157,239.854668671875L281.1915407666016,238.783344671875L283.9904607666016,238.661256193875L283.97266076660156,239.815228671875L283.97086076660156,239.877248671875C285.84726076660155,240.405478671875,287.17676076660155,242.900408671875,287.13166076660156,245.809448671875L287.06506076660156,250.116688671875Z" fill-rule="evenodd" fill="#FFFBFA" fill-opacity="1"/></g><g style="mix-blend-mode:passthrough"><g style="mix-blend-mode:passthrough"><path d="M266.92978286743164,335.6407419580078C278.65368286743166,335.6407419580078,288.60948286743167,333.6185019580078,288.60948286743167,331.12394195800783C288.60948286743167,328.6293719580078,278.65368286743166,326.6071319580078,266.92978286743164,326.6071319580078L266.92978286743164,335.6407419580078Z" fill="#FFF4F0" fill-opacity="1"/></g><g style="mix-blend-mode:passthrough" transform="matrix(-1,0,0,1,533.8595657348633,0)"><path d="M266.92978286743164,335.6407419580078C278.16518286743167,335.6407419580078,287.70608286743163,333.6185019580078,287.70608286743163,331.12394195800783C287.70608286743163,328.6293719580078,278.16518286743167,326.6071319580078,266.92978286743164,326.6071319580078L266.92978286743164,335.6407419580078Z" fill="#FFE4D9" fill-opacity="1"/></g></g><g style="mix-blend-mode:passthrough"><g style="mix-blend-mode:passthrough"><path d="M219.95814514160156,157.67857L267.83404514160156,165.3571L312.99994514160153,157.67857L267.83404514160156,150L219.95814514160156,157.67857Z" fill="#FFF8F5" fill-opacity="1"/></g><g style="mix-blend-mode:passthrough"><path d="M219.95814514160156,170.777166796875L267.83404514160156,179.359166796875L267.83404514160156,165.357036796875L219.95814514160156,157.678466796875L219.95814514160156,170.777166796875Z" fill="#FFE4D9" fill-opacity="1"/></g><g style="mix-blend-mode:passthrough" transform="matrix(-1,0,0,1,625.9983215332031,0)"><path d="M312.99916076660156,170.777166796875L358.1650607666016,179.359166796875L358.1650607666016,165.357036796875L312.99916076660156,157.678466796875L312.99916076660156,170.777166796875Z" fill="#FFF1EB" fill-opacity="1"/></g></g></g></g><g style="mix-blend-mode:passthrough"><g style="mix-blend-mode:passthrough"><path d="M483,167.7856867675781L694.846,233.2478867675781L734.54,197.07138676757813L528.7345,140.22268676757812L483,167.7856867675781Z" fill="url(#master_svg8_2166_03804)" fill-opacity="1"/></g><g style="mix-blend-mode:passthrough"><g style="mix-blend-mode:passthrough"><g style="mix-blend-mode:passthrough"><path d="M693.1197662353516,220.3277318798828L738.8542662353516,227.6492018798828L781.9999662353516,220.3277318798828L738.8542662353516,213.0063018798828L693.1197662353516,220.3277318798828Z" fill="#FFFDFC" fill-opacity="1"/></g><g style="mix-blend-mode:passthrough"><path d="M693.1197662353516,232.8173350830078L738.8542662353516,241.00013508300782L738.8542662353516,227.6492650830078L693.1197662353516,220.3278350830078L693.1197662353516,232.8173350830078Z" fill="#FFE4D9" fill-opacity="1"/></g><g style="mix-blend-mode:passthrough" transform="matrix(-1,0,0,1,1564.0012512207031,0)"><path d="M782.0006256103516,232.8173350830078L825.1463256103516,241.00013508300782L825.1463256103516,227.6492650830078L782.0006256103516,220.3278350830078L782.0006256103516,232.8173350830078Z" fill="#FFF4F0" fill-opacity="1"/></g></g><g style="mix-blend-mode:passthrough"><g style="mix-blend-mode:passthrough"><path d="M710.3780651092529,217.99132162124633L737.9913651092529,222.21484162124634L737.9913651092529,214.61250162124634L710.3780651092529,214.61250162124634L710.3780651092529,217.99132162124633Z" fill="#FFE4D9" fill-opacity="1"/></g><g style="mix-blend-mode:passthrough"><path d="M737.9913425445557,222.21484162124634L766.4675425445556,217.99132162124633L766.4675425445556,214.61250162124634L737.9913425445557,214.61250162124634L737.9913425445557,222.21484162124634Z" fill="#FFF4F0" fill-opacity="1"/></g><g style="mix-blend-mode:passthrough"><g style="mix-blend-mode:passthrough"><path d="M737.8253307342529,219.96226970214843C753.3140307342529,219.96226970214843,766.4667307342529,217.44104970214843,766.4667307342529,214.33092970214844C766.4667307342529,211.22081970214845,753.3140307342529,208.69956970214844,737.8253307342529,208.69956970214844L737.8253307342529,219.96226970214843Z" fill="#FFFBFA" fill-opacity="1"/></g><g style="mix-blend-mode:passthrough" transform="matrix(-1,0,0,1,1475.6506614685059,0)"><path d="M737.8253307342529,219.96226970214843C752.6686307342529,219.96226970214843,765.2733307342529,217.44104970214843,765.2733307342529,214.33092970214844C765.2733307342529,211.22081970214845,752.6686307342529,208.69956970214844,737.8253307342529,208.69956970214844L737.8253307342529,219.96226970214843Z" fill="#FFFBFA" fill-opacity="1"/></g></g><g style="mix-blend-mode:passthrough"><g style="mix-blend-mode:passthrough"><path d="M737.8253307342529,221.35478964782715L737.8253307342529,222.48107964782716C753.3140307342529,222.48107964782716,766.4667307342529,219.84205964782714,766.4667307342529,217.97598964782713C766.4667307342529,217.17282664782715,764.0302307342529,217.68694664782714,760.0196307342529,218.53320664782714C754.712030734253,219.65314964782715,746.6476207342529,221.35478964782715,737.8253307342529,221.35478964782715Z" fill="#FFF4F0" fill-opacity="1"/></g><g style="mix-blend-mode:passthrough" transform="matrix(-1,0,0,1,1475.6506614685059,0)"><path d="M737.8253307342529,221.35478964782715L737.8253307342529,222.48107964782716C752.6686307342529,222.48107964782716,765.2733307342529,219.84205964782714,765.2733307342529,217.97598964782713C765.2733307342529,217.17282664782715,762.938330734253,217.68694664782714,759.0949307342529,218.53320664782714C754.0084307342529,219.65314964782715,746.2800307342529,221.35478964782715,737.8253307342529,221.35478964782715Z" fill="#FFE4D9" fill-opacity="1"/></g></g></g><g style="mix-blend-mode:passthrough"><g style="mix-blend-mode:passthrough"><path d="M713.8297233581543,213.38448189422607L738.0444233581543,217.08006189422608L738.0444233581543,210.42801189422607L713.8297233581543,210.42801189422607L713.8297233581543,213.38448189422607Z" fill="#FFE4D9" fill-opacity="1"/></g><g style="mix-blend-mode:passthrough"><path d="M738.0445671081543,217.08006189422608L763.0159671081543,213.38448189422607L763.0159671081543,210.42801189422607L738.0445671081543,210.42801189422607L738.0445671081543,217.08006189422608Z" fill="#FFF4F0" fill-opacity="1"/></g><g style="mix-blend-mode:passthrough"><g style="mix-blend-mode:passthrough"><path d="M737.9000358581543,215.1090861669922C751.4824358581543,215.1090861669922,763.0163358581543,212.90299616699218,763.0163358581543,210.18163616699218C763.0163358581543,207.46028616699218,751.4824358581543,205.2541961669922,737.9000358581543,205.2541961669922L737.9000358581543,215.1090861669922Z" fill="#FFFBFA" fill-opacity="1"/></g><g style="mix-blend-mode:passthrough" transform="matrix(-1,0,0,1,1475.8000717163086,0)"><path d="M737.9000358581543,215.1090861669922C750.9164358581543,215.1090861669922,761.9698358581543,212.90299616699218,761.9698358581543,210.18163616699218C761.9698358581543,207.46028616699218,750.9164358581543,205.2541961669922,737.9000358581543,205.2541961669922L737.9000358581543,215.1090861669922Z" fill="#FFFBFA" fill-opacity="1"/></g></g><g style="mix-blend-mode:passthrough"><g style="mix-blend-mode:passthrough"><path d="M737.9000358581543,216.3275168347168L737.9000358581543,217.3130168347168C751.4824358581543,217.3130168347168,763.0163358581543,215.0038768347168,763.0163358581543,213.3710648347168C763.0163358581543,212.66829683471678,760.8797358581543,213.1181517347168,757.3627358581543,213.8586288347168C752.7084358581543,214.8385768347168,745.6365058581544,216.3275168347168,737.9000358581543,216.3275168347168Z" fill="#FFF4F0" fill-opacity="1"/></g><g style="mix-blend-mode:passthrough" transform="matrix(-1,0,0,1,1475.8000717163086,0)"><path d="M737.9000358581543,216.3275168347168L737.9000358581543,217.3130168347168C750.9164358581543,217.3130168347168,761.9698358581543,215.0038768347168,761.9698358581543,213.3710648347168C761.9698358581543,212.66829683471678,759.9222358581543,213.1181517347168,756.5518358581543,213.8586288347168C752.0913358581543,214.8385768347168,745.3141558581543,216.3275168347168,737.9000358581543,216.3275168347168Z" fill="#FFE4D9" fill-opacity="1"/></g></g></g><g style="mix-blend-mode:passthrough"><path d="M718.1451568603516,209.12997357177736L737.9921568603515,211.71397357177733L738.8551568603516,63.99369357177734L718.1451568603516,59.686973571777344L718.1451568603516,209.12997357177736Z" fill="#FFE4D9" fill-opacity="1"/></g><g style="mix-blend-mode:passthrough" transform="matrix(-1,0,0,1,1517.4035949707031,0)"><path d="M758.7017974853516,208.69997357177735L779.4117974853516,213.00597357177733L778.5487974853515,63.56302357177734L758.7017974853516,59.686973571777344L758.7017974853516,208.69997357177735Z" fill="#FFF4F0" fill-opacity="1"/></g><g style="opacity:0.800000011920929;mix-blend-mode:passthrough" transform="matrix(0.970295786857605,-0.24192190170288086,0.01745242439210415,0.9998478889465332,20.021493680062576,179.76598076285882)" filter="url(#master_svg9_2184_04832)"><path d="M756.9555256103515,128.000169140625L753.9286256103516,127.333069140625L753.9751256103516,124.325689140625C753.9867256103515,123.579359140625,753.5960256103516,122.992549140625,753.1019256103516,123.014099140625L747.1484256103515,123.273799140625C746.6543456103516,123.295349140625,746.2449656103515,123.917059140625,746.2334156103516,124.663389140625L746.1934756103516,127.243379140625L756.9305256103515,129.617569140625L756.8225256103516,136.593769140625C756.8060256103515,137.663069140625,756.4049256103516,138.662269140625,755.7762256103516,139.202569140625L750.1314556103515,144.051869140625C749.9164456103516,144.236269140625,749.6592356103515,144.24746914062501,749.4496556103516,144.081069140625L743.9666536103516,139.718869140625C743.3549916103516,139.232169140625,742.9855209103515,138.26716914062501,743.0020482803516,137.199569140625L743.0815696103516,132.062769140625L746.1085356103515,132.729869140625L746.0697356103516,135.236169140625C746.0653556103516,135.519169140625,746.1642456103516,135.772769140625,746.3215856103516,135.893969140625L749.7624556103516,138.744569140625C749.8298756103516,138.800769140625,749.9139356103516,138.797669140625,749.9831856103516,138.735569140625L753.5319256103515,135.583469140625C753.6998256103516,135.444669140625,753.8071256103516,135.181469140625,753.8115256103515,134.897869140625L753.8438256103516,132.809669140625L743.1066256103516,130.444269140625L743.1968836103515,124.613879140625C743.2385926103516,121.919649140625,744.5432456103516,119.498329140625,746.2987456103516,118.856729140625L746.2988656103515,118.799349140625L746.3154156103516,117.730588140625L748.9078956103516,117.617502140625L748.8925356103516,118.609719140625L751.4999956103516,118.495979140625L751.5153556103515,117.503763140625L754.1078256103516,117.390677898625L754.0913256103515,118.459439140625L754.0896256103516,118.516889140625C755.8276256103516,119.006099140625,757.0590256103516,121.316789140625,757.0173256103516,124.011029140625L756.9555256103515,128.000169140625Z" fill-rule="evenodd" fill="#FFFBFA" fill-opacity="1"/></g><g style="mix-blend-mode:passthrough"><g style="mix-blend-mode:passthrough"><path d="M737.9919548034668,213.00630278320313C749.1914548034667,213.00630278320313,758.7019548034668,211.07811278320312,758.7019548034668,208.69957278320314C758.7019548034668,206.32104278320313,749.1914548034667,204.39285278320312,737.9919548034668,204.39285278320312L737.9919548034668,213.00630278320313Z" fill="#FFF4F0" fill-opacity="1"/></g><g style="mix-blend-mode:passthrough" transform="matrix(-1,0,0,1,1475.9839096069336,0)"><path d="M737.9919548034668,213.00630278320313C748.7248548034668,213.00630278320313,757.8389548034668,211.07811278320312,757.8389548034668,208.69957278320314C757.8389548034668,206.32104278320313,748.7248548034668,204.39285278320312,737.9919548034668,204.39285278320312L737.9919548034668,213.00630278320313Z" fill="#FFE4D9" fill-opacity="1"/></g></g><g style="mix-blend-mode:passthrough"><g style="mix-blend-mode:passthrough"><path d="M693.1197662353516,43.32143L738.8542662353516,50.6429L781.9999662353516,43.32143L738.8542662353516,36L693.1197662353516,43.32143Z" fill="#FFF8F5" fill-opacity="1"/></g><g style="opacity:0.699999988079071;mix-blend-mode:passthrough"><ellipse cx="737.0006256103516" cy="22" rx="22" ry="22" fill="url(#master_svga_2200_5352)" fill-opacity="1"/></g><g style="mix-blend-mode:passthrough"><path d="M693.1197662353516,55.811033203125L738.8542662353516,63.993833203125L738.8542662353516,50.642963203125L693.1197662353516,43.321533203125L693.1197662353516,55.811033203125Z" fill="#FFE4D9" fill-opacity="1"/></g><g style="mix-blend-mode:passthrough" transform="matrix(-1,0,0,1,1564.0012512207031,0)"><path d="M782.0006256103516,55.811033203125L825.1463256103516,63.993833203125L825.1463256103516,50.642963203125L782.0006256103516,43.321533203125L782.0006256103516,55.811033203125Z" fill="#FFF1EB" fill-opacity="1"/></g></g></g></g><g style="mix-blend-mode:passthrough"><g style="mix-blend-mode:passthrough"><path d="M301,340L546.5,416L592.5,374L354,308L301,340Z" fill="url(#master_svgb_2166_03804)" fill-opacity="1"/></g><g style="mix-blend-mode:passthrough"><g style="mix-blend-mode:passthrough"><g style="mix-blend-mode:passthrough"><path d="M544.5,401L597.5,409.5L647.5,401L597.5,392.5L544.5,401Z" fill="#FFFBFA" fill-opacity="1"/></g><g style="mix-blend-mode:passthrough"><path d="M544.5,415.5L597.5,425L597.5,409.5L544.5,401L544.5,415.5Z" fill="#FFE4D9" fill-opacity="1"/></g><g style="mix-blend-mode:passthrough" transform="matrix(-1,0,0,1,1295,0)"><path d="M647.5,415.5L697.5,425L697.5,409.5L647.5,401L647.5,415.5Z" fill="#FFF1EB" fill-opacity="1"/></g></g><g style="mix-blend-mode:passthrough"><g style="mix-blend-mode:passthrough"><path d="M564.5,398.2874999356079L596.5,403.1908999356079L596.5,394.3647699356079L564.5,394.3647699356079L564.5,398.2874999356079Z" fill="#FFE4D9" fill-opacity="1"/></g><g style="mix-blend-mode:passthrough"><path d="M596.5,403.1908999356079L629.5,398.2874999356079L629.5,394.3647699356079L596.5,394.3647699356079L596.5,403.1908999356079Z" fill="#FFF1EB" fill-opacity="1"/></g><g style="mix-blend-mode:passthrough"><g style="mix-blend-mode:passthrough"><path d="M596.3085079193115,400.5758C614.2578079193115,400.5758,629.5000079193115,397.6486,629.5000079193115,394.03788C629.5000079193115,390.42711,614.2578079193115,387.5,596.3085079193115,387.5L596.3085079193115,400.5758Z" fill="#FFFBFA" fill-opacity="1"/></g><g style="mix-blend-mode:passthrough" transform="matrix(-1,0,0,1,1192.617015838623,0)"><path d="M596.3085079193115,400.5758C613.5099079193116,400.5758,628.1170079193115,397.6486,628.1170079193115,394.03788C628.1170079193115,390.42711,613.5099079193116,387.5,596.3085079193115,387.5L596.3085079193115,400.5758Z" fill="#FFF8F5" fill-opacity="1"/></g></g><g style="mix-blend-mode:passthrough"><g style="mix-blend-mode:passthrough"><path d="M596.3085079193115,402.1924027090454L596.3085079193115,403.5000027090454C614.2578079193115,403.5000027090454,629.5000079193115,400.4361627090454,629.5000079193115,398.26969870904543C629.5000079193115,397.3372457090454,626.6764079193115,397.9341257090454,622.0287079193115,398.9166127090454C615.8779079193115,400.21683270904543,606.5323079193115,402.1924027090454,596.3085079193115,402.1924027090454Z" fill="#FFF1EB" fill-opacity="1"/></g><g style="mix-blend-mode:passthrough" transform="matrix(-1,0,0,1,1193,0)"><path d="M596.5,402.1924027090454L596.5,403.5000027090454C613.8049,403.5000027090454,628.4999,400.4361627090454,628.4999,398.26969870904543C628.4999,397.3372457090454,625.7777,397.9341257090454,621.2968,398.9166127090454C615.3668,400.21683270904543,606.35679,402.1924027090454,596.5,402.1924027090454Z" fill="#FFE4D9" fill-opacity="1"/></g></g></g><g style="mix-blend-mode:passthrough"><g style="mix-blend-mode:passthrough"><path d="M568.5,392.93906428970337L596.5615,397.22954428970337L596.5615,389.50667428970337L568.5,389.50667428970337L568.5,392.93906428970337Z" fill="#FFE4D9" fill-opacity="1"/></g><g style="mix-blend-mode:passthrough"><path d="M596.5625,397.22954428970337L625.501,392.93906428970337L625.501,389.50667428970337L596.5625,389.50667428970337L596.5625,397.22954428970337Z" fill="#FFF1EB" fill-opacity="1"/></g><g style="mix-blend-mode:passthrough"><g style="mix-blend-mode:passthrough"><path d="M596.39453125,394.9413C612.13463125,394.9413,625.50093125,392.38007,625.50093125,389.22064C625.50093125,386.06122,612.13463125,383.5,596.39453125,383.5L596.39453125,394.9413Z" fill="#FFFBFA" fill-opacity="1"/></g><g style="mix-blend-mode:passthrough" transform="matrix(-1,0,0,1,1192.7890625,0)"><path d="M596.39453125,394.9413C611.47883125,394.9413,624.28813125,392.38007,624.28813125,389.22064C624.28813125,386.06122,611.47883125,383.5,596.39453125,383.5L596.39453125,394.9413Z" fill="#FFF8F5" fill-opacity="1"/></g></g><g style="mix-blend-mode:passthrough"><g style="mix-blend-mode:passthrough"><path d="M596.39453125,396.35585219329835L596.39453125,397.5000021932983C612.13463125,397.5000021932983,625.50093125,394.8191421932983,625.50093125,392.92348719329834C625.50093125,392.10759119329833,623.02483125,392.6298611932983,618.94913125,393.48953719329836C613.55543125,394.6272321932983,605.36004125,396.35585219329835,596.39453125,396.35585219329835Z" fill="#FFF1EB" fill-opacity="1"/></g><g style="mix-blend-mode:passthrough" transform="matrix(-1,0,0,1,1193.125,0)"><path d="M596.5625,396.35585219329835L596.5625,397.5000021932983C611.7376,397.5000021932983,624.6241,394.8191421932983,624.6241,392.92348719329834C624.6241,392.10759119329833,622.2369,392.6298611932983,618.3075,393.48953719329836C613.1073,394.6272321932983,605.20618,396.35585219329835,596.5625,396.35585219329835Z" fill="#FFE4D9" fill-opacity="1"/></g></g></g><g style="mix-blend-mode:passthrough"><path d="M573.5,388L596.5,391L597.5,219.5L573.5,214.5L573.5,388Z" fill="#FFE4D9" fill-opacity="1"/></g><g style="mix-blend-mode:passthrough" transform="matrix(-1,0,0,1,1241,0)"><path d="M620.5,387.5L644.5,392.5L643.5,219L620.5,214.5L620.5,387.5Z" fill="#FFF4F0" fill-opacity="1"/></g><g style="opacity:0.800000011920929;mix-blend-mode:passthrough" transform="matrix(0.970295786857605,-0.24192190170288086,0.01745242439210415,0.9998478889465332,12.8948280360637,144.95390884950757)" filter="url(#master_svgc_2184_03184)"><path d="M618.1297,295.1933375L613.9802999999999,294.2787375L614.0441,290.1559675C614.0599,289.1328075,613.5244,288.3283475,612.8471,288.3578975L604.68574,288.7138875C604.00843,288.7434275,603.44724,289.5957375,603.4314,290.6188875L603.37665,294.1558375L618.0954,297.4105375L617.9474,306.9743375C617.9247,308.4402375,617.3749,309.8100375,616.5131,310.5507375L608.77497,317.1986375C608.48023,317.4514375,608.12763,317.4667375,607.84033,317.2386375L600.32403,311.2584375C599.485544,310.5911375,598.9790611,309.2682375,599.00171846,307.8046375L599.110734,300.7626375L603.26021,301.6772375L603.20702,305.1131375C603.20101,305.5011375,603.33658,305.84873749999997,603.55226,306.0149375L608.26913,309.9228375C608.36155,309.9998375,608.47679,309.9956375,608.57172,309.9104375L613.4365,305.5893375C613.6666,305.3989375,613.8137,305.0381375,613.8197,304.6494375L613.864,301.7866375L599.145083,298.5438375L599.268818,290.5509975C599.325997,286.8574675,601.11447,283.5380875,603.52098,282.6585275L603.52114,282.5798675L603.54382,281.1146975L607.0977,280.9596785L607.07664,282.3199075L610.651,282.1639975L610.6721,280.8037645L614.226,280.648746014L614.2033,282.1139175L614.201,282.1926675C616.5835,282.8633275,618.2716,286.0310675,618.2144,289.7245975L618.1297,295.1933375Z" fill-rule="evenodd" fill="#FFFBFA" fill-opacity="1"/></g><g style="mix-blend-mode:passthrough"><g style="mix-blend-mode:passthrough"><path d="M596.5,392.5C609.4787,392.5,620.5,390.26142,620.5,387.5C620.5,384.73858,609.4787,382.5,596.5,382.5L596.5,392.5Z" fill="#FFF4F0" fill-opacity="1"/></g><g style="mix-blend-mode:passthrough" transform="matrix(-1,0,0,1,1193,0)"><path d="M596.5,392.5C608.9379,392.5,619.5,390.26142,619.5,387.5C619.5,384.73858,608.9379,382.5,596.5,382.5L596.5,392.5Z" fill="#FFE4D9" fill-opacity="1"/></g></g><g style="mix-blend-mode:passthrough"><g style="mix-blend-mode:passthrough"><path d="M544.5,195.5L597.5,204L647.5,195.5L597.5,187L544.5,195.5Z" fill="#FFF8F5" fill-opacity="1"/></g><g style="mix-blend-mode:passthrough"><path d="M544.5,210L597.5,219.5L597.5,204L544.5,195.5L544.5,210Z" fill="#FFE4D9" fill-opacity="1"/></g><g style="mix-blend-mode:passthrough" transform="matrix(-1,0,0,1,1295,0)"><path d="M647.5,210L697.5,219.5L697.5,204L647.5,195.5L647.5,210Z" fill="#FFF1EB" fill-opacity="1"/></g></g></g></g><g style="mix-blend-mode:passthrough" transform="matrix(-1,0,0,1,1245.4453125,0)"><g style="mix-blend-mode:passthrough"><path d="M622.72265625,193.39940282287597L648.19215625,197.83400282287596L650.34375625,131.22750282287598L622.72265625,193.39940282287597Z" fill="#FFFBFA" fill-opacity="1"/></g><g style="mix-blend-mode:passthrough" transform="matrix(-1,0,0,1,1356.890625,0)"><path d="M678.4453125,192.8546L708.7191125,197.834L706.4551125,131L678.4453125,192.8546Z" fill="#FFE4D9" fill-opacity="1"/></g></g><g style="opacity:0.5;mix-blend-mode:passthrough"><g style="mix-blend-mode:passthrough"><path d="M344,183.53905073242188L407.5406,199.83935073242188L419.4464,190.83135073242187L357.7175,176.67575073242188L344,183.53905073242188Z" fill="url(#master_svgd_2166_03804)" fill-opacity="1"/></g><g style="mix-blend-mode:passthrough"><path d="M406.546875,199.5036703125L414.109445,200.5012703125L414.438255,143.4722303125L406.546875,141.8095703125L406.546875,199.5036703125Z" fill="#FFE9E0" fill-opacity="1"/></g><g style="mix-blend-mode:passthrough" transform="matrix(-1,0,0,1,844,0)"><path d="M422,199.3374703125L429.89138,201.0000703125L429.56257,143.3059603125L422,141.8095703125L422,199.3374703125Z" fill="#FFF5F2" fill-opacity="1"/></g><g style="mix-blend-mode:passthrough"><g style="mix-blend-mode:passthrough"><path d="M414.1086220741272,200.99997735839844C418.3761120741272,200.99997735839844,422.0000020741272,200.25557735839843,422.0000020741272,199.33732735839843C422.0000020741272,198.41906335839843,418.3761120741272,197.67466735839844,414.1086220741272,197.67466735839844L414.1086220741272,200.99997735839844Z" fill="#FFF5F2" fill-opacity="1"/></g><g style="mix-blend-mode:passthrough" transform="matrix(-1,0,0,1,828.2172441482544,0)"><path d="M414.1086220741272,200.99997735839844C418.1983020741272,200.99997735839844,421.6711920741272,200.25557735839843,421.6711920741272,199.33732735839843C421.6711920741272,198.41906335839843,418.1983020741272,197.67466735839844,414.1086220741272,197.67466735839844L414.1086220741272,200.99997735839844Z" fill="#FFE9E0" fill-opacity="1"/></g></g><g style="mix-blend-mode:passthrough"><g style="mix-blend-mode:passthrough"><path d="M414.1086220741272,143.32531C418.3761120741272,143.32531,422.0000020741272,142.58091,422.0000020741272,141.66266C422.0000020741272,140.744396,418.3761120741272,140,414.1086220741272,140L414.1086220741272,143.32531Z" fill="#FFF8F5" fill-opacity="1"/></g><g style="mix-blend-mode:passthrough" transform="matrix(-1,0,0,1,828.9788284301758,0)"><path d="M414.4894142150879,143.32534C418.5790942150879,143.32534,422.43302421508787,142.58091,422.43302421508787,141.66266C422.43302421508787,140.744396,418.5790942150879,140,414.4894142150879,140L414.4894142150879,143.32534Z" fill="#FFF8F5" fill-opacity="1"/></g></g></g><g style="opacity:0.6000000238418579;mix-blend-mode:passthrough"><g style="mix-blend-mode:passthrough"><path d="M565,154.52421330566406L657.8670999999999,178.30661330566406L675.268,165.16371330566406L585.0487,144.51051330566406L565,154.52421330566406Z" fill="url(#master_svge_2166_03804)" fill-opacity="1"/></g><g style="mix-blend-mode:passthrough"><path d="M656.4140625,177.81674611968992L667.4670625,179.27224611968995L667.9475625,96.06588611968994L656.4140625,93.64004611968994L656.4140625,177.81674611968992Z" fill="#FFF1EB" fill-opacity="1"/></g><g style="mix-blend-mode:passthrough" transform="matrix(-1,0,0,1,1358,0)"><path d="M679,177.57414611968994L690.5335,179.99994611968992L690.053,95.82330611968995L679,93.64004611968994L679,177.57414611968994Z" fill="#FFF8F5" fill-opacity="1"/></g><g style="mix-blend-mode:passthrough"><g style="mix-blend-mode:passthrough"><path d="M667.466194152832,179.99995728271483C673.7032941528321,179.99995728271483,678.999694152832,178.91387728271485,678.999694152832,177.57411728271484C678.999694152832,176.23436728271486,673.7032941528321,175.14827728271484,667.466194152832,175.14827728271484L667.466194152832,179.99995728271483Z" fill="#FFF8F5" fill-opacity="1"/></g><g style="mix-blend-mode:passthrough" transform="matrix(-1,0,0,1,1334.932388305664,0)"><path d="M667.466194152832,179.99995728271483C673.443414152832,179.99995728271483,678.519194152832,178.91387728271485,678.519194152832,177.57411728271484C678.519194152832,176.23436728271486,673.443414152832,175.14827728271484,667.466194152832,175.14827728271484L667.466194152832,179.99995728271483Z" fill="#FFF1EB" fill-opacity="1"/></g></g><g style="mix-blend-mode:passthrough"><g style="mix-blend-mode:passthrough"><path d="M667.466194152832,95.85168C673.7032941528321,95.85168,678.999694152832,94.7656,678.999694152832,93.42584C678.999694152832,92.08609,673.7032941528321,91,667.466194152832,91L667.466194152832,95.85168Z" fill="#FFFBFA" fill-opacity="1"/></g><g style="mix-blend-mode:passthrough" transform="matrix(-1,0,0,1,1336.045669555664,0)"><path d="M668.022834777832,95.85173C674.000054777832,95.85173,679.6327347778321,94.7656,679.6327347778321,93.42584C679.6327347778321,92.08609,674.000054777832,91,668.022834777832,91L668.022834777832,95.85173Z" fill="#FFFBFA" fill-opacity="1"/></g></g></g><g style="mix-blend-mode:passthrough"><g style="mix-blend-mode:passthrough"><path d="M243,124.96508L267.1856,128.93047L290,124.96508L267.1856,121L243,124.96508Z" fill="#FFF8F5" fill-opacity="1"/></g><g style="mix-blend-mode:passthrough"><path d="M243,156.56828193016054L267.185,160.99998193016052L267.1856,128.93016193016052L243,124.96508193016052L243,156.56828193016054Z" fill="#FFE4D9" fill-opacity="1"/></g><g style="mix-blend-mode:passthrough" transform="matrix(-1,0,0,1,580,0)"><path d="M290,156.56828193016054L312.816,160.99998193016052L312.8167,128.93016193016052L290,124.96508193016052L290,156.56828193016054Z" fill="#FFF8F5" fill-opacity="1"/></g></g></g></svg>