<?xml version="1.0" encoding="UTF-8"?>
<svg width="151px" height="46px" viewBox="0 0 151 46" version="1.1" xmlns="http://www.w3.org/2000/svg" xmlns:xlink="http://www.w3.org/1999/xlink">
    <title>exchangeph</title>
    <defs>
        <path d="M66.46,29.5000019 L66.46,27.0800019 L58.16,27.0800019 L58.16,22.8800019 L65.34,22.8800019 L65.34,20.6600019 L58.16,20.6600019 L58.16,16.9800019 L66.28,16.9800019 L66.28,14.6200019 L55.4,14.6200019 L55.4,29.5000019 L66.46,29.5000019 Z M70.52,29.5000019 L71.94,27.3600019 C72.4,26.6000019 73.04,25.3400019 73.04,25.3400019 L73.08,25.3400019 C73.08,25.3400019 73.7,26.6000019 74.16,27.3600019 L75.56,29.5000019 L78.5,29.5000019 L74.58,23.7800019 L77.96,18.8200019 L75.24,18.8200019 L74.16,20.5000019 C73.74,21.2000019 73.16,22.4000019 73.16,22.4000019 L73.12,22.4000019 C73.12,22.4000019 72.56,21.2200019 72.12,20.5000019 L71.06,18.8200019 L68.14,18.8200019 L71.6,23.9000019 L67.72,29.5000019 L70.52,29.5000019 Z M84.92,29.8200019 C87.78,29.8200019 89.6,28.1000019 89.76,25.6200019 L87.28,25.6200019 C87.14,27.0200019 86.3,27.8400019 84.9,27.8400019 C83.04,27.8400019 82.08,26.2800019 82.08,24.1800019 C82.08,22.0200019 83.04,20.4800019 84.9,20.4800019 C86.18,20.4800019 86.98,21.2200019 87.22,22.3800019 L89.7,22.3800019 C89.32,20.0800019 87.6,18.5400019 84.88,18.5400019 C81.6,18.5400019 79.5,21.0000019 79.5,24.1800019 C79.5,27.3400019 81.62,29.8200019 84.92,29.8200019 Z M93.96,29.5000019 L93.96,23.2400019 C93.96,21.7200019 94.96,20.6400019 96.38,20.6400019 C97.68,20.6400019 98.42,21.4200019 98.42,22.6800019 L98.42,29.5000019 L100.96,29.5000019 L100.96,22.2600019 C100.96,19.9600019 99.58,18.5400019 97.28,18.5400019 C95.78,18.5400019 94.7,19.2200019 93.98,20.3600019 L93.92,20.3600019 C93.94,19.7400019 93.96,18.9200019 93.96,18.6200019 L93.96,14.6200019 L91.42,14.6200019 L91.42,29.5000019 L93.96,29.5000019 Z M106.36,29.7600019 C108.06,29.7600019 109.02,29.0600019 109.72,28.1200019 L109.76,28.1200019 C109.82,28.8400019 109.96,29.2600019 110.12,29.5000019 L112.58,29.5000019 L112.58,29.3200019 C112.34,29.1600019 112.18,28.7000019 112.18,27.8200019 L112.18,22.2000019 C112.18,20.7800019 111.66,19.7600019 110.66,19.1600019 C109.96,18.7200019 109.02,18.5400019 107.8,18.5400019 C104.76,18.5400019 103.32,20.2000019 103.24,22.0200019 L105.64,22.0200019 C105.7,20.9600019 106.4,20.3000019 107.82,20.3000019 C109.1,20.3000019 109.74,20.9200019 109.74,21.8400019 C109.74,22.8000019 108.86,23.0800019 107.1,23.3000019 C104.56,23.6000019 102.72,24.1800019 102.72,26.6000019 C102.72,28.6800019 104.28,29.7600019 106.36,29.7600019 Z M107.1,28.0200019 C106.12,28.0200019 105.26,27.6800019 105.26,26.5400019 C105.26,25.3600019 106.16,25.0400019 107.72,24.7400019 C108.5,24.5800019 109.3,24.3600019 109.8,24.0400019 L109.8,25.6200019 C109.8,26.8200019 108.84,28.0200019 107.1,28.0200019 Z M117.06,29.5000019 L117.06,23.2400019 C117.06,21.7200019 118.06,20.6400019 119.48,20.6400019 C120.78,20.6400019 121.52,21.4200019 121.52,22.6800019 L121.52,29.5000019 L124.06,29.5000019 L124.06,22.2600019 C124.06,19.9600019 122.68,18.5400019 120.38,18.5400019 C118.88,18.5400019 117.76,19.2000019 117.06,20.3800019 L117,20.3800019 L117,18.8200019 L114.52,18.8200019 L114.52,29.5000019 L117.06,29.5000019 Z M131.04,33.2200019 C132.54,33.2200019 133.84,32.8800019 134.72,32.1400019 C135.56,31.4000019 136.06,30.3000019 136.06,28.8000019 L136.06,18.8200019 L133.6,18.8200019 L133.6,20.2000019 L133.56,20.2000019 C132.92,19.0600019 131.9,18.5400019 130.4,18.5400019 C127.84,18.5400019 125.88,20.5800019 125.88,23.7800019 C125.88,26.9600019 127.94,28.9200019 130.54,28.9200019 C131.96,28.9200019 132.9,28.3400019 133.56,27.2800019 L133.64,27.2800019 C133.62,27.6400019 133.58,28.1800019 133.58,28.7600019 L133.58,29.0200019 C133.58,30.5600019 132.7,31.3600019 131,31.3600019 C129.6,31.3600019 128.78,30.9200019 128.6,30.0400019 L126.16,30.0400019 C126.42,32.0600019 128.18,33.2200019 131.04,33.2200019 Z M131,26.9600019 C129.34,26.9600019 128.4,25.7000019 128.4,23.7400019 C128.4,21.7800019 129.32,20.5200019 130.98,20.5200019 C132.8,20.5200019 133.68,21.8000019 133.68,23.7000019 C133.68,25.5600019 132.94,26.9600019 131,26.9600019 Z M143.3,29.8200019 C145.92,29.8200019 147.64,28.4000019 148.16,26.4800019 L145.68,26.4800019 C145.34,27.3600019 144.54,27.8800019 143.32,27.8800019 C141.56,27.8800019 140.56,26.6400019 140.38,24.8000019 L148.36,24.8000019 C148.38,22.8200019 147.88,21.1400019 146.84,20.0400019 C145.94,19.0800019 144.72,18.5400019 143.16,18.5400019 C140,18.5400019 137.86,21.0000019 137.86,24.1800019 C137.86,27.3400019 139.9,29.8200019 143.3,29.8200019 Z M145.74,23.2000019 L140.42,23.2000019 C140.64,21.5200019 141.5,20.3800019 143.16,20.3800019 C144.7,20.3800019 145.64,21.4400019 145.74,23.2000019 Z" id="path-1"></path>
    </defs>
    <g id="ph-1" stroke="none" stroke-width="1" fill="none" fill-rule="evenodd">
        <g id="ph-1" transform="translate(-75.000000, -51.000000)">
            <g id="ph-5" transform="translate(75.000000, 51.499998)">
                <g id="ph-123">
                    <ellipse id="ph-23" fill="#196462" fill-rule="nonzero" cx="22.5" cy="22.5000019" rx="22.5" ry="22.5000019"></ellipse>
                    <g id="ph" transform="translate(9.189362, 10.150002)">
                        <path d="M18.4132488,14.9554056 C20.5119308,14.9554056 22.2132488,13.2540876 22.2132488,11.1554056 C22.2132488,9.05672353 20.5119308,7.35540558 18.4132488,7.35540558 C17.2543335,7.35540558 16.2165892,7.87420035 15.5195881,8.69221767 C14.9543885,9.35554956 17.9940352,10.5804384 17.9940352,11.5202051 C17.9940352,13.6188872 16.3145667,14.9554056 18.4132488,14.9554056 Z" id="ph" fill="#0DBACD"></path>
                        <path d="M6.4641343,13.8486937 L13.2245392,9.73421388 C14.7105923,8.82978053 16.64331,9.23165024 17.6456601,10.6534969 C18.6006764,12.0082 18.2766662,13.8805975 16.9219631,14.8356138 C16.8978993,14.8525779 16.8735872,14.869187 16.8490345,14.8854357 L12.9453298,17.4688692 L12.9453298,17.4688692 C12.9453298,19.7731689 12.102805,21.5156926 10.4177553,22.6964403 C8.73270564,23.877188 6.72294692,24.2917239 4.38847916,23.9400478" id="ph" stroke="#FFFFFF" stroke-width="1.71" stroke-linecap="round"></path>
                        <path d="M9.42127573,11.7297397 L9.42127573,0.95 C9.42127573,0.425329488 9.84660522,-6.80775708e-16 10.3712757,0 L23.6712757,0 C24.1959462,8.35621643e-16 24.6212757,0.425329488 24.6212757,0.95 L24.6212757,23.75 C24.6212757,24.2746705 24.1959462,24.7 23.6712757,24.7 L13.359679,24.7 L13.359679,24.7" id="ph-3" stroke="#FFFFFF" stroke-width="1.71" stroke-linecap="round"></path>
                        <path d="M9.42127573,4.2906648 L3.63619758,7.826949 C1.37750719,9.20763409 5.63982847e-16,11.664155 0,14.3114128 L0,24.0611071 L0,24.0611071" id="ph-4" stroke="#FFFFFF" stroke-width="1.71"></path>
                    </g>
                </g>
                <g id="Exchange" fill-rule="nonzero" fill="#3D3D3D">
                    <use xlink:href="#path-1"></use>
                    <use xlink:href="#path-1"></use>
                </g>
            </g>
        </g>
    </g>
</svg>