<svg xmlns="http://www.w3.org/2000/svg" xmlns:xlink="http://www.w3.org/1999/xlink" fill="none" version="1.1" width="204" height="60.00048828125" viewBox="0 0 204 60.00048828125"><g><g><path d="M187.62577752929687,30.9451110168457C187.62577752929687,35.3106610168457,187.57311752929687,39.2550610168457,187.65625752929688,43.1993610168457C187.68121752929687,44.40166101684571,187.31814752929688,44.7056610168457,186.1956775292969,44.6080610168457C185.00392752929687,44.5048610168457,183.79555752929687,44.557861016845706,182.59549452929687,44.596961016845704C181.99685652929688,44.616461016845705,181.79452556929687,44.4267610168457,181.79452556929687,43.81306101684571C181.81115392929686,36.8867610168457,181.81115392929686,29.960421016845704,181.79175136109689,23.034092016845705C181.78897714929687,22.414823016845702,181.98853452929689,22.186084416845702,182.58162252929688,22.266980016845704C182.71742452929686,22.286507016845704,182.86154752929687,22.289297016845705,182.9973475292969,22.266980016845704C186.13746752929688,21.703502016845704,188.26875752929686,22.880669016845705,190.08963752929688,25.586481016845703C192.45091752929687,29.098461016845704,195.29171752929688,32.284061016845705,198.15751752929688,35.8992610168457C198.15751752929688,32.141761016845706,198.15751752929688,28.730251016845703,198.15751752929688,25.315901016845704C198.15751752929688,22.269770016845705,198.15751752929688,22.269770016845705,201.24211752929688,22.269770016845705C203.97761752929688,22.269770016845705,203.97761752929688,22.269770016845705,203.97761752929688,24.970001016845703C203.97761752929688,31.106901016845704,203.95541752929688,37.2409610168457,203.99981752929688,43.3778610168457C204.00811752929687,44.3430610168457,203.73931752929687,44.5104610168457,202.79701752929688,44.6359610168457C199.6679175292969,45.0460610168457,197.51171752929687,44.0529610168457,195.69081752929688,41.3025610168457C193.35171752929688,37.7682610168457,190.49705752929688,34.582661016845705,187.62577752929687,30.9451110168457Z" fill="#ADADAD" fill-opacity="1"/></g><g><path d="M76.99296235961914,36.345549478149415C75.73186235961914,36.345549478149415,74.58176235961915,36.31764947814941,73.43436235961914,36.35674947814941C72.80516235961915,36.37904947814941,72.57516235961914,36.22284947814941,72.54186235961915,35.52264947814942C72.37836235961915,32.12226947814941,72.35346235961914,32.12226947814941,75.74026235961914,32.12226947814941C77.95746235961914,32.12226947814941,80.17186235961914,32.15574947814942,82.38626235961914,32.10553947814941C83.19556235961915,32.086009478149414,83.40346235961914,32.36494947814941,83.38406235961914,33.143249478149414C83.26486235961914,37.545049478149416,82.01766235961914,41.375049478149414,77.74126235961914,43.350049478149415C73.40936235961914,45.350049478149415,69.12186235961914,45.13804947814941,65.20850235961915,42.18954947814942C61.84944435961914,39.65944947814941,60.47200735961914,34.30924947814941,61.85221435961914,29.628459478149413C63.06890235961914,25.494419478149414,66.73837235961913,22.618450478149413,71.16723235961913,22.319973778149414C75.38266235961915,22.038235478149414,79.01886235961913,23.059193478149414,81.51876235961915,26.822229478149413C82.13126235961914,27.742759478149413,82.28376235961915,28.314609478149414,81.00886235961914,28.638189478149414C80.47946235961913,28.772089478149415,79.98616235961914,29.053829478149414,79.47346235961913,29.263039478149416C78.75006235961914,29.558729478149413,78.02396235961913,30.074779478149413,77.29776235961914,30.077569478149414C76.50236235961914,30.080359478149415,76.48576235961914,28.981299478149413,75.97026235961914,28.468029478149415C74.62326235961913,27.126279478149414,73.02966235961914,26.763649478149414,71.26423235961914,27.187649478149414C69.11632235961915,27.703709478149413,67.93288235961914,29.240729478149415,67.37581235961915,31.299369478149416C66.98226235961914,32.758249478149416,67.01552235961914,34.24224947814942,67.36195235961914,35.71234947814941C68.19895235961914,39.249449478149415,72.28696235961914,40.93984947814941,75.39936235961915,39.04304947814941C76.33056235961914,38.473949478149414,76.79336235961914,37.606449478149415,76.99296235961914,36.345549478149415Z" fill="#ADADAD" fill-opacity="1"/></g><g><path d="M135.24439932861327,29.787465466308593C132.1679993286133,26.638115466308594,128.4209593286133,27.221125466308592,126.40606932861328,29.276985466308595C124.34683932861329,31.380265466308593,124.33852932861328,35.31626546630859,126.40052932861329,37.53946546630859C128.64544932861327,39.960765466308594,132.04329932861327,39.84916546630859,135.2415993286133,37.084765466308596C135.2415993286133,39.21596546630859,135.24439932861327,41.176965466308594,135.2415993286133,43.13796546630859C135.2415993286133,43.64286546630859,134.81759932861328,43.670765466308595,134.48499932861327,43.8018654663086C128.2962293286133,46.23996546630859,121.47555932861329,42.981765466308595,119.59094132861328,36.68866546630859C117.67305932861328,30.283995466308596,121.45061932861329,23.851405466308595,127.97750932861328,22.467816466308594C130.19469932861327,21.996390466308593,132.3786993286133,22.264181966308595,134.50989932861327,23.025716466308594C134.98939932861327,23.195875466308593,135.27209932861328,23.388355466308592,135.25829932861328,23.985305466308596C135.21949932861327,25.837535466308594,135.24439932861327,27.689765466308593,135.24439932861327,29.787465466308593Z" fill="#ADADAD" fill-opacity="1"/></g><g><path d="M104.4806971875,35.98017925415039C104.4806971875,33.47237925415039,104.4280371875,30.96184925415039,104.5056371875,28.45408925415039C104.5388971875,27.43591925415039,104.1980071875,27.23786925415039,103.2667771875,27.26017925415039C102.1360071875,27.285289254150392,100.3539251875,27.79576925415039,99.9991731875,27.062129254150392C99.4337841875,25.89053925415039,99.8079391875,24.26704925415039,99.7608278875,22.83324725415039C99.7414253875,22.28371565415039,100.0573811875,22.26418924415039,100.4647921875,22.26418924415039C105.0821171875,22.26976725415039,109.6967171875,22.275347454150392,114.3140171875,22.25861117745039C114.8572171875,22.25582108415039,115.0817171875,22.43713925415039,115.0124171875,22.97551225415039C115.0069171875,23.02014525415039,115.0124171875,23.06756625415039,115.0124171875,23.11498725415039C115.0013171875,24.414889254150392,115.4558171875,26.02722925415039,114.8544171875,26.931019254150392C114.1920171875,27.92965925415039,112.4792171875,27.21554925415039,111.2348171875,27.25738925415039C110.3923171875,27.285289254150392,110.2842171875,27.59491925415039,110.2897171875,28.31739925415039C110.3147171875,33.33567925415039,110.2787171875,38.35397925415039,110.32581718750001,43.369579254150395C110.3341171875,44.32357925415039,110.1207171875,44.68057925415039,109.1229671875,44.60807925415039C107.8841071875,44.515979254150395,106.6286071875,44.54107925415039,105.3869771875,44.602479254150396C104.6303571875,44.63877925415039,104.4612971875,44.35427925415039,104.4696071875,43.64847925415039C104.5028771875,41.09327925415039,104.4806971875,38.53537925415039,104.4806971875,35.98017925415039Z" fill="#ADADAD" fill-opacity="1"/></g><g><path d="M88.40598498125,33.330131915283204C88.40598498125,29.988311915283205,88.43924168125,26.646491915283203,88.38381671625,23.304671915283205C88.36996258125,22.417611915283203,88.63325078125,22.202821615283202,89.46747078125,22.247452515283204C90.75622078125,22.317190015283202,92.05052078125,22.311611915283205,93.33927078125,22.250242615283202C94.09589078125,22.213979915283204,94.24278078125,22.501297915283203,94.24278078125,23.198672915283204C94.22061078125,30.021791915283202,94.21784078125,36.844931915283205,94.24278078125,43.66803191528321C94.24555078125,44.401631915283204,94.03491078125,44.633231915283204,93.30601078125,44.5997319152832C92.01726078125,44.5439319152832,90.72020078125,44.5216319152832,89.43422078125,44.6053319152832C88.52516578125,44.663831915283204,88.38105096125,44.304031915283204,88.38936513125,43.49503191528321C88.42816178125,40.108631915283205,88.40598498125,36.719331915283206,88.40598498125,33.330131915283204Z" fill="#ADADAD" fill-opacity="1"/></g><g><path d="M175.70832573730468,33.48352453613281C175.70832573730468,36.82532453613281,175.6833757373047,40.167224536132814,175.7277257373047,43.50902453613281C175.7388057373047,44.33752453613281,175.5586657373047,44.66382453613281,174.6690057373047,44.60812453613281C173.38302573730468,44.52722453613281,172.0859657373047,44.54392453613281,170.7972287373047,44.60252453613281C170.05169373730467,44.63592453613281,169.8715395691047,44.37092453613281,169.87431377730468,43.65682453613282C169.8964905373047,36.83372453613281,169.8992647373047,30.010624536132813,169.8715395691047,23.190302536132812C169.86876535730468,22.46782253613281,170.0489197373047,22.219555636132814,170.7889067373047,22.255820466132814C172.0776657373047,22.317189736132814,173.3747257373047,22.328348036132812,174.66068573730468,22.253030366132812C175.51708573730468,22.202819336132812,175.74433573730468,22.45945253613281,175.7304857373047,23.32419453613281C175.6778457373047,26.705074536132813,175.70832573730468,30.094314536132813,175.70832573730468,33.48352453613281Z" fill="#ADADAD" fill-opacity="1"/></g><g><path d="M39.073233970458986,23.65614734680176C40.251125970458986,22.378557346801756,41.509385970458986,21.19023734680176,42.859105970458984,20.102327346801758C45.58903597045899,23.98809734680176,47.10504597045899,28.28671734680176,47.057935970458985,33.07072734680176C47.01358597045898,37.50042734680176,45.622295970458985,41.514527346801756,43.16396597045898,45.166027346801755C41.74773597045898,44.10592734680176,40.334265970458986,43.04592734680176,38.918025970458984,41.98592734680176C38.954056870458984,41.34432734680176,39.40858297045899,40.898027346801754,39.680188970458985,40.373627346801754C42.34360597045898,35.25212734680176,42.19116597045898,30.152927346801757,39.591498970458986,25.064847346801756C39.36423797045899,24.612947346801757,39.028888970458986,24.208467346801758,39.073233970458986,23.65614734680176Z" fill="#ADADAD" fill-opacity="1"/></g><g><path d="M43.1644,45.16528828125C44.2065,45.99378828125,45.2347,46.84738828125,46.3018,47.64508828125C46.8755,48.07188828125,47.1249,48.57678828125,47.1194,49.29368828125C47.1,52.35938828125,47.1055,55.42508828125,47.1138,58.49068828125C47.1166,59.43638828125,46.7452,59.99148828125,45.7281,59.97468828125C43.1513,59.93128828125,40.5732,59.95308828125,37.9953,59.97488828125C33.2808,60.01478828125,28.567,60.05468828125,23.8637,59.69578828125C12.1541,58.80308828125,1.7443,48.43738828125,0.231061,36.70748828125C-1.26832,25.11158828125,4.63498,13.55748828125,15.078,8.53635828125C15.6434,8.26577828125,15.8984,7.93939828125,15.8928,7.26991828125C15.8806,6.00396828125,15.9151,4.73648828125,15.9496,3.46861828125C15.9619,3.01834828125,15.9741,2.56803828125,15.9843,2.11771828125C16.0148,0.79270628125,16.63,0.02001538125,17.6638,0.00048828125C18.7752,-0.01903771875,19.4209,0.77039028125,19.4237,2.17071828125C19.4244,2.46806828125,19.4264,2.76540828125,19.4285,3.06271828125C19.4351,4.02052828125,19.4417,4.97794828125,19.4015,5.93375828125C19.3711,6.67296828125,19.6371,6.84033828125,20.2746,6.60044828125C20.3605,6.56696828125,20.4492,6.53628828125,20.5351,6.50838828125C20.9737,6.36953828125,21.4842,6.33422828125,21.984,6.29965828125C22.8297,6.24115828125,23.645,6.18476828125,24.03,5.63248828125C24.4655,5.00653828125,24.3917,4.00949828125,24.3193,3.03242828125C24.2927,2.67275828125,24.2663,2.31578828125,24.2655,1.98102828125C24.2628,0.78991728125,24.8476,0.07301588125,25.97,0.05906848125C27.1008,0.04512098125,27.7216,0.77318028125,27.7244,1.94476828125C27.7249,2.13376828125,27.7261,2.32276828125,27.7272,2.51173828125C27.7321,3.29898828125,27.7369,4.08587828125,27.6967,4.87095828125C27.6634,5.54601828125,27.8131,5.82217828125,28.578,5.87238828125C35.601,6.34659828125,41.496,9.24767828125,46.3932,14.31618828125C47.2773,15.23118828125,47.2884,15.88948828125,46.3461,16.73188828125C45.1405,17.80588828125,44.018,18.97468828125,42.8595,20.10158828125C42.4743,21.23978828125,41.277,21.59678828125,40.6008,22.46708828125C40.1795,23.00828828125,39.6391,23.46018828125,39.1679,23.96508828125C37.7184,25.18688828125,36.4186,26.57878828125,34.9247,27.74488828125C34.2319,28.28598828125,34.0961,28.76578828125,34.4286,29.63058828125C35.2878,31.88448828125,35.31,34.19978828125,34.2235,36.38948828125C33.7275,37.38538828125,34.0268,37.90698828125,34.7972,38.47608828125C36.1747,39.49138828125,37.5494,40.50958828125,38.8935,41.56678828125C40.2433,42.84998828125,42.0087,43.64218828125,43.1644,45.16528828125ZM15.7902,13.77828828125C15.7902,14.54958828125,15.7899,15.31998828125,15.7896,16.08988828125L15.7896,16.08988828125C15.789,17.62918828125,15.7884,19.16488828125,15.7902,20.70178828125C15.793,22.12718828125,16.411,22.89158828125,17.5335,22.87758828125C18.6449,22.86368828125,19.2546,22.07418828125,19.2629,20.66268828125C19.2671,19.87408828125,19.2738,19.08548828125,19.2806,18.29678828125L19.2806,18.29678828125C19.2961,16.48258828125,19.3116,14.66878828125,19.2962,12.85488828125C19.2906,12.12128828125,19.5262,11.80888828125,20.2385,11.60248828125C27.1395,9.61910828125,33.5472,10.61218828125,39.4838,14.69318828125C40.2709,15.23438828125,40.4427,15.63888828125,39.6224,16.38088828125C36.5321,19.17318828125,33.4779,22.01008828125,30.4598,24.88328828125C29.8817,25.43278828125,29.3993,25.30858828125,28.7878,25.15118828125C28.7661,25.14558828125,28.7441,25.13998828125,28.722,25.13428828125C24.3542,24.02408828125,20.1747,26.57368828125,19.0717,30.99508828125C18.0268,35.17928828125,20.5572,39.39978828125,24.7921,40.56018828125C25.7455,40.82248828125,26.7376,40.96188828125,27.6633,40.71368828125C28.7498,40.42358828125,29.4676,40.83358828125,30.2685,41.45568828125C33.9879,44.35118828125,37.7433,47.19918828125,41.482,50.06688828125C42.2498,50.65538828125,42.7708,54.05028828125,42.222,54.81458828125C42.0059,55.11588828125,41.6844,55.15208828125,41.3546,55.13818828125C39.0977,55.04948828125,36.8361,55.07998828125,34.5751,55.11038828125C30.6469,55.16338828125,26.7205,55.21628828125,22.8243,54.64438828125C13.7199,53.31098828125,5.96801,45.05408828125,4.97303,35.85158828125C4.00024,26.83868828125,7.21518,19.69478828125,14.5098,14.39748828125C14.8091,14.17988828125,15.1278,13.99308828125,15.4465,13.80338828125C15.4834,13.78308828125,15.5344,13.78328828125,15.6093,13.78348828125C15.6584,13.78358828125,15.7178,13.78378828125,15.7902,13.77828828125ZM29.9161,32.81668828125C29.8911,31.10948828125,28.5192,29.74268828125,26.8314,29.74268828125C25.0715,29.74548828125,23.6746,31.16528828125,23.7024,32.92268828125C23.7273,34.61588828125,25.0881,35.97438828125,26.7898,36.00228828125C28.5026,36.03018828125,29.941,34.56568828125,29.9161,32.81668828125Z" fill-rule="evenodd" fill="#ADADAD" fill-opacity="1"/></g><g><path d="M162.8843163330078,38.80332883300781C167.1303163330078,31.042958833007813,161.58171633300782,22.236515933007812,154.25111633300781,22.261620373007812C149.13213633300782,22.24488193300781,146.0973563330078,23.318838833007813,143.7970063330078,25.943758833007813C140.6569083330078,29.531058833007812,140.0748903330078,33.693028833007816,141.9345663330078,38.005528833007816C143.7748363330078,42.27072883300781,147.3168163330078,44.36562883300781,151.87041633300782,44.58322883300781C156.61241633300781,44.80912883300781,160.5369163330078,43.09362883300781,162.8843163330078,38.80332883300781ZM158.5446163330078,33.397628833007815C158.5446163330078,30.111558833007813,155.96711633300782,27.584268833007812,152.61361633300783,27.575898833007813C149.2794863330078,27.567528833007813,146.6714963330078,30.10597883300781,146.65488633300782,33.37802883300781C146.6354863330078,36.675228833007814,149.20465633300782,39.26392883300781,152.51941633300783,39.28622883300781C155.9034163330078,39.30852883300781,158.5446163330078,36.72822883300781,158.5446163330078,33.397628833007815Z" fill-rule="evenodd" fill="#ADADAD" fill-opacity="1"/></g></g></svg>