<svg xmlns="http://www.w3.org/2000/svg" xmlns:xlink="http://www.w3.org/1999/xlink" fill="none" version="1.1" width="80" height="80" viewBox="0 0 80 80"><g style="mix-blend-mode:passthrough"><g><g style="mix-blend-mode:passthrough"><path d="M2.53765e-15,40C2.53765e-15,62.0914,17.9086,80,40,80C62.0914,80,80,62.0914,80,40C80,17.9086,62.0914,1.26883e-15,40,0C17.9086,-1.26883e-15,2.53765e-15,17.9086,2.53765e-15,40Z" fill-rule="evenodd" fill="#FF9463" fill-opacity="0.03999999910593033"/></g><g style="mix-blend-mode:passthrough"><g><g style="mix-blend-mode:passthrough"><path d="M40.5,38.650999999999996L58,25.5C57.4411,25.214286,56.8124,25,56.1836,25L24.74651,25C24.11776,25,23.558882,25.142857,23,25.428571L40.5,38.650999999999996Z" fill="#FF7F45" fill-opacity="1"/></g><g style="mix-blend-mode:passthrough"><path d="M40.5,41.1047C40.7089,41.1047,40.9179,41.0349,41.1268,40.8953L59.5125,27.0698254C59.7911,27.628429,60,28.25686,60,28.95511L60,40.3397Q59.4324,40.012,58.8268,39.7612Q58.2213,39.510400000000004,57.5882,39.3407Q56.9551,39.171099999999996,56.3053,39.0856Q55.6554,39,55,39Q54.7545,39,54.5093,39.012Q54.2641,39.024100000000004,54.0198,39.0482Q53.7755,39.0722,53.5327,39.1082Q53.2899,39.1443,53.0491,39.192099999999996Q52.8083,39.24,52.5702,39.2997Q52.3321,39.3593,52.0972,39.4306Q51.8622,39.5019,51.6311,39.5846Q51.4,39.6673,51.1732,39.7612Q50.9464,39.8551,50.7244,39.9601Q50.5025,40.0651,50.286,40.1808Q50.069500000000005,40.2965,49.859,40.4227Q49.648399999999995,40.5489,49.4443,40.6853Q49.2402,40.8217,49.043,40.9679Q48.8458,41.1142,48.656099999999995,41.2699Q48.466300000000004,41.4256,48.284400000000005,41.5905Q48.1025,41.7553,47.9289,41.9289Q47.7553,42.1025,47.5905,42.2844Q47.4256,42.466300000000004,47.2699,42.6561Q47.1142,42.8458,46.9679,43.043Q46.8217,43.2402,46.6853,43.4443Q46.5489,43.648399999999995,46.4227,43.859Q46.2965,44.069500000000005,46.180800000000005,44.286Q46.0651,44.5025,45.9601,44.7244Q45.8551,44.9464,45.7612,45.1732Q45.6673,45.4,45.584599999999995,45.6311Q45.5019,45.8622,45.4306,46.0972Q45.359300000000005,46.3321,45.2997,46.5702Q45.239999999999995,46.8083,45.192099999999996,47.049099999999996Q45.1443,47.2899,45.1082,47.5327Q45.072199999999995,47.7755,45.0482,48.019800000000004Q45.024100000000004,48.2641,45.012,48.509299999999996Q45,48.7545,45,49Q45,49.8061,45.1291,50.6018Q45.2583,51.3975,45.5132,52.1623Q45.768100000000004,52.927,46.1422,53.6411Q46.5163,54.3551,47,55L24.83036,55C22.74107,55,21,53.254400000000004,21,51.1596L21,28.95511C21,28.25686,21.208929,27.558603,21.557143,27L39.8732,40.8953C40.0821,41.0349,40.2911,41.1047,40.5,41.1047Z" fill-rule="evenodd" fill="#FF7F45" fill-opacity="1"/></g><g style="mix-blend-mode:passthrough"><g><g style="mix-blend-mode:passthrough"><path d="M54.13470590881348,51.966224670410156C53.937545908813476,51.966224670410156,53.741175908813474,51.890114670410156,53.59077590881348,51.738674670410155L50.513430908813476,48.62747467041016C50.21341100881347,48.323804670410155,50.21341100881347,47.831034670410155,50.513430908813476,47.527374670410154C50.814228908813476,47.22370467041016,51.30127590881348,47.22370467041016,51.601295908813476,47.527374670410154L54.13470590881348,50.08852467041016L58.97553590881348,45.19456267041016C59.27555590881347,44.890112170410156,59.76260590881348,44.890112170410156,60.06340590881348,45.19456267041016C60.36341590881348,45.49822767041016,60.36341590881348,45.990214670410154,60.06340590881348,46.293874670410155L54.678635908813476,51.738674670410155C54.52823590881348,51.890114670410156,54.33108590881348,51.966224670410156,54.13470590881348,51.966224670410156Z" fill="#FF7F45" fill-opacity="1"/><path d="M54.891495908813475,51.95007467041016Q54.577515908813474,52.26622467041015,54.13470590881348,52.26622467041015Q53.69189590881348,52.26622467041015,53.377905908813474,51.95007467041016L50.30014110881348,48.838444670410155Q49.98841590881348,48.522924670410156,49.98841590881348,48.07742467041015Q49.98841590881348,47.631914670410154,50.300021208813476,47.31652467041015Q50.61393090881348,46.99962467041016,51.05765390881348,46.99962467041016Q51.501605908813474,46.99962467041016,51.81470590881348,47.31652467041015L54.34798590881348,49.87754467041016L54.13470590881348,50.08852467041016L53.92141590881348,49.87754467041016L58.76225590881347,44.98359107041016Q59.07499590881348,44.66622467041016,59.51917590881348,44.66622467041016Q59.963125908813474,44.66622467041016,60.27680590881348,44.98371397041016Q60.588415908813474,45.29910767041016,60.588415908813474,45.74422067041016Q60.588415908813474,46.189334670410155,60.27680590881348,46.504724670410155L54.89193590881348,51.94962467041016L54.891495908813475,51.95007467041016ZM54.46533590881348,51.527714670410155L59.849995908813476,46.08303467041016Q59.98841590881348,45.942925670410155,59.98841590881348,45.74422067041016Q59.98841590881348,45.545515670410154,59.849995908813476,45.405410670410156Q59.712475908813474,45.26622467041015,59.51917590881348,45.26622467041015Q59.326105908813474,45.26622467041015,59.18882590881348,45.40553367041016L54.13470590881348,50.515114670410156L51.38788590881347,47.73821467041016Q51.25095190881348,47.59962467041016,51.05765390881348,47.59962467041016Q50.86412790881348,47.59962467041016,50.726839908813474,47.738224670410155Q50.588415908813474,47.87832467041016,50.588415908813474,48.07742467041015Q50.588415908813474,48.276524670410154,50.72671990881348,48.416504670410156L53.803635908813476,51.52727467041016Q53.941635908813474,51.66622467041016,54.13470590881348,51.66622467041016Q54.32777590881348,51.66622467041016,54.46577590881348,51.52727467041016L54.46533590881348,51.527714670410155Z" fill="#FF7F45" fill-opacity="1"/></g></g></g></g></g></g></g></svg>