<svg xmlns="http://www.w3.org/2000/svg" xmlns:xlink="http://www.w3.org/1999/xlink" fill="none" version="1.1" width="12" height="12" viewBox="0 0 12 12"><g style="mix-blend-mode:passthrough"><g><g style="mix-blend-mode:passthrough"><ellipse cx="6" cy="6" rx="5.5" ry="5.5" fill-opacity="0" stroke-opacity="1" stroke="#FF6461" stroke-width="1" fill="none" stroke-dasharray=""/></g><g style="mix-blend-mode:passthrough"><path d="M9.49951171875,1.04962158253125C9.22337171875,1.04962158253125,8.99951171875,1.27347914453125,8.99951171875,1.54962114453125L8.99951171875,4.04961814453125L6.49951171875,4.04961814453125C6.22336871875,4.04961814453125,5.99951171875,4.27347814453125,5.99951171875,4.54961814453125C5.99951171875,4.82576814453125,6.22336871875,5.04961814453125,6.49951171875,5.04961814453125L8.99951171875,5.04961814453125L8.99951171875,7.54961814453125C8.99951171875,7.82576814453125,9.22337171875,8.04961814453125,9.49951171875,8.04961814453125C9.77565171875,8.04961814453125,9.99951171875,7.82576814453125,9.99951171875,7.54961814453125L9.99951171875,5.04961814453125L12.49951171875,5.04961814453125C12.77565171875,5.04961814453125,12.99951171875,4.82576814453125,12.99951171875,4.54961814453125C12.99951171875,4.27347814453125,12.77565171875,4.04961814453125,12.49951171875,4.04961814453125L9.99951171875,4.04961814453125L9.99951171875,1.54962114453125C9.99951171875,1.27347914453125,9.77565171875,1.04962158253125,9.49951171875,1.04962158253125Z" fill-rule="evenodd" transform="matrix(0.7071067094802856,0.7071067094802856,-0.7071067094802856,0.7071067094802856,2.5001017257818603,-3.934581842368061)" fill="#FF6461" fill-opacity="1"/></g></g></g></svg>