<svg xmlns="http://www.w3.org/2000/svg" xmlns:xlink="http://www.w3.org/1999/xlink" fill="none" version="1.1" width="176" height="50" viewBox="0 0 176 50"><defs><mask id="master_svg0_836_1544/348_3014"><g style="mix-blend-mode:passthrough"><rect x="0" y="0" width="176" height="50" rx="0" fill="#FFFFFF" fill-opacity="1"/></g></mask></defs><g style="mix-blend-mode:passthrough"><g><g style="mix-blend-mode:passthrough"><g><g style="mix-blend-mode:passthrough"></g></g><g mask="url(#master_svg0_836_1544/348_3014)"><g style="mix-blend-mode:passthrough"><g><g style="mix-blend-mode:passthrough"><path d="M41.063921875,18.39507067451477C41.063921875,22.60017067451477,41.069321875,26.80557067451477,41.061221875,31.01057067451477C41.058221875,32.625070674514774,40.785821874999996,32.89517067451477,39.177721875,32.90557067451477C37.407021875,32.91687067451477,35.636121875,32.925770674514766,33.866021875,32.899470674514774C32.392321875,32.877670674514775,31.745621875,32.220970674514774,31.716421875,30.74807067451477C31.692421875,29.54067067451477,31.731121875,28.33187067451477,31.700021875,27.12477067451477C31.649121875,25.13547067451477,30.759721875,24.28077067451477,28.771721875,24.27427067451477C26.910621875,24.26837067451477,25.048921874999998,24.29177067451477,23.187721875,24.26677067451477C21.282131874999997,24.24157067451477,20.556051875,23.51287067451477,20.546501875,21.66327067451477C20.536691875000002,19.784470674514772,20.557141875,17.90527067451477,20.539141875,16.02667067451477C20.518971875,13.94527067451477,19.573121875,13.03498067451477,17.433041875,13.013750674514771C16.207181875,13.00139067451477,14.981311875,13.016710674514771,13.755721874999999,13.00381067451477C12.568574875,12.99091067451477,11.828585375,12.37806067451477,11.785778375,11.22624067451477C11.709161875,9.171390674514772,11.730701705,7.111970674514771,11.754695475,5.055240674514771C11.768328275,3.8878326745147707,12.605928875,3.7475827945147704,13.556141875,3.7500008949147703C17.596631875,3.7607479745147705,21.637131875,3.7526876745147706,25.677321875,3.7526876745147706C30.171821875,3.7526876745147706,34.666321875,3.7457020445147706,39.160721875,3.7585985945147704C40.788021875,3.7634347745147707,41.057921875000005,4.03909867451477,41.060921875,5.645260674514771C41.069621874999996,9.895210674514772,41.063921875,14.145170674514771,41.063921875,18.39507067451477Z" fill-rule="evenodd" fill="#115EFB" fill-opacity="1"/></g><g style="mix-blend-mode:passthrough"><path d="M14.639,45.73855504951477C10.4019,45.739055049514775,6.16487,45.74615504951477,1.92779,45.73585504951477C0.31413,45.731755049514774,0.00595442,45.43015504951477,0.00487215,43.85365504951477C-0.00162145,35.38855504951477,-0.00189201,26.92365504951477,0.00568385,18.45858504951477C0.00676612,17.05515904951477,0.455095,16.608997849514772,1.87368,16.59677054951477C4.08204,16.57802201951477,6.29095,16.58209778951477,8.49986,16.59459684951477C10.2902,16.60465044951477,11.1292,17.43773804951477,11.1371,19.26585504951477C11.1549,23.43021504951477,11.1422,27.595155049514773,11.1436,31.75945504951477C11.1444,34.51165504951477,11.8955,35.26435504951477,14.691,35.27145504951477C18.6577,35.28095504951477,22.6243,35.268155049514775,26.5908,35.277155049514775C28.8419,35.282255049514774,29.3116,35.745055049514775,29.3227,37.95275504951477C29.333,39.98955504951477,29.2962,42.027155049514775,29.3327,44.06345504951477C29.3546,45.28345504951477,28.8216,45.759155049514774,27.6205,45.75045504951477C23.2936,45.71875504951477,18.9662,45.73805504951477,14.639,45.73855504951477Z" fill-rule="evenodd" fill="#115EFB" fill-opacity="1"/></g><g style="mix-blend-mode:passthrough"><path d="M170.433075,3.7499706745147705L170.433075,16.15497067451477C166.077375,11.32956067451477,158.788095,11.988780674514771,154.982835,15.36147067451477C150.623881,19.22537067451477,150.108885,27.72007067451477,153.921505,32.379970674514766C155.866775,34.757370674514775,158.440675,35.97297067451477,161.430375,36.31437067451477C164.930775,36.71417067451477,168.097875,36.01887067451477,170.52927499999998,32.84457067451477C170.649375,33.81457067451477,170.671175,34.485970674514775,170.836875,35.12027067451477C170.919475,35.43667067451477,171.253775,35.91407067451477,171.494375,35.92627067451477C172.598375,35.98237067451477,173.705475,35.97547067451477,174.840875,35.96847067451477C175.223475,35.96617067451477,175.609375,35.96377067451477,175.999375,35.96377067451477L175.999375,3.7499706745147705L170.433075,3.7499706745147705ZM163.384475,17.95327067451477C167.281275,17.92557067451477,170.178075,20.78317067451477,170.202375,24.67857067451477C170.226375,28.532870674514772,167.394975,31.42057067451477,163.572775,31.44037067451477C159.853625,31.459670674514772,157.037215,28.52047067451477,157.009965,24.59217067451477C156.983265,20.75307067451477,159.646265,17.97987067451477,163.384475,17.95327067451477Z" fill-rule="evenodd" fill="#2C3248" fill-opacity="1"/></g><g style="mix-blend-mode:passthrough"><path d="M108.65655101318359,13.46116204951477C108.5138510131836,14.51929504951477,108.3892510131836,15.44499504951477,108.23615101318359,16.57992504951477C103.66345101318359,11.341635049514771,96.3857110131836,12.71810804951477,92.8640110131836,15.963065049514771C88.3842710131836,20.09084504951477,87.88534101318359,28.26065504951477,91.9051510131836,33.03565504951477C93.6460910131836,35.10385504951477,95.8884110131836,36.344955049514766,98.5571010131836,36.644855049514774C102.0703510131836,37.03945504951477,105.4474510131836,36.72135504951477,108.3016510131836,33.69055504951477L108.3016510131836,45.75065504951477L113.7847510131836,45.75065504951477L113.7847510131836,44.16735504951477C113.7847510131836,41.745055049514775,113.7847510131836,39.32275504951477,113.7847510131836,36.900455049514775C113.7847510131836,29.650355049514772,113.7848510131836,22.40039504951477,113.7844510131836,15.15026504951477C113.7844510131836,15.05801504951477,113.79175101318359,14.96206504951477,113.79915101318359,14.86595504951477C113.8169510131836,14.63239504951477,113.8348510131836,14.39785504951477,113.74785101318359,14.21289504951477C113.6084510131836,13.91600404951477,113.2890510131836,13.50675404951477,113.0309510131836,13.49454204951477C111.95955101318359,13.442869049514771,110.88525101318359,13.44959604951477,109.79275101318359,13.45643504951477C109.4163510131836,13.45879204951477,109.0378510131836,13.46116204951477,108.65655101318359,13.46116204951477ZM94.5919710131836,24.88255504951477C94.5687810131836,21.10868504951477,97.2612010131836,18.423055049514772,101.09965101318359,18.39184504951477C104.9642510131836,18.36036504951477,107.70325101318359,21.06852504951477,107.71555101318359,24.932555049514768C107.7270510131836,28.59895504951477,104.86815101318359,31.47915504951477,101.1885510131836,31.50845504951477C97.4366110131836,31.53805504951477,94.6154310131836,28.70445504951477,94.5919710131836,24.88255504951477Z" fill-rule="evenodd" fill="#2C3248" fill-opacity="1"/></g><g style="mix-blend-mode:passthrough"><path d="M134.142384375,14.25491351451477L139.528984375,14.25491351451477C139.555784375,14.75257967451477,139.597684375,15.17454167451477,139.597884375,15.596240674514771C139.601984375,21.91996067451477,139.571184375,28.24397067451477,139.627084375,34.56717067451477C139.637084375,35.719870674514766,139.293084375,36.114970674514765,138.104484375,36.01197067451477C137.038484375,35.91937067451477,135.957084375,35.99247067451477,134.754884375,35.99247067451477C134.603084375,35.05417067451477,134.462584375,34.18597067451477,134.297484375,33.16777067451477C133.878384375,33.49867067451477,133.572784375,33.72947067451477,133.278984375,33.97347067451477C127.433284375,38.82677067451477,119.099394375,36.11187067451477,117.709427375,28.808670674514772C117.308163175,26.703370674514773,117.404088375,24.501970674514773,117.361124675,22.34296067451477C117.308433375,19.67097067451477,117.348694975,16.99741067451477,117.348694975,14.24997067451477L122.697804375,14.24997067451477C122.72212437499999,14.74997767451477,122.763464375,15.20940167451477,122.764544375,15.66909067451477C122.771304375,19.00420067451477,122.733474375,22.339840674514768,122.782384375,25.67417067451477C122.826964375,28.73587067451477,124.377444375,30.77757067451477,126.947694375,31.31997067451477C130.703084375,32.11237067451477,134.039984375,29.452070674514772,134.122884375,25.51057067451477C134.191284375,22.26336067451477,134.140484375,19.01383067451477,134.142384375,15.76560067451477C134.142584375,15.29525067451477,134.142384375,14.82490067451477,134.142384375,14.25491351451477Z" fill-rule="evenodd" fill="#2C3248" fill-opacity="1"/></g><g style="mix-blend-mode:passthrough"><path d="M58.686757625,3.7499706745147705L64.801495625,3.7499706745147705L64.801495625,5.37930067451477C64.801495625,12.80224067451477,64.799245625,20.22517067451477,64.802895625,27.64817067451477C64.804305625,30.10267067451477,65.561935625,30.83997067451477,68.075665625,30.84267067451477C71.904615625,30.84657067451477,75.733515625,30.84347067451477,79.778815625,30.84347067451477C79.778815625,32.58237067451477,79.811615625,34.21007067451477,79.737215625,35.83277067451477C79.72791562500001,36.03417067451477,79.150415625,36.37237067451477,78.834315625,36.37427067451477C73.921515625,36.40317067451477,69.006715625,36.46317067451477,64.096125625,36.35227067451477C61.233655625,36.28767067451477,58.758698925,33.88007067451477,58.724976425,30.95717067451477C58.620436625,21.936770674514772,58.686757625,12.91424067451477,58.686757625,3.7499706745147705Z" fill-rule="evenodd" fill="#2C3248" fill-opacity="1"/></g><g style="mix-blend-mode:passthrough"><path d="M82.1328125,36.41667067451477L87.9994825,36.41667067451477L87.9994825,14.24997067451477L82.1328125,14.24997067451477L82.1328125,36.41667067451477Z" fill-rule="evenodd" fill="#2C3248" fill-opacity="1"/></g><g style="mix-blend-mode:passthrough"><path d="M141.97265625,36.41667067451477L147.83932625,36.41667067451477L147.83932625,14.24997067451477L141.97265625,14.24997067451477L141.97265625,36.41667067451477Z" fill-rule="evenodd" fill="#2C3248" fill-opacity="1"/></g><g style="mix-blend-mode:passthrough"><path d="M87.9994825,6.815800674514771C87.9997725,9.42454067451477,87.8268625,9.58532067451477,85.0223325,9.583280674514771C82.3098785,9.58154067451477,82.13163393,9.394650674514772,82.13281828109,6.55229067451477C82.133410454,3.9711206745147707,82.3708715,3.7485265845147704,85.1229925,3.7499776522547705C87.7860025,3.7508482955147704,87.9994825,3.9783766745147706,87.9994825,6.815800674514771Z" fill-rule="evenodd" fill="#2C3248" fill-opacity="1"/></g><g style="mix-blend-mode:passthrough"><path d="M147.83932625,6.78315067451477C147.83961625,9.42746067451477,147.67529625,9.58388067451477,144.89814625,9.58330067451477C142.15030125,9.582720674514771,141.972065566,9.400480674514771,141.97265770988,6.58814067451477C141.973249854,3.9687826745147703,142.20122525,3.7496807605147704,144.92538625,3.7499709617847703C147.61726625,3.7505513635147705,147.83902625,3.9815516745147703,147.83932625,6.78315067451477Z" fill-rule="evenodd" fill="#2C3248" fill-opacity="1"/></g></g></g></g></g></g></g></svg>