<svg xmlns="http://www.w3.org/2000/svg" xmlns:xlink="http://www.w3.org/1999/xlink" fill="none" version="1.1" width="152" height="50" viewBox="0 0 152 50"><defs><mask id="master_svg0_2814_5161"><g style="mix-blend-mode:passthrough"><rect x="0" y="0" width="152" height="50" rx="0" fill="#FFFFFF" fill-opacity="1"/></g></mask></defs><g style="mix-blend-mode:passthrough" mask="url(#master_svg0_2814_5161)"><g style="mix-blend-mode:passthrough"><g><path d="M2.69462,25.572491552734373C3.53971,27.500091552734375,4.31728,29.131391552734375,5.32572,30.621191552734373C9.27018,36.443191552734376,14.4039,40.579291552734375,21.537,41.729291552734374C25.7385,42.40239155273437,29.0274,40.666391552734375,31.6998,37.54089155273437C31.9022,37.28449155273437,32.0713,37.003491552734374,32.203,36.704491552734375C32.717,35.615491552734376,32.6168,35.44779155273437,31.4363,35.179891552734375C26.6925,34.13659155273437,21.8528,33.531091552734374,17.2397,31.893191552734375C11.0562,29.684691552734375,5.82885,26.158391552734376,2.31128,20.488891552734376C0.481702,17.548491552734376,-0.322003,14.329291552734375,0.117969,10.820491552734374C0.418543,8.424621552734376,1.91487,6.917401552734375,3.64207,5.543041552734375C6.90916,2.948971552734375,10.6903,1.528881552734375,14.7502,0.844967552734375C22.0968,-0.389995447265625,29.4216,-0.372567447265625,36.6549,1.576791552734375C40.2444,2.546031552734375,43.481,4.179571552734375,45.9552,7.111241552734375C50.6424,12.669691552734376,47.0443,19.691691552734376,42.1458,21.647591552734376C41.0954,22.067391552734374,39.9986,22.359891552734375,38.8787,22.518791552734374C36.6811,22.841191552734376,35.0105,21.878491552734374,33.6013,20.308091552734375C32.9958,19.632891552734375,32.4251,18.924991552734376,31.8,18.267291552734374C30.2275,16.618491552734376,28.7094,16.496491552734376,26.9016,17.846891552734377C25.769,18.694191552734374,24.6647,19.589391552734376,23.4973,20.382191552734376C22.7894,20.863491552734374,21.9922,21.253391552734374,20.8139,20.839591552734376C22.1207,20.044591552734374,22.7611,18.966391552734375,23.0725,17.666091552734375C23.2642,16.864591552734375,23.151,16.448591552734374,22.2013,16.402791552734374C20.5917,16.324391552734376,19.2544,15.444491552734375,17.8648,14.743191552734375C17.0045,14.307591552734374,17.0045,14.307591552734374,16.4665,15.106891552734375C16.0832,14.849891552734375,16.1899,14.388091552734375,16.0309,14.050491552734375C15.5321,13.068191552734374,16.0309,12.565091552734375,16.9021,12.229691552734375C19.0802,11.388991552734375,21.2582,11.552291552734374,23.3862,12.362591552734376C24.2814,12.702291552734374,25.157,12.815591552734375,26.0347,12.473591552734375C29.8659,10.983791552734376,33.059,12.177391552734376,35.9275,14.780191552734374C36.5035,15.334591552734375,37.1654,15.792091552734375,37.8877,16.134991552734373C38.6522,16.472491552734375,39.4385,16.570591552734374,40.1616,16.039091552734376C40.8847,15.507691552734375,40.9435,14.662591552734375,40.7845,13.861091552734376C40.534,12.597791552734375,39.8981,11.595891552734376,38.6871,10.983791552734376C35.7205,9.485331552734374,32.5362,8.805771552734376,29.2713,8.492131552734374C24.7823,8.069591552734375,20.2912,8.082651552734376,15.8283,8.840621552734374C14.466,9.081171552734375,13.1538,9.549471552734374,11.947,10.225891552734375C9.76896,11.425991552734375,9.06546,12.965891552734375,9.72976,15.394391552734374C10.6249,18.661491552734375,12.8858,20.809091552734376,15.7586,22.348891552734376C19.2827,24.239491552734375,23.164,25.078091552734374,27.0214,25.964491552734376C30.1295,26.676791552734375,33.3029,27.138491552734376,36.2912,28.321191552734376C42.0173,30.584191552734374,43.4265,34.985991552734376,40.0571,40.143691552734374C38.0462,43.268291552734375,35.3356,45.88199155273438,32.1398,47.77779155273438C26.1698,51.29969155273437,19.4069,50.574391552734376,14.1708,46.035391552734374C8.05264,40.72959155273438,4.70062,33.85569155273438,2.6271,26.214991552734375C2.60314,26.125691552734374,2.64671,26.016791552734375,2.69462,25.572491552734373Z" fill="#ADADAD" fill-opacity="1"/></g><g><path d="M115.98640588623047,13.107375870910644C118.75035588623047,13.107375870910644,118.34305588623047,12.952728870910645,117.94665588623047,15.440084870910646C117.29324588623047,19.482564870910643,116.60278588623046,23.516284870910646,115.95808588623046,27.558784870910642C115.86878588623047,28.169084870910645,115.85780588623047,28.788384870910644,115.92541588623047,29.401484870910643C116.18025588623047,32.06308487091064,118.25592588623047,33.37638487091064,121.25949588623047,32.82758487091064C123.62269588623047,32.391884870910644,125.02539588623047,30.915184870910643,125.72669588623047,28.713184870910645C126.45849588623047,26.424084870910644,126.63709588623047,24.021684870910647,127.06399588623047,21.671504870910645C127.51919588623048,19.177624870910645,127.94829588623047,16.675034870910643,128.32079588623046,14.168094870910645C128.44269588623047,13.329541870910644,128.82609588623046,13.059451680910644,129.61449588623046,13.098668470910644C130.40299588623046,13.137885270910644,131.21099588623048,13.137871970910645,132.01039588623047,13.098668470910644C132.97529588623047,13.055104600910644,133.18219588623046,13.484188870910645,133.02319588623047,14.372824870910645Q131.96249588623047,20.364674870910644,130.97139588623048,26.369584870910643C130.72969588623047,27.839784870910645,130.48569588623047,29.303384870910644,129.93469588623046,30.695184870910644C127.97439588623047,35.67858487091064,123.80339588623048,37.44718487091065,119.03130588623047,37.28388487091064C118.45115588623047,37.260284870910645,117.87404588623048,37.18738487091065,117.30626588623046,37.06598487091064C112.56026588623047,36.083684870910645,110.36697488623047,32.492084870910645,111.26651388623047,27.203784870910646C111.98092388623047,22.989244870910646,112.71056588623047,18.776874870910646,113.37052588623047,14.553614870910645C113.54260588623046,13.464580870910645,113.96949588623048,12.915711870910645,115.11297588623047,13.098668470910644C115.40349588623047,13.123594370910645,115.69548588623047,13.126505670910644,115.98640588623047,13.107375870910644Z" fill="#ADADAD" fill-opacity="1"/></g><g><path d="M83.60081784667969,19.347506848449708C82.60331784667969,21.272916848449707,81.5992178466797,23.196186848449706,80.6082178466797,25.125886848449706C78.76989784667968,28.708786848449705,76.92508784667969,32.28958684844971,75.12164784667969,35.889886848449706C74.74918784667969,36.632586848449705,74.29398784667968,37.00508684844971,73.43800784667968,36.93968684844971C72.64518784667969,36.8786868484497,71.8436678466797,36.93968684844971,71.04214784667968,36.9265868484497C69.61986384667969,36.9265868484497,69.58938084667969,36.854786848449706,70.29725084667969,35.55228684844971Q72.25750784667969,31.967186848449707,74.19379784667969,28.37778684844971C76.77479784667969,23.627386848449706,79.37539784667969,18.887946848449708,81.92591784667968,14.120166848449706C82.33761784667969,13.351304848449708,82.81021784667969,13.031136648449706,83.69881784667969,13.048564833449706C86.80691784667968,13.081241048449707,86.81781784667969,13.048564833449706,87.45161784667968,16.052106848449707C88.83251784667969,22.586286848449706,90.18291784667969,29.12048684844971,91.58991784667968,35.6350868484497C91.80771784667968,36.63478684844971,91.52681784667969,36.978886848449704,90.5445178466797,36.941886848449705C89.71031784667969,36.902686848449704,88.87391784667969,36.904886848449706,88.03971784667968,36.941886848449705C87.32751784667968,36.974586848449704,86.96811784667969,36.67828684844971,86.85481784667968,35.98348684844971C86.69361784667969,34.98158684844971,86.47801784667969,33.98838684844971,86.32121784667969,32.9843868484497C86.21011784667968,32.26558684844971,85.90521784667969,31.906186848449707,85.10581784667968,31.94978684844971C83.98411784667968,32.00858684844971,82.85591784667969,31.94978684844971,81.73201784667968,31.96498684844971C81.04161784667969,31.96498684844971,80.8869178466797,31.707986848449707,81.19401784667969,31.11118684844971C81.5273178466797,30.457786848449707,81.89101784667969,29.832686848449708,82.16551784667969,29.163986848449706C82.60111784667968,28.107686848449706,83.15871784667969,27.330086848449707,84.48511784667969,27.528286848449707C85.00351784667969,27.606686848449705,85.30841784667969,27.310486848449706,85.19951784667968,26.735486848449707Q84.5243178466797,23.061086848449705,83.84911784667969,19.384536848449706L83.60081784667969,19.347506848449708Z" fill="#ADADAD" fill-opacity="1"/></g><g><path d="M63.11184382324219,12.710968017578125C65.94334382324219,12.778487317578126,68.33914382324218,13.481996017578124,70.42794382324219,15.093768017578125C71.08134382324218,15.592538017578125,71.20984382324218,16.025978017578126,70.64574382324219,16.685928017578124C70.00754382324219,17.426468017578124,69.60244382324218,18.508958017578124,68.81834382324219,18.946758017578126C67.84694382324219,19.486908017578124,67.22184382324218,18.169188017578126,66.35274382324219,17.827228017578125C64.85644382324219,17.236968017578125,63.37974382324219,16.873238017578124,61.80716382324219,17.391618017578125C60.981683823242186,17.663878017578124,60.29995382324219,18.138688017578126,60.11699382324219,19.066548017578125C59.934023823242185,19.994398017578124,60.39795382324219,20.700088017578125,61.12543382324219,21.196698017578125C61.93132382324219,21.745568017578123,62.79164382324219,22.218208017578124,63.636743823242185,22.721368017578126C64.54494382324219,23.250568017578125,65.49894382324219,23.707968017578125,66.36804382324219,24.293868017578127C70.11644382324218,26.822568017578124,70.5912438232422,31.174368017578125,67.47444382324218,34.47416801757812C64.93924382324218,37.157468017578125,61.73746382324219,37.66936801757812,58.26782382324219,37.12486801757812C56.35700382324219,36.85316801757813,54.52805382324219,36.169468017578126,52.90761882324219,35.12096801757812C52.32826072324219,34.73766801757813,52.22370482324219,34.376168017578124,52.63100082324219,33.79236801757813C53.25610282324219,32.90156801757813,53.63073382324219,31.675368017578126,54.46492382324219,31.137368017578126C55.41673382324219,30.520968017578124,56.25311382324219,31.840868017578124,57.22452382324219,32.13276801757813C58.90381382324219,32.635868017578126,60.54388382324219,33.21086801757812,62.323353823242186,32.68816801757812C63.55174382324219,32.326568017578126,64.50144382324218,31.646968017578125,64.73444382324219,30.309668017578126C64.95224382324218,29.002868017578123,64.1986438232422,28.166468017578126,63.15974382324219,27.582768017578125C61.83112382324219,26.837868017578124,60.44804382324219,26.193168017578124,59.115073823242184,25.459168017578126C56.899993823242184,24.239468017578126,55.29040382324219,22.564508017578127,55.194563823242184,19.861528017578124C55.079123823242185,16.476828017578125,57.86705382324219,13.453680017578126,61.600233823242185,12.891737017578125C62.18396382324219,12.791555117578126,62.76334382324219,12.743637617578125,63.11184382324219,12.710968017578125Z" fill="#ADADAD" fill-opacity="1"/></g><g><path d="M140.95350475585937,37.34261532287597C138.23528475585937,37.16841532287597,135.74793475585938,36.63911532287598,133.49146475585937,35.236515322875974C132.74655835585938,34.772515322875975,132.5527077558594,34.365215322875976,133.11684475585938,33.60731532287598C133.74848675585937,32.76871532287598,134.09697475585938,31.529415322875977,134.90938475585938,31.072015322875977C135.78060475585937,30.586315322875976,136.63659475585936,31.797315322875978,137.58404475585937,32.09351532287597C139.18491475585938,32.592315322875976,140.74659475585938,33.15211532287597,142.4672647558594,32.72301532287598C143.79367475585937,32.391915322875974,144.86317475585938,31.747215322875977,145.10927475585936,30.327115322875976C145.37277475585938,28.863515322875976,144.41447475585937,28.04231532287598,143.29277475585937,27.408515322875978C142.40845475585937,26.907615322875976,141.48495475585938,26.480715322875977,140.58108475585937,26.02111532287598C140.28923475585938,25.87301532287598,139.99735475585936,25.727115322875974,139.70986475585937,25.570215322875974C136.67581475585936,23.936715322875976,135.23393475585937,21.586575322875976,135.61076475585938,18.896665322875975C136.01588475585936,16.004195322875976,138.44224475585938,13.553875322875976,141.65488475585937,12.954909322875977C144.95247475585938,12.336341322875976,147.98437475585936,13.024608322875977,150.71337475585938,15.019705322875977C151.44307475585939,15.553335322875977,151.64777475585936,16.025965322875976,150.97477475585939,16.762155322875977C150.46887475585936,17.332795322875977,150.01067475585938,17.94397532287598,149.60477475585938,18.589545322875978C149.18877475585938,19.225535322875977,148.81847475585937,19.242965322875975,148.21297475585936,18.785575322875978C146.83207475585937,17.718325322875977,145.27917475585937,17.043135322875976,143.48447475585937,17.160745322875975C142.9782747558594,17.186585322875978,142.4789947558594,17.288655322875975,142.00333475585938,17.46349532287598C140.21516475585938,18.156115322875976,139.93418475585938,19.889855322875977,141.40655475585936,21.120455322875976C142.41717475585938,21.963365322875976,143.62817475585936,22.48610532287598,144.77597475585938,23.10461532287598C146.0261747558594,23.777715322875977,147.23067475585938,24.498615322875978,148.24777475585938,25.513615322875978C149.74847475585938,27.012115322875978,150.1666747558594,28.813315322875976,149.74417475585938,30.819315322875976C149.04277475585937,34.156115322875976,146.21787475585938,36.665315322875976,142.67635475585936,37.16841532287597C142.06866475585937,37.24461532287597,141.45228475585938,37.29041532287597,140.95350475585937,37.34261532287597Z" fill="#ADADAD" fill-opacity="1"/></g><g><path d="M100.903343515625,36.92663188323975C98.980123515625,36.92663188323975,97.056873515625,36.90483188323975,95.135843515625,36.92663188323975C94.295113515625,36.939731883239745,93.979278515625,36.72193188323975,94.140479415625,35.78533188323975C95.242593515625,29.360031883239746,96.292403515625,22.923891883239747,97.357473515625,16.489891883239746C97.494693515625,15.666581883239747,97.636273515625,14.845461883239746,97.760413515625,14.022150883239746C97.854083515625,13.386160883239747,98.167713515625,13.070339283239747,98.849443515625,13.094294793239746C99.753343515625,13.126970983239746,100.661573515625,13.120430483239746,101.567653515625,13.094294793239746C102.329983515625,13.074686383239746,102.584823515625,13.338236883239746,102.438883515625,14.139761883239746C101.785463515625,17.960071883239745,101.166903515625,21.786921883239746,100.533083515625,25.611631883239745C100.219453515625,27.506531883239745,99.912333515625,29.401431883239745,99.563853515625,31.289831883239746C99.404863515625,32.14363188323975,99.563853515625,32.52693188323975,100.561393515625,32.49423188323975C102.806983515625,32.42023188323975,105.059053515625,32.49423188323975,107.313353515625,32.459431883239745C108.300053515625,32.444231883239745,108.56795351562499,32.77523188323975,108.382853515625,33.76623188323975C107.790353515625,36.91353188323974,107.820853515625,36.92013188323975,104.603853515625,36.92013188323975L100.903343515625,36.92663188323975Z" fill="#ADADAD" fill-opacity="1"/></g><g><path d="M15.370928764343262,16.696815490722656C17.64918876434326,17.894745490722656,19.944858764343262,18.439265490722658,22.453978764343262,17.454776490722658C21.992238764343263,18.434905490722656,21.16457876434326,18.929325490722658,20.24107876434326,19.297415490722656C19.53694876434326,19.593995490722655,18.77646876434326,19.733005490722658,18.01292876434326,19.704715490722656C17.67314876434326,19.687285490722658,17.272388764343262,19.733035490722656,17.727608764343262,19.199405490722658C18.04776876434326,18.822605490722655,17.581678764343263,18.726765490722656,17.36821876434326,18.598255490722657C16.562338764343263,18.114735490722655,15.81090076434326,17.583287490722658,15.370928764343262,16.696815490722656Z" fill="#ADADAD" fill-opacity="1"/></g></g></g></svg>