<svg xmlns="http://www.w3.org/2000/svg" xmlns:xlink="http://www.w3.org/1999/xlink" fill="none" version="1.1" width="152" height="50" viewBox="0 0 152 50"><defs><mask id="master_svg0_2814_8250"><g style="mix-blend-mode:passthrough"><rect x="0" y="0" width="152" height="50" rx="0" fill="#FFFFFF" fill-opacity="1"/></g></mask></defs><g style="mix-blend-mode:passthrough" mask="url(#master_svg0_2814_8250)"><g style="mix-blend-mode:passthrough"><g><path d="M119.73986108886719,37.160427796936034C118.23503108886719,37.22992779693604,116.73728108886719,36.91522779693604,115.3876710888672,36.24592779693603C112.93219108886719,35.025827796936035,111.70116808886719,32.98502779693604,111.5112786888672,30.278527796936036C111.32357408886719,27.635327796936036,112.07005008886719,25.103427796936035,112.44109008886718,22.527927796936034C112.85361108886718,19.666477796936036,113.44510108886719,16.831217796936034,113.87945108886719,13.969752796936035C113.9776610888672,13.314957396936036,114.21340108886719,13.199270496936036,114.76778108886718,13.225474536936035C115.45750108886719,13.256034896936034,116.14938108886719,13.225474536936035,116.8412910888672,13.225474536936035C118.56996108886719,13.225474536936035,118.52848108886718,13.225474536936035,118.22290108886719,14.958497796936035C117.50262108886719,19.055337796936037,116.78673108886719,23.152167796936034,116.15375108886718,27.262127796936035C115.99224108886719,28.318527796936035,115.95076108886718,29.431627796936034,116.31090108886718,30.501127796936036C116.80200108886719,31.957027796936035,117.89114108886719,32.83222779693604,119.43210108886719,32.96322779693604C123.14259108886719,33.277527796936035,125.51729108886718,31.677627796936036,126.33149108886718,28.010727796936035C127.0582910888672,24.736827796936034,127.52759108886718,21.397337796936036,128.0971910888672,18.084067796936036C128.33729108886718,16.693727796936034,128.55559108886717,15.301187796936034,128.7519910888672,13.906473796936035C128.82189108886718,13.437198796936036,129.0116910888672,13.203666696936034,129.5268910888672,13.218933506936034C130.5810910888672,13.247308996936034,131.6374910888672,13.247308996936034,132.6894910888672,13.218933506936034C133.21769108886718,13.203653396936035,133.39229108886718,13.343345796936035,133.2940910888672,13.904288796936035C132.42109108886717,18.782507796936034,131.6898910888672,23.682527796936036,130.7163910888672,28.528027796936037C129.5944910888672,34.200727796936036,125.80329108886718,37.15602779693603,119.73986108886719,37.160427796936034Z" fill="#000000" fill-opacity="1"/></g><g><path d="M81.14405191650391,31.882801910400392C81.58055191650391,30.99010191040039,82.0170519165039,30.27630191040039,82.3051519165039,29.50590191040039C82.7919519165039,28.19630191040039,83.51435191650391,27.358101910400393,85.0684519165039,27.71390191040039C85.52245191650391,27.81650191040039,85.6861519165039,27.65280191040039,85.58575191650391,27.12020191040039C85.0727519165039,24.391901910400392,84.6100519165039,21.66360191040039,84.08845191650391,18.67555191040039C83.84175191650391,19.08152191040039,83.6955519165039,19.29105191040039,83.57985191650391,19.51586191040039C80.7751519165039,24.97250191040039,77.9639019165039,30.442201910400392,75.18756191650391,35.92070191040039C74.86889191650391,36.54930191040039,74.5327719165039,36.84170191040039,73.79066191650391,36.79370191040039C72.5727419165039,36.72170191040039,71.34609191650391,36.77410191040039,69.9666519165039,36.77410191040039C71.83718191650391,33.32770191040039,73.6291519165039,30.03410191040039,75.42328191650391,26.73390191040039C77.71506191650391,22.50828191040039,80.0221519165039,18.28921191040039,82.2746519165039,14.039598910400391C82.66745191650391,13.29749191040039,83.11275191650391,12.94827291040039,83.9399519165039,13.09450701040039C84.1207519165039,13.11090621040039,84.3026519165039,13.11090621040039,84.48345191650391,13.09450701040039C86.9913519165039,13.09450701040039,86.9913519165039,13.09450701040039,87.4977519165039,15.534711910400391C88.90775191650391,22.32275191040039,90.30455191650391,29.11520191040039,91.7516519165039,35.896701910400395C91.9001519165039,36.58860191040039,91.8586519165039,36.81120191040039,91.1143519165039,36.769701910400386C90.0623519165039,36.723901910400386,89.0059519165039,36.74350191040039,87.9516519165039,36.769701910400386C87.51515191650391,36.769701910400386,87.3252519165039,36.67800191040039,87.2576519165039,36.19130191040039C87.09395191650391,35.01050191040039,86.8210519165039,33.84500191040039,86.6202519165039,32.67070191040039C86.51985191650391,32.10760191040039,86.31905191650391,31.81290191040039,85.63805191650391,31.84560191040039C84.1844519165039,31.93080191040039,82.73085191650391,31.882801910400392,81.14405191650391,31.882801910400392Z" fill="#000000" fill-opacity="1"/></g><g><path d="M135.34582251953125,30.84823764190674C137.45864251953125,32.15783764190674,139.61726251953124,33.10943764190674,142.11204251953126,32.971937641906734C144.16588251953124,32.860637641906735,145.60428251953124,31.54883764190674,145.59118251953126,29.824537641906737C145.59118251953126,28.68953764190674,144.87748251953124,28.01513764190674,144.01528251953124,27.51963764190674C142.64022251953125,26.729537641906738,141.17786251953126,26.074737641906736,139.80715251953126,25.29333764190674C138.06103251953124,24.304637641906737,136.65757251953124,23.021237641906737,136.15557251953126,20.928067641906736C135.41565251953125,17.85053764190674,137.46517251953125,14.938877641906739,139.83989251953125,13.749328641906738C143.24918251953125,12.033768641906738,148.67308251953125,12.808606741906738,151.46028251953126,15.427787641906738C151.72658251953123,15.678797641906739,151.92738251953125,15.875227641906738,151.55638251953124,16.18734764190674C151.48218251953125,16.26724764190674,151.41698251953125,16.35507764190674,151.36208251953124,16.449267641906737C150.75528251953125,17.261207641906736,150.30568251953125,18.380907641906738,149.49368251953126,18.804347641906737C148.56828251953124,19.28888764190674,147.89608251953126,17.98147764190674,147.00548251953126,17.62788764190674C145.53658251953124,17.04293764190674,144.09818251953124,16.802837641906738,142.56818251953126,17.217547641906737C141.53579251953124,17.49693764190674,140.78931251953125,18.14080764190674,140.62780251953126,19.19721764190674C140.48155251953125,20.159757641906737,141.13200251953126,20.816737641906737,141.86319251953125,21.34276764190674C143.25138251953126,22.34023764190674,144.84468251953126,22.97323764190674,146.29618251953124,23.85503764190674C147.93318251953124,24.85033764190674,149.41958251953125,25.998337641906737,149.93688251953125,27.98023764190674C150.68988251953124,30.86353764190674,149.23838251953126,34.11563764190674,146.36168251953126,35.82033764190674C142.95017251953124,37.84143764190674,139.42081251953124,37.37873764190674,135.88493251953125,36.16083764190674C135.03614251953124,35.84253764190674,134.22974251953124,35.421037641906736,133.48401451953126,34.90573764190674C133.11078971953125,34.66133764190674,133.02129351953124,34.432137641906735,133.28975551953124,34.032737641906735C134.00130151953124,32.98503764190674,134.67136251953124,31.90903764190674,135.34582251953125,30.84823764190674Z" fill="#000000" fill-opacity="1"/></g><g><path d="M61.460887879638676,37.19095694580078C57.892247879638674,37.12115694580078,55.42585787963867,36.46635694580078,53.14716887963867,35.04105694580078C52.60150587963867,34.69835694580078,52.45745687963867,34.42115694580078,52.86124187963867,33.85805694580078C53.41453787963867,33.09605694580078,53.91690787963867,32.29845694580078,54.36508787963867,31.47025694580078C54.69904787963867,30.841656945800782,54.98059787963867,30.94425694580078,55.50442787963867,31.25195694580078C57.70235787963867,32.53755694580078,60.00942787963867,33.447756945800776,62.62860787963867,32.75585694580078C63.85520787963867,32.42845694580078,64.78720787963867,31.71465694580078,65.02950787963867,30.37895694580078C65.27620787963868,28.98855694580078,64.51440787963867,28.091556945800782,63.39910787963867,27.46945694580078C62.04365787963867,26.71425694580078,60.63148787963867,26.06385694580078,59.28042787963867,25.302056945800782C57.56486787963867,24.335156945800783,56.12867787963867,23.09105694580078,55.65504787963867,21.056816945800783C55.02206787963867,18.34159694580078,56.047917879638675,16.200416945800782,58.110527879638674,14.541606945800782C61.44562787963867,11.85912594580078,67.55920787963868,12.391693945800782,70.98820787963868,15.495426945800782C71.26100787963867,15.73987694580078,71.27190787963868,15.899206945800781,71.03840787963867,16.191686945800782C70.47300787963867,16.898866945800783,69.92080787963867,17.62350694580078,69.42540787963867,18.37433694580078C69.01720787963868,18.99421694580078,68.71380787963867,19.18410694580078,68.02410787963868,18.625346945800782C66.57700787963867,17.451086945800782,64.90070787963867,16.839946945800783,62.984407879638674,17.02546694580078C62.48097787963867,17.06428694580078,61.98898787963867,17.19523694580078,61.53290787963867,17.41179694580078C59.79769787963867,18.260846945800782,59.56852787963867,19.93930694580078,61.07237787963867,21.13539694580078C61.77278787963867,21.646736945800782,62.50955787963867,22.10630694580078,63.27680787963867,22.51046694580078C64.27650787963867,23.09105694580078,65.30890787963867,23.62145694580078,66.29980787963868,24.21725694580078C71.39850787963867,27.28395694580078,69.85100787963867,32.53975694580078,66.90000787963868,35.06945694580078C65.07540787963868,36.62785694580079,62.92110787963867,37.243356945800784,61.460887879638676,37.19095694580078Z" fill="#000000" fill-opacity="1"/></g><g><path d="M101.14803659423828,36.782846080017094C99.15090659423828,36.782846080017094,97.15158659423828,36.75664608001709,95.15229659423828,36.79594608001709C94.51061019423828,36.80904608001709,94.36217819423828,36.63654608001709,94.46912589423827,36.00584608001709C95.08027859423828,32.44154608001709,95.64557659423828,28.87294608001709,96.24143659423828,25.31084608001709C96.87222659423828,21.532646080017088,97.53791659423828,17.75884608001709,98.14033659423828,13.97412208001709C98.23635659423829,13.37607808001709,98.41971659423828,13.19054428001709,99.01339659423829,13.22328938001709C99.88538659423828,13.28460978001709,100.76057659423829,13.28460978001709,101.63257659423829,13.22328938001709C102.48381659423828,13.15344298001709,102.75664659423828,13.38480308001709,102.59513659423828,14.27532608001709C102.08876659423828,17.04729608001709,101.65657659423829,19.834536080017088,101.18951659423828,22.61524608001709C100.66130659423828,25.751746080017092,100.14183659423828,28.89034608001709,99.58308659423828,32.02244608001709C99.46084659423828,32.70784608001709,99.86028659423827,32.627046080017095,100.26407659423828,32.627046080017095C102.80686659423829,32.627046080017095,105.35184659423828,32.64454608001709,107.90334659423829,32.627046080017095C108.58654659423829,32.627046080017095,108.84404659423828,32.76234608001709,108.59524659423828,33.48484608001709C108.46384659423828,33.973346080017095,108.36904659423828,34.47084608001709,108.31154659423828,34.97344608001709C107.97314659423829,36.80024608001709,107.97314659423829,36.80024608001709,106.17904659423829,36.80024608001709L101.14803659423828,36.782846080017094Z" fill="#000000" fill-opacity="1"/></g><g><path d="M36.670339368896485,28.556440353393555C40.03162936889648,29.708890353393556,42.01127936889648,32.266950353393554,41.89341936889649,35.35322035339355C41.823099368896486,36.51464035339355,41.49661936889648,37.64611035339355,40.937419368896485,38.666440353393554C40.00323936889649,40.47804035339355,38.87044936889649,42.158740353393554,37.32948936889648,43.522840353393555C36.98680936889649,43.130040353393554,37.25963936889649,42.76764035339355,37.41024936889649,42.42064035339355C37.67253936889649,41.82384035339356,37.869409368896484,41.20024035339355,37.99737936889648,40.56104035339355C38.27239936889649,39.175040353393555,37.80967936889648,38.074980353393556,36.663779368896485,37.26085035339355C35.96603936889648,36.80732035339356,35.21545936889648,36.440840353393554,34.428751368896485,36.169530353393554C34.094798368896484,36.03639035339356,33.72594336889649,35.973080353393556,33.51203466889648,35.63478035339355C33.393203868896485,35.28861035339355,33.43314266889649,34.90764035339355,33.62116736889649,34.593650353393556C34.51604936889648,32.71002035339355,35.31927936889648,30.784920353393556,36.308009368896485,28.947130353393554C36.38511936889648,28.782325353393556,36.51179936889648,28.645736653393556,36.670339368896485,28.556440353393555Z" fill="#DA4A51" fill-opacity="1"/></g><g><path d="M46.65596477172851,8.091901779174805C50.687284771728514,13.397921779174805,46.470444771728516,21.325301779174804,39.750054771728514,22.268201779174802C38.940284771728514,22.381701779174804,38.12397877172852,22.704801779174804,37.305484771728516,22.298801779174802L37.394967571728515,22.178701779174805C37.988642771728514,21.960501779174805,38.66090477172852,21.914601779174802,39.15636477172852,21.451901779174804C39.94430477172852,20.917201779174803,40.815174771728515,20.482801779174807,41.288824771728514,19.590101779174805C42.436904771728514,18.394001779174804,42.47837477172852,16.857421779174807,42.598414771728514,15.342661779174804C43.790144771728514,13.343361779174804,44.588994771728515,11.149791779174805,45.67594477172852,9.100281779174805C45.89422477172852,8.689945779174804,45.98370477172851,8.091901779174805,46.65596477172851,8.091901779174805Z" fill="#DA4A51" fill-opacity="1"/></g><g><path d="M33.59934294006348,35.57805111572266C34.367642940063476,35.87488911572266,35.146852940063475,36.147720115722656,35.90422294006348,36.47730111572265C37.969022940063475,37.376551115722656,38.741672940063474,38.91096111572266,38.165452940063474,41.091431115722656C37.94718294006348,41.91865111572265,37.611062940063476,42.71314111572266,37.327302940063475,43.52291111572266C36.329832940063476,44.63388111572266,35.275612940063475,45.68373111572266,34.00749294006348,46.493531115722654C33.512022940063474,46.476031115722655,33.450912940063475,46.056931115722655,33.38544294006348,45.73173111572265Q32.61278394006348,41.80298111572266,31.988535917063476,37.824011115722655C31.985018950063477,37.714991115722654,32.00434894006348,37.60643111572266,32.04528694006348,37.50534111572266C32.278831940063476,36.850541115722656,32.70008194006348,36.28741311572266,32.77211394006348,35.580236115722656C33.04713294006348,35.06949011572266,33.32433294006348,35.37506661572266,33.59934294006348,35.57805111572266Z" fill="#94292D" fill-opacity="1"/></g><g><path d="M13.518950677032471,1.133616136302948C13.94243067703247,0.980827136302948,14.363630677032472,0.817128636302948,14.82853067703247,0.893522736302948C15.25193067703247,1.469746136302948,14.811130677032471,1.925916136302948,14.59283067703247,2.388636136302948Q12.58477067703247,6.638266136302948,10.63567067703247,10.914026136302947C9.84829067703247,11.815326136302948,9.455190677032471,12.994626136302948,9.544340677032471,14.188026136302948C8.98777067703247,14.126926136302949,8.92883067703247,14.604926136302948,8.762950677032471,14.934526136302948C7.542840677032471,17.359426136302947,6.482080677032471,19.860726136302947,5.285990677032471,22.296626136302947C5.098280677032471,22.67852613630295,4.976050677032471,23.11732613630295,4.570072677032471,23.359526136302946L3.9152906770324707,22.52792613630295C3.579166677032471,22.00632613630295,3.865093677032471,21.53702613630295,4.065893677032471,21.083026136302948C5.200870677032471,18.52932613630295,6.405690677032471,16.00622613630295,7.593050677032471,13.476526136302947C9.38283067703247,9.663416136302947,11.10711067703247,5.821956136302948,12.94273067703247,2.030686136302948C13.08242067703247,1.7032911363029481,13.21121067703247,1.358428136302948,13.518950677032471,1.133616136302948Z" fill="#6ACBB2" fill-opacity="1"/></g><g><path d="M13.518980759811402,1.1336356401443481C13.014780759811401,2.967065640144348,11.9911007598114,4.577855640144348,11.2271707598114,6.291245640144348C8.922290759811402,11.416135640144349,6.517010759811401,16.495135640144348,4.1444707598114015,21.589435640144348C3.989450759811401,21.878135640144347,3.9070577598114014,22.20023564014435,3.9043797598114014,22.52793564014435C3.5115047598114013,22.233335640144347,3.286685759811401,21.812035640144348,3.031319259811401,21.403935640144347C2.7279277598114016,20.51553564014435,3.3739967598114013,19.876035640144348,3.6861147598114012,19.199435640144348Q7.549410759811401,10.863885640144348,11.4345207598114,2.5392456401443484C11.635020759811402,2.1148096401443484,11.890380759811402,1.7185446401443483,12.194080759811401,1.3606196401443482L13.518980759811402,1.1336356401443481Z" fill="#6AD2B6" fill-opacity="1"/></g><g><path d="M20.285174521484375,11.815530317973632C21.319319521484374,11.788014047973633,22.348769521484375,11.964535047973634,23.314699521484375,12.335002047973633C24.011949521484375,12.629582047973633,24.768109521484377,12.758104047973633,25.523539521484373,12.710419047973632C25.017159521484373,13.354296047973634,25.001879521484376,14.050566047973632,25.156849521484375,14.834136047973633C25.401309521484375,16.078256047973632,25.715609521484375,17.315816047973634,25.794179521484374,18.590486047973634C24.467129521484374,19.745106047973632,23.174999521484374,20.971756047973635,21.188799521484373,20.851716047973632C22.367429521484375,20.04194604797363,22.996039521484374,18.922246047973633,23.295059521484376,17.577736047973634C23.491499521484375,16.704676047973635,23.377999521484377,16.069526047973632,22.258299521484375,16.169926047973632C21.564219521484375,15.312146047973632,21.895989521484374,14.140056047973633,21.356859521484374,13.238626047973632C21.001090521484375,12.913406047973632,20.427052521484374,12.909036047973633,20.173870421484374,12.433224047973633C20.085160221484376,12.223472047973633,20.128829245484376,11.981121047973632,20.285174521484375,11.815530317973632Z" fill="#D94152" fill-opacity="1"/></g><g><path d="M1.7326525610694885,19.2233968585968C1.3550985610694886,18.7364968585968,1.1187555610694886,18.1550968585968,1.0494816610694886,17.5427968585968C0.8443115610694885,16.824696858596802,1.3179435610694885,16.2811968585968,1.5864185610694885,15.720296858596802C3.4002015610694887,11.894086858596802,5.100481561069489,8.013326858596802,6.962291561069488,4.208966858596802C7.153341561069489,3.8211668585968015,7.372161561069489,3.4476868585968017,7.617081561069488,3.0914538585968017C8.164931561069489,2.7749668585968017,8.70841156106949,2.460664458596802,9.350111561069488,2.3689968585968018C9.712421561069489,2.755323858596802,9.461431561069489,3.106733858596802,9.288991561069489,3.460326858596802C7.822251561069488,6.496386858596802,6.414441561069489,9.5608368585968,5.0153515610694885,12.627496858596801Q3.5704415610694884,15.790096858596801,2.0251215610694886,18.915696858596803C1.9613355610694885,19.045696858596802,1.8592765610694886,19.1530968585968,1.7326525610694885,19.2233968585968Z" fill="#6CE4C3" fill-opacity="1"/></g><g><path d="M1.732639193534851,19.22343200778961C2.051311193534851,17.564632007789612,3.096799193534851,16.222232007789614,3.7166791935348513,14.687832007789611C4.681399193534851,12.286932007789613,5.822939193534851,9.958042007789611,6.990649193534851,7.650992007789612C7.774229193534851,6.123132007789612,8.258769193534851,4.431582007789611,9.258429193534852,2.9975720077896115C9.367559193534852,2.8426120077896115,9.326089193534852,2.580688007789612,9.35446919353485,2.3689700077896116C9.82756919353485,2.0924890077896117,10.344199193534852,1.8983830077896118,10.882319193534851,1.7949320077896118C11.041649193534852,2.3384100077896117,10.755729193534851,2.796772007789612,10.544009193534851,3.237662007789612C8.361359193534852,7.821232007789612,6.324949193534851,12.463732007789611,4.0702791935348515,17.008032007789613C3.511519193534851,18.134232007789613,3.286699193534851,19.43073200778961,2.356901193534851,20.364932007789612C2.0477141935348513,20.049132007789613,1.831700393534851,19.654132007789613,1.732639193534851,19.22343200778961Z" fill="#6BDDBE" fill-opacity="1"/></g><g><path d="M33.16281722338867,12.87625503540039C34.38293022338867,13.496127035400391,35.520080223388675,14.22295503540039,36.39532022338867,15.30118503540039C36.49790022338867,17.21755503540039,37.02830022338867,19.064075035400393,37.28148022338867,20.956425035400393C37.33823022338867,21.382045035400388,37.49974022338867,21.80329503540039,37.30767022338867,22.23327503540039L37.30767022338867,22.30748503540039C36.011170223388675,22.22017503540039,35.04426022338867,21.53919503540039,34.236680223388674,20.58318503540039C33.527316223388674,18.36562503540039,33.34396822338867,16.04546503540039,32.90308162338867,13.77549903540039C32.81907402338867,13.45082003540039,32.918614923388674,13.106143035400391,33.16281722338867,12.87625503540039Z" fill="#BB3844" fill-opacity="1"/></g><g><path d="M7.6257974536418915,3.0936520099639893C7.232927453641891,4.76120200996399,6.281287453641892,6.190832009963989,5.598117453641891,7.736152009963989C4.144477453641891,11.03195200996399,2.5729674536418914,14.28405200996399,1.0494684536418915,17.54495200996399C0.6483474536418915,16.784952009963988,0.4153484536418915,15.947552009963989,0.3662974536418915,15.089452009963988C1.7937474536418916,12.42011200996399,2.9549174536418916,9.63287200996399,4.257967453641891,6.893652009963989C4.661757453641892,6.048962009963989,5.080827453641891,5.20864200996399,5.416957453641891,4.3333920099639895C6.058657453641891,3.750625009963989,6.848777453641891,3.4319600099639893,7.6257974536418915,3.0936520099639893Z" fill="#6EEAC8" fill-opacity="1"/></g><g><path d="M33.16281378967285,12.876289262329102C33.245753789672854,14.906163262329102,33.80014378967285,16.863993262329103,34.11226378967285,18.858933262329103C34.19811378967285,19.4295632623291,34.23753378967285,20.0062232623291,34.23012378967285,20.583233262329102L31.39267678967285,17.5428032623291C30.842643789672852,15.7377432623291,30.401757789672853,13.915243262329101,30.54580668967285,12.003235272329102C31.525823789672852,11.974853062329101,32.37488378967285,12.343721262329101,33.16281378967285,12.876289262329102Z" fill="#C13A47" fill-opacity="1"/></g><g><path d="M25.78545623046875,18.590429067993163C25.05427423046875,17.499099067993164,25.24852023046875,16.158949067993163,24.87748023046875,14.969409067993164C24.80326423046875,14.731489067993165,24.84692023046875,14.454299067993164,24.75743723046875,14.225129067993164C24.45404523046875,13.428449067993164,24.67012583046875,12.915535067993163,25.51481123046875,12.710366067993164C26.18488623046875,12.609966067993165,26.77638623046875,12.171250667993164,27.47919623046875,12.247644757993164C27.73303623046875,12.394232067993164,27.90047623046875,12.654347067993164,27.92882623046875,12.946096067993164C28.03795623046875,14.240409067993165,28.68619623046875,15.477969067993165,28.35225623046875,16.822489067993164L25.78545623046875,18.590429067993163Z" fill="#D23E4E" fill-opacity="1"/></g><g><path d="M28.36098266845703,16.82252175415039Q27.924452668457032,14.53292175415039,27.48792266845703,12.23895175415039C28.48758066845703,11.89845845415039,29.49159266845703,11.64963275415039,30.543632668457033,11.99449575415039C30.923412668457033,13.82574175415039,31.35122266845703,15.650431754150391,31.39050266845703,17.53406175415039C30.48034266845703,16.88364175415039,29.452312668457033,16.72866175415039,28.36098266845703,16.82252175415039Z" fill="#C93C4B" fill-opacity="1"/></g><g><path d="M20.77846327270508,8.122449935047626C19.83774327270508,8.432389935047626,18.862093272705078,8.270869935047626,17.90173527270508,8.323259935047627C17.46520507270508,7.9020099350476265,17.42154927270508,7.825609935047627,17.764227272705078,7.124979935047627C18.558713272705077,5.496729935047626,19.244073272705077,3.8204499350476264,20.088753272705077,2.2183799350476265C20.442343272705077,1.5504899350476264,20.59076327270508,0.7734659350476265,21.14733327270508,0.2147079350476265C21.63843327270508,-0.003556964952373509,22.17537327270508,0.2299879350476265,22.67519327270508,0.061919935047626495L23.32998327270508,0.061919935047626495C23.153193272705078,1.1532499350476264,22.49402327270508,2.0393999350476264,22.06186327270508,3.0194099350476264C21.524933272705077,4.239509935047627,20.990193272705078,5.466159935047626,20.400873272705077,6.660069935047627C20.06692327270508,7.349789935047626,20.10183327270508,7.775399935047626,20.77846327270508,8.122449935047626Z" fill="#75AA9A" fill-opacity="1"/></g><g><path d="M14.173761950378418,9.150512255897523L12.427642950378418,9.844592255897522C11.670268950378418,9.626332255897522,12.163536950378418,9.150512255897523,12.287949950378419,8.858042255897521C13.191571950378417,6.729952255897522,14.171581950378418,4.636792255897522,15.206151950378418,2.569822255897522C15.537921950378419,1.904122255897522,15.642681950378417,1.0921712558975218,16.33895195037842,0.642546255897522C16.81913195037842,0.330428255897522,17.356061950378418,0.47448415589752196,17.866801950378417,0.45265625589752195C18.077721950378418,0.6692762558975219,18.11290195037842,1.0021352558975218,17.951931950378416,1.258055255897522C16.66635195037842,3.870682255897522,15.620861950378417,6.607732255897522,14.173761950378418,9.150512255897523Z" fill="#6CBFA9" fill-opacity="1"/></g><g><path d="M34.035864284667966,9.12430683429718L32.28974328466797,8.71833683429718C31.992906284667967,8.32109683429718,32.20898668466797,7.93476683429718,32.372685284667966,7.59209683429718C33.29158428466797,5.65826683429718,34.14936428466797,3.6960568342971802,35.10318428466797,1.77750683429718C35.18907428466797,1.5756748342971802,35.35395428466797,1.4178971342971802,35.55936428466797,1.3409768342971802C36.16616428466797,1.3723564342971801,36.760234284667966,1.5268168342971802,37.30548428466797,1.7949648342971802C37.47136428466797,2.3406278342971802,37.16143428466797,2.80334683429718,36.94534428466797,3.2289668342971805C35.95659428466797,5.18244683429718,35.30616428466797,7.30615683429718,34.035864284667966,9.12430683429718Z" fill="#A86E6E" fill-opacity="1"/></g><g><path d="M21.15823493927002,0.21469484269618988C20.43577493927002,2.50429484269619,19.22440493927002,4.57999484269619,18.24657493927002,6.75173484269619C18.02830493927002,7.2428348426961895,17.57649493927002,7.7055548426961895,17.91262493927002,8.32324484269619C17.44334493927002,8.63755484269619,16.90860493927002,8.50440484269619,16.40004493927002,8.54151484269619C15.75834453927002,8.74232484269619,15.73215373927002,8.32324484269619,15.79763063927002,7.89981484269619C15.894386939270019,7.4747448426961896,16.05558193927002,7.06696484269619,16.27563193927002,6.69062484269619C17.33858493927002,4.55599484269619,18.11997493927002,2.28385484269619,19.42301493927002,0.2670830426961899L21.15823493927002,0.21469484269618988Z" fill="#71B2A0" fill-opacity="1"/></g><g><path d="M5.416969027071,4.333383083343506C5.591579027070999,4.610577083343506,5.528289027070999,4.868135083343506,5.395149027070999,5.149692083343506C3.972059027070999,8.192313083343507,2.557699027070999,11.243653083343506,1.1389790270709992,14.286273083343506C0.9752790270709991,14.631083083343507,0.8836110270709991,15.074183083343506,0.36632402707099915,15.089483083343506C0.08693836707099914,14.690083083343506,0.22444602707099914,14.231703083343506,0.19389902707099915,13.797353083343506C-0.03964597292900085,13.247333083343506,0.11532722707099916,12.706033083343506,0.35541302707099914,12.232393083343506C1.4467390270709992,10.073743083343505,2.343809027070999,7.821253083343506,3.4744190270709994,5.684433083343506C4.085559027070999,5.175890083343506,4.670509027070999,4.638953083343506,5.416969027071,4.333383083343506Z" fill="#71F0CC" fill-opacity="1"/></g><g><path d="M37.309868548583985,22.233304681396483C36.700910548583984,20.129224681396487,36.54812254858398,17.935664681396485,36.06793654858399,15.807581681396485C36.01118554858398,15.560940681396485,36.20544454858398,15.419062681396484,36.39751854858398,15.301204681396484L38.399008548583986,16.416534681396485C38.95339854858398,18.110274681396483,39.424858548583984,19.819294681396485,39.27206854858399,21.630894681396484C38.74386854858398,22.228954681396484,38.07597854858398,22.386094681396486,37.309868548583985,22.233304681396483Z" fill="#B43640" fill-opacity="1"/></g><g><path d="M31.488737010498046,27.04603628805664C31.918787010498047,27.02432170805664,32.34661701049805,27.12015900805664,32.726297010498044,27.32323700805664C32.94456701049805,27.54150200805664,32.86162701049805,27.80342300805664,32.752487010498044,28.02822900805664C31.74410701049805,30.09956200805664,30.805567010498045,32.20146200805664,29.832107010498046,34.28807200805664C29.735967010498047,34.44126200805664,29.606067010498048,34.57041200805664,29.452327010498045,34.66566200805664C28.956857010498048,34.48887200805664,28.387188010498047,34.60673200805664,27.92446701049805,34.29243200805664C27.607980010498046,33.91265200805664,27.802239110498046,33.54815200805664,27.955027010498046,33.18145200805664C28.68839501049805,31.42005200805664,29.58982701049805,29.73722200805664,30.342847010498048,27.98237500805664C30.54364701049805,27.50220300805664,30.792477010498047,26.97400510805664,31.488737010498046,27.04603628805664Z" fill="#C5575C" fill-opacity="1"/></g><g><path d="M32.04747204711914,37.50531005859375C32.807032047119144,39.65086005859375,32.92053204711914,41.92518005859375,33.38325204711914,44.129650058593754C33.55350204711914,44.92632005859375,33.53385204711914,45.77536005859375,34.00967204711914,46.49347005859375C33.64139204711914,46.86965005859375,33.20022204711914,47.16673005859375,32.713172047119144,47.36653005859375C32.25264204711914,47.36653005859375,32.20898204711914,46.98675005859375,32.15005204711914,46.69864005859375C31.64804204711914,44.25406005859375,31.19623104711914,41.80077005859375,30.840458047119142,39.32782005859375C30.79521704711914,39.11242005859375,30.84536044711914,38.88797005859375,30.97796604711914,38.71231005859375L32.04747204711914,37.50531005859375Z" fill="#8E3134" fill-opacity="1"/></g><g><path d="M16.356411690979005,0.6425392031669617Q14.418221690979003,4.865969203166961,12.482211690979003,9.091579203166962C12.377441690979005,9.322939203166962,12.078421690979004,9.576129203166962,12.445111690979004,9.844599203166961L10.642235690979003,10.914139203166961C10.286462690979004,10.545229203166961,10.609490690979005,10.237469203166961,10.751368690979003,9.936269203166962Q12.637181690979004,5.922369203166961,14.542631690979004,1.9193892031669617C14.697601690979003,1.5919872031669615,14.874401690979003,1.2645892031669617,14.835111690979005,0.8935362031669617C15.300001690979004,0.5988902031669616,15.832571690979004,0.6709147031669617,16.356411690979005,0.6425392031669617Z" fill="#6BC6AE" fill-opacity="1"/></g><g><path d="M10.210073745574952,16.822491619716796L11.083133745574951,18.350344959716796Q9.540003745574952,21.624324959716798,8.027423745574952,24.898304959716796C7.833163745574951,25.317364959716798,7.630183745574952,25.751714959716796,7.191463745574952,25.9896249597168C6.749592745574951,25.698304959716797,6.364910745574951,25.3284049597168,6.056483745574951,24.898304959716796C6.359875745574951,23.302784959716796,7.333333745574951,21.986634959716795,7.898643745574951,20.5002549597168C8.269693745574951,19.5202449597168,8.83282374557495,18.618804959716797,9.238793745574952,17.647526959716796C9.404673745574952,17.259021959716797,9.59019374557495,16.770110159716797,10.210073745574952,16.822491619716796Z" fill="#6EBBA5" fill-opacity="1"/></g><g><path d="M35.56371741821289,1.3366071815109253Q33.98129741821289,4.828852181510925,32.40542741821289,8.303632181510924C32.35609741821289,8.438292181510924,32.318837418212894,8.577072181510925,32.29410741821289,8.718332181510926L30.54799131821289,8.489162181510926C30.39957271821289,8.102832181510927,30.61783741821289,7.781982181510926,30.76625641821289,7.456762181510926C31.56074741821289,5.584052181510925,32.45562741821289,3.759352181510925,33.33742741821289,1.9281101815109252C33.55568741821289,1.4697521815109253,33.74120741821289,0.8476951815109253,34.50296741821289,1.0987057815109254C34.87361741821289,1.0489087115109252,35.24985741821289,1.1332892815109252,35.56371741821289,1.3366071815109253Z" fill="#A07573" fill-opacity="1"/></g><g><path d="M19.41211087738037,0.2671029881198883C19.12619087738037,1.7032796881198884,18.226930877380372,2.886279688119888,17.720560877380372,4.2242496881198885C17.28403087738037,5.4006996881198885,16.66852087738037,6.516029688119889,16.138140877380373,7.659739688119888C15.97007087738037,8.01987968811989,15.701610877380372,8.421479688119888,16.38915087738037,8.532799688119889L14.173750877380371,9.150499688119888C14.306889877380371,8.168299688119887,14.828545877380371,7.332349688119888,15.227970877380372,6.4549196881198885C15.99846087738037,4.748089688119888,16.832220877380372,3.069629688119888,17.644170877380372,1.3802596881198883C17.809140877380372,1.0994846881198883,17.892290877380372,0.7781756881198884,17.88426087738037,0.4526296881198883C18.36615087738037,0.2490718881198883,18.89549087738037,0.1848005881198883,19.41211087738037,0.2671029881198883Z" fill="#6EB9A5" fill-opacity="1"/></g><g><path d="M44.53442835205078,5.636419296264648C45.03424835205078,6.020568296264648,45.54717835205078,6.391614296264648,45.79599835205078,7.004939296264649C45.08008835205078,9.146119296264649,43.94947835205078,11.10176929626465,43.02839835205078,13.151289296264649C42.90320835205078,13.459529296264648,42.66055835205078,13.705319296264648,42.35395835205078,13.834459296264649C41.58130435205078,13.688219296264649,41.32375235205078,13.07707929626465,41.09674835205078,12.437559296264649C41.91305735205078,10.224349296264649,43.01747835205078,8.139919296264647,44.02585835205078,6.011835296264649C44.12524835205078,5.812281296264649,44.31443835205078,5.672614796264648,44.53442835205078,5.636419296264648Z" fill="#D14F55" fill-opacity="1"/></g><g><path d="M34.05552710021973,27.66590118408203C34.59092710021973,27.71066258408203,35.10902710021973,27.877145184082032,35.57028710021973,28.15262818408203C35.884587100219726,28.61097918408203,35.53972710021973,28.97549118408203,35.38257710021973,29.35745118408203C34.544437100219724,31.389501184082032,33.43565710021973,33.30151118408203,32.72192710021972,35.39031118408203L30.975808100219727,34.916671184082034C30.709530700219727,34.62202118408203,30.794643990219726,34.29898118408203,30.936522100219726,33.99996118408203C31.896897100219725,31.96136118408203,32.82887710021973,29.909671184082033,33.80888710021973,27.88853618408203C33.86628710021973,27.790767184082032,33.95239710021973,27.71303388408203,34.05552710021973,27.66590118408203Z" fill="#D15056" fill-opacity="1"/></g><g><path d="M27.11031593322754,0.2125233925532341C27.15893593322754,0.1765077925532341,27.22538593322754,0.1765077925532341,27.27401593322754,0.2125233925532341C27.461715933227538,0.9786359925532341,26.88986593322754,1.498110992553234,26.632315933227538,2.115790992553234C25.93604593322754,3.792070992553234,25.145925933227538,5.431240992553234,24.37108593322754,7.074780992553234C24.18556593322754,7.469840992553234,24.00658593322754,7.875810992553234,23.56350593322754,8.063520992553233L22.25391593322754,8.076610992553235C21.858855933227538,7.524400992553234,22.166603933227538,7.009290992553234,22.40014993322754,6.548760992553234C23.27320593322754,4.833200992553234,23.99348593322754,3.056520992553234,24.87963593322754,1.349680992553234C25.56499593322754,0.016085992553234105,25.56499593322754,0.016085992553234105,27.11031593322754,0.2125233925532341Z" fill="#81978D" fill-opacity="1"/></g><g><path d="M23.55915069580078,8.06791857234478L27.26966069580078,0.21037857234477997L28.79751069580078,0.26058197234478C28.88689069580078,0.46226757234477994,28.876380695800783,0.6942145723447799,28.769140695800782,0.8870015723447799C27.70837069580078,3.20934857234478,26.58649069580078,5.50767857234478,25.543170695800782,7.83655857234478C25.50389069580078,7.92823857234478,25.390380695800783,7.98716857234478,25.31181069580078,8.05482857234478L23.55915069580078,8.06791857234478Z" fill="#869188" fill-opacity="1"/></g><g><path d="M41.23861403564453,12.457197277526856L42.32994403564453,13.766787277526856C42.84722403564453,14.161847277526856,42.91707403564453,14.690047277526855,42.78175403564453,15.279367277526855C42.93672403564453,16.979647277526855,42.65952403564453,18.553337277526857,41.45687403564453,19.862927277526857C41.103290035644534,20.081197277526854,40.86537503564453,19.862927277526857,40.79117303564453,19.581367277526855C40.48996603564453,18.457307277526855,40.00105403564453,17.346337277526857,40.36773803564453,16.137147277526857C41.62931403564453,14.753347277526856,40.97233603564453,13.382637277526856,40.33717703564453,12.014112277526856C40.83918503564453,11.739103277526855,41.05526503564453,12.064322277526855,41.23861403564453,12.457197277526856Z" fill="#A8333A" fill-opacity="1"/></g><g><path d="M41.238640684814456,12.457200431976318C40.93089268481445,12.321880431976318,40.73007868481445,11.968290431976317,40.33283468481445,12.020670431976319L40.14948568481445,11.80241043197632C39.808992684814456,11.300400431976318,40.031627784814454,10.813670431976318,40.25206468481446,10.374950431976318C41.03781068481445,8.799080431976318,41.69916068481445,7.166450431976319,42.506750684814456,5.601495431976319C42.70755068481445,5.2107994319763185,42.85161068481445,4.693512131976318,43.478030684814456,4.783001631976318C43.905430684814455,4.956798431976319,44.27370068481445,5.250058431976319,44.53879068481445,5.6276864319763185L41.238640684814456,12.457200431976318Z" fill="#CB5459" fill-opacity="1"/></g><g><path d="M12.209359777603149,1.3627713918685913C10.899769777603149,4.608371391868591,9.31297977760315,7.716471391868591,7.859339777603149,10.892221391868592Q5.45623977760315,16.150271391868593,3.0422297776031493,21.40607139186859L2.6056997776031494,20.751271391868592C2.8523407776031493,19.25617139186859,3.7101197776031496,18.01417139186859,4.319079777603149,16.67407139186859Q7.754569777603149,9.14610139186859,11.30355977760315,1.6770733918685914L12.209359777603149,1.3627713918685913Z" fill="#6AD7B9" fill-opacity="1"/></g><g><path d="M21.37649641357422,24.656070709228516C21.91912641357422,24.684326309228517,22.44858641357422,24.833477709228514,22.92617641357422,25.092600709228517C22.44380641357422,26.648830709228516,21.62968641357422,28.061000709228516,20.92904641357422,29.516840709228514C20.45104641357422,30.512130709228515,20.274246413574218,31.675480709228516,19.40118641357422,32.46997070922852L18.09159941357422,32.05091070922852C17.83841771357422,31.756250709228517,17.923531033574218,31.444120709228514,18.05885441357422,31.136370709228515C18.91009341357422,29.185080709228515,19.86826641357422,27.283990709228515,20.732606413574217,25.337069709228516C20.874496413574217,25.051129709228515,21.02945641357422,24.752107909228517,21.37649641357422,24.656070709228516Z" fill="#9A7B78" fill-opacity="1"/></g><g><path d="M34.05554151184082,27.665900139526368C33.43349151184082,29.756886139526365,32.27232151184082,31.60776613952637,31.436361511840822,33.600526139526366C31.25519151184082,34.03705613952637,30.94089151184082,34.410296139526366,30.99983151184082,34.910116139526366L29.47197151184082,34.659106139526365C30.27955551184082,32.520116139526365,31.30103151184082,30.47497613952637,32.28977151184082,28.416736139526368C32.46219151184082,28.058775139526368,32.59534151184082,27.683365139526366,32.74595151184082,27.32540738952637C33.20648151184082,27.299216639526367,33.62773151184082,27.491291139526368,34.05554151184082,27.665900139526368Z" fill="#CB5459" fill-opacity="1"/></g><g><path d="M43.47365215209961,4.7917412078704835C42.88215215209961,5.068932207870484,42.74247215209961,5.677892207870483,42.537302152099606,6.188632207870484C41.78210215209961,8.081002207870483,40.53581215209961,9.766002207870484,40.13639215209961,11.811152207870483L38.79623615209961,10.802762207870483C38.55178015209961,10.394612207870484,38.74603975209961,10.030102207870485,38.92937515209961,9.680882207870482C39.80243215209961,8.015512207870483,40.47469215209961,6.2628422078704835,41.33029215209961,4.593119207870483C41.50054215209961,4.261358207870483,41.59439215209961,3.8008152078704835,42.148782152099606,3.920865407870483C42.657802152099606,4.092717207870483,43.11404215209961,4.392618207870483,43.47365215209961,4.7917412078704835Z" fill="#C5575C" fill-opacity="1"/></g><g><path d="M28.142732232666017,8.259980970544815L26.396611132666017,8.083190970544816C26.215447232666016,7.404390970544815,26.695633232666015,6.915470970544815,26.924809232666014,6.367630970544815C27.655992232666016,4.621510970544815,28.494132232666015,2.940860970544815,29.308262232666017,1.242761970544815C29.476332232666017,0.893535970544815,29.548342232666016,0.36970117054481505,30.146402232666016,0.42863036054481507C30.744462232666017,0.4875595705448151,31.351232232666014,0.3085869705448151,31.905622232666015,0.6468959705448151C30.582932232666018,2.301340970544815,30.032902232666014,4.3574009705448145,29.050712232666015,6.193010970544815C28.701492232666016,6.847810970544815,28.487592232666017,7.589910970544815,28.142732232666017,8.259980970544815Z" fill="#8F8680" fill-opacity="1"/></g><g><path d="M10.210065049133302,16.82249411682129C9.0641750491333,18.110264116821288,8.6210850491333,19.773444116821288,7.8615250491333,21.26418411682129C7.243835049133301,22.47555411682129,6.770205049133301,23.75458411682129,6.047745049133301,24.91575411682129C5.707145049133301,24.68972411682129,5.420299049133301,24.39168411682129,5.207429249133301,24.042694116821288C5.0568258491333005,23.654174116821288,5.257626049133301,23.33333411682129,5.425694049133301,23.01248411682129C6.517015049133301,20.805834116821288,7.542865049133301,18.57079411682129,8.564345049133301,16.33139411682129C8.7695150491333,15.883955116821289,8.859005049133302,15.226975016821289,9.6076650491333,15.27717177682129L10.210065049133302,16.82249411682129Z" fill="#6CC1AA" fill-opacity="1"/></g><g><path d="M11.307916254959107,1.685799479484558C11.360296254959106,2.7269194794845584,10.698956254959107,3.530139479484558,10.308256254959106,4.394469479484558C7.887706254959107,9.722319479484558,5.382016254959106,15.010899479484559,2.9025232549591067,20.31469947948456C2.8144262549591064,20.46729947948456,2.7152182549591064,20.613199479484557,2.6056862549591067,20.751299479484558L2.3699562549591064,20.358399479484557C3.1491642549591066,18.579499479484557,3.8978162549591064,16.78759947948456,4.716306254959107,15.026199479484559C6.761446254959107,10.606299479484559,8.834966254959106,6.199529479484558,10.897576254959107,1.7883914794845581L11.307916254959107,1.685799479484558Z" fill="#6BD8BA" fill-opacity="1"/></g><g><path d="M20.778468494873046,8.122459935047626C19.451413494873048,8.035149935047627,19.468878494873046,8.041699935047626,20.036362494873046,6.839059935047627C20.987998494873047,4.815739935047627,21.928718494873046,2.7880599350476265,22.838888494873046,0.7472759350476265C22.95088849487305,0.4864409350476265,23.117628494873045,0.2527149350476265,23.327808494873047,0.061919935047626495L24.432228494873048,0.061919935047626495C24.731248494873046,0.3980499350476265,24.578458494873047,0.7450909350476265,24.432228494873048,1.0702999350476265C23.423838494873046,3.2223899350476266,22.347798494873047,5.343929935047626,21.411428494873046,7.5309499350476266C21.283968494873047,7.747459935047626,21.125078494873048,7.943849935047626,20.939988494873045,8.113719935047627L20.859228494873047,8.139909935047626L20.778468494873046,8.122459935047626Z" fill="#79A294" fill-opacity="1"/></g><g><path d="M34.49641322387696,1.1073985459251403C33.94202322387695,1.1073985459251403,33.80233322387696,1.5635715459251402,33.623353223876954,1.9455365459251404Q32.08021322387695,5.21951654592514,30.554543223876955,8.49348654592514L29.244954223876952,8.29050654592514C29.092845123876952,8.12584654592514,29.067094023876955,7.88076654592514,29.181661923876952,7.68808654592514C30.307903223876952,5.36574654592514,31.29009322387695,2.97574654592514,32.51893322387696,0.7036065459251404C33.16281322387695,0.8323825459251404,33.872173223876956,0.7712682459251404,34.49641322387696,1.1073985459251403Z" fill="#9B7B77" fill-opacity="1"/></g><g><path d="M31.48872937561035,27.04604879675293C31.153759375610353,27.18903179675293,30.88598937561035,27.45445679675293,30.74007937561035,27.78815979675293Q29.35845937561035,30.77401979675293,27.98993937561035,33.76206979675293C27.942889375610353,33.93183979675293,27.920829375610353,34.10756979675293,27.92444937561035,34.28370979675293C27.39188937561035,34.35137979675293,26.90078937561035,34.16802979675293,26.39659797561035,34.02615979675293C26.30810097561035,33.82205979675293,26.318571875610353,33.58854979675293,26.42497347561035,33.39318979675293C27.428989375610353,31.10795979675293,28.369709375610352,28.79215979675293,29.66402937561035,26.64661979675293C30.244609375610352,26.93254679675293,30.92996937561035,26.69681649675293,31.48872937561035,27.04604879675293Z" fill="#BE5C60" fill-opacity="1"/></g><g><path d="M10.013613813171387,28.20066668640137L8.935387813171387,27.44327668640137C8.662556813171387,27.07222668640137,8.909197413171388,26.74919668640137,9.059800813171387,26.441436686401367C9.961233813171386,24.594906686401366,10.805923813171386,22.730926686401368,11.657163813171387,20.856026686401368C11.823043813171386,20.491527686401366,12.023843813171386,20.146664686401365,12.453833813171386,20.028806686401367C12.818333813171387,20.31910268640137,13.272323813171386,20.51334868640137,13.466583813171386,20.98480868640137C13.466583813171386,21.78365668640137,12.929653813171386,22.381706686401365,12.669913813171387,23.08451668640137C12.128623813171387,24.540346686401367,11.283933813171387,25.858676686401367,10.733903813171386,27.310126686401368C10.600753813171387,27.672466686401368,10.450143813171387,28.063156686401367,10.013613813171387,28.20066668640137Z" fill="#75A99A" fill-opacity="1"/></g><g><path d="M42.15751284912109,3.920852108306885C41.415402849121094,4.481792108306885,41.30846284912109,5.405052108306885,40.922142849121094,6.160252108306885C40.14948284912109,7.672832108306885,39.50341284912109,9.250892108306886,38.8049628491211,10.802752108306885L37.52810484912109,10.226532108306884C37.27709484912109,9.903492108306885,37.458258249121094,9.600112108306885,37.593581849121094,9.316362108306885C38.466642849121094,7.491662108306885,39.29386284912109,5.649512108306885,40.16692284912109,3.8269931083068847C40.32406284912109,3.4995951083068846,40.450662849121095,3.0237791083068846,41.013792849121096,3.2922407083068848C41.445762849121095,3.392161108306885,41.841622849121094,3.6097331083068847,42.15751284912109,3.920852108306885Z" fill="#BE5C60" fill-opacity="1"/></g><g><path d="M9.590185525512695,15.294618634338379C9.022695525512695,15.598018634338379,8.911385525512696,16.21133863433838,8.669115525512694,16.71771863433838C7.494845525512695,19.15572863433838,6.3533255255126955,21.61121863433838,5.198690525512696,24.06014863433838C4.927630525512695,23.894948634338377,4.709511525512696,23.655628634338377,4.570085525512695,23.37042863433838C5.942965525512696,20.22086863433838,7.381345525512695,17.10403863433838,8.920105525512696,14.03304463433838C9.345725525512695,13.183990634338379,9.328265525512695,14.166182634338378,9.544345525512696,14.19892863433838L9.590185525512695,15.294618634338379Z" fill="#6BC6AE" fill-opacity="1"/></g><g><path d="M32.5080235144043,0.7014684114212036C32.189353514404296,2.5829140114212037,30.980163514404296,4.086764011421204,30.347193514404296,5.839434011421203C30.043803514404296,6.681934011421204,29.461033514404296,7.4043940114212035,29.2340435144043,8.286184011421204L28.1427183144043,8.259994011421202C28.020490514404297,7.303984011421203,28.561783514404297,6.4920440114212035,28.952486514404296,5.756484011421204C29.7316935144043,4.289744011421204,30.2315135144043,2.7007740114212035,31.113313514404297,1.2776910114212034C31.316303514404296,0.9502940114212036,31.497463514404295,0.6643671114212036,31.916533514404296,0.6447240114212036L32.5080235144043,0.7014684114212036Z" fill="#95807B" fill-opacity="1"/></g><g><path d="M21.37649654724121,24.656042829345704C20.33973654724121,26.880168829345703,19.29861654724121,29.104288829345702,18.27059654724121,31.332778829345703C18.18767654724121,31.567838829345703,18.12844654724121,31.810588829345704,18.09379654724121,32.05741882934571L16.78420654724121,31.603428829345702C16.581221747241212,31.372068829345704,16.666348367241213,31.125428829345704,16.771111547241212,30.8962488293457C17.72492654724121,28.835828829345704,18.65255654724121,26.7644888293457,19.63474654724121,24.717163829345704C19.71967654724121,24.514045829345704,19.872406547241212,24.346656829345704,20.06690654724121,24.243518829345703C20.531566547241212,24.266658829345705,20.982476547241212,24.408696829345704,21.37649654724121,24.656042829345704Z" fill="#94827C" fill-opacity="1"/></g><g><path d="M21.376499850097655,41.89901351928711L22.467828850097657,41.95794931928711C22.858518850097656,42.11946351928711,22.954548850097655,42.47523651928711,23.015668850097658,42.83100951928711C23.377988850097655,44.930723519287106,23.794878850097657,47.02170351928711,24.106998850097657,49.13232351928711C24.148468850097657,49.41388351928711,24.200848850097657,49.70854351928711,23.986958850097658,49.95954351928711C23.537328850097655,49.99882351928711,23.085518850097657,50.04902351928711,22.664268850097656,49.81549351928711C22.333498850097655,49.47656351928711,22.129288850097655,49.03423351928711,22.085860850097657,48.56265351928711C21.786838850097656,46.781613519287106,21.448530850097658,45.007123519287106,21.158234350097658,43.22388351928711C21.092757460097655,42.76551951928711,20.990165850097657,42.28970351928711,21.376499850097655,41.89901351928711Z" fill="#6C7971" fill-opacity="1"/></g><g><path d="M23.777407825317383,25.3348445892334C24.394847825317385,25.3507641892334,25.001587825317383,25.4996625892334,25.556267825317384,25.7713745892334C24.436567825317383,27.912554589233398,23.45874782531738,30.121394589233397,22.459087825317383,32.319324589233396C22.312847825317384,32.6423545892334,22.240817825317382,33.0243245892334,21.823937825317383,33.1421945892334C21.465982825317383,32.9828645892334,21.027267825317384,33.0854445892334,20.712965825317383,32.7907845892334C20.513817225317382,32.5653545892334,20.479633325317383,32.2384145892334,20.627838925317384,31.976664589233398C21.716977825317382,29.765624589233397,22.618417825317383,27.482574589233398,23.777407825317383,25.3348445892334Z" fill="#A57170" fill-opacity="1"/></g><g><path d="M34.0358772277832,9.124272510490417C34.1908502277832,7.838682510490417,35.107557227783204,6.880502510490418,35.5069772277832,5.684412510490418C35.9566072277832,4.335532510490418,36.692157227783206,3.0826925104904177,37.303297227783204,1.7905625104904175C37.8249572277832,2.0350185104904175,38.4600972277832,1.9695415104904175,38.922817227783206,2.3755115104904174C37.6896172277832,4.302792510490418,36.9955372277832,6.494172510490418,35.891117227783205,8.486932510490417C35.716507227783204,8.799052510490418,35.6597572277832,9.178832510490418,35.3432672277832,9.408012510490417L34.0358772277832,9.124272510490417Z" fill="#AF6869" fill-opacity="1"/></g><g><path d="M23.77740371826172,25.334871188598633C23.478383718261718,27.190125188598632,22.29320371826172,28.676505188598632,21.677693718261718,30.40297518859863C21.38958371826172,31.210565188598633,20.741343718261717,31.874085188598634,20.71296371826172,32.78643518859863L19.40337371826172,32.48740518859863C20.45104371826172,29.968635188598633,21.43760371826172,27.419295188598632,22.92399371826172,25.11005169459863C23.23174371826172,25.116606038598633,23.55913371826172,25.064224588598634,23.77740371826172,25.334871188598633Z" fill="#A07673" fill-opacity="1"/></g><g><path d="M30.14857670593262,0.42861660821437836C28.915376705932616,2.1747416082143785,28.319516705932617,4.254801608214378,27.31112670593262,6.120971608214378C26.968446705932617,6.7517616082143785,26.70434670593262,7.430561608214378,26.403156705932616,8.085351608214378L25.311826705932617,8.070071608214377C26.184887705932617,5.335211608214379,27.62325670593262,2.8644516082143783,28.804066705932616,0.26928110821437834C29.25369670593262,0.23435788821437836,29.722956705932617,0.15141610821437834,30.14857670593262,0.42861660821437836Z" fill="#8B8B84" fill-opacity="1"/></g><g><path d="M14.610281481933594,30.71728278930664L13.497134681933593,30.17380278930664C13.300690481933593,29.70235278930664,13.619362481933594,29.34003278930664,13.778691481933594,28.95369278930664C14.470591481933594,27.283962789306642,15.306551481933594,25.67972278930664,16.053011481933595,24.03400578930664C16.245081481933592,23.59747578930664,16.400061481933594,23.04090258930664,17.078861481933593,23.11729000930664C17.472481481933592,23.15989328930664,17.846531481933596,23.31102978930664,18.159271481933594,23.55381978930664C17.504481481933595,25.38288278930664,16.631421481933593,27.10718278930664,15.784551481933594,28.84456278930664C15.459331481933594,29.50810278930664,15.348021481933595,30.30913278930664,14.610281481933594,30.71728278930664Z" fill="#869188" fill-opacity="1"/></g><g><path d="M20.939970016479492,8.11374C21.697343016479493,5.74775,22.976390016479492,3.6153,23.980400016479493,1.34752C24.168110016479492,0.926275,24.478050016479493,0.544311,24.43221001647949,0.037934C25.32709001647949,0.037934,26.23290001647949,-0.117032,27.108140016479492,0.199448C26.143420016479492,0.0335644,25.55628001647949,0.374057,25.176500016479494,1.33661C24.277240016479492,3.62621,22.845420016479494,5.67136,22.249560016479492,8.09192L20.939970016479492,8.11374Z" fill="#7C9E91" fill-opacity="1"/></g><g><path d="M40.36556444580078,16.150232315063477C40.52271444580078,17.095324315063475,40.64495444580078,18.046952315063475,40.85447444580078,18.987682315063477C40.93086444580078,19.321632315063475,40.90685444580078,19.823642315063477,41.45470444580078,19.884742315063477C40.93741444580078,20.725062315063475,40.11237444580078,21.194332315063477,39.27205544580078,21.630862315063474C38.92065144580078,19.902212315063476,38.45574554580078,18.193192315063477,38.39899444580078,16.416509315063475C39.099630445800784,16.656609315063477,39.73696444580078,16.460178315063477,40.36556444580078,16.150232315063477Z" fill="#AF353E" fill-opacity="1"/></g><g><path d="M30.980178750610353,38.718875885009766Q31.63496875061035,42.32897588500977,32.28976875061035,45.94562588500977C32.37924875061035,46.43454588500977,32.40980875061035,46.943105885009764,32.71101875061035,47.37307588500977C32.34573875061035,47.708325885009764,31.90804875061035,47.95480588500976,31.43198875061035,48.093355885009764C31.065308750610352,47.779045885009765,31.08930875061035,47.31851588500977,31.012918750610353,46.90380588500977C30.650608750610353,44.921955885009766,30.32102675061035,42.93356588500976,29.95215805061035,40.953895885009764C29.85612095061035,40.447515885009764,29.797185050610352,39.954235885009766,30.094035750610352,39.49151588500977L30.980178750610353,38.718875885009766Z" fill="#89393C" fill-opacity="1"/></g><g><path d="M29.670554664306643,26.655332155029296C29.452294664306642,28.111160155029296,28.46573466430664,29.248320155029297,27.98555466430664,30.605920155029295C27.56649466430664,31.786730155029296,26.93788466430664,32.8933401550293,26.40313466430664,34.034870155029296L25.093546864306642,33.8057001550293C25.03772836430664,33.6318101550293,25.05506011430664,33.4427001550293,25.141558864306642,33.2818601550293C26.20232466430664,30.963880155029297,27.19325466430664,28.6131601550293,28.37624466430664,26.351940155029297C28.81277466430664,26.426156155029297,29.28422466430664,26.369405055029297,29.670554664306643,26.655332155029296Z" fill="#B96063" fill-opacity="1"/></g><g><path d="M42.76648223999023,15.294655755004882L42.329952239990234,13.779895755004883C43.51513223999024,11.959565755004883,44.20485223999023,9.896955755004882,45.16740223999023,7.969679755004883C45.34201223999023,7.618276755004882,45.41185223999023,7.2123007550048825,45.80037223999023,7.004945755004883C46.16268223999023,7.312700755004883,46.55339223999023,7.594263755004883,46.660342239990236,8.096275755004882C45.752362239990234,9.157035755004882,45.335462239990235,10.479725755004882,44.72869223999024,11.702005755004883C44.12192223999023,12.924285755004883,43.731212239990235,14.264445755004882,42.76648223999023,15.294655755004882Z" fill="#D64D53" fill-opacity="1"/></g><g><path d="M10.013605117797852,28.20067657836914C11.192245117797851,25.79976657836914,12.139505117797851,23.30280657836914,13.47093511779785,20.98483657836914C13.728485117797852,21.26857857836914,14.193385117797853,21.25329857836914,14.396375117797852,21.61562557836914C14.533885117797851,21.95611857836914,14.396375117797852,22.27041657836914,14.267585117797852,22.560716578369142C13.394525117797851,24.55784657836914,12.482185117797851,26.54405657836914,11.46942511779785,28.47787657836914C11.392125117797852,28.64381657836914,11.264615117797852,28.781256578369142,11.10493511779785,28.87075657836914L10.013605117797852,28.20067657836914Z" fill="#79A395" fill-opacity="1"/></g><g><path d="M35.34546661376953,9.401501726455688C35.39566331376953,8.310181726455689,36.08757361376953,7.4524017264556885,36.52845661376953,6.529131726455688C37.069756613769535,5.394151726455688,37.584866613769535,4.2504517264556885,38.06940661376953,3.0892757264556883C38.23092661376953,2.6985797264556886,38.46446661376953,2.4017420264556884,38.92500661376953,2.3711817264556885C39.32128661376953,2.3971859264556885,39.69864661376953,2.5502737264556883,40.001056613769535,2.8077117264556883C39.02322661376953,4.449061726455689,38.35315661376953,6.241021726455688,37.52810661376953,7.958771726455688C37.21817661376953,8.598281726455689,37.05228661376953,9.327291726455687,36.43677661376953,9.790021726455688C36.070108613769534,9.683071726455688,35.65976861376953,9.67652172645569,35.34546661376953,9.401501726455688Z" fill="#B46466" fill-opacity="1"/></g><g><path d="M7.189267158508301,26.009290341796877Q8.7913371585083,22.586890341796874,10.3912171585083,19.162314341796876C10.5301371585083,18.826217341796877,10.7744871585083,18.544327341796876,11.087477158508301,18.359100341796875L11.7269971585083,19.232160341796874C11.395227158508302,20.886610341796874,10.347557158508302,22.235490341796876,9.782257158508301,23.793910341796874C9.5006971585083,24.568740341796875,9.051077158508301,25.280290341796874,8.7236771585083,26.044220341796876C8.594897158508301,26.343240341796875,8.522877158508301,26.784140341796874,8.005590158508301,26.672820341796875C7.6651631585083,26.552310341796876,7.376799158508301,26.317920341796874,7.189267158508301,26.009290341796877Z" fill="#70B4A1" fill-opacity="1"/></g><g><path d="M23.995684935913086,49.961730592041015C23.559154935913085,47.53244059204101,23.122619935913086,45.103140592041015,22.686089935913085,42.67603759204101C22.626101935913084,42.43298059204101,22.553231235913085,42.19328059204101,22.467824935913086,41.957950592041016L23.777414935913086,41.957950592041016C24.296884935913084,42.704413592041014,24.368914935913086,43.58838059204101,24.488964935913085,44.441810592041016C24.683224935913085,45.81033059204101,24.977874935913086,47.15921059204101,25.187414935913086,48.525550592041014C25.261624935913087,49.01665059204102,25.556284935913087,49.38333059204101,25.778914935913086,49.795860592041016C25.204864935913086,50.07522059204101,24.598094935913085,49.99883059204102,23.995684935913086,49.961730592041015Z" fill="#6F6F6A" fill-opacity="1"/></g><g><path d="M36.43679428100586,9.803120569992066Q37.87516428100586,6.614270569992065,39.31352428100586,3.4254125699920657C39.44885428100586,3.1242055699920654,39.60818428100586,2.8382788699920654,39.99669428100586,2.8208205699920654C40.38087428100586,2.858115069992065,40.74137428100586,3.0233725699920653,41.02036428100586,3.2900895699920656C40.79896428100586,3.2975565699920653,40.60405428100586,3.4381345699920653,40.52708428100586,3.6458625699920653Q39.03414428100586,6.937300569992066,37.53466428100586,10.224380569992064L36.43679428100586,9.803120569992066Z" fill="#B96063" fill-opacity="1"/></g><g><path d="M20.06691105560303,24.243492856811525Q18.663461055603026,27.379958856811523,17.25565105560303,30.520798856811524C17.096321055603028,30.878758856811523,16.947901055603026,31.243258856811522,16.795121055603026,31.612128856811523L15.703791055603027,31.175598856811526C15.557117855603027,31.006058856811524,15.535150155603027,30.761788856811524,15.649225155603027,30.568808856811522C16.633601055603027,28.410168856811524,17.657271055603026,26.271168856811524,18.663461055603026,24.121264856811525C18.738211055603028,23.997145856811525,18.84637105560303,23.896552256811525,18.975581055603026,23.830968856811523C19.36938105560303,23.869841956811523,19.74588105560303,24.012158856811524,20.06691105560303,24.243492856811525Z" fill="#908680" fill-opacity="1"/></g><g><path d="M28.37843592956543,26.351953449707032C28.34787592956543,26.635695449707033,28.37843592956543,26.95655144970703,28.27148592956543,27.20318844970703C27.23035592956543,29.41203844970703,26.15868592956543,31.60559844970703,25.09573592956543,33.80570844970703L24.00440692956543,33.58744844970703C23.786141929565428,33.34298844970703,23.92801972956543,33.10944844970703,24.03496792956543,32.88245844970703Q25.468965929565428,29.77217844970703,26.93788592956543,26.67936444970703C27.04702592956543,26.44800344970703,27.09286592956543,26.07258084970703,27.51846592956543,26.190452549707032C27.80875592956543,26.20790414970703,28.11869592956543,26.138057649707033,28.37843592956543,26.351953449707032Z" fill="#B46466" fill-opacity="1"/></g><g><path d="M27.51194649169922,26.192637502441407Q25.75490649169922,29.903147502441406,23.99787649169922,33.58964750244141L22.906553491699217,33.371377502441405C22.62935249169922,33.00032750244141,22.871637191699218,32.677297502441405,23.017871491699218,32.365177502441405C23.866926491699218,30.568867502441407,24.720336491699218,28.779087502441406,25.51263649169922,26.956567502441406C25.69815649169922,26.520035502441406,25.905516491699217,26.083505502441405,26.41625649169922,25.941627502441406C26.78512649169922,26.011473902441406,27.19545649169922,25.897985102441407,27.51194649169922,26.192637502441407Z" fill="#AF6869" fill-opacity="1"/></g><g><path d="M12.615351936645508,44.38284821289062C12.121051936645507,44.00283821289062,11.686281936645507,43.55113821289063,11.325401936645507,43.04269821289063C10.273367936645508,41.16561821289063,10.511281936645508,38.985138212890625,9.908868536645508,37.00111721289063C9.840620636645507,36.739889212890624,10.003160936645507,36.474264812890624,10.266826936645508,36.416168212890625C10.889129936645508,36.78916621289063,11.451351936645509,37.25424521289062,11.934371936645508,37.79560821289063C12.281421936645508,39.72070821289063,12.669931936645508,41.63924821289063,12.964581936645509,43.57307821289062C13.019141936645507,43.92447821289063,13.001681936645507,44.230058212890626,12.615351936645508,44.38284821289062Z" fill="#66C1AB" fill-opacity="1"/></g><g><path d="M26.416244157104494,25.937284561767576C25.07828415710449,28.33820456176758,24.050244157104494,30.876624561767578,22.90654415710449,33.35829456176758L21.815214157104492,33.11821456176758Q23.377984157104493,29.70018456176758,24.93640415710449,26.27777756176758C25.060814157104492,26.004945561767578,25.200504157104493,25.76048996176758,25.547544157104493,25.747394561767578C25.853114157104493,25.771400561767578,26.178334157104494,25.69936926176758,26.416244157104494,25.937284561767576Z" fill="#AB6C6D" fill-opacity="1"/></g><g><path d="M18.975585858459475,23.833179270751952C18.216025858459474,25.994006270751953,17.089765858459472,27.980216270751953,16.166515858459473,30.077736270751952C16.004995858459473,30.442236270751952,15.856575858459472,30.811106270751953,15.703795858459472,31.169066270751955L14.612465858459473,30.708526270751953C15.579378858459473,28.65029627075195,16.54193585845947,26.585496270751953,17.52194585845947,24.533815270751955C17.69001585845947,24.18022627075195,17.790405858459472,23.772072270751952,18.161455858459473,23.542896270751953L18.975585858459475,23.833179270751952Z" fill="#8B8B84" fill-opacity="1"/></g><g><path d="M32.72629850712891,35.390341350708006C32.38799030712891,34.35359135070801,33.162828307128905,33.61803135070801,33.50769130712891,32.80172135070801C34.17339730712891,31.24331135070801,34.98316730712891,29.74601135070801,35.57465730712891,28.152681350708008C35.971407307128906,28.17133195070801,36.35263730712891,28.312397350708007,36.665977307128905,28.556466350708007C35.888957307128905,30.261111350708006,35.12284730712891,31.97013135070801,34.332727307128906,33.668231350708005C34.04461730712891,34.28811135070801,33.72812730712891,34.89706135070801,33.59717430712891,35.57805135070801C33.319973307128905,35.60424135070801,33.044957307128904,35.392531350708005,32.769954307128906,35.57805135070801C32.74901230712891,35.51714135070801,32.734384907128906,35.454251350708006,32.72629850712891,35.390341350708006Z" fill="#D54D53" fill-opacity="1"/></g><g><path d="M7.999022006988525,26.67719030395508C8.636352006988526,26.09224030395508,8.725848006988524,25.22355030395508,9.112172006988526,24.50545030395508C10.039792006988526,22.778980303955077,10.666212006988525,20.901890303955078,11.731352006988526,19.236530303955078L12.469092006988525,20.02883330395508C11.159492006988526,22.42975030395508,10.116182006988526,24.968170303955077,8.950655006988525,27.449850303955078C8.574366006988525,27.275050303955076,8.247368006988525,27.009560303955077,7.999022006988525,26.67719030395508Z" fill="#72B09E" fill-opacity="1"/></g><g><path d="M12.61533441833496,44.38281655883789C12.997294418334961,43.640716558837894,12.49964741833496,42.94881655883789,12.451635418334961,42.23508655883789C12.364324418334961,40.98442655883789,12.045665418334961,39.74904655883789,11.820846118334961,38.50929755883789C11.775005648334961,38.25611555883789,11.724808918334961,38.00729055883789,11.934348418334961,37.79556655883789C12.30103241833496,38.09240355883789,12.807404418334961,38.15788055883789,13.10861441833496,38.56822055883789C13.78306441833496,40.56534655883789,13.946764418334961,42.662876558837894,14.32872441833496,44.71674655883789C14.41864441833496,45.08180655883789,14.264764418334961,45.46344655883789,13.946764418334961,45.66401655883789C13.443204418334961,45.303726558837894,12.994714418334961,44.872156558837894,12.61533441833496,44.38281655883789Z" fill="#65B8A4" fill-opacity="1"/></g><g><path d="M20.285170369873047,11.815504049389649L20.285170369873047,12.437561249389649C20.049440369873047,12.80861624938965,19.305170369873046,12.607807249389648,19.335730369873048,13.282256249389649C19.222220369873046,13.937046249389649,19.735160369873046,14.622406249389648,19.196030369873046,15.246636249389649C18.700910369873046,15.030056249389649,18.220430369873046,14.781426249389648,17.757660369873047,14.50235624938965C17.102860369873046,14.065826249389648,16.723086369873048,14.17933624938965,16.424064369873047,14.965076249389648C16.379396369873046,14.788916249389649,16.349461369873048,14.609306249389649,16.334581369873046,14.428146249389648C16.334581369873046,13.895576249389649,15.625219369873047,13.469956249389648,16.02464836987305,12.91775624938965C16.448083369873046,12.332804249389648,17.161810369873045,12.204029249389649,17.818780369873046,12.001037249389649C18.620100369873047,11.774139699389648,19.45893036987305,11.711040749389648,20.285170369873047,11.815504049389649Z" fill="#E64559" fill-opacity="1"/></g><g><path d="M3.47876,5.690985202789307C3.04223,7.751405202789307,1.87669,9.508435202789308,1.06693,11.413895202789305C0.732981,12.195285202789307,0.124026,12.878455202789308,0.193873,13.814815202789307C-0.279759,11.459735202789307,0.0803707,9.279265202789308,1.65188,7.406545202789307C2.18445,6.7561152027893066,2.86325,6.245380202789306,3.47876,5.690985202789307Z" fill="#73F6D1" fill-opacity="1"/></g><g><path d="M25.778916229248047,49.79799582763672C25.281266229248047,49.84601582763672,25.056456229248045,49.55791582763672,24.982246229248048,49.121385827636715Q24.373289229248048,45.54183582763672,23.777416229248047,41.96010702763672L24.868746229248046,41.93828582763672C25.030746229248045,42.08601182763672,25.133206229248046,42.28782482763672,25.156856229248046,42.50576982763672C25.554096229248046,44.52690582763672,25.87712622924805,46.56332582763672,26.248176229248045,48.59100582763672C26.318026229248048,48.97296582763672,26.37477622924805,49.38111582763672,26.180516229248045,49.760895827636716L25.778916229248047,49.79799582763672Z" fill="#726763" fill-opacity="1"/></g><g><path d="M11.104930877685547,28.870738150024415Q12.141690877685546,26.565858150024415,13.182820877685547,24.263168150024413C13.582230877685546,23.370458150024415,13.990390877685547,22.497398150024413,14.392000877685547,21.624338150024414L15.299980877685547,22.202746150024414C15.334900877685547,22.268223150024415,15.380740877685547,22.346795150024413,15.354550877685547,22.405731150024415C14.319970877685547,24.782638150024415,13.370510877685547,27.207568150024414,11.988901877685548,29.414218150024414L11.104930877685547,28.870738150024415Z" fill="#7C9E91" fill-opacity="1"/></g><g><path d="M10.266797352600097,36.416155025634765C9.806267352600099,37.09932502563476,10.404307352600098,37.70173502563477,10.471967352600098,38.336885025634764C10.637857352600097,39.91712502563477,11.026357352600098,41.47553502563476,11.325377352600098,43.042675025634765C10.616727352600098,42.408295025634764,10.005547352600098,41.672825025634765,9.511597352600099,40.86002502563477C9.173502352600098,39.45309502563477,8.913380352600097,38.02856502563476,8.732389752600097,36.59294502563476C8.671269052600097,36.156418025634764,8.407177352600097,35.55400402563477,9.168920352600098,35.359745025634766L10.266797352600097,36.416155025634765Z" fill="#68CAB2" fill-opacity="1"/></g><g><path d="M19.193834753051757,15.237921703186036C19.477576753051757,14.526371703186035,18.602330753051756,13.775539703186036,19.26586575305176,13.077095703186036C20.029788753051758,13.129477703186035,20.793718753051756,13.186228703186035,21.535828753051756,12.915581703186035C22.114238753051758,13.928331703186036,22.050928753051757,15.082951703186035,22.24737875305176,16.178651703186034C21.094928753051757,16.305241703186034,20.158558753051757,15.731201703186034,19.193834753051757,15.237921703186036Z" fill="#E04356" fill-opacity="1"/></g><g><path d="M20.066895025024415,49.315617083740236C19.804975025024415,49.37236708374024,19.617265025024416,49.197757083740235,19.412095025024414,49.09734708374023C18.877345025024415,48.80051708374023,18.739835025024416,48.26357708374023,18.617615025024413,47.73537708374023C18.181082025024413,45.86921708374023,18.008657025024412,43.955027083740234,17.585222025024414,42.084487083740235C17.502280225024414,41.722177083740235,17.148692025024413,41.145954083740236,17.940995025024414,41.01935670474023C18.236953025024413,41.01164335374023,18.526625025024416,41.10562898374023,18.761675025024413,41.285634083740234C19.401185025024414,42.46862708374024,19.394645025024413,43.797867083740236,19.634735025024415,45.07252708374023C19.826805025024413,46.10491708374023,19.977415025024413,47.146047083740235,20.189125025024413,48.176247083740236C20.256785025024413,48.542957083740234,20.394295025024412,48.96639708374023,20.066895025024415,49.315617083740236Z" fill="#669285" fill-opacity="1"/></g><g><path d="M30.107104391479492,48.68919000488281C29.960874391479493,48.90745000488281,29.727324391479492,48.90745000488281,29.498154391479492,48.924920004882814C28.921924391479493,48.977300004882814,28.87609439147949,48.48839000488281,28.793154391479494,48.14352000488282C28.30424539147949,46.109290004882816,28.04232539147949,44.03140000488281,27.640711191479493,41.979720004882815C27.567694191479493,41.58194000488281,27.670365691479493,41.17202800488281,27.92226839147949,40.85564700488281L28.53996239147949,40.52388000488281C28.895734391479493,40.64829300488281,29.004864391479494,40.96041000488281,29.068164391479492,41.27908200488281C29.504694391479493,43.46173000488281,29.842994391479493,45.67276000488281,30.26206439147949,47.86414000488281C30.327124391479494,48.148750004882814,30.27099439147949,48.44758000488281,30.107104391479492,48.68919000488281Z" fill="#7F494A" fill-opacity="1"/></g><g><path d="M11.99109935760498,29.40550266906738C12.209364357604981,28.139572669067384,13.01038935760498,27.129002669067383,13.46219935760498,25.959102669067384C13.96202935760498,24.649512669067384,14.68012935760498,23.444682669067383,15.302179357604981,22.194032669067383L16.17523935760498,22.691683669067384C16.04863935760498,23.449052669067385,15.66231935760498,24.116962669067384,15.35018935760498,24.795762669067383C14.76086935760498,26.07479266906738,14.10388935760498,27.318902669067384,13.582249357604981,28.628492669067384C13.39889935760498,29.086852669067383,13.18718935760498,29.577942669067383,12.626245357604981,29.737282669067383L11.99109935760498,29.40550266906738Z" fill="#7F998E" fill-opacity="1"/></g><g><path d="M21.37651277709961,41.89897354174805C21.56858277709961,44.57709154174805,22.22120277709961,47.18099154174805,22.66645277709961,49.817641541748046L21.79339277709961,49.74779154174804C21.43762277709961,49.610281541748044,21.339402777099608,49.30035154174804,21.28264277709961,48.968581541748044C20.91377877709961,46.823031541748044,20.53618477709961,44.67967154174805,20.17167217709961,42.531947541748046C20.12366027709961,42.256931541748045,20.029794577099608,41.95353954174805,20.27207877709961,41.704727661748045C20.66059677709961,41.704714341748044,21.05130077709961,41.63486794174805,21.37651277709961,41.89897354174805Z" fill="#698177" fill-opacity="1"/></g><g><path d="M17.936643699951173,41.01938489746094C17.43026269995117,41.35115189746094,17.80568369995117,41.75274989746094,17.88862369995117,42.09105989746094C18.45394369995117,44.413399897460934,18.443013699951173,46.86232989746094,19.416483699951172,49.09735989746093C18.939943699951172,48.99812989746094,18.48941369995117,48.80036989746094,18.09379369995117,48.516779897460935C17.82906369995117,48.12589989746094,17.66351369995117,47.67641989746094,17.61142369995117,47.207189897460935C17.297124699951173,45.43487989746094,16.987191699951172,43.66256989746094,16.670704699951173,41.88807989746094C16.59213259995117,41.438449897460934,16.41752269995117,40.96481789746094,16.81258269995117,40.56101989746094C17.21967169995117,40.617504497460935,17.606123699951173,40.77508889746094,17.936643699951173,41.01938489746094Z" fill="#66998B" fill-opacity="1"/></g><g><path d="M27.924438184814452,40.864383697509766C28.044488184814455,43.42463369750976,28.686188184814455,45.89539369750977,29.186018184814454,48.392343697509766C29.197098184814454,48.61296369750976,29.314188184814455,48.81462369750977,29.500318184814454,48.93363369750976C29.168568184814454,49.17508369750976,28.771178184814453,49.30983369750977,28.360988184814452,49.31997369750977C27.570865184814455,48.446913697509764,27.800041184814454,47.272643697509764,27.522840184814452,46.25116369750977C27.173621184814454,44.97432369750977,27.116870184814452,43.63198369750977,26.844038884814452,42.32239369750977C26.757739984814453,41.96642369750977,26.83805738481445,41.59053069750976,27.062304184814455,41.30091369750976L27.924438184814452,40.864383697509766Z" fill="#7B5050" fill-opacity="1"/></g><g><path d="M16.803856190185545,40.56754913208008Q17.393176190185546,44.05978913208008,17.97812619018555,47.55202913208008C18.030506190185548,47.86851913208008,18.050156190185547,48.18935913208008,18.085076190185546,48.50802913208008C17.672876190185548,48.39331913208008,17.294166190185546,48.18149913208008,16.980646190185546,47.89033913208008C16.314945190185547,45.99142913208008,16.238544190185547,43.97465913208008,15.799842190185547,42.02992913208008C15.657964690185548,41.40568913208008,15.420063190185546,40.75308213208008,15.922070190185547,40.16157913208008L16.803856190185545,40.56754913208008Z" fill="#659F90" fill-opacity="1"/></g><g><path d="M6.490817337112427,36.05385052368164C5.374387337112426,34.12438052368164,4.502624337112427,32.063380523681644,3.895640737112427,29.91843052368164C4.030964337112427,29.56046752368164,3.397990337112427,28.92313752368164,4.290700337112427,28.84238052368164L6.351127337112427,32.23640052368164C6.5825073371124265,33.20102052368164,6.752377337112427,34.17936052368164,6.859687337112427,35.16551052368164C6.896787337112427,35.49947052368164,7.1150473371124265,35.97528052368164,6.490817337112427,36.05385052368164Z" fill="#6EDFC2" fill-opacity="1"/></g><g><path d="M12.63060188293457,29.737231317138672C13.72193188293457,27.962741317138672,14.42692188293457,26.009261317138673,15.315261882934571,24.140911317138674C15.55971188293457,23.623627317138673,15.712501882934571,23.06923931713867,16.18832188293457,22.691631317138672C16.52552188293457,22.74423931713867,16.83938188293457,22.89622831713867,17.08975188293457,23.128161317138673C16.65322188293457,23.276580317138674,16.53754188293457,23.67600931713867,16.37167188293457,24.02741131713867C15.41130188293457,26.079111317138672,14.461851882934571,28.132981317138672,13.50803188293457,30.184671317138672C13.18043488293457,30.117721317138674,12.877175882934571,29.96307131713867,12.63060188293457,29.737231317138672Z" fill="#83958B" fill-opacity="1"/></g><g><path d="M6.490829965332031,36.05382811401367C6.850971965332032,35.05635811401367,6.272564365332031,34.13309811401367,6.246373625332032,33.16181411401367C6.246373625332032,32.83441611401367,6.189622565332031,32.53976411401367,6.3511369653320315,32.24509811401367C6.939641965332031,32.76832711401367,7.436171965332031,33.38660811401367,7.8200519653320315,34.07415811401367C8.137861965332032,35.21974811401367,8.372031965332031,36.386898114013675,8.52069196533203,37.56639811401367C8.592721965332032,38.09459811401367,8.708401965332031,38.65772811401367,8.27186196533203,39.109538114013674C7.540281965332031,38.17784811401367,6.940934965332032,37.14955811401367,6.490829965332031,36.05382811401367Z" fill="#6BD6BB" fill-opacity="1"/></g><g><path d="M16.138149801025392,47.379593348388674L15.26508980102539,46.74444334838867C14.89608980102539,46.16913334838867,14.67145480102539,45.51320334838867,14.61029380102539,44.83244334838867C14.39202880102539,43.304583348388675,14.018790801025391,41.79638334838867,13.83327090102539,40.25978634838867C13.787430401025391,39.890918348388674,13.52115380102539,39.38672634838867,14.22178880102539,39.28196334838867C14.54120680102539,39.34577494838867,14.833139801025391,39.50660934838867,15.057749801025391,39.74249934838867C15.712539801025391,42.01463334838867,15.97227980102539,44.36098334838867,16.35423980102539,46.68332334838867C16.41814980102539,46.93756334838867,16.33476980102539,47.20621334838867,16.138149801025392,47.379593348388674Z" fill="#65AC9A" fill-opacity="1"/></g><g><path d="M26.178331989135742,49.76089678100586C25.68942098913574,47.16136678100586,25.10010198913574,44.57928678100586,24.868741989135742,41.93827078100586L25.523536989135742,41.75710678100586C25.74005698913574,41.89440178100586,25.896151989135742,42.10902978100586,25.96007198913574,42.35733578100586C26.422791989135742,44.75825678100586,26.955351989135742,47.15916678100586,27.116871989135742,49.60373678100586C26.833131989135744,49.85476678100586,26.50136198913574,49.78054678100586,26.178331989135742,49.76089678100586Z" fill="#74615E" fill-opacity="1"/></g><g><path d="M14.22613602142334,39.27322596142578C13.70011902142334,40.21831296142578,14.26978602142334,41.15248296142578,14.41820602142334,42.02119296142578C14.68448602142334,43.59051296142578,14.896206021423339,45.179482961425784,15.26070602142334,46.73571296142578C14.78051602142334,46.430132961425784,14.29379602142334,46.13329296142578,13.95111602142334,45.66403296142578C14.23922602142334,44.49632296142578,13.77650702142334,43.40716296142578,13.60189702142334,42.28748296142578C13.40763802142334,41.05210296142578,13.09989032142334,39.83199296142578,13.11298567642334,38.57697296142578C13.396728021423339,38.93710196142578,13.97295102142334,38.84760596142578,14.22613602142334,39.27322596142578Z" fill="#65B29F" fill-opacity="1"/></g><g><path d="M30.1071056171875,39.49148941040039C30.5065326171875,41.89240941040039,30.9125026171875,44.29331941040039,31.3053826171875,46.69423941040039C31.379592617187498,47.15258941040039,31.4014126171875,47.62185941040039,31.4450726171875,48.08458941040039C31.3643126171875,48.25918941040039,31.2028026171875,48.261379410400394,31.0456426171875,48.27228941040039C30.4257626171875,48.28975941040039,30.3908426171875,47.77027941040039,30.3253726171875,47.38394941040039C29.9259416171875,45.32570941040039,29.6094546171875,43.25000941040039,29.2078540171875,41.18958941040039C29.1200630171875,40.76306941040039,29.2082137171875,40.31918941040039,29.4523096171875,39.958580410400394L30.1071056171875,39.49148941040039Z" fill="#853E41" fill-opacity="1"/></g><g><path d="M20.0669084967041,49.315645048828124L18.7573184967041,41.285675048828125L19.4121134967041,41.48866004882812C19.7102694967041,41.632296048828124,19.9219284967041,41.90964404882813,19.981778496704102,42.23512304882812C20.293898496704102,44.417775048828126,20.7282484967041,46.56113504882813,21.1014884967041,48.724135048828124C21.1494984967041,48.99915504882812,21.1778684967041,49.30471504882813,20.9399684967041,49.540445048828126C20.6103884967041,49.623405048828126,20.344108496704102,49.450965048828124,20.0669084967041,49.315645048828124Z" fill="#678C81" fill-opacity="1"/></g><g><path d="M29.452322591430665,39.9586067199707C29.500334591430665,41.80948671997071,29.932505591430665,43.605816719970704,30.325385591430663,45.397766719970704C30.532735591430665,46.3624967199707,30.290465591430664,47.4560067199707,31.041295591430664,48.285416719970705C30.823035591430664,48.634626719970704,30.351585591430663,48.4010967199707,30.115855591430662,48.702296719970704Q29.332279591430662,44.6207367199707,28.548715591430664,40.537001719970704Q28.993971591430665,40.2423487199707,29.452322591430665,39.9586067199707Z" fill="#824346" fill-opacity="1"/></g><g><path d="M16.138139476013183,47.37963700805664C15.967879476013184,44.97871700805664,15.354559476013183,42.65855700805664,14.981334676013184,40.29474400805664C14.948589576013184,40.07647900805664,14.811081476013184,39.89968500805664,15.059906476013184,39.74252700805664L15.919869476013183,40.17905700805664C15.891496476013184,41.63269700805664,16.356399476013184,43.00559700805664,16.574669476013185,44.41775700805664C16.742739476013185,45.57020700805664,17.115959476013185,46.71391700805664,16.978449476013182,47.91000700805664L16.138139476013183,47.37963700805664Z" fill="#65A595" fill-opacity="1"/></g><g><path d="M8.280592963745118,39.11392458251953C8.383170963745117,37.69738458251953,7.999035963745117,36.341954582519534,7.745840663745117,34.96688558251953C7.686904863745117,34.646042582519534,7.527575963745117,34.34483558251953,7.828782963745117,34.06763458251953C8.344084963745118,34.42186258251953,8.792615963745117,34.86449358251953,9.153655963745116,35.37504458251953C8.562149963745117,36.224094582519534,9.208215963745117,37.04694458251953,9.240965963745117,37.88071458251953C9.273705963745117,38.714494582519535,9.531265963745117,39.58100458251953,9.705865963745117,40.42786458251953C9.753945963745117,40.602854582519534,9.669225963745117,40.78705458251953,9.505065963745118,40.86440458251953C8.999895963745118,40.35515458251953,8.585742963745117,39.76309458251953,8.280592963745118,39.11392458251953Z" fill="#6AD0B6" fill-opacity="1"/></g><g><path d="M27.116885889282226,49.60374506225586C26.529749889282225,48.65429506225586,26.627975889282226,47.54332506225586,26.409705889282225,46.51093506225586C26.075753889282225,44.93287506225586,25.816031889282225,43.34171506225586,25.536645889282227,41.75711006225586L26.409705889282225,41.53884506225586C27.149625889282227,42.86808506225586,27.012115889282228,44.393755062255856,27.363525889282226,45.81029506225586C27.656005889282227,46.98893506225586,27.666915889282226,48.23086506225586,28.179835889282227,49.35928506225586C27.867715889282227,49.64958506225586,27.487935889282227,49.56227506225586,27.116885889282226,49.60374506225586Z" fill="#765B59" fill-opacity="1"/></g><g><path d="M20.939973189697266,49.54043489501953C20.542723189697266,47.08495489501953,20.149850189697265,44.62728489501953,19.737326189697267,42.173988895019534C19.660272189697267,41.93125089501953,19.550887189697267,41.69999689501953,19.412113189697266,41.486448195019534C19.720807189697265,41.43470619501953,20.037121189697267,41.51378459501953,20.285173189697264,41.70471289501953Q20.939973189697266,45.36937489501953,21.594763189697264,49.031874895019534C21.640603189697266,49.27414489501953,21.734453189697266,49.50769489501953,21.813033189697265,49.74779489501953C21.483443189697265,49.82636489501953,21.214983189697264,49.67357489501953,20.939973189697266,49.54043489501953Z" fill="#68877C" fill-opacity="1"/></g><g><path d="M28.166726908569338,49.3549005859375C27.826146908569335,49.3310205859375,27.557146908569337,49.0563905859375,27.540306908569335,48.7153905859375C27.145244908569335,46.3144705859375,26.776375908569335,43.9266505859375,26.396596908569336,41.5344605859375L27.051391908569336,41.3031005859375C27.304573908569335,42.9597405859375,27.546856908569335,44.6163605859375,27.813136908569337,46.2686305859375C27.976836908569336,47.2879305859375,28.177636908569337,48.3028605859375,28.360986908569338,49.3243405859375L28.269316908569337,49.365810585937496L28.166726908569338,49.3549005859375Z" fill="#795655" fill-opacity="1"/></g><g><path d="M19.63036459692383,18.112459599853516C20.59347059692383,18.024788599853515,21.53847059692383,17.796079599853517,22.43507059692383,17.433658599853516C21.780270596923827,18.634118599853515,20.852640596923827,18.961518599853516,19.91846359692383,19.264908599853516C19.11961859692383,19.057548599853515,19.39900449692383,18.579548599853517,19.63036459692383,18.112459599853516Z" fill="#AF3B42" fill-opacity="1"/></g><g><path d="M4.290711517257691,28.851116287231445C3.6511985172576904,29.023546287231447,4.323461517257691,29.676166287231446,3.8956515172576904,29.927166287231444C3.3779535172576907,28.816896287231444,3.0109235172576905,27.642416287231445,2.8043285172576904,26.434921287231447C2.7017503172576904,26.203561277231444,2.8174239172576905,26.177370487231446,3.0073135172576904,26.216656687231445L4.290711517257691,28.851116287231445Z" fill="#74E5C8" fill-opacity="1"/></g><g><path d="M19.630375610961913,18.112431933349608C19.682755610961912,18.50749193334961,19.473235610961915,18.96802793334961,19.918485610961913,19.26487793334961C19.595465610961913,19.563897933349608,19.193848610961915,19.454767933349608,18.827164610961916,19.48314793334961C18.050141610961916,19.09245793334961,18.292412570961915,18.520599933349608,18.549963610961914,17.95528793334961C18.868635610961913,18.21939393334961,19.274605610961913,18.00985423334961,19.630375610961913,18.112431933349608Z" fill="#C14550" fill-opacity="1"/></g><g><path d="M18.539064930419922,17.937836576049804C18.62854493041992,18.450753576049806,18.30552493041992,19.029158576049806,18.814084930419924,19.465688576049804C18.521604930419922,19.659948576049803,18.200758930419923,19.611928576049806,17.87336093041992,19.566098576049804C17.707476930419922,19.188508576049806,18.229133930419923,19.173228576049805,18.218222930419923,18.874198576049803L17.425919930419923,18.391831576049803C17.277501330419923,18.136464576049804,17.22947603041992,17.885454576049806,17.45647993041992,17.645368576049805L18.539064930419922,17.937836576049804Z" fill="#CD4654" fill-opacity="1"/></g><g><path d="M17.45862835998535,17.656266609375C17.45862835998535,17.905094609375,17.438978359985352,18.153914609375,17.428068359985353,18.402734609375C16.661948359985352,18.105894609375,16.07700235998535,17.577681609375,15.463678359985352,16.855224609375C16.282172359985353,16.964370609375,16.847488359985352,17.370340609375,17.45862835998535,17.656266609375Z" fill="#DC4758" fill-opacity="1"/></g><g><path d="M22.66643078552246,0.07067235903334618C22.18624078552246,0.38933735903334615,21.65148878552246,0.17762035903334616,21.13857078552246,0.22346035903334618C21.62749578552246,-0.05810324096665383,22.15132078552246,0.05321405903334618,22.66643078552246,0.07067235903334618Z" fill="#71B2A0" fill-opacity="1"/></g><g><path d="M2.5794958265991212,25.788825903442383C2.389606076599121,25.601121903442383,2.337224626599121,25.382855903442383,2.461637326599121,24.996522903442383L2.797760826599121,25.581471903442385C2.717003826599121,25.642578903442384,2.723544826599121,25.795366903442382,2.5794958265991212,25.788825903442383Z" fill="#C5F5E9" fill-opacity="1"/></g><g><path d="M2.5795090198516846,25.788852158203124C2.6515402198516846,25.719006158203126,2.7235580198516844,25.649159358203125,2.7977740198516847,25.570587158203125C2.8676210198516845,25.788852158203124,2.9396520198516845,26.007117158203126,3.0160390198516844,26.225382158203125L2.8130540198516845,26.443647158203124C2.5926044198516847,26.273394158203125,2.6056997198516845,26.028938158203125,2.5795090198516846,25.788852158203124Z" fill="#91ECD5" fill-opacity="1"/></g><g><path d="M21.538015859375,12.91554105432129C20.822095859375,13.52668005432129,20.080005859375,13.806070054321289,19.268051859375,13.077055054321288C19.049786659375,12.84569505432129,18.907908859375,12.60778605432129,19.359718859375,12.511749354321289C19.666174859375,12.466182054321289,19.975361859375,12.44139006432129,20.285165859375,12.437540054321289L21.538015859375,12.91554105432129Z" fill="#EFE9EB" fill-opacity="1"/></g></g></g></svg>