<svg xmlns="http://www.w3.org/2000/svg" xmlns:xlink="http://www.w3.org/1999/xlink" fill="none" version="1.1" width="180" height="50" viewBox="0 0 180 50"><defs><mask id="master_svg0_3055_9858"><g style="mix-blend-mode:passthrough"><rect x="0" y="0" width="179.99996948242188" height="50" rx="0" fill="#FFFFFF" fill-opacity="1"/></g></mask></defs><g style="mix-blend-mode:passthrough" mask="url(#master_svg0_3055_9858)"><g style="mix-blend-mode:passthrough"><g><path d="M89.33378880859375,11.82953483078003C89.00139880859375,12.17612483078003,89.11503880859375,12.478684830780029,89.11361880859376,12.75425483078003C89.11361880859376,15.93038483078003,89.08378880859375,19.10651483078003,89.12781880859374,22.282614830780027C89.13776880859375,22.99291483078003,88.92042880859375,23.15341483078003,88.26560880859375,23.14491483078003C86.84515170859375,23.12781483078003,86.84515170859375,23.157614830780027,86.84515170859375,21.71301483078003C86.84515170859375,17.41476483078003,86.85935280859375,13.115044830780029,86.82952880859375,8.81675183078003C86.82952880859375,8.14629683078003,87.00140680859376,7.982945730780029,87.67327880859375,7.936068320780029C88.75423880859375,7.85936253078003,89.41190880859375,8.23294283078003,90.02981880859375,9.13351483078003C92.31532880859375,12.45737483078003,94.69174880859374,15.71731483078003,97.04112880859375,19.00991483078003C97.42752880859375,18.74001483078003,97.27272880859375,18.392014830780028,97.27272880859375,18.10081483078003C97.28402880859375,15.021294830780029,97.32522880859375,11.940324830780028,97.25562880859376,8.867885830780029C97.23292880859375,7.889190930780029,97.72722880859375,7.946012530780029,98.37782880859375,7.964479130780029C99.02842880859374,7.982945730780029,99.61222880859376,7.822433830780029,99.59802880859375,8.88777483078003C99.53972880859375,13.28123483078003,99.56102880859375,17.67754483078003,99.58662880859374,22.07241483078003C99.58662880859374,22.744314830780027,99.38922880859374,22.934614830780028,98.72012880859376,22.96871483078003C97.69882880859375,23.021314830780028,97.01562880859375,22.744314830780027,96.40339880859375,21.84371483078003C94.11504880859376,18.48291483078003,91.72441880859375,15.198854830780029,89.33378880859375,11.82953483078003Z" fill="#ADADAD" fill-opacity="1"/></g><g><path d="M34.70170173461914,22.786954698944093C33.99148173461914,22.615054698944093,33.45738173461914,22.16335469894409,32.88068173461914,21.762754698944093C32.24574273461914,21.322454698944092,32.20880973461914,20.957354698944094,32.66619173461914,20.28835469894409C33.21448473461914,19.487154698944092,33.54687173461914,19.37925469894409,34.30681173461914,20.07665469894409C35.63210173461914,21.29405469894409,37.29687173461914,21.615054698944093,39.05539173461914,21.392054698944094C40.11789173461914,21.249954698944094,40.86079173461914,20.66055469894409,41.25994173461914,19.656254698944092C41.47159173461914,19.282654698944093,41.41761173461914,18.903354698944092,41.29261173461914,18.519854698944094C40.83806173461914,17.33238469894409,39.73011173461914,17.08664469894409,38.70170173461914,16.74857469894409C37.60653173461914,16.387774698944092,36.48721173461914,16.103684698944093,35.40482173461914,15.710224698944092C33.759931734619144,15.113624698944092,32.69175873461914,13.994314698944091,32.636358734619144,12.159084698944092C32.58095973461914,10.294024698944092,33.468741734619144,8.913344698944092,35.16334173461914,8.208801698944091C37.79403173461914,7.115049698944092,40.29829173461914,7.517041198944092,42.640571734619144,9.126414698944092C43.559671734619144,9.758514698944092,42.91617173461914,10.208794698944091,42.56387173461914,10.758514698944092C42.16761173461914,11.380674698944091,41.85369173461914,11.221584698944092,41.35226173461914,10.846584698944092C39.82954173461914,9.710214698944093,38.13067173461914,9.284084698944092,36.28266173461914,9.937494698944093C35.47584173461914,10.221584698944092,34.94033173461914,10.796864698944091,34.91761173461914,11.72584469894409C34.89488173461914,12.605104698944093,35.44175173461914,13.046864698944091,36.15056173461914,13.38209469894409C37.46448173461914,14.002834698944092,38.90482173461914,14.22584469894409,40.26988173461914,14.696014698944092C42.99997173461914,15.640614698944091,44.14207173461914,17.53692469894409,43.44597173461914,20.17185469894409C43.00137173461914,21.852254698944094,41.81817173461914,22.79405469894409,40.14630173461914,23.154854698944092C39.17329173461914,23.438954698944094,38.17897173461914,23.472954698944093,37.17613173461914,23.427554698944093C36.363641734619144,23.153354698944092,35.50000173461914,23.09655469894409,34.70170173461914,22.786954698944093Z" fill="#ADADAD" fill-opacity="1"/></g><g><path d="M107.71304741171875,15.44316531890869C107.71304741171875,13.230095318908692,107.73862321171875,11.017025318908692,107.69600261171875,8.805377318908691C107.68322338171875,8.112194318908692,107.91475851171874,7.943160230908691,108.57385151171874,7.9531044189086915C111.36362451171875,7.985776418908691,114.15482451171874,8.007082418908691,116.94317451171875,7.943160230908691C117.86362451171875,7.921854318908691,117.78412451171874,8.399125318908691,117.80962451171875,9.009925318908692C117.83802451171874,9.693165318908692,117.74292451171875,10.05679531890869,116.89628451171875,10.028395318908691C114.90765451171875,9.961625318908691,112.91901451171876,10.028395318908691,110.93038451171876,9.992875318908691C110.23577451171874,9.978675318908692,109.93606451171875,10.134925318908692,109.99004451171875,10.892025318908692C110.04684451171875,11.756145318908692,110.04684451171875,12.62306531890869,109.99004451171875,13.487195318908691C109.94884451171875,14.154805318908691,110.15766451171875,14.387765318908691,110.84231451171875,14.373555318908691C112.79685451171875,14.332365318908693,114.75567451171875,14.406225318908692,116.71021451171875,14.33946531890869C117.67896451171875,14.30679531890869,117.56249451171875,14.853665318908693,117.61789451171875,15.490035318908692C117.68180451171875,16.24713531890869,117.38209451171875,16.42043531890869,116.69601451171874,16.407645318908692C114.90056451171876,16.37497531890869,113.10510451171875,16.39770531890869,111.30964451171874,16.39770531890869C109.99857451171874,16.39770531890869,109.99714451171874,16.39770531890869,109.99714451171874,17.66190531890869C109.99714451171874,19.13777531890869,109.96021451171875,20.61357531890869,110.01135451171875,22.086575318908693C110.03692451171875,22.79687531890869,109.76988451171874,23.01417531890869,109.12214451171874,22.938875318908693C108.89895451171876,22.912575318908694,108.67346651171874,22.912575318908694,108.45027251171875,22.938875318908693C107.84942251171876,23.01557531890869,107.68322338171875,22.755675318908693,107.69033258571875,22.173275318908694C107.72867031171874,19.93317531890869,107.71304741171875,17.688895318908692,107.71304741171875,15.44316531890869Z" fill="#ADADAD" fill-opacity="1"/></g><g><path d="M167.4956944091797,29.951707673339843C167.17608440917968,30.336647673339844,167.2982444091797,30.670457673339843,167.2968244091797,30.975857673339846C167.28829440917968,34.59943767333984,167.2968244091797,38.22017767333985,167.28120440917968,41.84797767333984C167.28120440917968,42.23577767333984,167.5212444091797,42.78547767333984,166.7371724091797,42.813877673339846C165.9800769091797,42.84237767333984,166.02694560917968,42.38777767333984,166.02694560917968,41.88067767333985C166.02694560917968,37.455957673339846,166.02694560917968,33.029827673339845,166.03830300917969,28.603691673339842C166.03830300917969,28.261361673339845,165.82807840917968,27.767041673339843,166.4076174091797,27.663351773339844C166.8905754091797,27.575284273339843,167.3167144091797,27.620739850339845,167.66756440917968,28.107954673339844C169.5453944091797,30.704547673339842,171.4615844091797,33.27556767333984,173.36215440917968,35.856537673339844Q174.7826144091797,37.781277673339844,176.1803444091797,39.71447767333984C176.3053444091797,39.886377673339844,176.34084440917968,40.198877673339844,176.62924440917968,40.10227767333984C176.8934444091797,40.01277767333984,176.80244440917969,39.72297767333984,176.80394440917968,39.50847767333984Q176.80394440917968,36.52556767333984,176.80394440917968,33.542607673339845C176.80394440917968,31.838067673339843,176.8138444091797,30.143467673339842,176.80394440917968,28.443179673339845C176.80394440917968,27.974431673339843,176.8380444091797,27.644885173339844,177.44454440917968,27.622157356339844C178.0922444091797,27.599429573339844,178.07094440917967,27.975848673339843,178.06954440917968,28.423295673339844C178.06954440917968,32.88067767333985,178.06954440917968,37.33806767333984,178.0553444091797,41.79687767333984C178.0553444091797,42.13347767333984,178.3010444091797,42.64057767333984,177.7556444091797,42.775577673339846C177.2343444091797,42.906277673339844,176.79544440917968,42.775577673339846,176.4360444091797,42.261377673339844C174.7314744091797,39.869277673339845,172.9956844091797,37.50568767333984,171.26983440917968,35.132107673339846C170.02835440917968,33.42755767333984,168.7854544091797,31.721597673339843,167.4956944091797,29.951707673339843Z" fill="#ADADAD" fill-opacity="1"/></g><g><path d="M54.52273020385742,16.51278456665039C54.52273020385742,14.683234566650391,54.468750203857425,12.85227456665039,54.54404020385742,11.026984566650391C54.58239020385742,10.12925456665039,54.259940203857425,9.93181456665039,53.450280203857425,9.990054566650391C52.49148020385742,10.05824456665039,51.524150203857424,9.97869456665039,50.56392020385742,10.015624566650391C49.92471560385742,10.03977456665039,49.75852480385742,9.74147456665039,49.882103703857425,9.19460456665039C49.985794203857424,8.73153256665039,49.45596720385742,7.95312621665039,50.52983020385742,7.95880491085039C53.93182020385742,7.97584966665039,57.33239020385742,7.96874913665039,60.73434020385742,7.95880491085039C61.89344020385742,7.95880491085039,61.232940203857424,8.826700566650391,61.375040203857424,9.296874566650391C61.54834020385742,9.865054566650391,61.21164020385742,10.01846456665039,60.69464020385742,10.00710456665039C59.667620203857425,9.98863456665039,58.63922020385742,10.031254566650391,57.61364020385742,9.99147456665039C56.99575020385742,9.96732456665039,56.79404020385742,10.13352456665039,56.79973020385742,10.79971456665039C56.83666020385742,14.58522456665039,56.77558020385742,18.37357456665039,56.84376020385742,22.16337456665039C56.863650203857425,23.26137456665039,56.264210203857424,23.11367456665039,55.57814020385742,23.14487456665039C54.86791020385742,23.17897456665039,54.46450020385742,23.090874566650392,54.50001020385742,22.19177456665039C54.57386020385742,20.30117456665039,54.52273020385742,18.40627456665039,54.52273020385742,16.51278456665039Z" fill="#ADADAD" fill-opacity="1"/></g><g><path d="M138.00137456054688,35.20594170227051Q138.00137456054688,38.57244170227051,138.00137456054688,41.94034170227051C138.00137456054688,42.39624170227051,138.08237456054687,42.812441702270505,137.35647456054687,42.82524170227051C136.58947456054688,42.83804170227051,136.64627456054689,42.40764170227051,136.64627456054689,41.90334170227051C136.65477456054688,40.106541702270505,136.61927456054687,38.30964170227051,136.66477456054687,36.51560170227051C136.68177456054687,35.85508170227051,136.4502745605469,35.70310170227051,135.83663456054688,35.71020170227051C133.23861456054686,35.73719170227051,130.64061456054688,35.74714170227051,128.0440245605469,35.71020170227051C127.31390456054687,35.69741170227051,127.20310456054688,35.99429170227051,127.21306456054687,36.61645170227051C127.24430456054688,38.41194170227051,127.22159456054688,40.20874170227051,127.22583456054687,42.004241702270505C127.22583456054687,42.437441702270505,127.27270456054687,42.83094170227051,126.61361456054688,42.821041702270506C126.00849986054688,42.812441702270505,125.95878740054688,42.504241702270505,125.96020923964687,42.026941702270506Q125.97441036054687,35.242871702270506,125.96020923964687,28.460199702270508C125.96020923964687,27.99997370227051,125.97583216054687,27.653382902270508,126.58947856054688,27.629233272270508C127.22868456054688,27.60366610227051,127.23152456054687,27.961618702270506,127.22726456054687,28.419005702270507C127.21732456054687,30.123551702270507,127.27130456054688,31.82810170227051,127.20452456054687,33.518431702270505C127.17043456054688,34.393431702270505,127.47584456054688,34.59514170227051,128.30538456054688,34.57667170227051C130.7414645605469,34.52270170227051,133.18037456054688,34.51560170227051,135.61645456054688,34.57667170227051C136.5042745605469,34.60082170227051,136.69457456054687,34.29258170227051,136.66617456054686,33.47867170227051C136.60937456054688,31.781221702270507,136.66617456054686,30.079521702270508,136.64197456054688,28.38065470227051C136.64197456054688,27.872133702270506,136.7456745605469,27.627815762270508,137.32807456054687,27.622132734770506C137.91047456054687,27.616449702270508,138.01137456054687,27.872133702270506,138.00707456054687,28.37639370227051C137.99147456054686,30.65055170227051,138.00137456054688,32.928961702270506,138.00137456054688,35.20594170227051Z" fill="#ADADAD" fill-opacity="1"/></g><g><path d="M97.17326821289062,35.65339274963379C99.31956821289063,33.19601274963379,101.48433821289062,30.75425274963379,103.59655821289063,28.26703374963379C104.16473821289063,27.59373994963379,104.77695821289062,27.52981774963379,105.69031821289063,27.75282974963379C104.37780821289063,29.25283274963379,103.14484821289062,30.664762749633788,101.90905821289063,32.07385274963379C101.31672821289062,32.74856274963379,100.77268821289063,33.47158274963379,100.11075821289063,34.07668274963379C99.47865821289062,34.659072749633786,99.55962821289063,35.07100274963379,100.09371821289062,35.66333274963379C102.01559821289062,37.79400274963379,103.89343821289063,39.95030274963379,105.78551821289062,42.100802749633786C105.92751821289062,42.25850274963379,106.21161821289063,42.375002749633786,106.10221821289062,42.636302749633785C105.99281821289063,42.89770274963379,105.71161821289063,42.76700274963379,105.50422821289062,42.79690274963379C104.97582821289062,42.87360274963379,104.61075821289063,42.65480274963379,104.26701821289062,42.242902749633785C102.57809821289062,40.25420274963379,100.84940821289062,38.29540274963379,99.16474821289063,36.30253274963379C98.75281821289063,35.81390274963379,98.48576821289062,35.78123274963379,98.02838821289062,36.25140274963379C97.28264821289062,37.01561274963379,96.77980821289063,37.79260274963379,96.91191821289063,38.95030274963379C97.03123821289063,39.99570274963379,96.91191821289063,41.06530274963379,96.94457821289062,42.12360274963379C96.95594821289062,42.60650274963379,96.82384821289062,42.82530274963379,96.29827621289063,42.80960274963379C95.79969621289062,42.79400274963379,95.63350504289062,42.60510274963379,95.63492688266062,42.11360274963379Q95.65339351289063,35.23151274963379,95.63492688266062,28.350835749633788C95.63492688266062,27.79685974963379,95.83237221289062,27.62356393963379,96.36219921289063,27.61930274963379C96.94457821289062,27.61930274963379,96.94457821289062,27.958793749633788,96.94316821289063,28.37640274963379C96.93606821289063,30.46163274963379,96.94316821289063,32.546852749633786,96.94316821289063,34.62640274963379L96.94316821289063,35.55822274963379L97.17326821289062,35.65339274963379Z" fill="#ADADAD" fill-opacity="1"/></g><g><path d="M121.40903182373047,40.08235945739746C122.13493182373047,40.27555945739746,121.96163182373047,40.59945945739746,121.57813182373047,41.01985945739746C119.61213182373046,43.16765945739746,116.24285182373046,43.80395945739746,113.43178182373047,42.45315945739746C110.35507182373047,40.97585945739746,109.00706202373047,38.37925945739746,109.07808477373047,35.06675945739746C109.14910752373046,31.75425945739746,110.56956182373047,29.21022945739746,113.73007182373047,27.86932345739746C116.45309182373047,26.71449345739746,119.64483182373047,27.36080235739746,121.54253182373047,29.392049457397462C121.76983182373047,29.63494945739746,122.17753182373048,29.880689457397462,121.72443182373047,30.24431945739746C121.39913182373047,30.50142945739746,121.12353182373047,30.81250945739746,120.61783182373047,30.29403945739746C117.83092182373046,27.42614245739746,113.25707182373047,28.06534645739746,111.32523182373046,31.57244945739746C109.84795982373046,34.25426945739746,109.95733782373047,37.58665945739746,112.03546182373047,39.94315945739746C114.22581182373047,42.42475945739746,117.66472182373047,42.71165945739746,120.16043182373048,40.65345945739746C120.38203182373047,40.47015945739746,120.59513182373047,40.27695945739746,120.81243182373046,40.08525945739746C120.98493182373046,39.94155945739746,121.23513182373047,39.94035945739746,121.40903182373047,40.08235945739746Z" fill="#ADADAD" fill-opacity="1"/></g><g><path d="M91.16618367919922,40.092350134277346C91.92038367919922,40.37645013427734,91.54258367919923,40.728650134277345,91.21728367919921,41.08665013427734C89.00418367919922,43.46305013427734,85.12639367919923,43.84235013427734,82.20167367919922,41.96595013427734C79.64485767919922,40.328150134277344,78.31389267919921,37.07102013427735,78.86787367919922,33.82955013427734C79.43605567919921,30.463070134277345,81.54117367919922,28.129269134277344,84.74287367919922,27.487225134277345C87.22014367919923,26.991488134277343,89.46018367919922,27.526998134277342,91.25278367919921,29.433250134277344C91.49288367919922,29.687510134277343,91.83808367919922,29.943190134277344,91.37068367919922,30.285520134277345C91.04688367919923,30.519900134277343,90.78548367919922,30.812510134277343,90.33808367919922,30.319610134277344C88.66474367919922,28.484380134277345,86.57383367919923,28.073874134277343,84.27696367919921,28.850860134277344C81.79685367919922,29.688930134277342,80.52696367919921,31.602280134277343,80.18748367919922,34.09092013427734C79.84800367919922,36.579560134277344,80.36646367919921,38.90195013427734,82.42754367919922,40.57525013427734C84.98435367919922,42.652050134277346,88.03975367919922,42.443150134277346,90.40908367919921,40.127850134277345C90.65198367919922,39.877850134277345,90.90908367919921,39.897750134277345,91.16618367919922,40.092350134277346Z" fill="#ADADAD" fill-opacity="1"/></g><g><path d="M48.18890037758789,35.353679082641605C48.18890037758789,33.1420390826416,48.20026637758789,30.9303890826416,48.18037797758789,28.7201590826416C48.18037797758789,28.170444082641602,48.21588927758789,27.7926026826416,48.92469427758789,27.811069314641603C49.63349827758789,27.8295358826416,49.45026827758789,28.3025450826416,49.45026827758789,28.686070082641603C49.45026827758789,32.6633390826416,49.46872827758789,36.6335090826416,49.43747827758789,40.6079190826416C49.43747827758789,41.3778190826416,49.61645827758789,41.6832190826416,50.45167827758789,41.6548190826416C52.24287827758789,41.5923190826416,54.03974827758789,41.6392190826416,55.83378827758789,41.6349190826416C56.27412827758789,41.6349190826416,56.68605827758789,41.6278190826416,56.68605827758789,42.2485190826416C56.69884827758789,42.9403190826416,56.20168827758789,42.7983190826416,55.81247827758789,42.7997190826416C53.53974827758789,42.8082190826416,51.267018277587894,42.7869190826416,48.987195277587894,42.8153190826416C48.35793427758789,42.8224190826416,48.16048951758789,42.6193190826416,48.17043373758789,41.9872190826416C48.210210577587894,39.7727190826416,48.18890037758789,37.5639090826416,48.18890037758789,35.353679082641605Z" fill="#ADADAD" fill-opacity="1"/></g><g><path d="M160.90762668457032,35.177574157714844Q160.90762668457032,38.586674157714846,160.90762668457032,41.99577415771484C160.90762668457032,42.421874157714846,160.9743866845703,42.822474157714844,160.30820368457032,42.822474157714844C159.6420190845703,42.822474157714844,159.5979766845703,42.501474157714846,159.5979766845703,41.98017415771484Q159.61786508457033,35.208824157714844,159.5979766845703,28.438936157714842C159.5979766845703,27.893482157714843,159.70877668457032,27.615074157714844,160.3309356845703,27.615074157714844C161.0070766845703,27.615074157714844,160.9133166845703,28.041210157714843,160.9133166845703,28.455985157714842Q160.90905668457032,31.818194157714842,160.90762668457032,35.177574157714844Z" fill="#ADADAD" fill-opacity="1"/></g><g><path d="M165.63794183164063,13.402915342102052C165.63499213164062,14.019625342102051,165.63204263164062,14.636315342102051,165.63204263164062,15.25289534210205C165.63204263164062,15.88765534210205,165.63391603164064,16.522535342102053,165.63578963164062,17.15746534210205C165.64064113164062,18.80150534210205,165.64549343164063,20.44590534210205,165.61782420164062,22.08950534210205C165.60646681164062,22.768505342102053,165.81953543164062,22.971605342102052,166.4885634316406,22.95180534210205C167.56214243164064,22.92040534210205,168.63715243164063,22.92650534210205,169.71207243164062,22.93260534210205C170.1461424316406,22.93510534210205,170.58019243164063,22.93750534210205,171.01413243164063,22.93750534210205C175.2911124316406,22.93040534210205,178.24279243164062,20.24720534210205,178.65329243164064,15.99862534210205C179.0240924316406,12.16340534210205,176.69739243164062,8.88357534210205,172.93032243164063,8.002891342102052C171.61258243164062,7.694521142102051,170.2761624316406,7.7306731421020505,168.93965243164064,7.7668278421020505C168.15835243164062,7.7879631421020505,167.37702243164063,7.8090993421020505,166.59936343164063,7.761412442102051C165.86073343164063,7.713117542102051,165.59084393164062,7.91056234210205,165.61215418164062,8.70743534210205C165.65291813164063,10.27165534210205,165.64542973164063,11.83734534210205,165.63794183164063,13.402915342102052ZM167.93481243164064,13.94679534210205C167.9304324316406,14.39698534210205,167.9260524316406,14.84712534210205,167.9260524316406,15.29690534210205C167.9260524316406,15.77771534210205,167.9293624316406,16.25776534210205,167.9326724316406,16.73720534210205C167.94040243164062,17.859705342102053,167.94811243164062,18.978905342102053,167.91329243164063,20.096605342102052C167.89056243164063,20.764205342102052,168.10505243164062,20.94040534210205,168.72579243164063,20.90630534210205C169.26481243164062,20.87630534210205,169.80522243164063,20.88290534210205,170.34556243164062,20.88940534210205C170.5741524316406,20.89210534210205,170.80273243164064,20.89490534210205,171.03118243164062,20.89490534210205C173.82805243164063,20.889205342102052,175.7783924316406,19.29970534210205,176.28689243164064,16.54690534210205C176.94449243164064,12.991505342102052,174.78401243164063,9.54264534210205,170.75845243164062,9.804005342102052C170.11857243164062,9.84804534210205,169.47643243164063,9.84804534210205,168.83657243164063,9.804005342102052C168.16326243164062,9.75429534210205,167.86923243164063,9.90769534210205,167.9047424316406,10.686105342102051C167.95599243164062,11.77024534210205,167.94540243164062,12.85864534210205,167.93481243164064,13.94679534210205Z" fill-rule="evenodd" fill="#ADADAD" fill-opacity="1"/></g><g><path d="M147.093380640625,13.486469202575684C147.091418840625,14.108299202575683,147.089456740625,14.730209202575683,147.089456740625,15.352229202575684C147.089456740625,15.940869202575684,147.091020440625,16.529499202575686,147.092584640625,17.118309202575684C147.096984440625,18.774459202575684,147.101387940625,20.432159202575683,147.071007468625,22.095159202575683C147.059650040625,22.764159202575684,147.264187640625,23.039759202575684,147.940324640625,22.947359202575683C148.163536640625,22.921859202575682,148.388946640625,22.921859202575682,148.612196640625,22.947359202575683C149.190316640625,23.00275920257568,149.410486640625,22.775559202575685,149.387756640625,22.178959202575683C149.358756640625,21.434659202575684,149.364966640625,20.689059202575685,149.371186640625,19.94345920257568C149.373796640625,19.630359202575683,149.376406640625,19.317259202575684,149.376406640625,19.004259202575682C149.376406640625,17.203079202575683,149.376406640625,17.231499202575684,151.222996640625,17.194559202575682C151.906216640625,17.181769202575683,152.340886640625,17.35364920257568,152.693156640625,17.982959202575685C153.363606640625,19.184659202575684,154.217306640625,20.289759202575684,154.838046640625,21.514159202575684C155.426106640625,22.677559202575683,156.225826640625,23.113559202575683,157.504256640625,22.971559202575683C158.252856640625,22.889159202575684,158.211656640625,22.73005920257568,157.863656640625,22.201659202575684C156.874966640625,20.704459202575684,155.924686640625,19.181759202575684,154.961616640625,17.667569202575685C154.953386640625,17.654579202575682,154.945136640625,17.641619202575683,154.936906640625,17.628689202575686C154.729246640625,17.30260920257568,154.537566640625,17.001599202575683,155.163326640625,16.828079202575683C157.779756640625,16.102229202575685,158.499956640625,13.478649202575683,158.120756640625,11.490019202575684C157.686056640625,9.186039202575683,155.911896640625,7.789735002575684,153.433206640625,7.7797908025756835C152.690516640625,7.7740152325756835,151.947596640625,7.776927302575683,151.204526640625,7.779840002575684C150.119966640625,7.784091302575684,149.035116640625,7.788343702575683,147.950260640625,7.765585382575684C147.288323640625,7.745696902575683,147.061054580625,7.928937202575684,147.073833810625,8.617858202575684C147.103621340625,10.240549202575684,147.098501840625,11.863239202575684,147.093380640625,13.486469202575684ZM150.799426640625,9.843889202575683C150.375116640625,9.856079202575684,149.950896640625,9.868259202575683,149.526956640625,9.873519202575684C149.364246640625,10.737689202575684,149.391326640625,11.606529202575683,149.418426640625,12.476379202575684C149.430846640625,12.874759202575683,149.443266640625,13.273359202575683,149.437466640625,13.671819202575684C149.406206640625,15.159029202575685,149.430356640625,15.201649202575684,150.955926640625,15.147669202575685C151.307186640625,15.133859202575684,151.661526640625,15.151879202575683,152.016116640625,15.169909202575685C152.864596640625,15.213059202575684,153.714496640625,15.256279202575683,154.526946640625,14.863579202575684C155.234326640625,14.403359202575682,155.735756640625,13.801079202575684,155.877796640625,12.941709202575684C155.978666640625,11.159039202575684,155.143436640625,9.918979202575684,153.646276640625,9.839439202575683C152.698056640625,9.789369202575683,151.748486640625,9.816639202575683,150.799426640625,9.843889202575683Z" fill-rule="evenodd" fill="#ADADAD" fill-opacity="1"/></g><g><path d="M124.27976989746094,15.348042890624999C124.27694355746094,19.934662890625,127.42749989746093,23.275562890625,131.76272989746093,23.285562890625002C136.09506989746095,23.295462890625,139.30106989746093,19.954562890625,139.28826989746094,15.382132890625C139.27406989746095,10.500032890625,135.96296989746094,7.698895390625,131.77834989746094,7.637816862625C127.50987989746093,7.575316490625,124.27976989746094,10.954582890625,124.27976989746094,15.348042890624999ZM133.75135989746093,20.882162890625C135.70586989746093,20.152062890625,136.99996989746094,17.944662890625,136.99996989746094,14.849472890625C136.88206989746095,13.262822890625,136.40476989746094,11.414812890625,134.34086989746095,10.295492890624999C131.91045989746092,8.977312890625,128.89767989746093,9.720212890625,127.45448989746093,12.075322890625C126.58232989746094,13.497202890625001,126.41896989746094,15.018502890625001,126.64908989746094,16.607992890625C127.16612989746093,20.193262890625,130.40617989746093,22.130762890625,133.75135989746093,20.882162890625Z" fill-rule="evenodd" fill="#ADADAD" fill-opacity="1"/></g><g><path d="M77.14198093261719,22.00851553878784C77.46018093261719,22.812515538787842,77.80538093261718,23.40621553878784,79.01558093261718,23.01131553878784C79.05278093261718,22.97901553878784,79.16548093261719,23.013915538787842,79.29978093261718,23.055515538787844C79.66728093261719,23.16941553878784,80.19628093261719,23.333315538787843,79.78118093261719,22.30541553878784C78.10648093261719,18.11791553878784,76.47718093261719,13.910505538787842,74.80961093261719,9.718745538787841C74.11706093261719,7.979735538787842,74.07813093261719,7.979176438787841,72.29466093261719,7.953565148787842C72.25280093261719,7.952963938787842,72.20997093261718,7.952348930787842,72.16615093261719,7.9516973057878415C71.49428093261719,7.941753088787841,71.21729093261719,8.194593538787842,70.9971209326172,8.794025538787842C70.30961093261719,10.650555538787842,69.55820093261718,12.487205538787842,68.83093093261719,14.333795538787843C67.78689093261718,16.98436553878784,66.74996093261718,19.63631553878784,65.69313893261719,22.279815538787844C65.46018193261719,22.862215538787844,65.47580513261718,23.146315538787842,66.23433193261718,23.146315538787842C66.27041593261718,23.146515538787842,66.30566593261719,23.14671553878784,66.34010693261719,23.14691553878784C67.79432093261718,23.155615538787842,67.80813093261719,23.15571553878784,68.40479093261719,21.694615538787843C68.52552093261718,21.39911553878784,68.65905093261719,21.10651553878784,68.75848093261719,20.804015538787844C68.92894093261718,20.28551553878784,69.22155093261719,20.05821553878784,69.81245093261718,20.07671553878784C70.66082093261718,20.10181553878784,71.51005093261719,20.097015538787844,72.35943093261719,20.09221553878784C73.04882093261719,20.088415538787842,73.73831093261718,20.08451553878784,74.42751093261718,20.096615538787844C75.63868093261719,20.118415538787843,76.08548093261719,20.00791553878784,76.34308093261718,20.18021553878784C76.60418093261718,20.35481553878784,76.67078093261719,20.820115538787842,77.14198093261719,22.00851553878784ZM74.18748093261719,13.860905538787842C73.74856093261718,12.676245538787843,73.30112093261718,11.497275538787841,72.83663093261718,10.261475538787842C72.66475093261718,10.403515538787842,72.5553709326172,10.448975538787842,72.52839093261719,10.529935538787843C71.65197093261719,12.865165538787842,70.78691093261719,15.21317553878784,69.91192093261719,17.552665538787842C69.71589093261719,18.07401553878784,70.06533093261719,18.091015538787843,70.39913093261718,18.091015538787843L75.11504093261719,18.091015538787843C75.58518093261719,18.09241553878784,75.7414809326172,17.980215538787842,75.52839093261719,17.46175553878784C75.03975093261718,16.275675538787844,74.62640093261719,15.04556553878784,74.18748093261719,13.860905538787842Z" fill-rule="evenodd" fill="#ADADAD" fill-opacity="1"/></g><g><path d="M33.02554597294922,35.306763125C33.02554597294922,34.709253125000004,33.02736157294922,34.111643125,33.029176972949216,33.514073125C33.03398207294922,31.932423125,33.03878627294922,30.351053125,33.00992306294922,28.772674125C32.99713516294922,28.083753125,33.15196827294922,27.796823125,33.90480727294922,27.815289757C34.87802727294922,27.840587325,35.85164727294922,27.835874825,36.82523727294922,27.831162525C37.71030727294922,27.826878625,38.595357272949215,27.822594825,39.48008727294922,27.840856925C41.33804727294922,27.879207625,42.70309727294922,28.856483125,43.18466727294922,30.373523125C43.75286727294922,32.171823125,43.23436727294922,33.798243125,41.66191727294922,34.918973125C41.17529727294922,35.264983125,41.32948727294922,35.362153125,41.698647272949216,35.594783125C41.70988727294922,35.601863125,41.72131727294922,35.609073125,41.732937272949215,35.616413125C43.35646727294922,36.639143125000004,44.051167272949215,38.289753125000004,43.60646727294922,39.955853125000004C43.15196727294922,41.660453125000004,41.69032727294922,42.765553125,39.72157727294922,42.796853125C38.73765727294922,42.812453125,37.74380727294922,42.809553125,36.747467272949216,42.806753125C35.75015727294922,42.803953125,34.75042727294922,42.801053124999996,33.75567027294922,42.816653125C33.15624227294922,42.826653125,32.99856567294922,42.620653125000004,33.00708805394922,42.039753125000004C33.033940172949215,40.406553125,33.03074707294922,38.774953124999996,33.02755387294922,37.143173125000004C33.02635597294922,36.531083125,33.02515817294922,35.918973125,33.02554597294922,35.306763125ZM36.62498727294922,34.746703124999996C36.81480727294922,34.751243125,36.98549727294922,34.745793125,37.17472727294922,34.745793125C37.34891727294922,34.745793125,37.52299727294922,34.746253125,37.69699727294922,34.746723125C38.13167727294922,34.747883125,38.56584727294922,34.749043125,38.999997272949216,34.742943125C40.88777727294922,34.718803125,42.04402727294922,33.632143125,42.052557272949215,31.902043125C42.06107727294922,30.171933125,40.863627272949216,29.048293125,38.99998727294922,29.000003125C38.37427727294922,28.984413125,37.75172727294922,28.985323125,37.12498727294922,28.990113125C36.43851727294922,28.995363125,35.81035727294922,29.011643125,35.12498727294922,28.990113125C34.50849727294922,29.017043125,34.24430727294922,29.215893125,34.25850727294922,29.813903125Q34.28833727294922,31.124983125,34.24998727294922,33.750003125Q34.53410727294922,34.755733125,35.35085727294922,34.755733125C35.749997272949216,34.755733125,36.12498727294922,34.746703124999996,36.62498727294922,34.746703124999996ZM34.24998727294922,38.749953125C34.24998727294922,38.499953125,34.24998727294922,38.374953125,34.24998727294922,37.750003125C34.24998727294922,37.125003125,34.11647727294922,36.466373125000004,34.53410727294922,36.075303125C34.934497272949216,35.702053125,35.62498727294922,35.750003125,36.37498727294922,35.750003125C36.749997272949216,35.731013125,37.08140727294922,35.759013125,37.374997272949216,35.750003125C38.124997272949216,35.750003125,38.874997272949216,35.750003125,39.62498727294922,35.750003125C41.124997272949216,35.875003125,42.10369727294922,36.988653125,42.36364727294922,38.268453125C42.63680727294922,39.467853125,42.355277272949216,41.085153125,41.249997272949216,41.624953125C40.87498727294922,41.749953125,40.249997272949216,41.835253125,39.74998727294922,41.835253125C38.124997272949216,41.874953125,36.62498727294922,41.874953125,34.97018727294922,41.835253125C34.499997272949216,41.835253125,34.24004727294922,41.586653125,34.24998727294922,41.124953125C34.257407272949216,40.623553125,34.25245727294922,40.172653125,34.24998727294922,39.624953125C34.248677272949216,39.333353125,34.24998727294922,39.074253125,34.24998727294922,38.749953125Z" fill-rule="evenodd" fill="#ADADAD" fill-opacity="1"/></g><g><path d="M74.25987479858398,36.68617266967773C74.83377479858399,32.88929266967774,73.29967479858398,29.073952669677734,69.20310479858398,27.784186669677734C67.89158479858398,27.360360669677736,66.48063479858398,27.355397669677735,65.16617479858398,27.769990669677735C62.00992479858398,28.761462669677734,60.028390798583985,31.491582669677733,59.91049055858399,34.92339266967773C59.84656839858398,36.76714266967774,60.41474979858398,38.43904266967773,61.13492479858398,40.08674266967773C62.444574798583986,42.04554266967774,64.37497479858399,43.09244266967774,66.61929479858398,43.323942669677734C68.47725479858399,43.51004266967773,70.22297479858398,42.82684266967773,71.70307479858398,41.600942669677735C73.09477479858398,40.305142669677736,73.99767479858399,38.56954266967773,74.25987479858398,36.68617266967773ZM61.46873479858399,33.45030266967773C60.667602798583985,37.01564266967773,62.039754798583985,40.882142669677734,65.74288479858399,41.83094266967773C66.62196479858399,42.09694266967773,67.56010479858398,42.096442669677735,68.43890479858399,41.829542669677735C69.74855479858398,41.563942669677736,70.87217479858398,40.89494266967773,71.62357479858399,39.84094266967773C73.22017479858398,37.60084266967773,73.42897479858398,35.08098266967774,72.60507479858398,32.507122669677734C71.98147479858399,30.561112669677733,70.54967479858398,29.342352669677734,68.58520479858399,28.883552669677734C65.11503479858399,28.073887669677735,62.25992479858398,29.931842669677735,61.46873479858399,33.45030266967773Z" fill-rule="evenodd" fill="#ADADAD" fill-opacity="1"/></g><g><path d="M155.5440302734375,41.93329813842773C154.7712302734375,39.90769813842773,153.9616302734375,37.894898138427735,153.1633302734375,35.879318138427735C152.4573302734375,33.923348138427734,151.5979602734375,32.02987813842773,150.8380202734375,30.088108138427735C150.5866002734375,29.501468138427736,150.3025102734375,28.926178138427733,150.0908602734375,28.325328138427736C149.9019502734375,27.791235138427734,149.5837702734375,27.602317138427733,149.0155902734375,27.615100687427734C148.4843402734375,27.626462438427733,148.1391602734375,27.725896138427736,147.9161602734375,28.284133138427734Q145.1917202734375,35.15486813842774,142.3763852734375,41.97309813842773C142.0496912734375,42.767098138427734,142.3508272734375,42.84239813842773,143.0028112734375,42.805398138427734C143.3305502734375,42.81479813842773,143.6229202734375,42.600798138427734,143.7130402734375,42.28559813842773C144.03548027343749,41.45029813842773,144.4232602734375,40.646398138427735,144.7073602734375,39.794098138427735C144.8778202734375,39.271398138427735,145.1434402734375,39.09659813842774,145.6746902734375,39.09659813842774Q148.9928702734375,39.126498138427735,152.3096302734375,39.09659813842774C152.8451302734375,39.09659813842774,153.0880302734375,39.28559813842773,153.2613302734375,39.806898138427734C153.5525302734375,40.684698138427734,153.9687302734375,41.524198138427735,154.3224302734375,42.376498138427735C154.5809302734375,43.004298138427735,155.1519302734375,42.88069813842773,155.5582302734375,42.758598138427736C156.0162302734375,42.62079813842773,155.8314302734375,42.36269813842773,155.6709302734375,42.13859813842774C155.6179302734375,42.06459813842773,155.5676302734375,41.99429813842774,155.5440302734375,41.93329813842773ZM150.7670202734375,33.34944813842773C150.2158802734375,31.967348138427734,149.6505402734375,30.590928138427735,149.0923002734375,29.211668138427733L148.8423302734375,29.254278138427736C147.8110802734375,31.866488138427734,146.7855002734375,34.48154813842773,145.7457302734375,37.08950813842773C145.4900402734375,37.71309813842773,145.6406202734375,37.96309813842773,146.3423202734375,37.95169813842773Q149.0312302734375,37.91189813842773,151.7173102734375,37.95169813842773C152.4616302734375,37.964498138427736,152.5099302734375,37.70879813842774,152.2457302734375,37.090928138427735C151.7187102734375,35.85938813842773,151.2641802734375,34.59518813842774,150.7670202734375,33.34944813842773Z" fill-rule="evenodd" fill="#ADADAD" fill-opacity="1"/></g><g style="mix-blend-mode:passthrough"><g style="mix-blend-mode:passthrough"><path d="M0,7.16346L0,21.2981L18.877,32.1635L19.0496,38.7986L19.0521,38.8933C19.0629,39.3084,18.8449,39.696,18.4845,39.9024L13.1946,42.9327Q12.7131,43.2212,12.2315,42.9327Q11.7769,42.6603,7.02972,39.9024L7.0241,39.8992C6.66699,39.6917,6.45284,39.3132,6.45284,38.9002L6.45284,38.7981L6.45284,32.9327L0.385244,32.9327L0.385244,43.0288L12.3278,49.8558Q12.7131,50.1442,13.2909,49.8558Q13.8688,49.5673,25.1372,42.8365L25.1372,28.6058L6.16391,17.9327L6.16391,11.3942L6.16391,11.391C6.16391,10.9761,6.38382,10.5922,6.74178,10.3823L12.2315,7.16346Q12.9057,6.68269,13.4836,7.16346Q14.0368,7.62374,18.8274,10.4636L18.8316,10.4662C19.1011,10.6259,19.2622,10.9133,19.2622,11.2265L19.2622,11.3942L19.2622,17.1635L25.4261,17.1635L25.4261,7.16346L13.2909,0.144231Q12.7131,-0.144231,12.2315,0.144231Q11.75,0.432692,0,7.16346Z" fill="#ADADAD" fill-opacity="1"/></g><g style="mix-blend-mode:passthrough"><g style="mix-blend-mode:passthrough"><path d="M7.704887390136719,33.317299604415894L7.704887390136719,39.27883960441589L12.61675739013672,41.97114960441589L12.713067390136718,35.624989604415894L7.704887390136719,33.317299604415894Z" fill="#ADADAD" fill-opacity="1"/></g><g style="mix-blend-mode:passthrough" transform="matrix(-1,0,0,-1,35.44248008728027,71.24998188018799)"><path d="M17.721240043640137,37.83653094009399L22.729420043640136,40.33653094009399L27.737640043640138,37.932680940093995L22.729420043640136,35.624990940093994L17.721240043640137,37.83653094009399Z" fill="#ADADAD" fill-opacity="1"/></g><g style="mix-blend-mode:passthrough"><path d="M12.616752624511719,41.971143578948976L17.721242624511717,39.374993578948974L17.721242624511717,33.413453578948975L12.713063724511718,35.624993578948974L12.616752624511719,41.971143578948976Z" fill="#ADADAD" fill-opacity="1"/></g></g><g style="mix-blend-mode:passthrough"><g style="mix-blend-mode:passthrough"><path d="M7.704887390136719,10.624997854232788L7.704887390136719,16.586537854232787L12.61675739013672,19.278847854232787L12.713067390136718,12.932687854232789L7.704887390136719,10.624997854232788Z" fill="#ADADAD" fill-opacity="1"/></g><g style="mix-blend-mode:passthrough" transform="matrix(-1,0,0,-1,35.44248008728027,25.865378379821777)"><path d="M17.721240043640137,15.144229189910888L22.729420043640136,17.644229189910888L27.737640043640138,15.24037918991089L22.729420043640136,12.932689189910889L17.721240043640137,15.144229189910888Z" fill="#ADADAD" fill-opacity="1"/></g><g style="mix-blend-mode:passthrough"><path d="M12.616752624511719,19.27884182876587L17.721242624511717,16.68269182876587L17.721242624511717,10.72115182876587L12.713063724511718,12.932691828765869L12.616752624511719,19.27884182876587Z" fill="#ADADAD" fill-opacity="1"/></g></g></g></g></g></svg>