<svg xmlns="http://www.w3.org/2000/svg" xmlns:xlink="http://www.w3.org/1999/xlink" fill="none" version="1.1" width="180" height="50" viewBox="0 0 180 50"><defs><mask id="master_svg0_3055_9433"><g style="mix-blend-mode:passthrough"><rect x="0" y="0" width="179.99998474121094" height="50" rx="0" fill="#FFFFFF" fill-opacity="1"/></g></mask></defs><g style="mix-blend-mode:passthrough" mask="url(#master_svg0_3055_9433)"><g style="mix-blend-mode:passthrough"><g><path d="M89.33378880859375,11.829535307617189C89.00139880859375,12.176125307617188,89.11503880859375,12.478685307617187,89.11361880859376,12.754255307617187C89.11361880859376,15.930385307617188,89.08378880859375,19.106515307617187,89.12781880859374,22.282615307617185C89.13776880859375,22.99291530761719,88.92042880859375,23.153415307617188,88.26560880859375,23.14491530761719C86.84515170859375,23.127815307617187,86.84515170859375,23.157615307617185,86.84515170859375,21.713015307617187C86.84515170859375,17.414765307617188,86.85935280859375,13.115045307617187,86.82952880859375,8.816752307617188C86.82952880859375,8.146297307617187,87.00140680859376,7.9829462076171875,87.67327880859375,7.936068797617187C88.75423880859375,7.859363007617188,89.41190880859375,8.232943307617187,90.02981880859375,9.133515307617188C92.31532880859375,12.457375307617188,94.69174880859374,15.717315307617188,97.04112880859375,19.009915307617188C97.42752880859375,18.74001530761719,97.27272880859375,18.392015307617186,97.27272880859375,18.10081530761719C97.28402880859375,15.021295307617187,97.32522880859375,11.940325307617186,97.25562880859376,8.867886307617187C97.23292880859375,7.889191407617187,97.72722880859375,7.9460130076171875,98.37782880859375,7.9644796076171875C99.02842880859374,7.9829462076171875,99.61222880859376,7.822434307617187,99.59802880859375,8.887775307617188C99.53972880859375,13.281235307617187,99.56102880859375,17.677545307617187,99.58662880859374,22.072415307617188C99.58662880859374,22.744315307617185,99.38922880859374,22.934615307617186,98.72012880859376,22.968715307617188C97.69882880859375,23.021315307617186,97.01562880859375,22.744315307617185,96.40339880859375,21.843715307617188C94.11504880859376,18.482915307617187,91.72441880859375,15.198855307617187,89.33378880859375,11.829535307617189Z" fill="#4D4F53" fill-opacity="1"/></g><g><path d="M34.70170173461914,22.78695517578125C33.99148173461914,22.61505517578125,33.45738173461914,22.16335517578125,32.88068173461914,21.76275517578125C32.24574273461914,21.32245517578125,32.20880973461914,20.957355175781252,32.66619173461914,20.28835517578125C33.21448473461914,19.48715517578125,33.54687173461914,19.37925517578125,34.30681173461914,20.076655175781248C35.63210173461914,21.29405517578125,37.29687173461914,21.61505517578125,39.05539173461914,21.392055175781252C40.11789173461914,21.249955175781253,40.86079173461914,20.660555175781248,41.25994173461914,19.65625517578125C41.47159173461914,19.28265517578125,41.41761173461914,18.90335517578125,41.29261173461914,18.519855175781252C40.83806173461914,17.332385175781248,39.73011173461914,17.08664517578125,38.70170173461914,16.748575175781248C37.60653173461914,16.38777517578125,36.48721173461914,16.10368517578125,35.40482173461914,15.71022517578125C33.759931734619144,15.11362517578125,32.69175873461914,13.99431517578125,32.636358734619144,12.15908517578125C32.58095973461914,10.29402517578125,33.468741734619144,8.91334517578125,35.16334173461914,8.20880217578125C37.79403173461914,7.11505017578125,40.29829173461914,7.51704167578125,42.640571734619144,9.12641517578125C43.559671734619144,9.75851517578125,42.91617173461914,10.20879517578125,42.56387173461914,10.75851517578125C42.16761173461914,11.38067517578125,41.85369173461914,11.22158517578125,41.35226173461914,10.84658517578125C39.82954173461914,9.71021517578125,38.13067173461914,9.28408517578125,36.28266173461914,9.937495175781251C35.47584173461914,10.22158517578125,34.94033173461914,10.79686517578125,34.91761173461914,11.725845175781249C34.89488173461914,12.605105175781251,35.44175173461914,13.04686517578125,36.15056173461914,13.382095175781249C37.46448173461914,14.00283517578125,38.90482173461914,14.225845175781249,40.26988173461914,14.69601517578125C42.99997173461914,15.64061517578125,44.14207173461914,17.53692517578125,43.44597173461914,20.17185517578125C43.00137173461914,21.852255175781252,41.81817173461914,22.79405517578125,40.14630173461914,23.15485517578125C39.17329173461914,23.438955175781253,38.17897173461914,23.47295517578125,37.17613173461914,23.42755517578125C36.363641734619144,23.15335517578125,35.50000173461914,23.096555175781248,34.70170173461914,22.78695517578125Z" fill="#4D4F53" fill-opacity="1"/></g><g><path d="M107.71305504111328,15.443165795745848C107.71305504111328,13.23009579574585,107.73863084111328,11.01702579574585,107.69601024111329,8.80537779574585C107.68323101111328,8.11219479574585,107.91476614111328,7.943160707745849,108.57385914111327,7.95310489574585C111.36363214111329,7.9857768957458495,114.15483214111327,8.00708289574585,116.94318214111328,7.943160707745849C117.86363214111329,7.921854795745849,117.78413214111328,8.39912579574585,117.80963214111328,9.00992579574585C117.83803214111327,9.69316579574585,117.74293214111329,10.056795795745849,116.89629214111328,10.02839579574585C114.90766214111328,9.96162579574585,112.91902214111329,10.02839579574585,110.93039214111329,9.99287579574585C110.23578214111328,9.97867579574585,109.93607214111329,10.13492579574585,109.99005214111328,10.89202579574585C110.04685214111328,11.75614579574585,110.04685214111328,12.623065795745848,109.99005214111328,13.48719579574585C109.94885214111328,14.15480579574585,110.15767214111328,14.38776579574585,110.84232214111329,14.37355579574585C112.79686214111328,14.33236579574585,114.75568214111328,14.40622579574585,116.71022214111328,14.339465795745848C117.67897214111328,14.306795795745849,117.56250214111328,14.85366579574585,117.61790214111328,15.49003579574585C117.68181214111328,16.247135795745848,117.38210214111328,16.42043579574585,116.69602214111327,16.40764579574585C114.90057214111329,16.374975795745847,113.10511214111328,16.39770579574585,111.30965214111328,16.39770579574585C109.99858214111327,16.39770579574585,109.99715214111328,16.39770579574585,109.99715214111328,17.66190579574585C109.99715214111328,19.13777579574585,109.96022214111328,20.61357579574585,110.01136214111328,22.08657579574585C110.03693214111328,22.796875795745848,109.76989214111327,23.01417579574585,109.12215214111328,22.93887579574585C108.89896214111329,22.912575795745852,108.67347414111327,22.912575795745852,108.45028014111328,22.93887579574585C107.84943014111329,23.01557579574585,107.68323101111328,22.75567579574585,107.69034021511328,22.17327579574585C107.72867794111328,19.93317579574585,107.71305504111328,17.68889579574585,107.71305504111328,15.443165795745848Z" fill="#4D4F53" fill-opacity="1"/></g><g><path d="M167.49570966796875,29.951707673339843C167.17609966796874,30.336647673339844,167.29825966796875,30.670457673339843,167.29683966796875,30.975857673339846C167.28830966796875,34.59943767333984,167.29683966796875,38.22017767333985,167.28121966796874,41.84797767333984C167.28121966796874,42.23577767333984,167.52125966796876,42.78547767333984,166.73718766796875,42.813877673339846C165.98009216796876,42.84237767333984,166.02696086796874,42.38777767333984,166.02696086796874,41.88067767333985C166.02696086796874,37.455957673339846,166.02696086796874,33.029827673339845,166.03831826796875,28.603691673339842C166.03831826796875,28.261361673339845,165.82809366796874,27.767041673339843,166.40763266796876,27.663351773339844C166.89059066796875,27.575284273339843,167.31672966796876,27.620739850339845,167.66757966796874,28.107954673339844C169.54540966796876,30.704547673339842,171.46159966796876,33.27556767333984,173.36216966796874,35.856537673339844Q174.78262966796876,37.781277673339844,176.18035966796876,39.71447767333984C176.30535966796876,39.886377673339844,176.34085966796874,40.198877673339844,176.62925966796874,40.10227767333984C176.89345966796876,40.01277767333984,176.80245966796875,39.72297767333984,176.80395966796874,39.50847767333984Q176.80395966796874,36.52556767333984,176.80395966796874,33.542607673339845C176.80395966796874,31.838067673339843,176.81385966796876,30.143467673339842,176.80395966796874,28.443179673339845C176.80395966796874,27.974431673339843,176.83805966796876,27.644885173339844,177.44455966796875,27.622157356339844C178.09225966796876,27.599429573339844,178.07095966796874,27.975848673339843,178.06955966796875,28.423295673339844C178.06955966796875,32.88067767333985,178.06955966796875,37.33806767333984,178.05535966796876,41.79687767333984C178.05535966796876,42.13347767333984,178.30105966796876,42.64057767333984,177.75565966796876,42.775577673339846C177.23435966796876,42.906277673339844,176.79545966796874,42.775577673339846,176.43605966796875,42.261377673339844C174.73148966796876,39.869277673339845,172.99569966796875,37.50568767333984,171.26984966796874,35.132107673339846C170.02836966796875,33.42755767333984,168.78546966796875,31.721597673339843,167.49570966796875,29.951707673339843Z" fill="#4F5054" fill-opacity="1"/></g><g><path d="M54.52273401855469,16.512785043487547C54.52273401855469,14.68323504348755,54.46875401855469,12.852275043487548,54.544044018554686,11.02698504348755C54.58239401855469,10.129255043487548,54.25994401855469,9.931815043487548,53.45028401855469,9.99005504348755C52.49148401855469,10.058245043487549,51.52415401855469,9.978695043487548,50.56392401855469,10.01562504348755C49.92471941855469,10.039775043487548,49.758528618554685,9.741475043487549,49.88210751855469,9.194605043487549C49.98579801855469,8.731533043487548,49.455971018554685,7.953126693487548,50.52983401855469,7.958805387687549C53.931824018554686,7.975850143487548,57.33239401855469,7.968749613487549,60.73434401855469,7.958805387687549C61.89344401855469,7.958805387687549,61.23294401855469,8.82670104348755,61.37504401855469,9.29687504348755C61.54834401855469,9.86505504348755,61.211644018554686,10.018465043487549,60.69464401855468,10.007105043487549C59.66762401855469,9.988635043487548,58.639224018554685,10.03125504348755,57.61364401855469,9.991475043487549C56.995754018554685,9.967325043487548,56.794044018554686,10.133525043487548,56.79973401855469,10.799715043487549C56.836664018554686,14.585225043487549,56.77558401855469,18.37357504348755,56.84376401855469,22.163375043487548C56.86365401855469,23.261375043487547,56.26421401855469,23.113675043487547,55.57814401855469,23.14487504348755C54.867914018554686,23.178975043487547,54.464504018554685,23.09087504348755,54.50001401855469,22.19177504348755C54.57386401855469,20.301175043487547,54.52273401855469,18.406275043487547,54.52273401855469,16.512785043487547Z" fill="#4D4F53" fill-opacity="1"/></g><g><path d="M138.00137456054688,35.20594360961914Q138.00137456054688,38.57244360961914,138.00137456054688,41.94034360961914C138.00137456054688,42.39624360961914,138.08237456054687,42.81244360961914,137.35647456054687,42.82524360961914C136.58947456054688,42.83804360961914,136.64627456054689,42.40764360961914,136.64627456054689,41.90334360961914C136.65477456054688,40.10654360961914,136.61927456054687,38.309643609619144,136.66477456054687,36.51560360961914C136.68177456054687,35.85508360961914,136.4502745605469,35.70310360961914,135.83663456054688,35.71020360961914C133.23861456054686,35.73719360961914,130.64061456054688,35.747143609619144,128.0440245605469,35.71020360961914C127.31390456054687,35.69741360961914,127.20310456054688,35.99429360961914,127.21306456054687,36.61645360961914C127.24430456054688,38.411943609619144,127.22159456054688,40.20874360961914,127.22583456054687,42.00424360961914C127.22583456054687,42.43744360961914,127.27270456054687,42.83094360961914,126.61361456054688,42.82104360961914C126.00849986054688,42.81244360961914,125.95878740054688,42.50424360961914,125.96020923964687,42.02694360961914Q125.97441036054687,35.24287360961914,125.96020923964687,28.46020160961914C125.96020923964687,27.999975609619142,125.97583216054687,27.65338480961914,126.58947856054688,27.62923517961914C127.22868456054688,27.603668009619142,127.23152456054687,27.96162060961914,127.22726456054687,28.41900760961914C127.21732456054687,30.12355360961914,127.27130456054688,31.82810360961914,127.20452456054687,33.51843360961914C127.17043456054688,34.39343360961914,127.47584456054688,34.59514360961914,128.30538456054688,34.57667360961914C130.7414645605469,34.52270360961914,133.18037456054688,34.51560360961914,135.61645456054688,34.57667360961914C136.5042745605469,34.60082360961914,136.69457456054687,34.29258360961914,136.66617456054686,33.47867360961914C136.60937456054688,31.78122360961914,136.66617456054686,30.07952360961914,136.64197456054688,28.38065660961914C136.64197456054688,27.87213560961914,136.7456745605469,27.62781766961914,137.32807456054687,27.62213464211914C137.91047456054687,27.61645160961914,138.01137456054687,27.87213560961914,138.00707456054687,28.37639560961914C137.99147456054686,30.65055360961914,138.00137456054688,32.92896360961914,138.00137456054688,35.20594360961914Z" fill="#4F5054" fill-opacity="1"/></g><g><path d="M97.17327584228515,35.65339465698242C99.31957584228516,33.19601465698242,101.48434584228515,30.754254656982422,103.59656584228516,28.267035656982422C104.16474584228516,27.593741856982422,104.77696584228515,27.529819656982422,105.69032584228516,27.752831656982423C104.37781584228516,29.252834656982422,103.14485584228515,30.66476465698242,101.90906584228516,32.07385465698242C101.31673584228515,32.748564656982424,100.77269584228516,33.47158465698242,100.11076584228516,34.07668465698242C99.47866584228515,34.65907465698242,99.55963584228516,35.071004656982424,100.09372584228515,35.66333465698242C102.01560584228515,37.79400465698242,103.89344584228516,39.950304656982425,105.78552584228515,42.10080465698242C105.92752584228515,42.258504656982424,106.21162584228516,42.37500465698242,106.10222584228515,42.63630465698242C105.99282584228516,42.89770465698242,105.71162584228516,42.76700465698242,105.50423584228515,42.79690465698242C104.97583584228515,42.87360465698242,104.61076584228516,42.65480465698242,104.26702584228515,42.24290465698242C102.57810584228515,40.254204656982424,100.84941584228515,38.29540465698242,99.16475584228516,36.302534656982424C98.75282584228516,35.81390465698242,98.48577584228515,35.78123465698242,98.02839584228515,36.25140465698242C97.28265584228515,37.01561465698242,96.77981584228516,37.79260465698242,96.91192584228516,38.950304656982425C97.03124584228516,39.995704656982426,96.91192584228516,41.06530465698242,96.94458584228515,42.12360465698242C96.95595584228515,42.60650465698242,96.82385584228516,42.825304656982425,96.29828384228516,42.80960465698242C95.79970384228515,42.79400465698242,95.63351267228515,42.60510465698242,95.63493451205515,42.113604656982425Q95.65340114228516,35.23151465698242,95.63493451205515,28.35083765698242C95.63493451205515,27.796861656982422,95.83237984228515,27.623565846982423,96.36220684228516,27.619304656982422C96.94458584228515,27.619304656982422,96.94458584228515,27.95879565698242,96.94317584228516,28.376404656982423C96.93607584228516,30.461634656982422,96.94317584228516,32.54685465698242,96.94317584228516,34.62640465698242L96.94317584228516,35.558224656982425L97.17327584228515,35.65339465698242Z" fill="#4F5054" fill-opacity="1"/></g><g><path d="M121.409039453125,40.08235945739746C122.134939453125,40.27555945739746,121.961639453125,40.59945945739746,121.578139453125,41.01985945739746C119.612139453125,43.16765945739746,116.24285945312499,43.80395945739746,113.431789453125,42.45315945739746C110.355079453125,40.97585945739746,109.007069653125,38.37925945739746,109.078092403125,35.06675945739746C109.149115153125,31.75425945739746,110.569569453125,29.21022945739746,113.730079453125,27.86932345739746C116.453099453125,26.71449345739746,119.644839453125,27.36080235739746,121.542539453125,29.392049457397462C121.769839453125,29.63494945739746,122.17753945312501,29.880689457397462,121.724439453125,30.24431945739746C121.399139453125,30.50142945739746,121.123539453125,30.81250945739746,120.617839453125,30.29403945739746C117.830929453125,27.42614245739746,113.257079453125,28.06534645739746,111.325239453125,31.57244945739746C109.847967453125,34.25426945739746,109.957345453125,37.58665945739746,112.035469453125,39.94315945739746C114.225819453125,42.42475945739746,117.664729453125,42.71165945739746,120.16043945312501,40.65345945739746C120.382039453125,40.47015945739746,120.595139453125,40.27695945739746,120.812439453125,40.08525945739746C120.984939453125,39.94155945739746,121.235139453125,39.94035945739746,121.409039453125,40.08235945739746Z" fill="#4F5054" fill-opacity="1"/></g><g><path d="M91.16619130859375,40.092350134277346C91.92039130859375,40.37645013427734,91.54259130859376,40.728650134277345,91.21729130859374,41.08665013427734C89.00419130859375,43.46305013427734,85.12640130859376,43.84235013427734,82.20168130859375,41.96595013427734C79.64486530859375,40.328150134277344,78.31390030859374,37.07102013427735,78.86788130859375,33.82955013427734C79.43606330859375,30.463070134277345,81.54118130859375,28.129269134277344,84.74288130859375,27.487225134277345C87.22015130859376,26.991488134277343,89.46019130859375,27.526998134277342,91.25279130859374,29.433250134277344C91.49289130859376,29.687510134277343,91.83809130859375,29.943190134277344,91.37069130859375,30.285520134277345C91.04689130859376,30.519900134277343,90.78549130859375,30.812510134277343,90.33809130859375,30.319610134277344C88.66475130859375,28.484380134277345,86.57384130859376,28.073874134277343,84.27697130859374,28.850860134277344C81.79686130859375,29.688930134277342,80.52697130859374,31.602280134277343,80.18749130859375,34.09092013427734C79.84801130859375,36.579560134277344,80.36647130859374,38.90195013427734,82.42755130859375,40.57525013427734C84.98436130859375,42.652050134277346,88.03976130859375,42.443150134277346,90.40909130859374,40.127850134277345C90.65199130859375,39.877850134277345,90.90909130859374,39.897750134277345,91.16619130859375,40.092350134277346Z" fill="#4F5054" fill-opacity="1"/></g><g><path d="M48.18890419228516,35.35368098999024C48.18890419228516,33.142040989990235,48.20027019228515,30.930390989990233,48.180381792285154,28.720160989990234C48.180381792285154,28.170445989990235,48.21589309228516,27.792604589990233,48.924698092285155,27.811071221990236C49.633502092285156,27.829537789990233,49.450272092285154,28.302546989990233,49.450272092285154,28.686071989990236C49.450272092285154,32.66334098999023,49.46873209228516,36.633510989990235,49.43748209228516,40.607920989990234C49.43748209228516,41.377820989990234,49.616462092285154,41.68322098999023,50.451682092285154,41.654820989990235C52.24288209228516,41.592320989990235,54.039752092285156,41.639220989990235,55.83379209228516,41.634920989990235C56.27413209228516,41.634920989990235,56.686062092285155,41.627820989990234,56.686062092285155,42.24852098999023C56.69885209228516,42.940320989990234,56.20169209228516,42.79832098999023,55.81248209228516,42.799720989990234C53.539752092285156,42.80822098999023,51.26702209228516,42.786920989990236,48.98719909228516,42.815320989990234C48.35793809228515,42.822420989990235,48.16049333228516,42.619320989990236,48.17043755228516,41.987220989990234C48.21021439228516,39.77272098999023,48.18890419228516,37.563910989990234,48.18890419228516,35.35368098999024Z" fill="#4F5054" fill-opacity="1"/></g><g><path d="M160.90764194335938,35.177574157714844Q160.90764194335938,38.586674157714846,160.90764194335938,41.99577415771484C160.90764194335938,42.421874157714846,160.97440194335937,42.822474157714844,160.30821894335938,42.822474157714844C159.64203434335937,42.822474157714844,159.59799194335938,42.501474157714846,159.59799194335938,41.98017415771484Q159.6178803433594,35.208824157714844,159.59799194335938,28.438936157714842C159.59799194335938,27.893482157714843,159.7087919433594,27.615074157714844,160.33095094335937,27.615074157714844C161.00709194335937,27.615074157714844,160.91333194335937,28.041210157714843,160.91333194335937,28.455985157714842Q160.90907194335938,31.818194157714842,160.90764194335938,35.177574157714844Z" fill="#4F5054" fill-opacity="1"/></g><g><path d="M165.6379570904297,13.402916295776368C165.63500739042968,14.019626295776368,165.63205789042968,14.636316295776368,165.63205789042968,15.252896295776367C165.63205789042968,15.887656295776367,165.6339312904297,16.52253629577637,165.63580489042968,17.157466295776366C165.64065639042968,18.801506295776367,165.6455086904297,20.445906295776368,165.61783946042968,22.089506295776367C165.60648207042968,22.76850629577637,165.81955069042968,22.97160629577637,166.48857869042968,22.951806295776365C167.5621576904297,22.920406295776367,168.6371676904297,22.926506295776367,169.71208769042968,22.932606295776367C170.14615769042967,22.935106295776368,170.5802076904297,22.937506295776366,171.0141476904297,22.937506295776366C175.29112769042968,22.930406295776365,178.2428076904297,20.247206295776365,178.6533076904297,15.998626295776367C179.02410769042967,12.163406295776367,176.69740769042969,8.883576295776367,172.9303376904297,8.002892295776368C171.61259769042968,7.694522095776367,170.27617769042968,7.730674095776367,168.9396676904297,7.766828795776367C168.15836769042969,7.787964095776367,167.3770376904297,7.809100295776367,166.5993786904297,7.761413395776367C165.8607486904297,7.713118495776367,165.59085919042968,7.910563295776367,165.61216944042968,8.707436295776366C165.6529333904297,10.271656295776367,165.6454449904297,11.837346295776367,165.6379570904297,13.402916295776368ZM167.9348276904297,13.946796295776366C167.93044769042967,14.396986295776367,167.92606769042968,14.847126295776366,167.92606769042968,15.296906295776367C167.92606769042968,15.777716295776367,167.92937769042967,16.257766295776367,167.93268769042967,16.737206295776367C167.94041769042968,17.85970629577637,167.9481276904297,18.97890629577637,167.9133076904297,20.09660629577637C167.8905776904297,20.76420629577637,168.10506769042968,20.940406295776366,168.7258076904297,20.906306295776368C169.26482769042968,20.876306295776367,169.8052376904297,20.882906295776365,170.34557769042968,20.889406295776368C170.57416769042968,20.892106295776365,170.8027476904297,20.894906295776366,171.03119769042968,20.894906295776366C173.8280676904297,20.88920629577637,175.77840769042967,19.299706295776367,176.2869076904297,16.546906295776367C176.9445076904297,12.991506295776368,174.7840276904297,9.542646295776366,170.75846769042968,9.804006295776368C170.11858769042968,9.848046295776367,169.4764476904297,9.848046295776367,168.8365876904297,9.804006295776368C168.16327769042968,9.754296295776367,167.8692476904297,9.907696295776367,167.90475769042968,10.686106295776368C167.9560076904297,11.770246295776367,167.94541769042968,12.858646295776367,167.9348276904297,13.946796295776366Z" fill-rule="evenodd" fill="#4E5053" fill-opacity="1"/></g><g><path d="M147.093380640625,13.486469202575684C147.091418840625,14.108299202575683,147.089456740625,14.730209202575683,147.089456740625,15.352229202575684C147.089456740625,15.940869202575684,147.091020440625,16.529499202575686,147.092584640625,17.118319202575684C147.096984440625,18.774459202575684,147.101387940625,20.432159202575683,147.071007468625,22.095159202575683C147.059650040625,22.764159202575684,147.264187640625,23.039759202575684,147.940324640625,22.947359202575683C148.163536640625,22.921859202575682,148.388946640625,22.921859202575682,148.612196640625,22.947359202575683C149.190316640625,23.00275920257568,149.410486640625,22.775559202575685,149.387756640625,22.178959202575683C149.358756640625,21.434659202575684,149.364966640625,20.689059202575685,149.371186640625,19.94345920257568C149.373796640625,19.630359202575683,149.376406640625,19.317259202575684,149.376406640625,19.004259202575682C149.376406640625,17.203079202575683,149.376406640625,17.231499202575684,151.222996640625,17.194559202575682C151.906226640625,17.181769202575683,152.340886640625,17.35364920257568,152.693156640625,17.982959202575685C153.363606640625,19.184659202575684,154.217306640625,20.289759202575684,154.838046640625,21.514159202575684C155.426106640625,22.677559202575683,156.225826640625,23.113559202575683,157.504256640625,22.971559202575683C158.252856640625,22.889159202575684,158.211656640625,22.73005920257568,157.863656640625,22.201659202575684C156.874966640625,20.704459202575684,155.924696640625,19.181759202575684,154.961616640625,17.667569202575685C154.953396640625,17.654579202575682,154.945136640625,17.641619202575683,154.936906640625,17.62869920257568C154.729246640625,17.30260920257568,154.537566640625,17.001599202575683,155.163326640625,16.828079202575683C157.779756640625,16.102229202575685,158.499956640625,13.478649202575683,158.120756640625,11.490019202575684C157.686056640625,9.186039202575683,155.911896640625,7.789735002575684,153.433206640625,7.7797908025756835C152.690516640625,7.7740152325756835,151.947596640625,7.776927302575683,151.204526640625,7.779840002575684C150.119966640625,7.784091302575684,149.035116640625,7.788343702575683,147.950260640625,7.765585382575684C147.288323640625,7.745696902575683,147.061054580625,7.928937202575684,147.073833810625,8.617858202575684C147.103621340625,10.240549202575684,147.098501840625,11.863239202575684,147.093380640625,13.486469202575684ZM150.799426640625,9.843889202575683C150.375116640625,9.856079202575684,149.950896640625,9.868259202575683,149.526956640625,9.873519202575684C149.364246640625,10.737689202575684,149.391326640625,11.606529202575683,149.418426640625,12.476379202575684C149.430846640625,12.874759202575683,149.443266640625,13.273359202575683,149.437466640625,13.671819202575684C149.406206640625,15.159029202575685,149.430356640625,15.201649202575684,150.955926640625,15.147669202575685C151.307186640625,15.133859202575684,151.661526640625,15.151879202575683,152.016116640625,15.169909202575685C152.864596640625,15.213059202575684,153.714496640625,15.256289202575683,154.526946640625,14.863579202575684C155.234326640625,14.403359202575682,155.735756640625,13.801079202575684,155.877796640625,12.941709202575684C155.978666640625,11.159039202575684,155.143436640625,9.918979202575684,153.646276640625,9.839439202575683C152.698056640625,9.789369202575683,151.748486640625,9.816639202575683,150.799426640625,9.843889202575683Z" fill-rule="evenodd" fill="#4D4F53" fill-opacity="1"/></g><g><path d="M124.27977752685547,15.348043367462157C124.27695118685547,19.934663367462157,127.42750752685546,23.27556336746216,131.76273752685546,23.28556336746216C136.09507752685548,23.29546336746216,139.30107752685547,19.954563367462157,139.28827752685547,15.382133367462158C139.27407752685548,10.500033367462159,135.96297752685547,7.698895867462158,131.77835752685547,7.637817339462158C127.50988752685547,7.575316967462158,124.27977752685547,10.954583367462158,124.27977752685547,15.348043367462157ZM133.75136752685546,20.88216336746216C135.70587752685546,20.15206336746216,136.99997752685547,17.94466336746216,136.99997752685547,14.849473367462158C136.88207752685548,13.262823367462158,136.40477752685547,11.414813367462159,134.34087752685548,10.295493367462157C131.91046752685546,8.977313367462159,128.89768752685546,9.720213367462158,127.45449752685546,12.075323367462158C126.58233752685547,13.49720336746216,126.41897752685547,15.01850336746216,126.64909752685547,16.607993367462157C127.16613752685547,20.19326336746216,130.40618752685546,22.13076336746216,133.75136752685546,20.88216336746216Z" fill-rule="evenodd" fill="#4D4F53" fill-opacity="1"/></g><g><path d="M77.14198093261719,22.00851553878784C77.46018093261719,22.812515538787842,77.80538093261718,23.40621553878784,79.01558093261718,23.01131553878784C79.05278093261718,22.97901553878784,79.16548093261719,23.013915538787842,79.29978093261718,23.055515538787844C79.66728093261719,23.16941553878784,80.19628093261719,23.333315538787843,79.78118093261719,22.30541553878784C78.10648093261719,18.11791553878784,76.47718093261719,13.910505538787842,74.80961093261719,9.718745538787841C74.11706093261719,7.979735538787842,74.07813093261719,7.979176438787841,72.29466093261719,7.953565148787842C72.25280093261719,7.952963938787842,72.20997093261718,7.952348930787842,72.16615093261719,7.9516973057878415C71.49428093261719,7.941753088787841,71.21729093261719,8.194593538787842,70.9971209326172,8.794025538787842C70.30961093261719,10.650555538787842,69.55820093261718,12.487205538787842,68.83093093261719,14.333795538787843C67.78689093261718,16.98436553878784,66.74996093261718,19.63631553878784,65.69313893261719,22.279815538787844C65.46018193261719,22.862215538787844,65.47580513261718,23.146315538787842,66.23433193261718,23.146315538787842C66.27041593261718,23.146515538787842,66.30566593261719,23.14671553878784,66.34010693261719,23.14691553878784C67.79432093261718,23.155615538787842,67.80813093261719,23.15571553878784,68.40479093261719,21.694615538787843C68.52552093261718,21.39911553878784,68.65905093261719,21.10651553878784,68.75848093261719,20.804015538787844C68.92894093261718,20.28551553878784,69.22155093261719,20.05821553878784,69.81246093261718,20.07671553878784C70.66082093261718,20.10181553878784,71.51005093261719,20.097015538787844,72.35943093261719,20.09221553878784C73.04882093261719,20.088415538787842,73.73831093261718,20.08451553878784,74.42751093261718,20.096615538787844C75.63868093261719,20.118415538787843,76.08548093261719,20.00791553878784,76.34308093261718,20.18021553878784C76.60418093261718,20.35481553878784,76.67078093261719,20.820115538787842,77.14198093261719,22.00851553878784ZM74.18748093261719,13.860905538787842C73.74856093261718,12.676245538787843,73.30112093261718,11.497275538787841,72.83663093261718,10.261475538787842C72.66475093261718,10.403515538787842,72.5553709326172,10.448975538787842,72.52839093261719,10.529935538787843C71.65197093261719,12.865165538787842,70.78691093261719,15.21317553878784,69.91192093261719,17.552665538787842C69.71589093261719,18.07401553878784,70.06533093261719,18.091015538787843,70.39913093261718,18.091015538787843L75.11504093261719,18.091015538787843C75.58518093261719,18.09241553878784,75.7414809326172,17.980215538787842,75.52839093261719,17.46175553878784C75.03975093261718,16.275675538787844,74.62641093261719,15.04556553878784,74.18748093261719,13.860905538787842Z" fill-rule="evenodd" fill="#4D4F53" fill-opacity="1"/></g><g><path d="M33.02554597294922,35.306763125C33.02554597294922,34.709253125000004,33.02736157294922,34.111643125,33.029176972949216,33.514073125C33.03398207294922,31.932423125,33.03878627294922,30.351053125,33.00992306294922,28.772674125C32.99713516294922,28.083753125,33.15196827294922,27.796823125,33.90480727294922,27.815289757C34.87802727294922,27.840587325,35.85164727294922,27.835874825,36.82523727294922,27.831162525C37.71030727294922,27.826878625,38.595357272949215,27.822594825,39.48008727294922,27.840856925C41.33804727294922,27.879207625,42.70309727294922,28.856483125,43.18466727294922,30.373523125C43.75286727294922,32.171823125,43.23436727294922,33.798243125,41.66191727294922,34.918973125C41.17529727294922,35.264983125,41.32948727294922,35.362153125,41.698647272949216,35.594793125C41.70988727294922,35.601863125,41.72131727294922,35.609073125,41.732937272949215,35.616413125C43.35646727294922,36.639143125000004,44.051167272949215,38.289753125000004,43.60646727294922,39.955853125000004C43.15196727294922,41.660453125000004,41.69032727294922,42.765553125,39.72157727294922,42.796853125C38.73765727294922,42.812453125,37.74380727294922,42.809553125,36.747467272949216,42.806753125C35.75015727294922,42.803953125,34.75042727294922,42.801053124999996,33.75567027294922,42.816653125C33.15624227294922,42.826653125,32.99856567294922,42.620653125000004,33.00708805394922,42.039753125000004C33.033940172949215,40.406553125,33.03074717294922,38.774953124999996,33.02755387294922,37.143173125000004C33.02635597294922,36.531083125,33.02515817294922,35.918973125,33.02554597294922,35.306763125ZM36.624997272949216,34.746703124999996C36.81480727294922,34.751243125,36.98549727294922,34.745793125,37.17472727294922,34.745793125C37.34891727294922,34.745793125,37.52299727294922,34.746253125,37.69699727294922,34.746723125C38.13167727294922,34.747883125,38.56584727294922,34.749043125,38.999997272949216,34.742953125C40.88777727294922,34.718803125,42.04402727294922,33.632143125,42.052557272949215,31.902043125C42.06107727294922,30.171933125,40.863627272949216,29.048293125,38.999997272949216,29.000003125C38.37427727294922,28.984413125,37.75172727294922,28.985323125,37.124997272949216,28.990113125C36.43851727294922,28.995363125,35.81035727294922,29.011643125,35.124997272949216,28.990113125C34.50849727294922,29.017043125,34.24430727294922,29.215893125,34.25850727294922,29.813903125Q34.28833727294922,31.124983125,34.249997272949216,33.750003125Q34.53410727294922,34.755733125,35.35085727294922,34.755733125C35.749997272949216,34.755733125,36.124997272949216,34.746703124999996,36.624997272949216,34.746703124999996ZM34.249997272949216,38.749953125C34.249997272949216,38.499953125,34.249997272949216,38.374953125,34.249997272949216,37.750003125C34.249997272949216,37.125003125,34.11647727294922,36.466373125000004,34.53410727294922,36.075303125C34.934497272949216,35.702053125,35.624997272949216,35.750003125,36.374997272949216,35.750003125C36.749997272949216,35.731013125,37.08140727294922,35.759013125,37.374997272949216,35.750003125C38.124997272949216,35.750003125,38.874997272949216,35.750003125,39.624997272949216,35.750003125C41.124997272949216,35.875003125,42.10369727294922,36.988653125,42.36364727294922,38.268453125C42.63680727294922,39.467853125,42.35528727294922,41.085153125,41.249997272949216,41.624953125C40.874997272949216,41.749953125,40.249997272949216,41.835253125,39.749997272949216,41.835253125C38.124997272949216,41.874953125,36.624997272949216,41.874953125,34.97018727294922,41.835253125C34.499997272949216,41.835253125,34.24004727294922,41.586653125,34.249997272949216,41.124953125C34.257407272949216,40.623553125,34.25245727294922,40.172653125,34.249997272949216,39.624953125C34.248677272949216,39.333353125,34.249997272949216,39.074253125,34.249997272949216,38.749953125Z" fill-rule="evenodd" fill="#4F5054" fill-opacity="1"/></g><g><path d="M74.25987861328124,36.68617266967773C74.83377861328125,32.88929266967774,73.29967861328124,29.073952669677734,69.20310861328124,27.784186669677734C67.89158861328124,27.360360669677736,66.48063861328124,27.355397669677735,65.16617861328125,27.769990669677735C62.00992861328125,28.761462669677734,60.02839461328125,31.491582669677733,59.91049437328125,34.92339266967773C59.84657221328125,36.76714266967774,60.41475361328125,38.43904266967773,61.13492861328125,40.08674266967773C62.44457861328125,42.04554266967774,64.37497861328126,43.09244266967774,66.61929861328125,43.323942669677734C68.47725861328125,43.51004266967773,70.22297861328124,42.82684266967773,71.70307861328125,41.600942669677735C73.09477861328125,40.305142669677736,73.99767861328125,38.56954266967773,74.25987861328124,36.68617266967773ZM61.46873861328125,33.45030266967773C60.66760661328125,37.01564266967773,62.03975861328125,40.882142669677734,65.74288861328125,41.83094266967773C66.62196861328125,42.09694266967773,67.56010861328124,42.096442669677735,68.43890861328126,41.829542669677735C69.74855861328125,41.563942669677736,70.87217861328125,40.89494266967773,71.62357861328125,39.84094266967773C73.22017861328125,37.60084266967773,73.42897861328125,35.08098266967774,72.60507861328125,32.507122669677734C71.98147861328125,30.561112669677733,70.54967861328124,29.342352669677734,68.58520861328125,28.883552669677734C65.11503861328126,28.073887669677735,62.25992861328125,29.931842669677735,61.46873861328125,33.45030266967773Z" fill-rule="evenodd" fill="#4F5054" fill-opacity="1"/></g><g><path d="M155.5440302734375,41.93330004577636C154.7712302734375,39.907700045776366,153.9616302734375,37.89490004577637,153.1633302734375,35.87932004577637C152.4573302734375,33.92335004577637,151.5979602734375,32.029880045776366,150.8380202734375,30.088110045776368C150.5866002734375,29.50147004577637,150.3025102734375,28.926180045776366,150.0908602734375,28.32533004577637C149.9019502734375,27.791237045776366,149.5837702734375,27.602319045776365,149.0155902734375,27.615102594776367C148.4843402734375,27.626464345776366,148.1391602734375,27.72589804577637,147.9161602734375,28.284135045776367Q145.1917202734375,35.15487004577637,142.3763852734375,41.97310004577636C142.0496912734375,42.76710004577637,142.3508272734375,42.842400045776365,143.0028112734375,42.805400045776366C143.3305502734375,42.814800045776366,143.6229202734375,42.60080004577637,143.7130402734375,42.28560004577636C144.03548027343749,41.450300045776366,144.4232602734375,40.64640004577637,144.7073602734375,39.79410004577637C144.8778202734375,39.27140004577637,145.1434402734375,39.09660004577637,145.6746902734375,39.09660004577637Q148.9928702734375,39.12650004577637,152.3096302734375,39.09660004577637C152.8451302734375,39.09660004577637,153.0880302734375,39.28560004577636,153.2613302734375,39.806900045776366C153.5525302734375,40.68470004577637,153.9687302734375,41.52420004577637,154.3224302734375,42.37650004577637C154.5809302734375,43.00430004577637,155.1519302734375,42.880700045776365,155.5582302734375,42.75860004577637C156.0162302734375,42.62080004577636,155.8314302734375,42.362700045776364,155.6709302734375,42.13860004577637C155.6179302734375,42.064600045776366,155.5676302734375,41.99430004577637,155.5440302734375,41.93330004577636ZM150.7670202734375,33.349450045776365C150.2158802734375,31.967350045776367,149.6505402734375,30.590930045776368,149.0923002734375,29.211670045776366L148.8423302734375,29.25428004577637C147.8110802734375,31.866490045776366,146.7855002734375,34.481550045776366,145.7457302734375,37.089510045776365C145.4900402734375,37.713100045776365,145.6406202734375,37.963100045776365,146.3423202734375,37.95170004577636Q149.0312302734375,37.91190004577636,151.7173102734375,37.95170004577636C152.4616302734375,37.96450004577637,152.5099302734375,37.70880004577637,152.2457302734375,37.09093004577637C151.7187102734375,35.859390045776365,151.2641802734375,34.59519004577637,150.7670202734375,33.349450045776365Z" fill-rule="evenodd" fill="#4F5054" fill-opacity="1"/></g><g style="mix-blend-mode:passthrough"><g style="mix-blend-mode:passthrough"><path d="M0,21.2981L18.877,32.1635L19.0496,38.7986L19.0521,38.8933C19.0629,39.3084,18.8449,39.696,18.4845,39.9024L13.1946,42.9327Q12.7131,43.2212,12.2315,42.9327Q11.7769,42.6603,7.02972,39.9024L7.0241,39.8992C6.66699,39.6917,6.45284,39.3132,6.45284,38.9002L6.45284,38.7981L6.45284,32.9327L0.385244,32.9327L0.385244,43.0288L12.3278,49.8558Q12.7131,50.1442,13.2909,49.8558Q13.8688,49.5673,25.1372,42.8365L25.1372,28.6058L6.16391,17.9327L6.16391,11.3942L6.16391,11.391C6.16391,10.9761,6.38382,10.5922,6.74178,10.3823L12.2315,7.16346Q12.9057,6.68269,13.4836,7.16346Q14.0368,7.62374,18.8274,10.4636L18.8316,10.4662C19.1011,10.6259,19.2622,10.9133,19.2622,11.2265L19.2622,11.3942L19.2622,17.1635L25.4261,17.1635L25.4261,7.16346L13.2909,0.144231Q12.7131,-0.144231,12.2315,0.144231Q11.75,0.432692,0,7.16346L0,21.2981Z" fill="#8C1514" fill-opacity="1"/></g><g style="mix-blend-mode:passthrough"><g style="mix-blend-mode:passthrough"><path d="M7.704887866973877,39.27884365753174L12.616757866973877,41.97115365753174L12.713067866973876,35.62499365753174L7.704887866973877,33.31730365753174L7.704887866973877,39.27884365753174Z" fill="#D8D8D8" fill-opacity="1"/></g><g style="mix-blend-mode:passthrough" transform="matrix(-1,0,0,-1,35.44248294830322,71.24999046325684)"><path d="M17.72124147415161,37.83653523162842L22.72942147415161,40.33653523162842L27.737641474151612,37.93268523162842L22.72942147415161,35.62499523162842L17.72124147415161,37.83653523162842Z" fill="#2E2D29" fill-opacity="1"/></g><g style="mix-blend-mode:passthrough"><path d="M12.616753578186035,41.97114763206482L17.721243578186034,39.37499763206482L17.721243578186034,33.41345763206482L12.713064678186035,35.62499763206482L12.616753578186035,41.97114763206482Z" fill="#4D4F53" fill-opacity="1"/></g></g><g style="mix-blend-mode:passthrough"><g style="mix-blend-mode:passthrough"><path d="M7.704887866973877,16.586538092651367L12.616757866973877,19.278848092651366L12.713067866973876,12.932688092651368L7.704887866973877,10.624998092651367L7.704887866973877,16.586538092651367Z" fill="#D8D8D8" fill-opacity="1"/></g><g style="mix-blend-mode:passthrough" transform="matrix(-1,0,0,-1,35.44248294830322,25.865379333496094)"><path d="M17.72124147415161,15.144229666748046L22.72942147415161,17.644229666748046L27.737641474151612,15.240379666748048L22.72942147415161,12.932689666748047L17.72124147415161,15.144229666748046Z" fill="#2E2D29" fill-opacity="1"/></g><g style="mix-blend-mode:passthrough"><path d="M12.616753578186035,19.27884206718445L17.721243578186034,16.682692067184448L17.721243578186034,10.721152067184448L12.713064678186035,12.932692067184448L12.616753578186035,19.27884206718445Z" fill="#4D4F53" fill-opacity="1"/></g></g></g></g></g></svg>