<svg xmlns="http://www.w3.org/2000/svg" xmlns:xlink="http://www.w3.org/1999/xlink" fill="none" version="1.1" width="430" height="383" viewBox="0 0 430 383"><defs><filter id="master_svg0_2200_08401" filterUnits="objectBoundingBox" color-interpolation-filters="sRGB" x="-1.5" y="0" width="35.70698547363281" height="44.865970611572266"><feFlood flood-opacity="0" result="BackgroundImageFix"/><feColorMatrix in="SourceAlpha" type="matrix" values="0 0 0 0 0 0 0 0 0 0 0 0 0 0 0 0 0 0 127 0"/><feOffset dy="1.5" dx="-1.5"/><feGaussianBlur stdDeviation="0"/><feColorMatrix type="matrix" values="0 0 0 0 1 0 0 0 0 0.8588235378265381 0 0 0 0 0.800000011920929 0 0 0 1 0"/><feBlend mode="normal" in2="BackgroundImageFix" result="effect1_dropShadow"/><feBlend mode="normal" in="SourceGraphic" in2="effect1_dropShadow" result="shape"/></filter><filter id="master_svg1_2200_08407" filterUnits="objectBoundingBox" color-interpolation-filters="sRGB" x="-2" y="0" width="79.29686737060547" height="38.884803771972656"><feFlood flood-opacity="0" result="BackgroundImageFix"/><feColorMatrix in="SourceAlpha" type="matrix" values="0 0 0 0 0 0 0 0 0 0 0 0 0 0 0 0 0 0 127 0"/><feOffset dy="2" dx="-2"/><feGaussianBlur stdDeviation="0"/><feColorMatrix type="matrix" values="0 0 0 0 1 0 0 0 0 0.8588235378265381 0 0 0 0 0.800000011920929 0 0 0 1 0"/><feBlend mode="normal" in2="BackgroundImageFix" result="effect1_dropShadow"/><feBlend mode="normal" in="SourceGraphic" in2="effect1_dropShadow" result="shape"/></filter></defs><g style="mix-blend-mode:passthrough"><g style="mix-blend-mode:passthrough"><g style="mix-blend-mode:passthrough" transform="matrix(0.9381369948387146,0.34626418352127075,-0.3516017496585846,0.9360511302947998,2.252015724527837,-12.60514881386166)"><ellipse cx="72.6115493774414" cy="51.76776123046875" rx="36.20827865600586" ry="51.76776123046875" fill="#FFFBFA" fill-opacity="1"/><ellipse cx="72.6115493774414" cy="51.76776123046875" rx="35.70827865600586" ry="51.26776123046875" fill-opacity="0" stroke-opacity="1" stroke="#FFDACC" fill="none" stroke-width="1"/></g><g style="mix-blend-mode:passthrough"><path d="M14.5565185546875,67.56510090637207Q36.9936185546875,68.98410090637208,43.0100185546875,87.24420090637207Q46.4918185546875,97.26030090637207,53.2185185546875,101.39260090637207C59.9451185546875,105.52480090637206,63.3996185546875,106.06340090637207,67.8536185546875,103.72780090637207C72.92611855468749,97.62850090637207,68.08931855468751,89.82000090637207,65.1931185546875,85.14430090637208C64.9755185546875,84.79310090637208,64.7689185546875,84.45950090637207,64.57821855468751,84.14560090637207C61.8498185546875,79.65420090637207,59.2190185546875,73.27650090637206,62.4000185546875,69.32400090637208C68.3976185546875,63.39610090637207,77.4653185546875,68.73890090637207,82.3688185546875,71.62810090637207C82.6667185546875,71.80370090637207,82.9493185546875,71.97020090637207,83.2149185546875,72.12450090637208C92.6494185546875,78.79330090637207,92.3929185546875,82.08290090637206,91.9055185546875,88.33630090637206C91.7823185546875,89.91670090637207,91.6444185546875,91.68650090637206,91.6444185546875,93.74790090637208C91.6431185546875,101.67560090637207,92.7866185546875,104.06900090637207,93.9617185546875,106.26740090637207C97.5887185546875,109.95920090637208,101.7717185546875,111.83100090637207,105.4899185546875,108.51480090637207C108.7271185546875,105.62760090637207,108.6237185546875,101.58920090637207,108.5428185546875,98.42810090637207C108.5308185546875,97.95840090637208,108.5193185546875,97.50810090637206,108.5193185546875,97.08380090637208C108.5193185546875,94.45990090637207,109.8427185546875,91.83600090637208,110.3950185546875,90.18970090637207Q115.2755185546875,87.52100090637208,120.1755185546875,72.12440090637207Q120.1145185546875,73.14620090637207,120.5885185546875,73.56970090637208Q120.9235185546875,73.86930090637208,121.5265185546875,73.86930090637208C124.2295185546875,67.30010090637208,123.9035185546875,59.29400090637207,120.9015185546875,54.77760090637207C123.4965185546875,56.112000906372074,135.0985185546875,56.45870090637207,135.8495185546875,52.801800906372065C136.5995185546875,49.14480090637207,134.8335185546875,44.66600090637207,123.9035185546875,40.14990090637207C112.9736185546875,35.63370090637207,83.3712185546875,33.86646090637207,67.8720185546875,33.86645090637207C47.7926185546875,33.86645090637207,35.729318554687495,31.32227090637207,30.9672185546875,30.31793790637207C29.5978185546875,30.02913590637207,28.8322185546875,29.86766320637207,28.6533185546875,29.930631706372072Q15.8799385546875,47.88590090637207,14.5565185546875,67.56510090637207Z" fill="#FFE4D9" fill-opacity="1"/><path d="M14.5880783546875,67.06610090637207Q37.3626185546875,68.50650090637207,43.484918554687496,87.08780090637207Q46.9055185546875,96.92760090637206,53.4802185546875,100.96660090637207Q58.4346185546875,104.01020090637208,61.4667185546875,104.49180090637208Q64.4240185546875,104.96160090637207,67.6214185546875,103.28500090637208L67.8536185546875,103.72780090637207L67.4692185546875,103.40810090637207Q70.61701855468749,99.62310090637207,69.0307185546875,94.03880090637207Q68.4273185546875,91.91470090637208,67.1015185546875,89.39570090637207Q66.32821855468751,87.92640090637207,64.7680185546875,85.40760090637207Q64.34271855468751,84.72100090637207,64.15091855468751,84.40520090637207Q61.5899185546875,80.18950090637207,60.7855185546875,76.64330090637208Q59.7041185546875,71.87630090637208,62.0105185546875,69.01050090637207L62.0283185546875,68.98840090637208L62.0486185546875,68.96840090637207Q66.1596185546875,64.90520090637207,72.9220185546875,66.68610090637208Q75.3582185546875,67.32770090637207,78.2466185546875,68.76820090637207Q79.8956185546875,69.59050090637207,82.6226185546875,71.19740090637207Q83.2021185546875,71.53880090637207,83.4661185546875,71.69230090637207L83.4853185546875,71.70340090637207L83.5035185546875,71.71620090637208Q86.9980185546875,74.18630090637207,88.9815185546875,76.24470090637206Q90.8918185546875,78.22700090637207,91.7398185546875,80.18770090637207Q92.4876185546875,81.91680090637206,92.5795185546875,84.08170090637208Q92.6356185546875,85.40360090637208,92.4040185546875,88.37520090637207Q92.1444185546875,91.70590090637208,92.1444185546875,93.74790090637208Q92.1435185546875,99.00350090637207,92.8489185546875,102.04310090637208Q93.2926185546875,103.95510090637207,94.4026185546875,106.03170090637207L93.9617185546875,106.26740090637207L94.3183185546875,105.91700090637207Q97.1985185546875,108.84860090637207,99.8184185546875,109.53540090637208Q102.7365185546875,110.30060090637207,105.1571185546875,108.14170090637207Q107.1712185546875,106.34540090637206,107.7712185546875,103.47200090637207Q108.1280185546875,101.76320090637208,108.0430185546875,98.44090090637206Q108.0193185546875,97.51450090637206,108.0193185546875,97.08380090637208Q108.0193185546875,95.67640090637207,108.5099185546875,93.96310090637208Q108.7903185546875,92.98400090637207,109.4564185546875,91.27390090637206Q109.7989185546875,90.39440090637207,109.9209185546875,90.03070090637206L109.9832185546875,89.84500090637206L110.1551185546875,89.75100090637207Q114.8595185546875,87.17840090637208,119.6995185546875,71.97280090637207L120.9135185546875,68.15750090637206L120.6745185546875,72.15420090637207Q120.6335185546875,72.83920090637207,120.8565185546875,73.12700090637207Q121.0445185546875,73.36930090637208,121.5265185546875,73.36930090637208L121.5265185546875,73.86930090637208L121.0645185546875,73.67910090637207Q123.0395185546875,68.87700090637207,122.8535185546875,63.57120090637207Q122.6705185546875,58.34150090637207,120.4855185546875,55.05440090637207L119.4215185546875,53.45440090637207L121.1305185546875,54.33300090637207Q122.0375185546875,54.79930090637207,124.2815185546875,55.04920090637207Q126.6275185546875,55.310200906372074,129.03651855468752,55.16240090637207Q131.7125185546875,54.99820090637207,133.38751855468752,54.37250090637207Q135.1515185546875,53.71330090637207,135.3595185546875,52.70130090637207Q135.9685185546875,49.73620090637207,133.8665185546875,47.11050090637207Q131.1115185546875,43.66930090637207,123.7125185546875,40.612000906372074Q116.3805185546875,37.58226090637207,97.5544185546875,35.81241090637207Q89.9444185546875,35.09696090637207,81.6056185546875,34.71262090637207Q74.0950185546875,34.36646090637207,67.8720185546875,34.36645090637207Q54.8777185546875,34.36645090637207,43.6139185546875,32.96499090637207Q37.4720185546875,32.20081090637207,30.8640185546875,30.80717690637207Q28.8661185546875,30.38580890637207,28.819418554687502,30.40226390637207L28.6533185546875,29.930631706372072L29.0608185546875,30.22047190637207Q16.3693285546875,48.06050090637207,15.0553915546875,67.59860090637207L14.5565185546875,67.56510090637207L14.5880783546875,67.06610090637207ZM14.5249587546875,68.06410090637206L14.0239625546875,68.03240090637206L14.0576455546875,67.53150090637207Q15.3905635546875,47.711300906372074,28.2459185546875,29.64079090637207L28.3378185546875,29.51163090637207L28.487318554687498,29.45899890637207Q28.798318554687498,29.34951690637207,31.0704185546875,29.82870100637207Q37.6372185546875,31.21365090637207,43.737318554687505,31.97265090637207Q54.9397185546875,33.36646090637207,67.8720185546875,33.36645090637207Q74.1181185546875,33.36646090637207,81.6516185546875,33.71368090637207Q90.0143185546875,34.09912090637207,97.6480185546875,34.81680090637207Q116.6235185546875,36.60072090637207,124.0945185546875,39.68777090637207Q131.7315185546875,42.84340090637207,134.6475185546875,46.48560090637207Q137.0425185546875,49.477600906372075,136.33951855468752,52.90230090637207Q136.0205185546875,54.45640090637207,133.73751855468748,55.30930090637207Q131.92251855468749,55.98720090637207,129.0975185546875,56.16050090637207Q126.6025185546875,56.31360090637207,124.1715185546875,56.04300090637207Q121.7435185546875,55.77280090637207,120.6735185546875,55.22230090637207L120.9015185546875,54.77760090637207L121.3185185546875,54.50090090637207Q123.6595185546875,58.02370090637207,123.8535185546875,63.53610090637207Q124.0465185546875,69.05780090637208,121.9895185546875,74.05960090637207L121.8615185546875,74.36930090637208L121.5265185546875,74.36930090637208Q120.5535185546875,74.36930090637208,120.0665185546875,73.73920090637208Q119.6135185546875,73.15450090637208,119.6765185546875,72.09460090637208L120.1755185546875,72.12440090637207L120.6525185546875,72.27600090637208Q115.6915185546875,87.86350090637207,110.6349185546875,90.62840090637206L110.3950185546875,90.18970090637207L110.8690185546875,90.34870090637207Q110.7394185546875,90.73520090637207,110.3882185546875,91.63680090637207Q109.7389185546875,93.30390090637206,109.4713185546875,94.23840090637206Q109.0193185546875,95.81670090637208,109.0193185546875,97.08380090637208Q109.0193185546875,97.50140090637207,109.0427185546875,98.41530090637207Q109.1307185546875,101.85380090637207,108.7501185546875,103.67640090637207Q108.0827185546875,106.87230090637208,105.8227185546875,108.88800090637207Q103.0018185546875,111.40390090637207,99.5648185546875,110.50270090637207Q96.6783185546875,109.74600090637207,93.6050185546875,106.61780090637207L93.5546185546875,106.56650090637207L93.5207185546875,106.50310090637207Q92.3484185546875,104.30990090637206,91.8748185546875,102.26920090637206Q91.1435185546875,99.11790090637207,91.1444185546875,93.74790090637208Q91.1444185546875,91.66700090637207,91.4070185546875,88.29750090637208Q91.6340185546875,85.38590090637207,91.5804185546875,84.12410090637206Q91.4963185546875,82.14390090637207,90.8220185546875,80.58470090637206Q90.0460185546875,78.79030090637207,88.2615185546875,76.93860090637207Q86.3436185546875,74.94840090637207,82.9263185546875,72.53280090637207L83.2149185546875,72.12450090637208L82.9636185546875,72.55680090637208Q82.6966185546875,72.40160090637207,82.1150185546875,72.05890090637207Q79.4181185546875,70.46990090637206,77.8003185546875,69.66310090637208Q75.00401855468749,68.26860090637207,72.6674185546875,67.65320090637206Q66.4567185546875,66.01750090637208,62.7515185546875,69.67960090637207L62.4000185546875,69.32400090637208L62.7896185546875,69.63750090637207Q60.7863185546875,72.12660090637206,61.7607185546875,76.42210090637207Q62.5291185546875,79.80940090637208,65.0056185546875,83.88610090637206Q65.1951185546875,84.19810090637208,65.6181185546875,84.88100090637207Q67.1968185546875,87.42970090637206,67.9864185546875,88.92990090637207Q69.36071855468751,91.54120090637207,69.99261855468751,93.76550090637207Q71.7231185546875,99.85700090637206,68.2381185546875,104.04750090637206L68.1742185546875,104.12420090637207L68.0858185546875,104.17060090637207Q64.5947185546875,106.00130090637207,61.3098185546875,105.47940090637206Q58.0810185546875,104.96650090637208,52.9567185546875,101.81860090637207Q46.0781185546875,97.59300090637207,42.5351185546875,87.40070090637207Q36.6245185546875,69.46180090637208,14.5249587546875,68.06410090637206Z" fill="#FFDACC" fill-opacity="1"/></g><g style="mix-blend-mode:passthrough"><path d="M47.99612512287086,95.76799032714844C47.99325681288086,96.92421032714844,48.801304452880856,97.68712032714843,49.29349045288086,98.15182032714844C49.359200452880856,98.21386032714844,49.41927045288086,98.27058032714844,49.47104045288086,98.32221032714844C50.24268045288086,99.93062032714843,61.73592045288086,106.50101032714844,62.88852045288086,104.71201032714843C64.04112045288086,102.92301032714843,63.54622045288086,95.76780032714844,58.444220452880856,92.75909032714844Q53.34228045288086,89.75038032714843,47.99612512287086,95.76799032714844Z" fill="#FFF4F0" fill-opacity="1"/></g><g style="mix-blend-mode:passthrough"><path d="M121.75347137451172,43.11450612426758C121.75347137451172,45.558756124267575,126.32538137451172,49.55860612426758,128.06659137451172,49.55860612426758C129.55390137451172,50.281086124267574,134.9876713745117,49.585616124267574,134.9876713745117,48.19468612426758Q134.9876713745117,46.108276124267576,130.91234137451173,43.114496124267575Q126.83701137451172,40.544515124267576,125.45645137451172,40.67024612426758Q121.75347137451172,40.67024612426758,121.75347137451172,43.11450612426758Z" fill="#FFF4F0" fill-opacity="1"/></g><g style="mix-blend-mode:passthrough"><path d="M40.6198720690918,82.49955720214844Q37.8625820690918,73.49412720214843,39.872007069091794,63.53041020214844L40.852272069091796,63.72810420214844Q38.8929180690918,73.44355720214844,41.576052069091794,82.20685720214844L40.6198720690918,82.49955720214844Z" fill="#FFDACC" fill-opacity="1"/></g><g style="mix-blend-mode:passthrough"><path d="M108.0210814086914,95.07339264526368Q109.94608140869141,72.51999264526367,97.3104644086914,56.62310864526367L98.09329840869141,56.00087664526367Q110.9762814086914,72.20899264526368,109.01748140869141,95.15839264526367L108.0210814086914,95.07339264526368ZM109.0192814086914,95.11589264526367Q109.0192814086914,95.16509264526367,109.0096814086914,95.21349264526367Q109.0000814086914,95.26169264526368,108.98118140869141,95.30719264526367Q108.96238140869141,95.35269264526367,108.93498140869141,95.39369264526367Q108.9076814086914,95.43459264526368,108.8728814086914,95.46949264526367Q108.8379814086914,95.50429264526367,108.79708140869141,95.53159264526367Q108.7560814086914,95.55899264526367,108.71058140869141,95.57779264526367Q108.6650814086914,95.59669264526367,108.61678140869141,95.60629264526366Q108.56848140869141,95.61589264526367,108.5192814086914,95.61589264526367Q108.47008140869141,95.61589264526367,108.4217814086914,95.60629264526366Q108.3734814086914,95.59669264526367,108.3279814086914,95.57779264526367Q108.28248140869141,95.55899264526367,108.24148140869141,95.53159264526367Q108.2005814086914,95.50429264526367,108.16568140869141,95.46949264526367Q108.13088140869141,95.43459264526368,108.10358140869141,95.39369264526367Q108.07618140869141,95.35269264526367,108.05738140869141,95.30719264526367Q108.03848140869141,95.26169264526368,108.0288814086914,95.21349264526367Q108.0192814086914,95.16509264526367,108.0192814086914,95.11589264526367Q108.0192814086914,95.06669264526367,108.0288814086914,95.01839264526367Q108.03848140869141,94.97009264526366,108.05738140869141,94.92459264526367Q108.07618140869141,94.87909264526368,108.10358140869141,94.83809264526367Q108.13088140869141,94.79719264526366,108.16568140869141,94.76239264526367Q108.2005814086914,94.72749264526368,108.24148140869141,94.70019264526367Q108.28248140869141,94.67279264526367,108.3279814086914,94.65399264526367Q108.3734814086914,94.63509264526367,108.4217814086914,94.62549264526368Q108.47008140869141,94.61589264526367,108.5192814086914,94.61589264526367Q108.56848140869141,94.61589264526367,108.61678140869141,94.62549264526368Q108.6650814086914,94.63509264526367,108.71058140869141,94.65399264526367Q108.7560814086914,94.67279264526367,108.79708140869141,94.70019264526367Q108.8379814086914,94.72749264526368,108.8728814086914,94.76239264526367Q108.9076814086914,94.79719264526366,108.93498140869141,94.83809264526367Q108.96238140869141,94.87909264526368,108.98118140869141,94.92459264526367Q109.0000814086914,94.97009264526366,109.0096814086914,95.01839264526367Q109.0192814086914,95.06669264526367,109.0192814086914,95.11589264526367ZM98.2018814086914,56.31199264526367Q98.2018814086914,56.36123834526367,98.1922744086914,56.40953774526367Q98.1826664086914,56.45783764526367,98.1638214086914,56.50333464526367Q98.14497540869141,56.548831645263675,98.1176164086914,56.58977764526367Q98.0902564086914,56.63072364526367,98.05543440869141,56.66554564526367Q98.0206124086914,56.700367645263675,97.9796664086914,56.72772764526367Q97.93872040869141,56.755086645263674,97.89322340869141,56.77393264526367Q97.8477264086914,56.79277764526367,97.79942650869141,56.80238564526367Q97.7511271086914,56.81199264526367,97.7018814086914,56.81199264526367Q97.6526357086914,56.81199264526367,97.6043363086914,56.80238564526367Q97.55603640869141,56.79277764526367,97.5105394086914,56.77393264526367Q97.4650424086914,56.755086645263674,97.42409640869141,56.72772764526367Q97.3831504086914,56.700367645263675,97.3483284086914,56.66554564526367Q97.31350640869141,56.63072364526367,97.28614640869141,56.58977764526367Q97.2587874086914,56.548831645263675,97.23994140869141,56.50333464526367Q97.22109640869141,56.45783764526367,97.21148840869141,56.40953774526367Q97.2018814086914,56.36123834526367,97.2018814086914,56.31199264526367Q97.2018814086914,56.26274694526367,97.21148840869141,56.214447545263674Q97.22109640869141,56.16614764526367,97.23994140869141,56.12065064526367Q97.2587874086914,56.07515364526367,97.28614640869141,56.03420764526367Q97.31350640869141,55.99326164526367,97.3483284086914,55.958439645263674Q97.3831504086914,55.92361764526367,97.42409640869141,55.896257645263674Q97.4650424086914,55.86889864526367,97.5105394086914,55.85005264526367Q97.55603640869141,55.831207645263675,97.6043363086914,55.821599645263674Q97.6526357086914,55.81199264526367,97.7018814086914,55.81199264526367Q97.7511271086914,55.81199264526367,97.79942650869141,55.821599645263674Q97.8477264086914,55.831207645263675,97.89322340869141,55.85005264526367Q97.93872040869141,55.86889864526367,97.9796664086914,55.896257645263674Q98.0206124086914,55.92361764526367,98.05543440869141,55.958439645263674Q98.0902564086914,55.99326164526367,98.1176164086914,56.03420764526367Q98.14497540869141,56.07515364526367,98.1638214086914,56.12065064526367Q98.1826664086914,56.16614764526367,98.1922744086914,56.214447545263674Q98.2018814086914,56.26274694526367,98.2018814086914,56.31199264526367Z" fill="#FFDACC" fill-opacity="1"/></g><g style="mix-blend-mode:passthrough"><path d="M99.42595291259765,98.1307680493164C97.02394591259765,101.41003804931641,97.83613311259765,105.9341380493164,99.62553291259766,108.33243804931641C100.76122291259766,109.8546380493164,102.61947291259766,110.20323804931641,103.44021291259766,110.20323804931641C111.06462291259766,106.7148380493164,108.03102291259765,95.23771404931641,107.35232291259766,95.23771404931641Q103.35246291259766,92.7702380493164,99.42595291259765,98.1307680493164Z" fill="#FFF4F0" fill-opacity="1"/></g><g style="mix-blend-mode:passthrough"><path d="M119.9301021484375,69.53304865112304Q119.9301021484375,64.39034865112305,117.6931021484375,60.44317865112305Q115.8780021484375,57.240268651123046,112.67959214843751,54.95877865112305Q110.2817121484375,53.248328651123046,107.4114421484375,52.243108651123045Q105.3699691484375,51.528149651123044,104.5697025288385,51.52815065112305L104.5697017680365,50.52815065112305Q105.5400141484375,50.528149651123044,107.7419721484375,51.29931465112305Q110.7465621484375,52.351568651123046,113.2603021484375,54.14466865112305Q116.6389021484375,56.554688651123044,118.5631021484375,59.95013865112305Q120.9301021484375,64.12664865112305,120.9301021484375,69.53304865112304L119.9301021484375,69.53304865112304ZM120.9301021484375,69.53304865112304Q120.9300021484375,69.58224865112305,120.9204021484375,69.63054865112305Q120.9108021484375,69.67884865112305,120.8920021484375,69.72434865112305Q120.8731021484375,69.76984865112306,120.8458021484375,69.81074865112305Q120.8184021484375,69.85174865112305,120.7836021484375,69.88654865112305Q120.7488021484375,69.92134865112305,120.70780214843751,69.94874865112305Q120.6669021484375,69.97614865112305,120.6214021484375,69.99494865112305Q120.5759021484375,70.01374865112305,120.5276021484375,70.02334865112304Q120.4793021484375,70.03304865112304,120.4301021484375,70.03304865112304Q120.3808021484375,70.03304865112304,120.3325021484375,70.02334865112304Q120.2842021484375,70.01374865112305,120.2387021484375,69.99494865112305Q120.1932021484375,69.97614865112305,120.1523021484375,69.94874865112305Q120.1113021484375,69.92134865112305,120.0765021484375,69.88654865112305Q120.0417021484375,69.85174865112305,120.0143021484375,69.81074865112305Q119.9870021484375,69.76984865112306,119.9681021484375,69.72434865112305Q119.9493021484375,69.67884865112305,119.9397021484375,69.63054865112305Q119.9301021484375,69.58224865112305,119.9301021484375,69.53304865112304Q119.9301021484375,69.48374865112305,119.9397021484375,69.43544865112304Q119.9493021484375,69.38714865112306,119.9681021484375,69.34164865112305Q119.9870021484375,69.29614865112305,120.0143021484375,69.25524865112305Q120.0417021484375,69.21424865112304,120.0765021484375,69.17944865112304Q120.1113021484375,69.14464865112305,120.1523021484375,69.11724865112305Q120.1932021484375,69.08994865112305,120.2387021484375,69.07104865112305Q120.2842021484375,69.05224865112305,120.3325021484375,69.04264865112305Q120.3808021484375,69.03304865112304,120.4301021484375,69.03304865112304Q120.4793021484375,69.03304865112304,120.5276021484375,69.04264865112305Q120.5759021484375,69.05224865112305,120.6214021484375,69.07104865112305Q120.6669021484375,69.08994865112305,120.70780214843751,69.11724865112305Q120.7488021484375,69.14464865112305,120.7836021484375,69.17944865112304Q120.8184021484375,69.21424865112304,120.8458021484375,69.25524865112305Q120.8731021484375,69.29614865112305,120.8920021484375,69.34164865112305Q120.9108021484375,69.38714865112306,120.9204021484375,69.43544865112304Q120.9300021484375,69.48374865112305,120.9301021484375,69.53304865112304ZM105.0697021484375,51.02814865112305Q105.0697021484375,51.07739435112305,105.0600951484375,51.125693751123045Q105.0504871484375,51.17399365112305,105.0316421484375,51.219490651123046Q105.0127961484375,51.26498765112305,104.9854371484375,51.30593365112305Q104.9580771484375,51.34687965112305,104.9232551484375,51.381701651123045Q104.8884331484375,51.41652365112305,104.8474871484375,51.443883651123045Q104.8065411484375,51.47124265112305,104.7610441484375,51.490088651123045Q104.7155471484375,51.508933651123044,104.6672472484375,51.518541651123044Q104.6189478484375,51.52814865112305,104.5697021484375,51.52814865112305Q104.5204564484375,51.52814865112305,104.4721570484375,51.518541651123044Q104.4238571484375,51.508933651123044,104.3783601484375,51.490088651123045Q104.3328631484375,51.47124265112305,104.2919171484375,51.443883651123045Q104.2509711484375,51.41652365112305,104.2161491484375,51.381701651123045Q104.1813271484375,51.34687965112305,104.1539671484375,51.30593365112305Q104.1266081484375,51.26498765112305,104.1077621484375,51.219490651123046Q104.0889171484375,51.17399365112305,104.0793091484375,51.125693751123045Q104.0697021484375,51.07739435112305,104.0697021484375,51.02814865112305Q104.0697021484375,50.97890295112305,104.0793091484375,50.93060355112305Q104.0889171484375,50.882303651123046,104.1077621484375,50.83680665112305Q104.1266081484375,50.79130965112304,104.1539671484375,50.750363651123045Q104.1813271484375,50.70941765112305,104.2161491484375,50.67459565112305Q104.2509711484375,50.63977365112304,104.2919171484375,50.61241365112305Q104.3328631484375,50.585054651123045,104.3783601484375,50.56620865112305Q104.4238571484375,50.54736365112305,104.4721570484375,50.53775565112305Q104.5204564484375,50.52814865112305,104.5697021484375,50.52814865112305Q104.6189478484375,50.52814865112305,104.6672472484375,50.53775565112305Q104.7155471484375,50.54736365112305,104.7610441484375,50.56620865112305Q104.8065411484375,50.585054651123045,104.8474871484375,50.61241365112305Q104.8884331484375,50.63977365112304,104.9232551484375,50.67459565112305Q104.9580771484375,50.70941765112305,104.9854371484375,50.750363651123045Q105.0127961484375,50.79130965112304,105.0316421484375,50.83680665112305Q105.0504871484375,50.882303651123046,105.0600951484375,50.93060355112305Q105.0697021484375,50.97890295112305,105.0697021484375,51.02814865112305Z" fill="#FFDACC" fill-opacity="1"/></g><g style="mix-blend-mode:passthrough"><path d="M120.2887943725586,54.879016315917966Q118.00200437255859,49.836126315917966,109.9820073725586,46.66628231591797L110.34958137255859,45.73628831591797Q118.7457243725586,49.05480631591797,121.19949437255859,54.46602631591797L120.2887943725586,54.879016315917966ZM121.24409437255859,54.67252631591797Q121.24409437255859,54.72176631591797,121.2344943725586,54.77006631591797Q121.2248943725586,54.81836631591797,121.2060943725586,54.86386631591797Q121.1871943725586,54.90936631591797,121.1598943725586,54.95030631591797Q121.1324943725586,54.991256315917965,121.09769437255859,55.02607631591797Q121.06289437255859,55.06089631591797,121.02189437255859,55.08825631591797Q120.9809943725586,55.11561631591797,120.9354943725586,55.13446631591797Q120.88999437255859,55.153306315917966,120.84169437255859,55.16291631591797Q120.7933943725586,55.17252631591797,120.74409437255859,55.17252631591797Q120.6948943725586,55.17252631591797,120.6465943725586,55.16291631591797Q120.5982943725586,55.153306315917966,120.5527943725586,55.13446631591797Q120.50729437255859,55.11561631591797,120.4663943725586,55.08825631591797Q120.4253943725586,55.06089631591797,120.3905943725586,55.02607631591797Q120.35579437255859,54.991256315917965,120.32839437255859,54.95030631591797Q120.3010943725586,54.90936631591797,120.28219437255859,54.86386631591797Q120.2633943725586,54.81836631591797,120.25379437255859,54.77006631591797Q120.24409437255859,54.72176631591797,120.24409437255859,54.67252631591797Q120.24409437255859,54.62327631591797,120.25379437255859,54.574976315917965Q120.2633943725586,54.52667631591797,120.28219437255859,54.48117631591797Q120.3010943725586,54.43568631591797,120.32839437255859,54.39473631591797Q120.35579437255859,54.35378631591797,120.3905943725586,54.31896631591797Q120.4253943725586,54.284146315917965,120.4663943725586,54.25678631591797Q120.50729437255859,54.22942631591797,120.5527943725586,54.210586315917965Q120.5982943725586,54.19173631591797,120.6465943725586,54.18212631591797Q120.6948943725586,54.17252631591797,120.74409437255859,54.17252631591797Q120.7933943725586,54.17252631591797,120.84169437255859,54.18212631591797Q120.88999437255859,54.19173631591797,120.9354943725586,54.210586315917965Q120.9809943725586,54.22942631591797,121.02189437255859,54.25678631591797Q121.06289437255859,54.284146315917965,121.09769437255859,54.31896631591797Q121.1324943725586,54.35378631591797,121.1598943725586,54.39473631591797Q121.1871943725586,54.43568631591797,121.2060943725586,54.48117631591797Q121.2248943725586,54.52667631591797,121.2344943725586,54.574976315917965Q121.24409437255859,54.62327631591797,121.24409437255859,54.67252631591797ZM110.6657943725586,46.20128631591797Q110.6657943725586,46.25053201591797,110.65618737255859,46.29883141591797Q110.64657937255859,46.34713131591797,110.62773437255859,46.39262831591797Q110.6088883725586,46.43812531591797,110.58152937255859,46.47907131591797Q110.55416937255859,46.52001731591797,110.5193473725586,46.55483931591797Q110.4845253725586,46.58966131591797,110.44357937255859,46.61702131591797Q110.4026333725586,46.64438031591797,110.3571363725586,46.66322631591797Q110.31163937255859,46.682071315917966,110.2633394725586,46.691679315917966Q110.2150400725586,46.70128631591797,110.1657943725586,46.70128631591797Q110.1165486725586,46.70128631591797,110.06824927255859,46.691679315917966Q110.0199493725586,46.682071315917966,109.97445237255859,46.66322631591797Q109.92895537255859,46.64438031591797,109.8880093725586,46.61702131591797Q109.8470633725586,46.58966131591797,109.81224137255859,46.55483931591797Q109.7774193725586,46.52001731591797,109.7500593725586,46.47907131591797Q109.72270037255859,46.43812531591797,109.7038543725586,46.39262831591797Q109.6850093725586,46.34713131591797,109.6754013725586,46.29883141591797Q109.6657943725586,46.25053201591797,109.6657943725586,46.20128631591797Q109.6657943725586,46.15204061591797,109.6754013725586,46.10374121591797Q109.6850093725586,46.05544131591797,109.7038543725586,46.00994431591797Q109.72270037255859,45.964447315917965,109.7500593725586,45.92350131591797Q109.7774193725586,45.88255531591797,109.81224137255859,45.84773331591797Q109.8470633725586,45.812911315917965,109.8880093725586,45.78555131591797Q109.92895537255859,45.75819231591797,109.97445237255859,45.73934631591797Q110.0199493725586,45.72050131591797,110.06824927255859,45.71089331591797Q110.1165486725586,45.70128631591797,110.1657943725586,45.70128631591797Q110.2150400725586,45.70128631591797,110.2633394725586,45.71089331591797Q110.31163937255859,45.72050131591797,110.3571363725586,45.73934631591797Q110.4026333725586,45.75819231591797,110.44357937255859,45.78555131591797Q110.4845253725586,45.812911315917965,110.5193473725586,45.84773331591797Q110.55416937255859,45.88255531591797,110.58152937255859,45.92350131591797Q110.6088883725586,45.964447315917965,110.62773437255859,46.00994431591797Q110.64657937255859,46.05544131591797,110.65618737255859,46.10374121591797Q110.6657943725586,46.15204061591797,110.6657943725586,46.20128631591797Z" fill="#FFDACC" fill-opacity="1"/></g></g><g style="mix-blend-mode:passthrough"><g style="mix-blend-mode:passthrough" transform="matrix(0.9677925109863281,0.25174909830093384,-0.2638130187988281,0.9645738005638123,87.88811742138932,-89.18378981428987)"><path d="M431.1860155883789,330.6676C431.1860155883789,355.8892,422.01671558837893,376.9884,411.3128155883789,376.9884C400.6089955883789,376.9884,394.3619155883789,356.7294,394.3619155883789,331.5078C394.3619155883789,306.2863,401.1010855883789,285,411.8049155883789,285C422.5088155883789,285,431.1860155883789,305.4461,431.1860155883789,330.6676Z" fill="#FFFBFA" fill-opacity="1"/><path d="M411.3128155883789,376.9884C422.01671558837893,376.9884,431.1860155883789,355.8892,431.1860155883789,330.6676C431.1860155883789,305.4461,422.5088155883789,285,411.8049155883789,285C401.1010855883789,285,394.3619155883789,306.2863,394.3619155883789,331.5078C394.3619155883789,356.7294,400.6089955883789,376.9884,411.3128155883789,376.9884ZM428.6787155883789,313.0684Q430.1860155883789,321.46569999999997,430.1860155883789,330.6676Q430.1860155883789,339.8453,428.6029155883789,348.3628Q427.0849155883789,356.5298,424.3450155883789,362.8904Q421.6425155883789,369.1641,418.2255155883789,372.5915Q414.8391155883789,375.9884,411.3128155883789,375.9884Q407.8354155883789,375.9884,404.8875155883789,372.75509999999997Q401.9337655883789,369.5153,399.76644558837893,363.3734Q397.6295055883789,357.3177,396.4958455883789,349.1176Q395.3619155883789,340.9154,395.3619155883789,331.5078Q395.3619155883789,322.1363,396.5719255883789,313.7433Q397.7743155883789,305.4033,400.01135558837893,299.1318Q402.2786555883789,292.7755,405.3092155883789,289.38667Q408.33781558837893,285.999998,411.8049155883789,285.999996Q415.3348155883789,286,418.6430155883789,289.29709Q421.9827155883789,292.62559,424.5889155883789,298.7664Q427.2274155883789,304.9836,428.6787155883789,313.0684Z" fill-rule="evenodd" fill="#FFDACC" fill-opacity="1"/></g><g style="mix-blend-mode:passthrough"><path d="M303.1959784897232,336.5013976501465Q297.5891784897232,344.0208976501465,309.5044784897232,353.59119765014646C321.4197884897232,363.1614976501465,330.5320884897232,368.6301976501465,343.1490884897232,368.6301976501465Q355.7660884897232,368.6301976501465,378.1962884897232,359.05989765014647Q398.5236884897232,352.9075976501465,403.4298884897232,350.85679765014646C408.3368884897232,348.8060976501465,417.0578884897232,341.7379976501465,419.8618884897232,329.4333976501465Q421.9638884897232,315.3100976501465,419.1608884897232,300.72258865014646L403.4308884897232,310.2928976501465Q397.4312884897232,315.3100976501465,393.22558848972324,315.3100976501465C389.01998848972323,315.3100976501465,388.0095884897232,309.1577976501465,375.3925884897232,304.3726576501465C362.7755884897232,299.58752565014646,357.8689884897232,298.9039376501465,350.15858848972323,301.6382976501465C342.4481884897232,304.3726576501465,346.2623884897232,314.39439765014646,350.8595884897232,315.3100976501465C351.43438848972323,315.5903976501465,354.0864884897232,316.7836976501465,355.37458848972324,317.1287976501465C355.6593884897232,317.2050976501465,355.9507884897232,317.28159765014647,356.2469884897232,317.35929765014646C361.14408848972323,318.6448976501465,367.3312884897232,320.2691976501465,366.2802884897232,326.9311976501465Q364.8784884897232,335.8177976501465,348.0557884897232,348.1224976501465Q346.3022884897232,348.78749765014646,344.6029884897232,349.2280976501465C345.7519884897232,346.64509765014645,347.0006884897232,343.7040976501465,347.3547884897232,341.28659765014646C348.0557884897232,336.5013976501465,345.9528884897232,333.08349765014646,341.7472884897232,333.08349765014646Q338.3497884897232,333.08349765014646,335.4096884897232,338.4368976501465C335.3778884897232,337.7689976501465,335.3962884897232,337.10699765014647,335.4150884897232,336.42879765014646C335.4268884897232,336.0052976501465,335.4387884897232,335.5755976501465,335.4387884897232,335.1342976501465C332.6349884897232,329.6654976501465,329.8311884897232,329.6654976501465,327.0273884897232,330.34909765014646Q325.4399884897232,330.73609765014646,324.5266884897232,332.6569976501465C324.3900884897232,332.0841976501465,324.2886884897232,331.5407976501465,324.2236884897232,331.0326976501465C321.4201884897232,326.2475976501465,316.5132884897232,322.82959765014647,312.3073884897232,324.8803976501465Q308.6699784897232,326.6539976501465,309.7512084897232,335.5851976501465C307.5863684897232,334.99219765014647,305.4646984897232,335.1739976501465,303.1959784897232,336.5013976501465Z" fill-rule="evenodd" fill="#FFE4D9" fill-opacity="1"/><path d="M303.5968184897232,336.8002976501465Q298.2783284897232,343.9331976501465,309.8175884897232,353.2013976501465Q314.6341884897232,357.0699976501465,318.2954884897232,359.5652976501465Q322.5245884897232,362.44759765014646,326.2798884897232,364.2486976501465Q334.3723884897232,368.1301976501465,343.1490884897232,368.1301976501465Q355.6636884897232,368.1301976501465,378.0000884897232,358.59999765014646L378.0252884897232,358.5892976501465L378.0514884897232,358.58139765014647Q398.35378848972323,352.43669765014647,403.2378884897232,350.39549765014647Q405.2028884897232,349.57399765014645,407.3768884897232,347.9720976501465Q409.8828884897232,346.1252976501465,412.0598884897232,343.6593976501465Q417.51588848972324,337.4793976501465,419.3738884897232,329.3222976501465L419.8618884897232,329.4333976501465L419.36688848972324,329.3597976501465Q421.4568884897232,315.3204976501465,418.66988848972323,300.8169626501465L419.1608884897232,300.72258865014646L419.4208884897232,301.1497476501465L403.6898884897232,310.71999765014647L403.4308884897232,310.2928976501465L403.7508884897232,310.6763976501465Q397.6127884897232,315.8100976501465,393.22558848972324,315.8100976501465Q391.8545884897232,315.8100976501465,390.5429884897232,314.9551976501465Q389.7534884897232,314.4404976501465,388.0722884897232,312.8770976501465Q385.4502884897232,310.4387976501465,383.4254884897232,309.04481765014646Q379.8975884897232,306.6159876501465,375.2152884897232,304.8401676501465Q370.2779884897232,302.96763765014646,367.0698884897232,302.02175765014647Q363.55758848972323,300.98620665014647,360.8792884897232,300.6824836501465Q358.1833884897232,300.3767616501465,355.6497884897232,300.7341716501465Q353.2489884897232,301.07286765014646,350.3257884897232,302.1095376501465Q347.8039884897232,303.0038276501465,346.81798848972323,305.0190676501465Q345.9516884897232,306.7894076501465,346.3848884897232,309.0626076501465Q346.7907884897232,311.19239765014646,348.1176884897232,312.8608976501465Q349.4341884897232,314.5163976501465,350.9571884897232,314.8197976501465L351.0205884897232,314.8323976501465L351.0786884897232,314.8606976501465Q351.7893884897232,315.2072976501465,353.0432884897232,315.7341976501465Q354.7000884897232,316.43039765014646,355.5039884897232,316.6457976501465L356.3746884897232,316.8758976501465Q358.9222884897232,317.5446976501465,360.1931884897232,317.9883976501465Q362.37778848972323,318.7509976501465,363.7781884897232,319.7175976501465Q367.5172884897232,322.2984976501465,366.7741884897232,327.0090976501465Q365.3400884897232,336.0995976501465,348.3509884897232,348.5259976501465L348.2963884897232,348.56599765014647L348.23308848972323,348.5899976501465Q346.4540884897232,349.2646976501465,344.7284884897232,349.7119976501465L343.72468848972323,349.9722976501465L344.1461884897232,349.02479765014647Q346.4866884897232,343.7633976501465,346.8600884897232,341.21409765014647Q347.3654884897232,337.76369765014647,345.9743884897232,335.66699765014647Q344.59198848972324,333.58349765014646,341.7472884897232,333.58349765014646Q338.6455884897232,333.58349765014646,335.84788848972323,338.6775976501465L334.9943884897232,340.2316976501465L334.9101884897232,338.46069765014647Q334.8775884897232,337.77389765014647,334.9152884897232,336.4148976501465Q334.9387884897232,335.5687976501465,334.9387884897232,335.1342976501465L335.4387884897232,335.1342976501465L334.9938884897232,335.3623976501465Q333.1697884897232,331.80449765014646,331.0368884897232,330.8944976501465Q329.5330884897232,330.2527976501465,327.14588848972323,330.8348976501465Q325.7894884897232,331.1655976501465,324.9781884897232,332.8716976501465L324.36918848972323,334.1525976501465L324.0402884897232,332.77299765014646Q323.8288884897232,331.88619765014647,323.7276884897232,331.0962976501465L324.2236884897232,331.0326976501465L323.79218848972323,331.2854976501465Q321.6197884897232,327.5772976501465,318.5441884897232,325.8276976501465Q315.29558848972323,323.9795976501465,312.5264884897232,325.3297976501465Q309.2091584897232,326.9472976501465,310.2475784897232,335.5250976501465L310.3370384897232,336.2640976501465L309.6191084897232,336.0674976501465Q306.4237784897232,335.19219765014645,303.4484784897232,336.9329976501465L303.1959784897232,336.5013976501465L303.5968184897232,336.8002976501465ZM302.79513848972323,336.20259765014646L302.8558384897232,336.1211976501465L302.9434784897232,336.06989765014646Q306.2820384897232,334.11649765014647,309.8833084897232,335.1029976501465L309.7512084897232,335.5851976501465L309.2548284897232,335.64529765014646Q308.1308184897232,326.3605976501465,312.0881884897232,324.4309976501465Q315.3314884897232,322.8495976501465,319.0386884897232,324.95849765014646Q322.3471884897232,326.8405976501465,324.6550884897232,330.77999765014647L324.70658848972323,330.8679976501465L324.7195884897232,330.9691976501465Q324.8139884897232,331.70619765014646,325.0130884897232,332.54109765014647L324.5266884897232,332.6569976501465L324.0750884897232,332.4422976501465Q325.0905884897232,330.3066976501465,326.9089884897232,329.8632976501465Q329.6194884897232,329.2024976501465,331.4292884897232,329.9746976501465Q333.8946884897232,331.0264976501465,335.8836884897232,334.9060976501465L335.9387884897232,335.0135976501465L335.9387884897232,335.1342976501465Q335.9387884897232,335.58279765014646,335.9148884897232,336.4426976501465Q335.8781884897232,337.7640976501465,335.9090884897232,338.41319765014646L335.4096884897232,338.4368976501465L334.9713884897232,338.1962976501465Q338.0538884897232,332.58349765014646,341.7472884897232,332.58349765014646Q345.1285884897232,332.58349765014646,346.8076884897232,335.1141976501465Q348.41038848972323,337.5298976501465,347.8495884897232,341.3589976501465Q347.4561884897232,344.04429765014646,345.0598884897232,349.43129765014646L344.6029884897232,349.2280976501465L344.4775884897232,348.7440976501465Q346.1503884897232,348.3102976501465,347.8784884897232,347.65499765014647L348.0557884897232,348.1224976501465L347.7605884897232,347.71889765014646Q364.4166884897232,335.5360976501465,365.7864884897232,326.8531976501465Q366.4314884897232,322.76419765014646,363.2100884897232,320.5405976501465Q361.92078848972324,319.6505976501465,359.8635884897232,318.9324976501465Q358.6300884897232,318.5018976501465,356.11918848972323,317.8426976501465L355.2451884897232,317.6116976501465Q354.3754884897232,317.3786976501465,352.6558884897232,316.6560976501465Q351.3761884897232,316.1182976501465,350.6403884897232,315.7594976501465L350.8595884897232,315.3100976501465L350.7618884897232,315.8004976501465Q348.87958848972323,315.42559765014647,347.33498848972323,313.4832976501465Q345.8545884897232,311.6218976501465,345.4025884897232,309.2497976501465Q344.9069884897232,306.64923765014646,345.9196884897232,304.5795476501465Q347.08518848972324,302.1977376501465,349.9914884897232,301.1670576501465Q353.0095884897232,300.0967333501465,355.5100884897232,299.74397565014647Q358.1695884897232,299.36879565014647,360.9919884897232,299.6888526501465Q363.7568884897232,300.0023927501465,367.3526884897232,301.06257765014647Q370.5971884897232,302.0191776501465,375.5698884897232,303.90515765014646Q380.3652884897232,305.72382765014646,383.9925884897232,308.2211576501465Q386.0775884897232,309.65666765014646,388.7532884897232,312.1447976501465Q390.3714884897232,313.6496976501465,391.0890884897232,314.1173976501465Q392.15178848972323,314.8100976501465,393.22558848972324,314.8100976501465Q397.2497884897232,314.8100976501465,403.1098884897232,309.9093176501465L403.1388884897232,309.8852276501465L419.51588848972324,299.92125765014646L419.6518884897232,300.6282126501465Q422.4708884897232,315.2990976501465,420.3558884897232,329.5069976501465L420.3528884897232,329.5258976501465L420.3488884897232,329.54449765014647Q418.4338884897232,337.95009765014646,412.8088884897232,344.3211976501465Q410.5618884897232,346.86699765014646,407.9698884897232,348.7770976501465Q405.6998884897232,350.45029765014647,403.6228884897232,351.3181976501465Q398.6923884897232,353.3790976501465,378.34108848972323,359.5384976501465L378.1962884897232,359.05989765014647L378.3924884897232,359.5197976501465Q355.8680884897232,369.1301976501465,343.1490884897232,369.1301976501465Q334.14498848972323,369.1301976501465,325.8473884897232,365.1503976501465Q322.0239884897232,363.3165976501465,317.73238848972323,360.3916976501465Q314.0384884897232,357.87419765014647,309.19136848972323,353.9809976501465Q296.9000284897232,344.1086976501465,302.79513848972323,336.20259765014646Z" fill="#FFDACC" fill-opacity="1"/></g><g style="mix-blend-mode:passthrough"><path d="M300,342.7634311181641Q301.48174,348.91575111816405,305.92696,351.99187111816406Q308.89043,351.99187111816406,309.6313,349.68479111816407C310.3722,347.3776711181641,308.89043,342.7634311181641,304.44522,340.4563111181641Q302.09807,339.23811211816405,300.990252,339.9496031181641Q300,340.5855881181641,300,342.7634311181641Z" fill="#FFF4F0" fill-opacity="1"/></g><g style="mix-blend-mode:passthrough"><path d="M349.45765686035156,303.68907579345705Q350.15860186035155,311.20862579345703,358.56993686035156,312.575725793457C366.98125686035155,313.94292579345705,367.6822568603516,306.423445793457,366.28035686035156,305.05626579345704C364.87845686035155,303.68907579345705,362.77555686035157,300.27112579345703,357.1680468603516,300.27112579345703C351.56048686035155,300.27112579345703,349.45765686035156,302.32189579345703,349.45765686035156,303.68907579345705Z" fill="#FFF4F0" fill-opacity="1"/></g><g style="mix-blend-mode:passthrough"><path d="M336.9855600738525,349.04615650634764Q326.91085007385254,345.53705650634765,324.04555707385254,332.96244050634766L325.02056507385254,332.74027250634765Q327.76281007385256,344.77485650634765,337.31456007385253,348.10175650634767L336.9855600738525,349.04615650634764ZM337.65006007385256,348.57395650634766Q337.65006007385256,348.62315650634764,337.6404600738525,348.6714565063477Q337.63086007385255,348.71975650634766,337.6119600738525,348.76525650634767Q337.5931600738525,348.8107565063477,337.5657600738525,348.85175650634767Q337.53846007385255,348.89265650634763,337.50366007385253,348.92745650634765Q337.46876007385254,348.96235650634765,337.4278600738525,348.98965650634767Q337.3868600738525,349.01705650634767,337.3413600738525,349.03585650634767Q337.29586007385257,349.05475650634764,337.2475600738525,349.0643565063477Q337.19926007385254,349.07395650634766,337.15006007385256,349.07395650634766Q337.1008600738525,349.07395650634766,337.05256007385253,349.0643565063477Q337.00426007385255,349.05475650634764,336.95876007385255,349.03585650634767Q336.91326007385254,349.01705650634767,336.87226007385254,348.98965650634767Q336.8313600738525,348.96235650634765,336.79646007385253,348.92745650634765Q336.76166007385257,348.89265650634763,336.73436007385254,348.85175650634767Q336.70696007385254,348.8107565063477,336.68816007385254,348.76525650634767Q336.6692600738525,348.71975650634766,336.65966007385254,348.6714565063477Q336.65006007385256,348.62315650634764,336.65006007385256,348.57395650634766Q336.65006007385256,348.52465650634764,336.65966007385254,348.47635650634766Q336.6692600738525,348.4280565063477,336.68816007385254,348.38255650634767Q336.70696007385254,348.33705650634766,336.73436007385254,348.29615650634764Q336.76166007385257,348.2552565063477,336.79646007385253,348.2203565063477Q336.8313600738525,348.18555650634767,336.87226007385254,348.15825650634764Q336.91326007385254,348.13085650634764,336.95876007385255,348.11195650634767Q337.00426007385255,348.09315650634767,337.05256007385253,348.08355650634763Q337.1008600738525,348.07395650634766,337.15006007385256,348.07395650634766Q337.19926007385254,348.07395650634766,337.2475600738525,348.08355650634763Q337.29586007385257,348.09315650634767,337.3413600738525,348.11195650634767Q337.3868600738525,348.13085650634764,337.4278600738525,348.15825650634764Q337.46876007385254,348.18555650634767,337.50366007385253,348.2203565063477Q337.53846007385255,348.2552565063477,337.5657600738525,348.29615650634764Q337.5931600738525,348.33705650634766,337.6119600738525,348.38255650634767Q337.63086007385255,348.4280565063477,337.6404600738525,348.47635650634766Q337.65006007385256,348.52465650634764,337.65006007385256,348.57395650634766ZM325.03306007385254,332.85135650634766Q325.03306007385254,332.9006022063476,325.0234530738525,332.94890160634765Q325.01384507385256,332.99720150634766,324.99500007385257,333.0426985063477Q324.9761540738525,333.08819550634763,324.9487950738525,333.12914150634765Q324.92143507385254,333.17008750634767,324.8866130738525,333.20490950634763Q324.85179107385255,333.23973150634765,324.81084507385253,333.26709150634764Q324.7698990738525,333.29445050634763,324.72440207385256,333.3132965063477Q324.67890507385255,333.3321415063477,324.63060517385253,333.34174950634764Q324.5823057738525,333.35135650634766,324.53306007385254,333.35135650634766Q324.48381437385257,333.35135650634766,324.43551497385255,333.34174950634764Q324.38721507385253,333.3321415063477,324.3417180738525,333.3132965063477Q324.29622107385256,333.29445050634763,324.25527507385254,333.26709150634764Q324.2143290738525,333.23973150634765,324.17950707385256,333.20490950634763Q324.14468507385254,333.17008750634767,324.11732507385256,333.12914150634765Q324.08996607385257,333.08819550634763,324.0711200738525,333.0426985063477Q324.0522750738525,332.99720150634766,324.04266707385256,332.94890160634765Q324.03306007385254,332.9006022063476,324.03306007385254,332.85135650634766Q324.03306007385254,332.8021108063477,324.04266707385256,332.75381140634767Q324.0522750738525,332.70551150634765,324.0711200738525,332.66001450634764Q324.08996607385257,332.6145175063477,324.11732507385256,332.57357150634766Q324.14468507385254,332.53262550634764,324.17950707385256,332.4978035063477Q324.2143290738525,332.46298150634766,324.25527507385254,332.4356215063477Q324.29622107385256,332.4082625063477,324.3417180738525,332.38941650634763Q324.38721507385253,332.37057150634763,324.43551497385255,332.3609635063477Q324.48381437385257,332.35135650634766,324.53306007385254,332.35135650634766Q324.5823057738525,332.35135650634766,324.63060517385253,332.3609635063477Q324.67890507385255,332.37057150634763,324.72440207385256,332.38941650634763Q324.7698990738525,332.4082625063477,324.81084507385253,332.4356215063477Q324.85179107385255,332.46298150634766,324.8866130738525,332.4978035063477Q324.92143507385254,332.53262550634764,324.9487950738525,332.57357150634766Q324.9761540738525,332.6145175063477,324.99500007385257,332.66001450634764Q325.01384507385256,332.70551150634765,325.0234530738525,332.75381140634767Q325.03306007385254,332.8021108063477,325.03306007385254,332.85135650634766Z" fill="#FFDACC" fill-opacity="1"/></g><g style="mix-blend-mode:passthrough"><path d="M342.53847276000977,349.70697111816406Q338.15325276000976,347.56864111816407,335.27968076000974,339.86195711816407L336.2166657600098,339.51258511816405Q338.95065276000975,346.84492111816405,342.97676276000976,348.80813111816406L342.53847276000977,349.70697111816406ZM343.2576227600098,349.25754111816406Q343.2576227600098,349.3067911181641,343.2480127600098,349.35509111816407Q343.23840276000976,349.40339111816405,343.2195527600098,349.4488811181641Q343.20071276000976,349.4943811181641,343.1733527600098,349.53533111816404Q343.1459927600098,349.5762711181641,343.11117276000977,349.6111011181641Q343.07635276000974,349.64592111816404,343.0354027600098,349.6732811181641Q342.9944527600098,349.70067111816405,342.94896276000975,349.71947111816405Q342.90346276000975,349.7383711181641,342.85516276000976,349.74797111816406Q342.8068627600098,349.75757111816404,342.7576227600098,349.75757111816404Q342.70837276000975,349.75757111816404,342.66007276000977,349.74797111816406Q342.6117727600098,349.7383711181641,342.5662727600098,349.71947111816405Q342.52078276000975,349.70067111816405,342.47983276000974,349.6732811181641Q342.4388827600098,349.64592111816404,342.40406276000977,349.6111011181641Q342.36924276000974,349.5762711181641,342.34188276000975,349.53533111816404Q342.31452276000977,349.4943811181641,342.2956727600098,349.4488811181641Q342.27683276000977,349.40339111816405,342.26722276000976,349.35509111816407Q342.2576227600098,349.3067911181641,342.2576227600098,349.25754111816406Q342.2576227600098,349.20830111816406,342.26722276000976,349.1600011181641Q342.27683276000977,349.11170111816404,342.2956727600098,349.0662011181641Q342.31452276000977,349.0207011181641,342.34188276000975,348.97976111816405Q342.36924276000974,348.93881111816404,342.40406276000977,348.9039911181641Q342.4388827600098,348.86917111816405,342.47983276000974,348.84181111816406Q342.52078276000975,348.8144511181641,342.5662727600098,348.7956011181641Q342.6117727600098,348.7767611181641,342.66007276000977,348.76715111816407Q342.70837276000975,348.75754111816406,342.7576227600098,348.75754111816406Q342.8068627600098,348.75754111816406,342.85516276000976,348.76715111816407Q342.90346276000975,348.7767611181641,342.94896276000975,348.7956011181641Q342.9944527600098,348.8144511181641,343.0354027600098,348.84181111816406Q343.07635276000974,348.86917111816405,343.11117276000977,348.9039911181641Q343.1459927600098,348.93881111816404,343.1733527600098,348.97976111816405Q343.20071276000976,349.0207011181641,343.2195527600098,349.0662011181641Q343.23840276000976,349.11170111816404,343.2480127600098,349.1600011181641Q343.2576227600098,349.20830111816406,343.2576227600098,349.25754111816406ZM336.24817276000977,339.68727111816406Q336.24817276000977,339.73651681816403,336.23856576000975,339.78481621816405Q336.2289577600098,339.83311611816407,336.2101127600098,339.8786131181641Q336.19126676000974,339.92411011816404,336.16390776000975,339.96505611816406Q336.13654776000976,340.0060021181641,336.10172576000974,340.04082411816404Q336.0669037600098,340.07564611816406,336.02595776000976,340.10300611816405Q335.98501176000974,340.13036511816404,335.9395147600098,340.1492111181641Q335.8940177600098,340.1680561181641,335.84571786000976,340.17766411816405Q335.79741846000974,340.18727111816406,335.74817276000977,340.18727111816406Q335.6989270600098,340.18727111816406,335.6506276600098,340.17766411816405Q335.60232776000976,340.1680561181641,335.55683076000975,340.1492111181641Q335.5113337600098,340.13036511816404,335.47038776000977,340.10300611816405Q335.42944176000975,340.07564611816406,335.3946197600098,340.04082411816404Q335.35979776000977,340.0060021181641,335.3324377600098,339.96505611816406Q335.3050787600098,339.92411011816404,335.28623276000974,339.8786131181641Q335.26738776000974,339.83311611816407,335.2577797600098,339.78481621816405Q335.24817276000977,339.73651681816403,335.24817276000977,339.68727111816406Q335.24817276000977,339.6380254181641,335.2577797600098,339.5897260181641Q335.26738776000974,339.54142611816405,335.28623276000974,339.49592911816404Q335.3050787600098,339.4504321181641,335.3324377600098,339.40948611816407Q335.35979776000977,339.36854011816405,335.3946197600098,339.3337181181641Q335.42944176000975,339.29889611816407,335.47038776000977,339.2715361181641Q335.5113337600098,339.2441771181641,335.55683076000975,339.22533111816404Q335.60232776000976,339.20648611816404,335.6506276600098,339.1968781181641Q335.6989270600098,339.18727111816406,335.74817276000977,339.18727111816406Q335.79741846000974,339.18727111816406,335.84571786000976,339.1968781181641Q335.8940177600098,339.20648611816404,335.9395147600098,339.22533111816404Q335.98501176000974,339.2441771181641,336.02595776000976,339.2715361181641Q336.0669037600098,339.29889611816407,336.10172576000974,339.3337181181641Q336.13654776000976,339.36854011816405,336.16390776000975,339.40948611816407Q336.19126676000974,339.4504321181641,336.2101127600098,339.49592911816404Q336.2289577600098,339.54142611816405,336.23856576000975,339.5897260181641Q336.24817276000977,339.6380254181641,336.24817276000977,339.68727111816406Z" fill="#FFDACC" fill-opacity="1"/></g><g style="mix-blend-mode:passthrough"><path d="M344.8874677856445,350.44041762695315Q336.0370677856445,350.9199176269531,330.68326778564455,349.1337176269531Q328.2843677856445,348.33331762695315,326.2513677856445,346.99411762695314Q324.5579677856445,345.8786976269531,322.78206778564453,344.1467776269531Q318.6465177856445,340.1136176269531,310.32593878564455,336.7325346269531L310.7023967856445,335.80610062695314Q319.20445778564454,339.2609276269531,323.4802677856445,343.4308676269531Q325.18776778564455,345.0961176269531,326.8013677856445,346.15903762695314Q328.7250677856445,347.4261176269531,330.9997677856445,348.1851176269531Q336.17306778564455,349.9111176269531,344.83336778564455,349.4419176269531L344.8874677856445,350.44041762695315ZM345.3604677856445,349.94111762695314Q345.3604677856445,349.9904176269531,345.35086778564454,350.03871762695314Q345.3412677856445,350.0870176269531,345.32236778564453,350.13251762695313Q345.30356778564453,350.17801762695314,345.27616778564453,350.2189176269531Q345.2488677856445,350.2598176269531,345.2139677856445,350.2947176269531Q345.17916778564455,350.32951762695313,345.13826778564453,350.35691762695313Q345.09726778564453,350.3842176269531,345.05176778564453,350.40311762695313Q345.0062677856445,350.42191762695313,344.95796778564454,350.4315176269531Q344.9096677856445,350.44111762695314,344.8604677856445,350.44111762695314Q344.81116778564456,350.44111762695314,344.7628677856445,350.4315176269531Q344.71456778564453,350.42191762695313,344.66906778564453,350.40311762695313Q344.6235677856445,350.3842176269531,344.5826677856445,350.35691762695313Q344.54166778564456,350.32951762695313,344.50686778564454,350.2947176269531Q344.4720677856445,350.2598176269531,344.4446677856445,350.2189176269531Q344.4173677856445,350.17801762695314,344.3984677856445,350.13251762695313Q344.37966778564453,350.0870176269531,344.37006778564455,350.03871762695314Q344.3604677856445,349.9904176269531,344.3604677856445,349.94111762695314Q344.3604677856445,349.8919176269531,344.37006778564455,349.8436176269531Q344.37966778564453,349.79531762695314,344.3984677856445,349.74981762695313Q344.4173677856445,349.7043176269531,344.4446677856445,349.66331762695313Q344.4720677856445,349.6224176269531,344.50686778564454,349.58761762695315Q344.54166778564456,349.55271762695315,344.5826677856445,349.52541762695313Q344.6235677856445,349.49801762695313,344.66906778564453,349.47921762695313Q344.71456778564453,349.4603176269531,344.7628677856445,349.4507176269531Q344.81116778564456,349.44111762695314,344.8604677856445,349.44111762695314Q344.9096677856445,349.44111762695314,344.95796778564454,349.4507176269531Q345.0062677856445,349.4603176269531,345.05176778564453,349.47921762695313Q345.09726778564453,349.49801762695313,345.13826778564453,349.52541762695313Q345.17916778564455,349.55271762695315,345.2139677856445,349.58761762695315Q345.2488677856445,349.6224176269531,345.27616778564453,349.66331762695313Q345.30356778564453,349.7043176269531,345.32236778564453,349.74981762695313Q345.3412677856445,349.79531762695314,345.35086778564454,349.8436176269531Q345.3604677856445,349.8919176269531,345.3604677856445,349.94111762695314ZM311.01416778564453,336.2693176269531Q311.01416778564453,336.3185633269531,311.0045607856445,336.3668627269531Q310.99495278564456,336.41516262695313,310.97610778564456,336.46065962695315Q310.9572617856445,336.5061566269531,310.9299027856445,336.5471026269531Q310.9025427856445,336.58804862695314,310.8677207856445,336.6228706269531Q310.83289878564455,336.6576926269531,310.7919527856445,336.6850526269531Q310.7510067856445,336.7124116269531,310.70550978564455,336.73125762695315Q310.66001278564454,336.75010262695315,310.6117128856445,336.7597106269531Q310.5634134856445,336.7693176269531,310.51416778564453,336.7693176269531Q310.46492208564456,336.7693176269531,310.41662268564454,336.7597106269531Q310.3683227856445,336.75010262695315,310.3228257856445,336.73125762695315Q310.27732878564456,336.7124116269531,310.23638278564454,336.6850526269531Q310.1954367856445,336.6576926269531,310.16061478564455,336.6228706269531Q310.12579278564453,336.58804862695314,310.09843278564455,336.5471026269531Q310.07107378564456,336.5061566269531,310.0522277856445,336.46065962695315Q310.0333827856445,336.41516262695313,310.02377478564455,336.3668627269531Q310.01416778564453,336.3185633269531,310.01416778564453,336.2693176269531Q310.01416778564453,336.22007192695315,310.02377478564455,336.17177252695313Q310.0333827856445,336.1234726269531,310.0522277856445,336.0779756269531Q310.07107378564456,336.03247862695315,310.09843278564455,335.99153262695313Q310.12579278564453,335.9505866269531,310.16061478564455,335.91576462695315Q310.1954367856445,335.88094262695313,310.23638278564454,335.85358262695314Q310.27732878564456,335.82622362695315,310.3228257856445,335.8073776269531Q310.3683227856445,335.7885326269531,310.41662268564454,335.77892462695314Q310.46492208564456,335.7693176269531,310.51416778564453,335.7693176269531Q310.5634134856445,335.7693176269531,310.6117128856445,335.77892462695314Q310.66001278564454,335.7885326269531,310.70550978564455,335.8073776269531Q310.7510067856445,335.82622362695315,310.7919527856445,335.85358262695314Q310.83289878564455,335.88094262695313,310.8677207856445,335.91576462695315Q310.9025427856445,335.9505866269531,310.9299027856445,335.99153262695313Q310.9572617856445,336.03247862695315,310.97610778564456,336.0779756269531Q310.99495278564456,336.1234726269531,311.0045607856445,336.17177252695313Q311.01416778564453,336.22007192695315,311.01416778564453,336.2693176269531Z" fill="#FFDACC" fill-opacity="1"/></g><g style="mix-blend-mode:passthrough"><path d="M309.04466803778075,328.75258315453124C309.04432703778076,328.7552404945312,309.06384603778076,328.76045049453126,309.1015500377808,328.7706654945313Q309.10685003778076,328.76023869453127,309.11219403778074,328.74981689453125C309.0669020377808,328.74981689453125,309.04502403778076,328.74981689453125,309.04466803778075,328.75258315453124ZM309.1015500377808,328.7706654945313Q307.7155610377808,331.49720689453125,309.11185403778074,334.9021368945312Q312.61657403778077,336.9529068945312,316.82258403778076,339.00371689453124C313.76215403778076,330.04883689453123,309.63202403778075,328.9143858945312,309.1015500377808,328.7706654945313Z" fill="#FFF4F0" fill-opacity="1"/></g></g><g style="mix-blend-mode:passthrough"><g style="mix-blend-mode:passthrough" transform="matrix(0.9828988909721375,-0.18414592742919922,0.160514697432518,0.987033486366272,-27.812680328039733,33.74725009013855)"><rect x="169.7890625" y="191.36105346679688" width="165.11758422851562" height="59.84525680541992" rx="29.92262840270996" fill="#FFE4D9" fill-opacity="1"/></g><g style="mix-blend-mode:passthrough" transform="matrix(0.9828988909721375,-0.1841459572315216,0.160514697432518,0.987033486366272,-27.034968340778278,34.31323280139031)"><rect x="173.17832946777344" y="186.8770294189453" width="162.2464599609375" height="58.246360778808594" rx="29.123180389404297" fill="#FFF4F0" fill-opacity="1"/></g><g style="opacity:0.800000011920929;mix-blend-mode:passthrough" transform="matrix(0.9566587805747986,-0.29121121764183044,0.29121121764183044,0.9566587805747986,-43.871966936397996,75.90038298022671)" filter="url(#master_svg0_2200_08401)"><path d="M267.259734375,202.82556528015135L259.737034375,201.52366528015136L259.737034375,196.62756528015137C259.737034375,195.41246528015137,258.746934375,194.42871528015138,257.524034375,194.42871528015138L242.788424375,194.42871528015138C241.565524375,194.42871528015138,240.575424375,195.41246528015137,240.575424375,196.62756528015137L240.575424375,200.82786528015137L267.259734375,205.45866528015137L267.259734375,216.81626528015136C267.259734375,218.55726528015137,266.304734375,220.15656528015137,264.768334375,220.99206528015137L250.973434375,228.49116528015136C250.447934375,228.77626528015136,249.811334375,228.77626528015136,249.285834375,228.49016528015136L235.538444375,220.99396528015137C234.004828375,220.15746528015137,233.052734375,218.55916528015138,233.052734375,216.82106528015137L233.052734375,208.45816528015138L240.575424375,209.76006528015137L240.575424375,213.84046528015136C240.575424375,214.30116528015137,240.830074375,214.72136528015136,241.224404375,214.92996528015138L249.855934375,219.81856528015138C250.025134375,219.91486528015136,250.233234375,219.91576528015136,250.402334375,219.81946528015138L259.070934375,214.93656528015137C259.481434375,214.72226528015136,259.737034375,214.30116528015137,259.737034375,213.83956528015136L259.737034375,210.43976528015136L233.052734375,205.82316528015136L233.052734375,196.33106528015136C233.052734375,191.94477528015136,236.191224375,188.09282528015137,240.514604375,187.17231528015137L240.512704375,187.07885528015137L240.512704375,185.33886528015137L246.929334375,185.33886528015137L246.929334375,186.95423528015138L253.383134375,186.95423528015138L253.383134375,185.33886528015137L259.799734375,185.33886528015137L259.799734375,187.07885528015137L259.797834375,187.17231528015137C264.121234375,188.09282528015137,267.259734375,191.94477528015136,267.259734375,196.33106528015136L267.259734375,202.82556528015135Z" fill-rule="evenodd" fill="#FFFBFA" fill-opacity="1"/></g></g><g style="mix-blend-mode:passthrough"><g style="mix-blend-mode:passthrough" transform="matrix(0.9813832640647888,0.1920596957206726,-0.19205978512763977,0.9813832640647888,47.94179501810504,-18.093382360639225)"><g style="mix-blend-mode:passthrough" transform="matrix(1,1.368887003749819e-9,0,1,0,-1.605718580321991e-7)"><path d="M117.327899990625,298.1376775390625C117.313086690625,300.3572775390625,119.108235390625,302.1643775390625,121.327805390625,302.1643775390625L290.974025390625,302.1643775390625C291.909025390625,302.1643775390625,292.81402539062503,301.8370775390625,293.53302539062497,301.2391775390625L297.956025390625,297.5584775390625C299.020025390625,296.6731775390625,299.551025390625,295.3008775390625,299.359025390625,293.9300775390625L292.887025390625,247.6134175390625C292.618025390625,245.6863075390625,291.001025390625,244.2325575390625,289.056025390625,244.1691275390625L125.453925390625,238.8331915390625C124.349455390625,238.7971686390625,123.279285390625,239.2196685390625,122.497285390625,240.0004675390625L118.846535390625,243.6456075390625C118.101599390625,244.3893975390625,117.679898390625,245.3968575390625,117.672872390625,246.4495175390625L117.327899990625,298.1376775390625Z" fill="#FFE4D9" fill-opacity="1"/></g><g style="mix-blend-mode:passthrough"><rect x="122.40852403640747" y="238.2489013671875" width="177.25888061523438" height="59.096797943115234" rx="4" fill="#FFF4F0" fill-opacity="1"/></g></g><g style="mix-blend-mode:passthrough" transform="matrix(0.985605776309967,0.16905972361564636,-0.16905970871448517,0.985605776309967,46.89939245659389,-26.96755334458794)" filter="url(#master_svg1_2200_08407)"><g style="mix-blend-mode:passthrough"><rect x="181.816650390625" y="261.93280029296875" width="47.13223648071289" height="36.884803771972656" rx="4" fill="#FFFBFA" fill-opacity="1"/></g><g transform="matrix(0.999940037727356,0,-0.0000015002326563262613,0.999940037727356,0.012387023109766915,0.01642488740014869)"><path d="M211.980500100708,280.37482151885985C211.980500100708,280.6896715188599,211.895500100708,281.00452151885986,211.640200100708,281.16195151885984C211.470000100708,281.31937151885984,207.13014010070802,284.62536151885985,201.513890100708,286.75056151885985C201.428800100708,286.8292615188599,201.258610100708,286.8292615188599,201.08842010070802,286.8292615188599C200.918230100708,286.8292615188599,200.748040100708,286.75056151885985,200.577848100708,286.6718615188599C200.237469100708,286.5144615188599,200.06727910070802,286.27826151885984,199.982185100708,285.8847615188599C199.982185100708,285.8059615188599,199.726900100708,283.20848151885986,199.726900100708,280.3748115188599C199.726900100708,277.54115151885986,199.982185100708,275.0223415188599,199.982185100708,274.86491651885984C200.06728010070802,274.5500635188599,200.237469100708,274.3139255188599,200.577848100708,274.07778751885985C200.748040100708,273.99907621885984,200.918230100708,273.92036151885986,201.08842010070802,273.92036151885986C201.258610100708,273.92036151885986,201.428800100708,273.99907321885985,201.513890100708,274.07778751885985C207.13015010070802,276.12432151885986,211.470000100708,279.5089715188599,211.640200100708,279.66640151885986C211.895500100708,279.82382151885986,211.980500100708,280.13867151885984,211.980500100708,280.37482151885985Z" fill="#FFE5DA" fill-opacity="1"/></g><g style="mix-blend-mode:passthrough" transform="matrix(0,-1,1,0,-77.40987396240234,520.2253341674805)"><path d="M252.45163010253907,321.1299040649414Q252.51573010253907,321.2434040649414,252.57233010253907,321.3608040649414Q252.62893010253907,321.4782040649414,252.67773010253907,321.5991040649414Q252.72653010253907,321.7200040649414,252.76733010253906,321.8438040649414Q252.80823010253906,321.9676040649414,252.84093010253906,322.0937040649414Q252.87363010253907,322.21990406494143,252.89803010253905,322.3480040649414Q252.92243010253907,322.47600406494143,252.93843010253906,322.6054040649414Q252.95443010253905,322.7348040649414,252.96203010253907,322.8649040649414Q252.96953010253907,322.9950040649414,252.96863010253907,323.1254040649414Q252.96773010253906,323.2557040649414,252.95833010253907,323.3857040649414Q252.94893010253907,323.5158040649414,252.93103010253907,323.6449040649414Q252.91313010253907,323.7740040649414,252.88693010253905,323.9017040649414Q252.86073010253907,324.0294040649414,252.82623010253906,324.1551040649414Q252.79173010253908,324.28080406494144,252.74913010253906,324.40400406494143Q252.70653010253906,324.52720406494143,252.65603010253906,324.6474040649414Q252.60553010253906,324.7675040649414,252.54723010253906,324.8841040649414Q252.48903010253906,325.0008040649414,252.42333010253907,325.1133040649414Q252.35763010253908,325.2259040649414,252.28473010253907,325.3340040649414Q252.21183010253907,325.4420040649414,252.13203010253906,325.5451040649414Q252.05223010253906,325.6482040649414,251.96593010253906,325.7459040649414Q251.87963010253907,325.8436040649414,251.78713010253907,325.9354040649414Q251.69463010253907,326.02720406494143,251.59633010253907,326.1129040649414Q251.49803010253908,326.1985040649414,251.39433010253907,326.2776040649414Q251.29073010253907,326.3566040649414,251.18213010253908,326.4287040649414Q251.07353010253905,326.5009040649414,250.96053010253905,326.5658040649414Q250.84743010253905,326.6307040649414,250.73043010253906,326.6881040649414Q250.61343010253907,326.74550406494143,250.49293010253905,326.7952040649414Q250.37233010253905,326.8448040649414,250.24883010253907,326.8866040649414Q250.12543010253907,326.9283040649414,249.99943010253907,326.9619040649414Q249.87343010253906,326.99550406494143,249.74563010253905,327.0208040649414Q249.61773010253907,327.0461040649414,249.48853010253907,327.0630040649414Q249.35923010253907,327.0800040649414,249.22913010253907,327.0884040649414Q249.09913010253905,327.0969040649414,248.96873010253907,327.0969040649414L230.73153010253907,327.0969040649414Q230.60117010253907,327.0969040649414,230.47110010253905,327.0884040649414Q230.34102010253906,327.0800040649414,230.21177010253905,327.0630040649414Q230.08252010253906,327.0461040649414,229.95465010253906,327.0208040649414Q229.82678010253906,326.99550406494143,229.70083010253907,326.9619040649414Q229.57488010253905,326.9283040649414,229.45138010253908,326.8866040649414Q229.32788010253907,326.8448040649414,229.20736010253907,326.7952040649414Q229.08684010253907,326.74550406494143,228.96981010253907,326.6881040649414Q228.85279010253907,326.6307040649414,228.73974010253906,326.5658040649414Q228.62670010253908,326.5009040649414,228.51812010253906,326.4287040649414Q228.40954010253907,326.3566040649414,228.30589010253905,326.2775040649414Q228.20224010253906,326.1985040649414,228.10396010253908,326.1129040649414Q228.00567010253906,326.02720406494143,227.91317010253906,325.9354040649414Q227.82067010253905,325.8436040649414,227.73435010253905,325.7459040649414Q227.64802010253905,325.6482040649414,227.56824010253905,325.5451040649414Q227.48846010253905,325.4420040649414,227.41556010253908,325.3340040649414Q227.34266010253907,325.2259040649414,227.27695010253908,325.1133040649414Q227.21123010253905,325.0008040649414,227.15299010253906,324.8841040649414Q227.09475010253905,324.7675040649414,227.04422010253907,324.6474040649414Q226.99370010253907,324.52720406494143,226.95110010253907,324.40400406494143Q226.90851010253905,324.28080406494144,226.87403010253905,324.1551040649414Q226.83954010253908,324.0294040649414,226.81332010253905,323.9017040649414Q226.78709010253905,323.7740040649414,226.76923010253907,323.6449040649414Q226.75138010253906,323.5158040649414,226.74197010253906,323.3857040649414Q226.73256010253905,323.2557040649414,226.73163010253907,323.1254040649414Q226.73070010253906,322.9950040649414,226.73826010253907,322.8649040649414Q226.74583010253906,322.7348040649414,226.76184010253905,322.6054040649414Q226.77786010253905,322.47600406494143,226.80227010253907,322.3480040649414Q226.82668010253906,322.21990406494143,226.85937010253906,322.0937040649414Q226.89206010253906,321.9676040649414,226.93290010253907,321.8438040649414Q226.97374010253907,321.7200040649414,227.02255010253907,321.5991040649414Q227.07136010253907,321.4782040649414,227.12794010253907,321.3608040649414Q227.18452010253907,321.2434040649414,227.24862010253906,321.1299040649414L236.36723010253905,304.9844440649414Q236.43223010253905,304.8693940649414,236.50463010253907,304.7588840649414Q236.57703010253906,304.6483640649414,236.65663010253905,304.54287406494143Q236.73623010253905,304.4373840649414,236.82253010253908,304.3373740649414Q236.90893010253907,304.2373640649414,237.00163010253905,304.1432740649414Q237.09443010253906,304.0491740649414,237.19323010253908,303.9614140649414Q237.29193010253906,303.8736440649414,237.39633010253905,303.7925840649414Q237.50063010253905,303.7115340649414,237.61013010253907,303.6375340649414Q237.71963010253907,303.5635440649414,237.83373010253905,303.4969340649414Q237.94783010253906,303.43032406494143,238.06613010253906,303.3713940649414Q238.18433010253906,303.3124640649414,238.30623010253908,303.2614640649414Q238.42813010253906,303.2104640649414,238.55313010253906,303.1676240649414Q238.67813010253906,303.1247840649414,238.80573010253906,303.0902740649414Q238.93323010253906,303.05577406494143,239.06283010253907,303.0297740649414Q239.19233010253907,303.0037640649414,239.32333010253907,302.9863640649414Q239.45433010253907,302.9689540649414,239.58613010253907,302.9602340649414Q239.71803010253907,302.9515140649414,239.85013010253905,302.9515140649414Q239.98223010253906,302.9515140649414,240.11413010253906,302.9602340649414Q240.24593010253906,302.9689540649414,240.37693010253906,302.9863640649414Q240.50793010253906,303.0037640649414,240.63743010253907,303.0297740649414Q240.76703010253905,303.05577406494143,240.89453010253905,303.0902840649414Q241.02213010253905,303.1247840649414,241.14713010253905,303.1676240649414Q241.27213010253905,303.2104640649414,241.39403010253906,303.2614640649414Q241.51593010253907,303.3124640649414,241.63413010253907,303.3713940649414Q241.75243010253905,303.43032406494143,241.86653010253906,303.4969340649414Q241.98063010253907,303.5635440649414,242.09013010253906,303.6375340649414Q242.19963010253906,303.7115340649414,242.30393010253906,303.7925840649414Q242.40833010253905,303.8736440649414,242.50703010253906,303.9614140649414Q242.60583010253907,304.0491740649414,242.69863010253906,304.1432740649414Q242.79133010253906,304.2373640649414,242.87773010253906,304.3373740649414Q242.96403010253906,304.4373840649414,243.04363010253905,304.54287406494143Q243.12323010253905,304.6483640649414,243.19563010253907,304.7588840649414Q243.26803010253906,304.8693940649414,243.33303010253906,304.9844440649414L252.45163010253907,321.1299040649414Z" fill="#FFFBFA" fill-opacity="1"/></g></g></g><g style="mix-blend-mode:passthrough"><g style="mix-blend-mode:passthrough"><g style="mix-blend-mode:passthrough" transform="matrix(0.9661034941673279,0.25815507769584656,-0.05255165323615074,0.9986295104026794,9.083965254130959,-31.043786809325056)"><path d="M253.698639957428,119.36692261810303C253.698639957428,132.841922618103,224.010639957428,144.97112261810304,187.29933995742797,144.97112261810304C150.58843995742797,144.97112261810304,120.75663995742798,132.841922618103,120.75663995742798,119.36692261810303C120.75663995742798,105.89192261810302,150.51673995742797,94.96822261810303,187.22773995742799,94.96822261810303C223.938639957428,94.96822261810303,253.698639957428,105.89192261810302,253.698639957428,119.36692261810303Z" fill="#FFE4D9" fill-opacity="1"/></g><g style="mix-blend-mode:passthrough"><path d="M119.35275650024414,121.22935539550781L128.34493650024413,129.5562553955078L128.98723650024414,108.41865539550781L121.27965650024414,108.41865539550781L119.35275650024414,121.22935539550781Z" fill="#FFE4D9" fill-opacity="1"/></g><g style="mix-blend-mode:passthrough" transform="matrix(-1,0,0,1,501.0546875,0)"><path d="M250.52734375,144.28850173950195L252.91992375,153.67307173950195L262.55464375,162.00000173950195L258.23492375,144.28850173950195L250.52734375,144.28850173950195Z" fill="#FFE4D9" fill-opacity="1"/></g><g style="mix-blend-mode:passthrough" transform="matrix(1,0.24932800233364105,-0.052407778799533844,1,4.507068976759911,-30.445473547130092)"><path d="M252.41712506484984,111.6003C252.41712506484984,125.739,223.32012506484983,138.4649,187.33662506484984,138.4649C151.35322506484985,138.4649,122.11012506484985,125.739,122.11012506484985,111.6003C122.11012506484985,97.46170000000001,151.28042506484985,86,187.26382506484987,86C223.24712506484985,86,252.41712506484984,97.46170000000001,252.41712506484984,111.6003Z" fill="#FFF4F0" fill-opacity="1"/></g></g><g style="opacity:0.800000011920929;mix-blend-mode:passthrough" transform="matrix(0.7700690627098083,-0.7779603004455566,1.262894630432129,0.5810784697532654,-121.55637661118817,162.36883291425784)"><path d="M156.873046875,123.15718066113281L159.923846875,122.26460266113281L170.873046875,147.43090266113282L170.870246875,147.43000266113282L160.075146875,153.44620266113282L156.872046875,154.4605026611328L147.797976875,149.9030026611328L156.873046875,157.3677026611328L170.873046875,149.47300266113282L173.82814687500002,148.6250026611328L160.01564687500002,169.7167026611328L156.873046875,171.15720266113283L142.873046875,149.47300266113282L145.422366875,148.7098026611328L142.874806135,147.43030266113283L142.873046875,147.43090266113282L142.873692451,147.4297026611328L142.872070312,147.4289026611328L142.874952175,147.42750266113282L156.873046875,123.15718066113281Z" fill-rule="evenodd" fill="#FFE4D9" fill-opacity="1"/></g><g style="mix-blend-mode:passthrough" transform="matrix(0.7700690627098083,-0.7779603004455566,1.262894630432129,0.5810784697532654,-117.93317346034746,162.98387207864562)"><path d="M159,151.08818269042968L145,144.05658269042968L159,119.78288269042969L173,144.05658269042968L159,151.08818269042968ZM145,146.09868269042968L159,153.99338269042968L173,146.09868269042968L159,167.7828826904297L145,146.09868269042968Z" fill-rule="evenodd" fill="#FFFBFA" fill-opacity="1"/></g></g></g></svg>