<svg xmlns="http://www.w3.org/2000/svg" xmlns:xlink="http://www.w3.org/1999/xlink" fill="none" version="1.1" width="132" height="45.00000762939453" viewBox="0 0 132 45.00000762939453"><g style="mix-blend-mode:passthrough"><g><g style="mix-blend-mode:passthrough"><g><g style="mix-blend-mode:passthrough"><rect x="4.2451171875" y="1.7307695150375366" width="40.75471496582031" height="41.53845977783203" rx="0" fill="#D8D8D8" fill-opacity="0"/></g><g style="mix-blend-mode:passthrough"><ellipse cx="22.07547378540039" cy="22.500003814697266" rx="22.07547378540039" ry="22.500003814697266" fill="#1796FF" fill-opacity="1"/></g><g style="mix-blend-mode:passthrough"><g><g style="mix-blend-mode:passthrough"><rect x="9.510566234588623" y="15.212421417236328" width="25.129813194274902" height="17.34461498260498" rx="1.7000000476837158" fill-opacity="0" stroke-opacity="1" stroke="#FFFFFF" stroke-width="2.0399999618530273" fill="none" stroke-dasharray=""/></g><g style="mix-blend-mode:passthrough"><path d="M28.93355156616211,20.42307758331299C27.021791566162108,20.42307758331299,25.47201156616211,21.972857583312987,25.47201156616211,23.884617583312988C25.47201156616211,25.79636758331299,27.021791566162108,27.346157583312987,28.93355156616211,27.346157583312987L35.66071156616211,27.346157583312987L35.66071156616211,20.42307758331299L28.93355156616211,20.42307758331299ZM28.93355156616211,22.463077583312987L33.62069156616211,22.463077583312987L33.62069156616211,25.306157583312988L28.93355156616211,25.306157583312988Q28.34473156616211,25.306157583312988,27.92837156616211,24.889797583312987Q27.51201156616211,24.47343758331299,27.51201156616211,23.884617583312988Q27.51201156616211,23.29579758331299,27.92837156616211,22.87943758331299Q28.34473156616211,22.463077583312987,28.93355156616211,22.463077583312987Z" fill-rule="evenodd" fill="#FFFFFF" fill-opacity="1"/></g><g style="mix-blend-mode:passthrough"><path d="M23.22906156616211,15.747256136550902L18.03007156616211,12.466966136550903Q17.50618156616211,12.136416136550903,16.89244156616211,12.220406136550903Q16.27871156616211,12.304386136550903,15.862881566162109,12.763536136550904L13.32178956616211,15.569326136550902L11.809733566162109,14.199906136550904L14.350821566162109,11.394126136550904Q15.26565156616211,10.384006544550903,16.61587156616211,10.199240136550904Q17.96608156616211,10.014473136550903,19.118651566162107,10.741684136550903L24.31756156616211,14.021976136550904L23.22906156616211,15.747256136550902ZM24.79326156616211,14.884616136550903Q24.79326156616211,14.985076136550903,24.77366156616211,15.083606136550904Q24.754061566162108,15.182136136550902,24.71566156616211,15.274956136550903Q24.67726156616211,15.367766136550904,24.621361566162108,15.451296136550903Q24.56556156616211,15.534826136550905,24.494561566162112,15.605866136550905Q24.423561566162107,15.676896136550903,24.33996156616211,15.732716136550902Q24.25646156616211,15.788526136550903,24.16366156616211,15.826976136550904Q24.070861566162108,15.865416136550904,23.97226156616211,15.885016136550902Q23.87376156616211,15.904616136550903,23.77326156616211,15.904616136550903Q23.672861566162112,15.904616136550903,23.57436156616211,15.885016136550902Q23.47576156616211,15.865416136550904,23.38296156616211,15.826976136550904Q23.29016156616211,15.788526136550903,23.20666156616211,15.732716136550902Q23.123061566162107,15.676896136550903,23.05206156616211,15.605866136550905Q22.98106156616211,15.534826136550905,22.92516156616211,15.451296136550903Q22.86936156616211,15.367766136550904,22.83096156616211,15.274956136550903Q22.79246156616211,15.182136136550902,22.77286156616211,15.083606136550904Q22.75326156616211,14.985076136550903,22.75326156616211,14.884616136550903Q22.75326156616211,14.784156136550903,22.77286156616211,14.685626136550903Q22.79246156616211,14.587096136550905,22.83096156616211,14.494276136550903Q22.86936156616211,14.401466136550903,22.92516156616211,14.317936136550903Q22.98106156616211,14.234406136550904,23.05206156616211,14.163366136550904Q23.123061566162107,14.092326136550904,23.20666156616211,14.036516136550903Q23.29016156616211,13.980706136550904,23.38296156616211,13.942256136550903Q23.47576156616211,13.903816136550903,23.57436156616211,13.884216136550904Q23.672861566162112,13.864616136550904,23.77326156616211,13.864616136550904Q23.87376156616211,13.864616136550904,23.97226156616211,13.884216136550904Q24.070861566162108,13.903816136550903,24.16366156616211,13.942256136550903Q24.25646156616211,13.980706136550904,24.33996156616211,14.036516136550903Q24.423561566162107,14.092326136550904,24.494561566162112,14.163366136550904Q24.56556156616211,14.234406136550904,24.621361566162108,14.317936136550903Q24.67726156616211,14.401466136550903,24.71566156616211,14.494276136550903Q24.754061566162108,14.587096136550905,24.77366156616211,14.685626136550903Q24.79326156616211,14.784156136550903,24.79326156616211,14.884616136550903ZM13.585761566162109,14.884616136550903Q13.585761566162109,14.985076136550903,13.566161566162108,15.083606136550904Q13.54656356616211,15.182136136550902,13.508118566162109,15.274956136550903Q13.46967356616211,15.367766136550904,13.413860566162109,15.451296136550903Q13.35804756616211,15.534826136550905,13.28701056616211,15.605866136550905Q13.21597356616211,15.676896136550903,13.13244356616211,15.732716136550902Q13.048912566162109,15.788526136550903,12.95609856616211,15.826976136550904Q12.86328456616211,15.865416136550904,12.76475356616211,15.885016136550902Q12.666222566162109,15.904616136550903,12.56576156616211,15.904616136550903Q12.46530056616211,15.904616136550903,12.366769566162109,15.885016136550902Q12.26823856616211,15.865416136550904,12.175424566162109,15.826976136550904Q12.08261056616211,15.788526136550903,11.99907956616211,15.732716136550902Q11.91554956616211,15.676896136550903,11.84451256616211,15.605866136550905Q11.773475566162109,15.534826136550905,11.71766256616211,15.451296136550903Q11.66184956616211,15.367766136550904,11.62340456616211,15.274956136550903Q11.584959566162109,15.182136136550902,11.56536156616211,15.083606136550904Q11.54576156616211,14.985076136550903,11.54576156616211,14.884616136550903Q11.54576156616211,14.784156136550903,11.56536156616211,14.685626136550903Q11.584959566162109,14.587096136550905,11.62340456616211,14.494276136550903Q11.66184956616211,14.401466136550903,11.71766256616211,14.317936136550903Q11.773475566162109,14.234406136550904,11.84451256616211,14.163366136550904Q11.91554956616211,14.092326136550904,11.99907956616211,14.036516136550903Q12.08261056616211,13.980706136550904,12.175424566162109,13.942256136550903Q12.26823856616211,13.903816136550903,12.366769566162109,13.884216136550904Q12.46530056616211,13.864616136550904,12.56576156616211,13.864616136550904Q12.666222566162109,13.864616136550904,12.76475356616211,13.884216136550904Q12.86328456616211,13.903816136550903,12.95609856616211,13.942256136550903Q13.048912566162109,13.980706136550904,13.13244356616211,14.036516136550903Q13.21597356616211,14.092326136550904,13.28701056616211,14.163366136550904Q13.35804756616211,14.234406136550904,13.413860566162109,14.317936136550903Q13.46967356616211,14.401466136550903,13.508118566162109,14.494276136550903Q13.54656356616211,14.587096136550905,13.566161566162108,14.685626136550903Q13.585761566162109,14.784156136550903,13.585761566162109,14.884616136550903Z" fill="#FFFFFF" fill-opacity="1" fill-rule="evenodd"/></g><g style="mix-blend-mode:passthrough"><path d="M30.317569400024414,15.718026740722657L23.377269400024414,10.820786740722657Q22.866529400024415,10.460406740722656,22.243989400024414,10.516716740722657Q21.621449400024414,10.573036740722657,21.183679400024413,11.019226740722656L19.746954400024414,12.483576740722656L18.290784400024414,11.054886740722656L19.727507400024415,9.590531740722657Q20.690609400024414,8.608911640722656,22.060199400024413,8.485015740722655Q23.429789400024415,8.361118740722656,24.553419400024413,9.153970740722656L31.493769400024412,14.051206740722655L30.317569400024414,15.718026740722657ZM31.925669400024415,14.884616740722656Q31.925669400024415,14.985076740722656,31.906069400024414,15.083606740722656Q31.886469400024414,15.182136740722656,31.847969400024414,15.274956740722656Q31.809569400024415,15.367766740722656,31.753769400024414,15.451296740722658Q31.697969400024412,15.534826740722657,31.626869400024415,15.605866740722657Q31.555869400024413,15.676906740722657,31.472369400024412,15.732716740722656Q31.388769400024415,15.788526740722656,31.295969400024415,15.826976740722657Q31.203169400024414,15.865416740722656,31.104669400024413,15.885016740722655Q31.00616940002441,15.904616740722656,30.905669400024415,15.904616740722656Q30.805169400024415,15.904616740722656,30.706669400024413,15.885016740722655Q30.608169400024416,15.865416740722656,30.51536940002441,15.826976740722657Q30.422469400024415,15.788526740722656,30.338969400024414,15.732716740722656Q30.255469400024413,15.676906740722657,30.184369400024416,15.605866740722657Q30.113369400024414,15.534826740722657,30.057569400024413,15.451296740722658Q30.001769400024415,15.367766740722656,29.963269400024416,15.274956740722656Q29.924869400024413,15.182136740722656,29.905269400024416,15.083606740722656Q29.885669400024412,14.985076740722656,29.885669400024412,14.884616740722656Q29.885669400024412,14.784156740722656,29.905269400024416,14.685626740722658Q29.924869400024413,14.587096740722657,29.963269400024416,14.494276740722656Q30.001769400024415,14.401466740722658,30.057569400024413,14.317936740722656Q30.113369400024414,14.234406740722656,30.184369400024416,14.163366740722656Q30.255469400024413,14.092326740722656,30.338969400024414,14.036516740722657Q30.422469400024415,13.980706740722656,30.51536940002441,13.942256740722655Q30.608169400024416,13.903816740722657,30.706669400024413,13.884216740722657Q30.805169400024415,13.864616740722656,30.905669400024415,13.864616740722656Q31.00616940002441,13.864616740722656,31.104669400024413,13.884216740722657Q31.203169400024414,13.903816740722657,31.295969400024415,13.942256740722655Q31.388769400024415,13.980706740722656,31.472369400024412,14.036516740722657Q31.555869400024413,14.092326740722656,31.626869400024415,14.163366740722656Q31.697969400024412,14.234406740722656,31.753769400024414,14.317936740722656Q31.809569400024415,14.401466740722658,31.847969400024414,14.494276740722656Q31.886469400024414,14.587096740722657,31.906069400024414,14.685626740722658Q31.925669400024415,14.784156740722656,31.925669400024415,14.884616740722656ZM20.038869400024414,11.769236740722656Q20.038869400024414,11.869696740722656,20.019269400024413,11.968226740722656Q19.999671400024415,12.066756740722656,19.961226400024415,12.159566740722656Q19.922781400024412,12.252386740722656,19.866968400024415,12.335916740722656Q19.811155400024415,12.419446740722655,19.740118400024414,12.490476740722656Q19.669081400024414,12.561516740722656,19.585551400024414,12.617326740722657Q19.502020400024414,12.673146740722657,19.409206400024413,12.711586740722655Q19.316392400024412,12.750036740722656,19.217861400024415,12.769636740722657Q19.119330400024413,12.789226740722656,19.018869400024414,12.789236740722657Q18.918408400024415,12.789226740722656,18.819877400024414,12.769636740722657Q18.721346400024416,12.750036740722656,18.628532400024415,12.711586740722655Q18.535718400024415,12.673146740722657,18.452187400024414,12.617326740722657Q18.368657400024414,12.561516740722656,18.297620400024414,12.490476740722656Q18.226583400024413,12.419446740722655,18.170770400024413,12.335916740722656Q18.114957400024416,12.252386740722656,18.076512400024413,12.159566740722656Q18.038067400024413,12.066756740722656,18.018469400024415,11.968226740722656Q17.998869400024414,11.869696740722656,17.998869400024414,11.769236740722656Q17.998869400024414,11.668766740722656,18.018469400024415,11.570236740722656Q18.038067400024413,11.471706740722656,18.076512400024413,11.378896740722656Q18.114957400024416,11.286076740722656,18.170770400024413,11.202546740722656Q18.226583400024413,11.119016740722657,18.297620400024414,11.047986740722656Q18.368657400024414,10.976946740722656,18.452187400024414,10.921136740722655Q18.535718400024415,10.865316740722657,18.628532400024415,10.826876740722657Q18.721346400024416,10.788426740722656,18.819877400024414,10.768826740722655Q18.918408400024415,10.749236740722656,19.018869400024414,10.749236740722656Q19.119330400024413,10.749236740722656,19.217861400024415,10.768826740722655Q19.316392400024412,10.788426740722656,19.409206400024413,10.826876740722657Q19.502020400024414,10.865316740722657,19.585551400024414,10.921136740722655Q19.669081400024414,10.976946740722656,19.740118400024414,11.047986740722656Q19.811155400024415,11.119016740722657,19.866968400024415,11.202546740722656Q19.922781400024412,11.286076740722656,19.961226400024415,11.378896740722656Q19.999671400024415,11.471706740722656,20.019269400024413,11.570236740722656Q20.038869400024414,11.668766740722656,20.038869400024414,11.769236740722656Z" fill="#FFFFFF" fill-opacity="1" fill-rule="evenodd"/></g><g style="mix-blend-mode:passthrough"><rect x="12.56576156616211" y="28.038612365722656" width="4.754716873168945" height="1.384615421295166" rx="0.692307710647583" fill="#FFFFFF" fill-opacity="1"/></g><g style="mix-blend-mode:passthrough"><rect x="18.67904281616211" y="28.038612365722656" width="1.3584904670715332" height="1.384615421295166" rx="0.6792452335357666" fill="#FFFFFF" fill-opacity="1"/></g><g style="mix-blend-mode:passthrough"><rect x="30.905662536621094" y="23.192420959472656" width="1.3584904670715332" height="1.384615421295166" rx="0.6792452335357666" fill="#FFFFFF" fill-opacity="1"/></g></g></g></g></g><g style="mix-blend-mode:passthrough"><path d="M65.0625,30.631999523162843L68.375,30.631999523162843L70.7734,21.22569952316284C71.2031,19.29609952316284,71.6875,15.803899523162842,71.6875,15.803899523162842L71.7344,15.803899523162842C71.7344,15.803899523162842,72.1875,19.29609952316284,72.6719,21.210099523162842L74.9531,30.631999523162843L78.1875,30.631999523162843L83.1328,12.631999523162841L79.7266,12.631999523162841L77.6172,21.30389952316284C77.0625,23.54609952316284,76.5781,27.24919952316284,76.5781,27.24919952316284L76.5312,27.24919952316284C76.5312,27.24919952316284,76.0078,23.42109952316284,75.5,21.24139952316284L73.3438,12.631999523162841L70.0781,12.631999523162841L67.89062,21.264799523162843C67.39062,23.42109952316284,66.8125,27.24919952316284,66.8125,27.24919952316284L66.76562,27.24919952316284C66.76562,27.24919952316284,66.35938,23.569499523162843,65.82812,21.35859952316284L63.71875,12.631999523162841L60.304688,12.631999523162841L65.0625,30.631999523162843ZM89.5703,29.04609952316284C88.3906,29.04609952316284,87.3594,28.61639952316284,87.3594,27.17109952316284C87.3594,25.67109952316284,88.4375,25.264799523162843,90.3125,24.881999523162843C91.25,24.67889952316284,92.21090000000001,24.397599523162842,92.8125,23.99139952316284L92.8125,25.99919952316284C92.8125,27.522599523162842,91.6562,29.04609952316284,89.5703,29.04609952316284ZM88.6797,31.131999523162843C90.7188,31.131999523162843,91.875,30.29609952316284,92.71090000000001,29.17109952316284L92.7578,29.17109952316284C92.83590000000001,29.827299523162843,93,30.342899523162842,93.1953,30.631999523162843L96.14840000000001,30.631999523162843L96.14840000000001,30.42109952316284C95.8594,30.217899523162842,95.66409999999999,29.655399523162842,95.66409999999999,28.56169952316284L95.66409999999999,21.60069952316284C95.66409999999999,19.842899523162842,95.03909999999999,18.60069952316284,93.8438,17.88199952316284C93,17.35069952316284,91.875,17.13199952316284,90.4062,17.13199952316284C86.7578,17.13199952316284,85.0312,19.124199523162844,84.9375,21.37419952316284L87.8203,21.37419952316284C87.8906,20.061699523162844,88.7266,19.249199523162844,90.4297,19.249199523162844C91.9688,19.249199523162844,92.7344,20.014799523162843,92.7344,21.155399523162842C92.7344,22.342899523162842,91.6797,22.694499523162843,89.5703,22.960099523162842C86.5234,23.335099523162842,84.3125,24.05389952316284,84.3125,27.05389952316284C84.3125,29.842899523162842,86.1875,31.131999523162843,88.6797,31.131999523162843ZM98.4375,30.631999523162843L101.5078,30.631999523162843L101.5078,12.631999523162841L98.4375,12.631999523162841L98.4375,30.631999523162843ZM104.4375,30.631999523162843L107.5078,30.631999523162843L107.5078,12.631999523162841L104.4375,12.631999523162841L104.4375,30.631999523162843ZM116.10159999999999,19.342899523162842C117.9453,19.342899523162842,119.0781,20.772599523162842,119.1953,23.131999523162843L112.8125,23.131999523162843C113.0781,20.874199523162844,114.1094,19.342899523162842,116.10159999999999,19.342899523162842ZM122.10159999999999,27.10069952316284L119.125,27.10069952316284C118.7188,28.17109952316284,117.7578,28.80389952316284,116.28909999999999,28.80389952316284C114.1797,28.80389952316284,112.97659999999999,27.29609952316284,112.7656,25.05389952316284L122.3438,25.05389952316284C122.3672,22.62419952316284,121.7656,20.36639952316284,120.5156,18.936699523162844C119.4375,17.780399523162842,117.97659999999999,17.13199952316284,116.10159999999999,17.13199952316284C112.3047,17.13199952316284,109.7422,20.17889952316284,109.7422,24.31169952316284C109.7422,28.147599523162842,112.1875,31.131999523162843,116.2656,31.131999523162843C119.41409999999999,31.131999523162843,121.47659999999999,29.42889952316284,122.10159999999999,27.10069952316284ZM131.08589999999998,30.444499523162843L131.08589999999998,28.069499523162843L130.9375,28.069499523162843C130.7031,28.11639952316284,130.2656,28.16319952316284,129.9531,28.16319952316284C129.0938,28.16319952316284,128.58589999999998,27.897599523162842,128.58589999999998,26.952299523162843L128.58589999999998,19.72569952316284L131.1562,19.72569952316284L131.1562,17.63199952316284L128.58589999999998,17.63199952316284L128.58589999999998,13.553869523162842L125.5859,13.553869523162842L125.5859,17.63199952316284L123.6172,17.63199952316284L123.6172,19.72569952316284L125.5859,19.72569952316284L125.5859,27.631999523162843C125.5859,29.889799523162843,127.0078,30.631999523162843,129.0703,30.631999523162843C129.8828,30.631999523162843,130.5781,30.53819952316284,131.08589999999998,30.444499523162843Z" fill="#3D3D3D" fill-opacity="1"/></g></g></g></svg>